<svg width="40" height="33" viewBox="0 0 40 33" fill="none" xmlns="http://www.w3.org/2000/svg">
<path d="M12.2995 16.2871L16.5775 0H8.02139L2.35294 15.1161C0.427808 20.0129 0 21.8226 0 24.271C0 29.3806 3.63636 33 8.77005 33C13.5829 33 17.3262 29.4871 17.3262 24.271C17.3262 20.3323 15.4011 17.5645 12.2995 16.2871ZM34.9733 16.2871L39.2513 0H30.6952L25.0267 15.1161C23.1016 20.0129 22.6738 21.8226 22.6738 24.271C22.6738 29.3806 26.3102 33 31.4438 33C36.2567 33 40 29.4871 40 24.271C40 20.3323 38.0749 17.5645 34.9733 16.2871Z" fill="#36B4F1"/>
</svg>
