<svg width="38" height="20" viewBox="0 0 38 20" fill="none" xmlns="http://www.w3.org/2000/svg">
<path fill-rule="evenodd" clip-rule="evenodd" d="M37.8867 10C37.8867 9.70536 37.7697 9.42278 37.5613 9.21444C37.353 9.00609 37.0704 8.88904 36.7758 8.88904H3.90611L10.8985 1.89892C11.1071 1.69031 11.2243 1.40737 11.2243 1.11236C11.2243 0.817343 11.1071 0.53441 10.8985 0.325802C10.6899 0.117194 10.4069 6.95081e-09 10.1119 0C9.81689 -6.95081e-09 9.53395 0.117194 9.32535 0.325802L0.437702 9.21344C0.334244 9.31664 0.252163 9.43924 0.196156 9.57421C0.140148 9.70918 0.11132 9.85387 0.11132 10C0.11132 10.1461 0.140148 10.2908 0.196156 10.4258C0.252163 10.5608 0.334244 10.6834 0.437702 10.7866L9.32535 19.6742C9.53395 19.8828 9.81689 20 10.1119 20C10.4069 20 10.6899 19.8828 10.8985 19.6742C11.1071 19.4656 11.2243 19.1827 11.2243 18.8876C11.2243 18.5926 11.1071 18.3097 10.8985 18.1011L3.90611 11.111H36.7758C37.0704 11.111 37.353 10.9939 37.5613 10.7856C37.7697 10.5772 37.8867 10.2946 37.8867 10Z" fill="#D8DDE4"/>
</svg>
