<svg width="16" height="27" viewBox="0 0 16 27" fill="none" xmlns="http://www.w3.org/2000/svg">
<path d="M12.2543 1.01543L12.2547 1.01505C12.9434 0.328073 14.0582 0.328711 14.7476 1.0146L14.7476 1.0146L14.748 1.01505C15.4371 1.7024 15.4372 2.81876 14.7482 3.5062C14.7482 3.50627 14.7481 3.50634 14.748 3.50641L4.75147 13.4993L14.7468 23.4922C14.7469 23.4923 14.747 23.4924 14.7471 23.4925C15.4362 24.1802 15.4354 25.2962 14.7472 25.9844L14.7468 25.9848C14.0583 26.6716 12.9419 26.6716 12.2535 25.9848L12.2531 25.9845L1.01068 14.7458L1.01021 14.7453C0.329846 14.0634 0.329185 12.9349 1.01236 12.2537L12.2543 1.01543Z" fill="#2F2F2F" stroke="#EEF3F7"/>
</svg>
