<svg width="32" height="32" viewBox="0 0 32 32" fill="none" xmlns="http://www.w3.org/2000/svg">
<g clip-path="url(#clip0_946_59611)">
<path d="M16.3057 14.4439C15.0313 15.2954 13.533 15.75 12.0002 15.75C9.94538 15.748 7.97527 14.9308 6.52226 13.4777C5.06928 12.0248 4.25208 10.0547 4.25 7.99987C4.25003 6.46711 4.70455 4.96878 5.55611 3.69433C6.40769 2.41985 7.61808 1.42652 9.0342 0.839937C10.4503 0.253358 12.0086 0.0998822 13.5119 0.398918C15.0153 0.697953 16.3962 1.43607 17.4801 2.51993C18.5639 3.60378 19.302 4.9847 19.6011 6.48805C19.9001 7.99141 19.7466 9.54967 19.1601 10.9658C18.5735 12.3819 17.5801 13.5923 16.3057 14.4439ZM15.1019 3.35763C14.1838 2.74413 13.1043 2.41667 12 2.41667C10.5192 2.41667 9.09906 3.00491 8.05199 4.05199C7.00491 5.09907 6.41667 6.51921 6.41667 8C6.41667 9.10428 6.74412 10.1838 7.35763 11.1019C7.97113 12.0201 8.84313 12.7357 9.86335 13.1583C10.8836 13.5809 12.0062 13.6915 13.0893 13.4761C14.1723 13.2606 15.1672 12.7289 15.948 11.948C16.7289 11.1672 17.2606 10.1723 17.4761 9.08926C17.6915 8.0062 17.5809 6.88358 17.1583 5.86336C16.7357 4.84313 16.0201 3.97114 15.1019 3.35763Z" fill="#333333" fill-opacity="0.3" stroke="#EEF3F7" stroke-width="0.5"/>
<path d="M3.69578 22.3618C5.8985 20.1591 8.8849 18.9199 12 18.916C15.1151 18.9199 18.1015 20.1591 20.3042 22.3618C22.507 24.5646 23.7462 27.5511 23.75 30.6663C23.7499 30.9535 23.6358 31.229 23.4327 31.432C23.2295 31.6352 22.954 31.7493 22.6667 31.7493C22.3793 31.7493 22.1038 31.6352 21.9006 31.432C21.6975 31.2289 21.5833 30.9533 21.5833 30.666C21.5833 28.1244 20.5737 25.6868 18.7764 23.8896C16.9792 22.0924 14.5417 21.0827 12 21.0827C9.45834 21.0827 7.02078 22.0924 5.22356 23.8896C3.42634 25.6868 2.41667 28.1244 2.41667 30.666C2.41667 30.9533 2.30253 31.2289 2.09937 31.432C1.8962 31.6352 1.62065 31.7493 1.33333 31.7493C1.04602 31.7493 0.770465 31.6352 0.567301 31.432C0.364172 31.2289 0.25004 30.9534 0.25 30.6662C0.253841 27.551 1.49303 24.5645 3.69578 22.3618Z" fill="#333333" fill-opacity="0.3" stroke="#EEF3F7" stroke-width="0.5"/>
<path d="M29.333 10.5C28.5909 10.537 27.8938 10.8664 27.394 11.4161C26.8942 11.9658 26.6326 12.6911 26.6663 13.4333C26.7 12.6911 26.4384 11.9658 25.9386 11.4161C25.4388 10.8664 24.7417 10.537 23.9996 10.5C23.2576 10.537 22.5604 10.8664 22.0607 11.4161C21.5609 11.9658 21.2993 12.6911 21.333 13.4333C21.333 15.74 24.341 18.4427 25.8396 19.6453C26.0742 19.8332 26.3658 19.9355 26.6663 19.9355C26.9668 19.9355 27.2584 19.8332 27.493 19.6453C28.9916 18.4453 31.9996 15.74 31.9996 13.4333C32.0334 12.6911 31.7717 11.9658 31.2719 11.4161C30.7722 10.8664 30.075 10.537 29.333 10.5Z" fill="#333333" fill-opacity="0.3"/>
</g>
<defs>
<clipPath id="clip0_946_59611">
<rect width="32" height="32" fill="white"/>
</clipPath>
</defs>
</svg>
