<svg width="32" height="29" viewBox="0 0 32 29" fill="none" xmlns="http://www.w3.org/2000/svg">
<path d="M18.803 25.2063L18.714 25.2812C17.9542 25.921 16.9929 26.2718 15.9996 26.2718C15.0064 26.2718 14.0452 25.921 13.2854 25.2813C13.2854 25.2813 13.2853 25.2812 13.2853 25.2812L13.4463 25.09C6.59562 19.342 2.66629 13.8273 2.66629 9.95664L18.803 25.2063ZM18.803 25.2063V25.2012C22.1967 22.3467 24.8772 19.5437 26.7156 16.9637C28.5635 14.3703 29.5807 11.9744 29.5829 9.96339C29.6758 8.21278 29.0735 6.49622 27.9071 5.18725C26.7392 3.87661 25.1004 3.08094 23.3482 2.97377L23.333 2.97284L23.3177 2.97377C21.5655 3.08094 19.9267 3.87661 18.7588 5.18725C17.5925 6.49611 16.9903 8.21248 17.0829 9.96294C17.0813 10.248 16.9673 10.521 16.7657 10.7227C16.5625 10.9258 16.2869 11.04 15.9996 11.04C15.7123 11.04 15.4368 10.9258 15.2336 10.7227C15.0319 10.521 14.918 10.248 14.9163 9.96297C15.009 8.2125 14.4068 6.49612 13.2404 5.18725C12.0725 3.87661 10.4338 3.08094 8.68155 2.97377L8.66629 2.97284L8.65103 2.97377C6.8988 3.08094 5.26002 3.87661 4.09212 5.18725C2.92571 6.49622 2.32349 8.21278 2.41629 9.9634L18.803 25.2063ZM15.7809 5.0777L15.9996 5.4729L16.2183 5.0777C16.9242 3.80242 17.9541 2.73597 19.2039 1.98604C20.4517 1.23738 21.8746 0.830652 23.3295 0.806728C25.6541 0.909676 27.844 1.92748 29.4214 3.63841C31.0006 5.35115 31.8376 7.61926 31.7498 9.94721L31.7496 9.94721V9.95664C31.7496 12.9057 30.1941 16.0223 27.941 18.9819C25.6925 21.9355 22.7746 24.6996 20.1056 26.9384L20.1054 26.9386C18.9555 27.9049 17.5016 28.4347 15.9996 28.4347C14.4976 28.4347 13.0437 27.9049 11.8938 26.9386L11.8936 26.9384C9.22462 24.6996 6.30678 21.9355 4.0582 18.9819C1.80512 16.0223 0.249619 12.9057 0.249619 9.95664H0.249797L0.249441 9.94721C0.161598 7.61926 0.998676 5.35115 2.5778 3.63841C4.15525 1.92748 6.34509 0.909676 8.66977 0.806728C10.1246 0.830652 11.5475 1.23738 12.7953 1.98604C14.0452 2.73597 15.075 3.80242 15.7809 5.0777Z" fill="#333333" fill-opacity="0.3" stroke="#EEF3F7" stroke-width="0.5"/>
</svg>
