<svg width="32" height="32" viewBox="0 0 32 32" fill="none" xmlns="http://www.w3.org/2000/svg">
<g clip-path="url(#clip0_1158_41390)">
<path d="M25.3333 5.33333H23.8667C23.5572 3.82855 22.7384 2.47646 21.5483 1.50496C20.3582 0.533453 18.8696 0.00193937 17.3333 0L14.6667 0C13.1304 0.00193937 11.6418 0.533453 10.4517 1.50496C9.26157 2.47646 8.4428 3.82855 8.13333 5.33333H6.66667C4.89921 5.33545 3.20474 6.03851 1.95496 7.28829C0.705176 8.53808 0.00211714 10.2325 0 12L0 16H32V12C31.9979 10.2325 31.2948 8.53808 30.045 7.28829C28.7953 6.03851 27.1008 5.33545 25.3333 5.33333ZM10.912 5.33333C11.1868 4.55612 11.695 3.88279 12.3671 3.40545C13.0392 2.92811 13.8423 2.67008 14.6667 2.66667H17.3333C18.1577 2.67008 18.9608 2.92811 19.6329 3.40545C20.305 3.88279 20.8132 4.55612 21.088 5.33333H10.912Z" fill="white"/>
<path d="M17.3333 19.9993C17.3333 20.353 17.1929 20.6921 16.9428 20.9422C16.6928 21.1922 16.3536 21.3327 16 21.3327C15.6464 21.3327 15.3072 21.1922 15.0572 20.9422C14.8071 20.6921 14.6667 20.353 14.6667 19.9993V18.666H0V25.3327C0.00211714 27.1001 0.705176 28.7946 1.95496 30.0444C3.20474 31.2942 4.89921 31.9972 6.66667 31.9993H25.3333C27.1008 31.9972 28.7953 31.2942 30.045 30.0444C31.2948 28.7946 31.9979 27.1001 32 25.3327V18.666H17.3333V19.9993Z" fill="white"/>
</g>
<defs>
<clipPath id="clip0_1158_41390">
<rect width="32" height="32" fill="white"/>
</clipPath>
</defs>
</svg>
