<svg width="20" height="24" viewBox="0 0 20 24" fill="none" xmlns="http://www.w3.org/2000/svg">
<path d="M10 15.0007C9.73479 15.0007 9.48043 14.8954 9.2929 14.7078C9.10536 14.5203 9 14.2659 9 14.0007C9.03714 13.3473 9.23593 12.7133 9.57855 12.1557C9.92116 11.598 10.3969 11.1342 10.963 10.8057C11.3329 10.603 11.629 10.2881 11.8087 9.90649C11.9884 9.52483 12.0424 9.09602 11.963 8.68173C11.886 8.28601 11.6925 7.92232 11.4075 7.63726C11.1224 7.35219 10.7587 7.15875 10.363 7.08173C10.0741 7.02841 9.77706 7.03938 9.49291 7.11386C9.20876 7.18834 8.9445 7.32449 8.71893 7.51265C8.49335 7.70081 8.31199 7.93635 8.18773 8.20252C8.06348 8.4687 7.99938 8.75898 8 9.05273C8 9.31794 7.89465 9.5723 7.70711 9.75983C7.51957 9.94737 7.26522 10.0527 7 10.0527C6.73479 10.0527 6.48043 9.94737 6.2929 9.75983C6.10536 9.5723 6 9.31794 6 9.05273C5.9999 8.46848 6.12779 7.8913 6.37467 7.36178C6.62155 6.83226 6.98143 6.36325 7.429 5.98773C7.85676 5.63013 8.35454 5.36591 8.89042 5.21201C9.42629 5.05811 9.98842 5.01794 10.5407 5.09407C11.0931 5.1702 11.6234 5.36095 12.0976 5.65409C12.5719 5.94722 12.9796 6.33626 13.2947 6.79625C13.6097 7.25623 13.8251 7.777 13.9271 8.32513C14.029 8.87327 14.0153 9.43667 13.8867 9.97917C13.7581 10.5217 13.5175 11.0313 13.1804 11.4754C12.8432 11.9194 12.417 12.2881 11.929 12.5577C11.6762 12.7135 11.4614 12.924 11.3007 13.1738C11.1399 13.4235 11.0372 13.7061 11 14.0007C11 14.2659 10.8946 14.5203 10.7071 14.7078C10.5196 14.8954 10.2652 15.0007 10 15.0007ZM10.793 23.7607C12.953 22.8927 20 19.4797 20 12.0437V6.87273C20.0011 5.82174 19.6705 4.7972 19.0554 3.94504C18.4403 3.09288 17.5719 2.45657 16.574 2.12673L10.315 0.0517262C10.1107 -0.0172421 9.88934 -0.0172421 9.685 0.0517262L3.426 2.12673C2.42811 2.45657 1.55975 3.09288 0.944604 3.94504C0.329456 4.7972 -0.00110546 5.82174 2.7775e-06 6.87273V12.0437C2.7775e-06 18.6057 7.005 22.6197 9.153 23.6937C9.41269 23.8502 9.70039 23.9544 10 24.0007C10.277 23.9707 10.5459 23.8893 10.793 23.7607ZM15.944 4.02473C16.5425 4.22314 17.0633 4.6051 17.4324 5.11636C17.8015 5.62762 18.0001 6.24217 18 6.87273V12.0437C18 18.2267 11.913 21.1547 10.047 21.9047C8.159 20.9607 2 17.4597 2 12.0437V6.87273C1.99992 6.24217 2.19852 5.62762 2.56761 5.11636C2.93669 4.6051 3.45748 4.22314 4.056 4.02473L10 2.05473L15.944 4.02473ZM10 17.0007C9.80222 17.0007 9.60888 17.0594 9.44443 17.1693C9.27998 17.2791 9.15181 17.4353 9.07612 17.618C9.00044 17.8008 8.98063 18.0018 9.01922 18.1958C9.0578 18.3898 9.15304 18.568 9.2929 18.7078C9.43275 18.8477 9.61093 18.9429 9.80491 18.9815C9.99889 19.0201 10.2 19.0003 10.3827 18.9246C10.5654 18.8489 10.7216 18.7207 10.8315 18.5563C10.9414 18.3918 11 18.1985 11 18.0007C11 17.7355 10.8946 17.4812 10.7071 17.2936C10.5196 17.1061 10.2652 17.0007 10 17.0007Z" fill="#D8DDE4"/>
</svg>
