<svg width="11" height="19" viewBox="0 0 11 19" fill="none" xmlns="http://www.w3.org/2000/svg">
<path d="M2.77074 0.904342L2.77036 0.903947C2.25093 0.365094 1.40202 0.365759 0.882363 0.903494L0.882362 0.903494L0.881925 0.903947C0.372763 1.43215 0.372692 2.28214 0.881712 2.81043C0.881783 2.8105 0.881854 2.81058 0.881925 2.81065L7.3158 9.4996L0.88274 16.1885L1.24272 16.5355L0.882343 16.1889L0.882468 16.1888C0.373271 16.7173 0.373979 17.5669 0.882301 18.0956L0.882739 18.0961C1.40192 18.6347 2.25199 18.6347 2.77117 18.0961L2.77155 18.0957L10.1222 10.4533L10.1227 10.4529C10.6257 9.92846 10.6264 9.07038 10.121 8.54622L2.77074 0.904342Z" fill="#2F2F2F" stroke="#EEF3F7"/>
</svg>
