<svg width="24" height="25" viewBox="0 0 24 25" fill="none" xmlns="http://www.w3.org/2000/svg">
<path d="M17.8611 18.8C16.4141 18.8 15.2453 19.9746 15.2453 21.4158C15.2453 22.8628 16.4199 24.0315 17.8611 24.0315C19.3023 24.0315 20.4768 22.8628 20.4768 21.4158C20.4768 19.9743 19.3026 18.8 17.8611 18.8ZM17.8611 22.5835C17.2169 22.5835 16.6934 22.0599 16.6934 21.4158C16.6934 20.7716 17.2169 20.2481 17.8611 20.2481C18.5052 20.2481 19.0288 20.7716 19.0288 21.4158C19.0288 22.0647 18.5057 22.5835 17.8611 22.5835Z" fill="#36B4F1" stroke="#36B4F1" stroke-width="0.4"/>
<path d="M9.56889 18.8H9.56811C8.12138 18.8 6.95234 19.969 6.95234 21.4158C6.95234 22.8625 8.12138 24.0315 9.56811 24.0315C11.0148 24.0315 12.1839 22.8625 12.1839 21.4158L12.1839 21.415C12.1782 19.9741 11.0098 18.8057 9.56889 18.8ZM10.7358 21.4203C10.731 22.0608 10.2113 22.5835 9.56811 22.5835C8.92396 22.5835 8.4004 22.0599 8.4004 21.4158C8.4004 20.7716 8.92396 20.2481 9.56811 20.2481C10.2122 20.2481 10.7358 20.7716 10.7358 21.4158V21.4158V21.4158V21.4158V21.4158V21.4158V21.4158V21.4158V21.4158V21.4158V21.4158V21.4158V21.4158V21.4158V21.4158V21.4158V21.4158V21.4158V21.4158V21.4158V21.4158V21.4158V21.4158V21.4158V21.4158V21.4158V21.4158V21.4158V21.4158V21.4158V21.4158V21.4158V21.4158V21.4158V21.4158V21.4159V21.4159V21.4159V21.4159V21.4159V21.4159V21.4159V21.4159V21.4159V21.4159V21.4159V21.4159V21.4159V21.4159V21.4159V21.4159V21.4159V21.4159V21.4159V21.4159V21.4159V21.4159V21.4159V21.4159V21.4159V21.4159V21.4159V21.4159V21.4159V21.4159V21.4159V21.4159V21.4159V21.4159V21.4159V21.4159V21.4159V21.4159V21.4159V21.416V21.416V21.416V21.416V21.416V21.416V21.416V21.416V21.416V21.416V21.416V21.416V21.416V21.416V21.416V21.416V21.416V21.416V21.416V21.416V21.416V21.416V21.416V21.416V21.416V21.416V21.4161V21.4161V21.4161V21.4161V21.4161V21.4161V21.4161V21.4161V21.4161V21.4161V21.4161V21.4161V21.4161V21.4161V21.4161V21.4161V21.4161V21.4161V21.4161V21.4161V21.4162V21.4162V21.4162V21.4162V21.4162V21.4162V21.4162V21.4162V21.4162V21.4162V21.4162V21.4162V21.4162V21.4162V21.4162V21.4162V21.4162V21.4162V21.4163V21.4163V21.4163V21.4163V21.4163V21.4163V21.4163V21.4163V21.4163V21.4163V21.4163V21.4163V21.4163V21.4163V21.4163V21.4164V21.4164V21.4164V21.4164V21.4164V21.4164V21.4164V21.4164V21.4164V21.4164V21.4164V21.4164V21.4164V21.4165V21.4165V21.4165V21.4165V21.4165V21.4165V21.4165V21.4165V21.4165V21.4165V21.4165V21.4165V21.4166V21.4166V21.4166V21.4166V21.4166V21.4166V21.4166V21.4166V21.4166V21.4166V21.4166V21.4167V21.4167V21.4167V21.4167V21.4167V21.4167V21.4167V21.4167V21.4167V21.4167V21.4167V21.4168V21.4168V21.4168V21.4168V21.4168V21.4168V21.4168V21.4168V21.4168V21.4169V21.4169V21.4169V21.4169V21.4169V21.4169V21.4169V21.4169V21.4169V21.417V21.417V21.417V21.417V21.417V21.417V21.417V21.417V21.417V21.4171V21.4171V21.4171V21.4171V21.4171V21.4171V21.4171V21.4171V21.4172V21.4172V21.4172V21.4172V21.4172V21.4172V21.4172V21.4172V21.4173V21.4173V21.4173V21.4173V21.4173V21.4173V21.4173V21.4174V21.4174V21.4174V21.4174V21.4174V21.4174V21.4174V21.4175V21.4175V21.4175V21.4175V21.4175V21.4175V21.4175V21.4176V21.4176V21.4176V21.4176V21.4176V21.4176V21.4177V21.4177V21.4177V21.4177V21.4177V21.4177V21.4177V21.4178V21.4178V21.4178V21.4178V21.4178V21.4178V21.4179V21.4179V21.4179V21.4179V21.4179V21.4179V21.418V21.418V21.418V21.418V21.418V21.418V21.4181V21.4181V21.4181V21.4181V21.4181V21.4182V21.4182V21.4182V21.4182V21.4182V21.4182V21.4183V21.4183V21.4183V21.4183V21.4183V21.4184V21.4184V21.4184V21.4184V21.4184V21.4185V21.4185V21.4185V21.4185V21.4185V21.4186V21.4186V21.4186V21.4186V21.4186V21.4187V21.4187V21.4187V21.4187V21.4187V21.4188V21.4188V21.4188V21.4188V21.4189V21.4189V21.4189V21.4189V21.4189V21.419V21.419V21.419V21.419V21.419V21.4191V21.4191V21.4191V21.4191V21.4192V21.4192V21.4192V21.4192V21.4193V21.4193V21.4193V21.4193V21.4193V21.4194V21.4194V21.4194V21.4194V21.4195V21.4195V21.4195V21.4195V21.4196V21.4196V21.4196V21.4196V21.4197V21.4197V21.4197V21.4197V21.4198V21.4198V21.4198V21.4198V21.4199V21.4199V21.4199V21.42V21.42V21.42V21.42V21.4201V21.4201V21.4201V21.4201V21.4202V21.4202V21.4202V21.4202V21.4203V21.4203Z" fill="#36B4F1" stroke="#36B4F1" stroke-width="0.4"/>
<path d="M14.2954 0.569554C13.897 0.569688 13.5718 0.894765 13.5716 1.29316V1.29358L13.5563 8.63986L6.56186 8.64977V6.62294C6.56186 4.76212 5.05222 3.2529 3.1921 3.24733H3.1915H1.13731C0.738637 3.24733 0.413281 3.57269 0.413281 3.97136C0.413281 4.37003 0.738636 4.69539 1.13731 4.69539H3.19107C4.25382 4.70039 5.10883 5.56398 5.11381 6.62342V8.65006H4.99939C4.60072 8.65006 4.27536 8.97541 4.27536 9.37408C4.27536 14.227 8.20594 18.1575 13.0535 18.1629H13.0537H13.0538H13.0538H13.0539H13.0539H13.054H13.0541H13.0541H13.0542H13.0542H13.0543H13.0544H13.0544H13.0545H13.0546H13.0546H13.0547H13.0547H13.0548H13.0549H13.0549H13.055H13.055H13.0551H13.0552H13.0552H13.0553H13.0553H13.0554H13.0555H13.0555H13.0556H13.0557H13.0557H13.0558H13.0558H13.0559H13.056H13.056H13.0561H13.0561H13.0562H13.0563H13.0563H13.0564H13.0565H13.0565H13.0566H13.0566H13.0567H13.0568H13.0568H13.0569H13.0569H13.057H13.0571H13.0571H13.0572H13.0572H13.0573H13.0574H13.0574H13.0575H13.0576H13.0576H13.0577H13.0577H13.0578H13.0579H13.0579H13.058H13.058H13.0581H13.0582H13.0582H13.0583H13.0583H13.0584H13.0585H13.0585H13.0586H13.0586H13.0587H13.0588H13.0588H13.0589H13.0589H13.059H13.0591H13.0591H13.0592H13.0592H13.0593H13.0594H13.0594H13.0595H13.0596H13.0596H13.0597H13.0597H13.0598H13.0599H13.0599H13.06H13.06H13.0601H13.0602H13.0602H13.0603H13.0603H13.0604H13.0605H13.0605H13.0606H13.0606H13.0607H13.0608H13.0608H13.0609H13.0609H13.061H13.0611H13.0611H13.0612H13.0612H13.0613H13.0614H13.0614H13.0615H13.0615H13.0616H13.0616H13.0617H13.0618H13.0618H13.0619H13.0619H13.062H13.0621H13.0621H13.0622H13.0622H13.0623H13.0624H13.0624H13.0625H13.0625H13.0626H13.0627H13.0627H13.0628H13.0628H13.0629H13.0629H13.063H13.0631H13.0631H13.0632H13.0632H13.0633H13.0634H13.0634H13.0635H13.0635H13.0636H13.0636H13.0637H13.0638H13.0638H13.0639H13.0639H13.064H13.0641H13.0641H13.0642H13.0642H13.0643H13.0643H13.0644H13.0645H13.0645H13.0646H13.0646H13.0647H13.0647H13.0648H13.0649H13.0649H13.065H13.065H13.0651H13.0651H13.0652H13.0653H13.0653H13.0654H13.0654H13.0655H13.0655H13.0656H13.0657H13.0657H13.0658H13.0658H13.0659H13.0659H13.066H13.0661H13.0661H13.0662H13.0662H13.0663H13.0663H13.0664H13.0665H13.0665H13.0666H13.0666H13.0667H13.0667H13.0668H13.0668H13.0669H13.067H13.067H13.0671H13.0671H13.0672H13.0672H13.0673H13.0673H13.0674H13.0675H13.0675H13.0676H13.0676H13.0677H13.0677H13.0678H13.0678H13.0679H13.0679H13.068H13.0681H13.0681H13.0682H13.0682H13.0683H13.0683H13.0684H13.0684H13.0685H13.0685H13.0686H13.0686H13.0687H13.0688H13.0688H13.0689H13.0689H13.069H13.069H13.0691H13.0691H13.0692H13.0692H13.0693H13.0693H13.0694H13.0695H13.0695H13.0696H13.0696H13.0697H13.0697H13.0698H13.0698H13.0699H13.0699H13.07H13.07H13.0701H13.0701H13.0702H13.0702H13.0703H13.0703H13.0704H13.0704H13.0705H13.0705H13.0706H13.0707H13.0707H13.0708H13.0708H13.0709H13.0709H13.071H13.071H13.0711H13.0711H13.0712H13.0712H13.0713H13.0713H13.0714H13.0714H13.0715H13.0715H13.0716H13.0716H13.0717H13.0717H13.0718H13.0718H13.0719H13.0719H13.072H13.072H13.0721H13.0721H13.0722H13.0722H13.0723H13.0723H13.0724H13.0724H13.0725H13.0725H13.0726H13.0726H13.0726H13.0727H13.0727H13.0728H13.0728H13.0729H13.0729H13.073H13.073H13.0731H13.0731H13.0732H13.0732H13.0733H13.0733H13.0734H13.0734H13.0735H13.0735H13.0736H13.0736H13.0737H13.0737H13.0737H13.0738H13.0738H13.0739H13.0739H13.074H13.074H13.0741H13.0741H13.0742H13.0742H13.0743H13.0743H13.0743H13.0744H13.0744H13.0745H13.0745H13.0746H13.0746H13.0747H13.0747H13.0747H13.0748H13.0748H13.0749H13.0749H13.075H13.075H13.0751H13.0751H13.0751H13.0752H13.0752H13.0753H13.0753H13.0754H13.0754H13.0755H13.0755H13.0755H13.0756H13.0756H13.0757H13.0757H13.0758H13.0758H13.0758H13.0759H13.0759H13.076H13.076H13.0761H13.0761H13.0761H13.0762H13.0762H13.0763H13.0763H13.0763H13.0764H13.0764H13.0765H13.0765H13.0765H13.0766H13.0766H13.0767H13.0767H13.0768H13.0768H13.0768H13.0769H13.0769H13.077H13.077H13.077H13.0771H13.0771H13.0772H13.0772H13.0772H13.0773H13.0773H13.0773H13.0774H13.0774H13.0775H13.0775H13.0775H13.0776H13.0776H13.0777H13.0777H13.0777H13.0778H13.0778H13.0778H13.0779H13.0779H13.078H13.078H13.078H13.0781H13.0781H13.0781H13.0782H13.0782H13.0782H13.0783H13.0783H13.0784H13.0784H13.0784H13.0785H13.0785H13.0785H13.0786H13.0786H13.0786H13.0787H13.0787H13.0787H13.0788H13.0788H13.0788H13.0789H13.0789H13.079H13.079H13.079H13.0791H13.0791H13.0791H13.0792H13.0792H13.0792H13.0793H13.0793H13.0793H13.0794H13.0794H13.0794H13.0795H13.0795H13.0795H13.0795H13.0796H13.0796H13.0796H13.0797H13.0797H13.0797H13.0798H13.0798H13.0798H13.0799H13.0799L14.295 18.1629C14.2952 18.1629 14.2954 18.1629 14.2956 18.1629C19.1534 18.1787 23.105 14.2537 23.1211 9.39571V9.39504V9.39501V9.39498V9.39495V9.39492V9.39489V9.39486V9.39483V9.3948V9.39477V9.39474V9.39471V9.39468V9.39465V9.39461V9.39458V9.39455V9.39452V9.39449V9.39446V9.39443V9.3944V9.39437V9.39434V9.39431V9.39428V9.39425V9.39422V9.39419V9.39415V9.39412V9.39409V9.39406V9.39403V9.394V9.39397V9.39394V9.39391V9.39388V9.39385V9.39382V9.39379V9.39375V9.39372V9.39369V9.39366V9.39363V9.3936V9.39357V9.39354V9.39351V9.39348V9.39345V9.39342V9.39339V9.39336V9.39332V9.39329V9.39326V9.39323V9.3932V9.39317V9.39314V9.39311V9.39308V9.39305V9.39302V9.39299V9.39296V9.39293V9.3929V9.39286V9.39283V9.3928V9.39277V9.39274V9.39271V9.39268V9.39265V9.39262V9.39259V9.39256V9.39253V9.3925V9.39247V9.39244V9.3924V9.39237V9.39234V9.39231V9.39228V9.39225V9.39222V9.39219V9.39216V9.39213V9.3921V9.39207V9.39204V9.392V9.39197V9.39194V9.39191V9.39188V9.39185V9.39182V9.39179V9.39176V9.39173V9.3917V9.39167V9.39164V9.39161V9.39157V9.39154V9.39151V9.39148V9.39145V9.39142V9.39139V9.39136V9.39133V9.3913V9.39127V9.39124V9.39121V9.39118V9.39115V9.39111V9.39108V9.39105V9.39102V9.39099V9.39096V9.39093V9.3909V9.39087V9.39084V9.39081V9.39078V9.39075V9.39072V9.39069V9.39065V9.39062V9.39059V9.39056V9.39053V9.3905V9.39047V9.39044V9.39041V9.39038V9.39035V9.39032V9.39029V9.39025V9.39022V9.39019V9.39016V9.39013V9.3901V9.39007V9.39004V9.39001V9.38998V9.38995V9.38992V9.38989V9.38986V9.38982V9.38979V9.38976V9.38973V9.3897V9.38967V9.38964V9.38961V9.38958V9.38955V9.38952V9.38949V9.38946V9.38943V9.38939V9.38936V9.38933V9.3893V9.38927V9.38924V9.38921V9.38918V9.38915V9.38912V9.38909V9.38906V9.38903V9.389V9.38897V9.38894V9.3889V9.38887V9.38884V9.38881V9.38878V9.38875V9.38872V9.38869V9.38866V9.38863V9.3886V9.38857V9.38854V9.3885V9.38847V9.38844V9.38841V9.38838V9.38835V9.38832V9.38829V9.38826V9.38823V9.3882V9.38817V9.38814V9.38811V9.38807V9.38804V9.38801V9.38798V9.38795V9.38792V9.38789V9.38786V9.38783V9.3878V9.38777V9.38774V9.38771V9.38768V9.38764V9.38761V9.38758V9.38755V9.38752V9.38749V9.38746V9.38743V9.3874V9.38737V9.38734V9.38731V9.38728V9.38725V9.38722V9.38718V9.38715V9.38712V9.38709V9.38706V9.38703V9.387V9.38697V9.38694V9.38691V9.38688V9.38685V9.38682V9.38679V9.38675V9.38672V9.38669V9.38666V9.38663V9.3866V9.38657V9.38654V9.38651V9.38648V9.38645V9.38642V9.38639V9.38636V9.38632V9.38629V9.38626V9.38623V9.3862V9.38617V9.38614V9.38611V9.38608V9.38605V9.38602V9.38599V9.38596V9.38593V9.38589V9.38586V9.38583V9.3858V9.38577V9.38574V9.38571V9.38568V9.38565V9.38562V9.38559V9.38556V9.38553V9.3855V9.38546V9.38543V9.3854V9.38537V9.38534V9.38531V9.38528V9.38525V9.38522V9.38519V9.38516V9.38513V9.3851V9.38507V9.38504V9.385V9.38497V9.38494V9.38491V9.38488V9.38485V9.38482V9.38479V9.38476V9.38473V9.3847V9.38467V9.38464V9.38461V9.38457V9.38454V9.38451V9.38448V9.38445V9.38442V9.38439V9.38436V9.38433V9.3843V9.38427V9.38424V9.38421V9.38418V9.38414V9.38411V9.38408V9.38405V9.38402V9.38399V9.38396V9.38393V9.3839V9.38387V9.38384V9.38381V9.38378V9.38375V9.38371V9.38368V9.38365V9.38362V9.38359V9.38356V9.38353V9.3835V9.38347V9.38344V9.38341V9.38338V9.38335V9.38332V9.38328V9.38325V9.38322V9.38319V9.38316V9.38313V9.3831V9.38307V9.38304V9.38301V9.38298V9.38295V9.38292V9.38289V9.38286V9.38282V9.38279V9.38276V9.38273V9.3827V9.38267V9.38264V9.38261V9.38258V9.38255V9.38252V9.38249V9.38246V9.38243V9.38239V9.38236V9.38233V9.3823V9.38227V9.38224V9.38221V9.38218V9.38215V9.38212V9.38209V9.38206V9.38203V9.382V9.38196V9.38193V9.3819V9.38187V9.38184V9.38181V9.38178V9.38175V9.38172V9.38169V9.38166V9.38163V9.3816V9.38157V9.38153V9.3815V9.38147V9.38144V9.38141V9.38138V9.38135V9.38132V9.38129V9.38126V9.38123V9.3812V9.38117V9.38114V9.3811V9.38107V9.38104V9.38101V9.38098V9.38095V9.38092V9.38089V9.38086V9.38083V9.3808V9.38077V9.38074V9.38071V9.38068V9.38064V9.38061V9.38058V9.38055V9.38052V9.38049V9.38046V9.38043V9.3804V9.38037V9.38034V9.38031V9.38028V9.38025V9.38021V9.38018V9.38015V9.38012V9.38009V9.38006V9.38003V9.38V9.37997V9.37994V9.37991V9.37988V9.37985V9.37982V9.37978V9.37975V9.37972V9.37969V9.37966V9.37963V9.3796V9.37957V9.37954V9.37951V9.37948V9.37945V9.37942V9.37938V9.37935V9.37932V9.34788C23.1211 7.00866 22.1872 4.80981 20.5317 3.14893C18.8801 1.49195 16.6386 0.564248 14.2954 0.569554ZM14.2954 0.569554C14.2955 0.569554 14.2956 0.569554 14.2956 0.569554V0.769554L14.2952 0.569554C14.2952 0.569554 14.2953 0.569554 14.2954 0.569554ZM14.3009 16.9148C16.3079 16.9253 18.2363 16.1288 19.6512 14.7087L14.3009 16.9148ZM14.3009 16.9148H13.0851H14.3009ZM19.5101 14.567L19.5095 14.5675C18.1324 15.9498 16.2553 16.725 14.3019 16.7148H14.3009L13.0851 16.7148L13.0846 16.7148C9.2892 16.7249 6.12324 13.8452 5.76139 10.0926L14.2749 10.0824H14.2751L21.6255 10.0671C21.4682 11.7678 20.7194 13.3625 19.5101 14.567ZM14.9993 8.63928L15.019 2.05082C18.5003 2.39465 21.2642 5.14873 21.6183 8.62942L14.9993 8.63928Z" fill="#36B4F1" stroke="#36B4F1" stroke-width="0.4"/>
</svg>
