<svg width="25" height="24" viewBox="0 0 25 24" fill="none" xmlns="http://www.w3.org/2000/svg">
<path d="M17.3352 0C15.5208 0 13.8765 0.336 12.5914 0.969C11.3073 1.602 10.2519 2.633 10.2519 4V8C10.2519 8.129 10.2954 8.254 10.3156 8.375C9.30272 8.12064 8.26121 7.99463 7.21615 8C5.4018 8 3.75746 8.336 2.47234 8.969C1.18823 9.602 0.132812 10.633 0.132812 12V20C0.132812 21.367 1.18823 22.398 2.47335 23.031C3.75746 23.664 5.4018 24 7.21615 24C9.03049 24 10.6748 23.664 11.96 23.031C13.2431 22.398 14.2995 21.367 14.2995 20V19.594C15.2894 19.8585 16.3098 19.9949 17.3352 20C19.1495 20 20.7939 19.664 22.079 19.031C23.3621 18.398 24.4185 17.367 24.4185 16V4C24.4185 2.633 23.3631 1.602 22.078 0.969C20.7949 0.336 19.1506 0 17.3352 0ZM17.3352 2C18.8763 2 20.2485 2.328 21.1612 2.781C22.075 3.234 22.3947 3.711 22.3947 4C22.3947 4.29 22.075 4.766 21.1612 5.219C20.2495 5.672 18.8763 6 17.3352 6C15.7941 6 14.4219 5.672 13.5092 5.219C12.5954 4.766 12.2757 4.289 12.2757 4C12.2757 3.71 12.5954 3.234 13.5092 2.781C14.4209 2.328 15.7941 2 17.3352 2ZM12.2757 6.844C12.3819 6.902 12.4811 6.977 12.5924 7.031C13.8765 7.664 15.5208 8 17.3352 8C19.1495 8 20.7939 7.664 22.079 7.031C22.1893 6.977 22.2885 6.902 22.3947 6.844V8C22.3947 8.29 22.075 8.766 21.1612 9.219C20.2485 9.672 18.8763 10 17.3352 10C15.7941 10 14.4219 9.672 13.5092 9.219C12.5954 8.766 12.2757 8.289 12.2757 8V6.844ZM7.21615 10C8.75728 10 10.1294 10.328 11.0422 10.781C11.9559 11.234 12.2757 11.711 12.2757 12C12.2757 12.29 11.9559 12.766 11.0422 13.219C10.1294 13.672 8.75728 14 7.21615 14C5.67502 14 4.30287 13.672 3.39013 13.219C2.47638 12.766 2.15662 12.289 2.15662 12C2.15662 11.71 2.47638 11.234 3.39013 10.781C4.30186 10.328 5.67502 10 7.21615 10ZM22.3947 10.844V12C22.3947 12.29 22.075 12.766 21.1612 13.219C20.2485 13.672 18.8763 14 17.3352 14C16.3044 14.0055 15.2794 13.8472 14.2995 13.531V12C14.2995 11.871 14.256 11.746 14.2357 11.625C15.1768 11.867 16.2201 12 17.3352 12C19.1495 12 20.7939 11.664 22.079 11.031C22.1893 10.977 22.2885 10.902 22.3947 10.844ZM2.15662 14.844C2.26287 14.902 2.36204 14.977 2.47335 15.031C3.75746 15.664 5.4018 16 7.21615 16C9.03049 16 10.6748 15.664 11.96 15.031C12.0703 14.977 12.1694 14.902 12.2757 14.844V16C12.2757 16.29 11.9559 16.766 11.0422 17.219C10.1294 17.672 8.75728 18 7.21615 18C5.67502 18 4.30287 17.672 3.39013 17.219C2.47638 16.766 2.15662 16.289 2.15662 16V14.844ZM22.3947 14.844V16C22.3947 16.29 22.075 16.766 21.1612 17.219C20.2485 17.672 18.8763 18 17.3352 18C16.1847 18 15.1454 17.84 14.2995 17.562V15.625C15.2284 15.867 16.2403 16 17.3352 16C19.1495 16 20.7939 15.664 22.079 15.031C22.1893 14.977 22.2885 14.902 22.3947 14.844ZM2.15662 18.844C2.26287 18.902 2.36204 18.977 2.47335 19.031C3.75746 19.664 5.4018 20 7.21615 20C9.03049 20 10.6748 19.664 11.96 19.031C12.0703 18.977 12.1694 18.902 12.2757 18.844V20C12.2757 20.29 11.9559 20.766 11.0422 21.219C10.1294 21.672 8.75728 22 7.21615 22C5.67502 22 4.30287 21.672 3.39013 21.219C2.47638 20.766 2.15662 20.289 2.15662 20V18.844Z" fill="#D8DDE4"/>
</svg>
