<svg width="20" height="20" viewBox="0 0 20 20" fill="none" xmlns="http://www.w3.org/2000/svg">
<path d="M19.7563 4.41036L15.5896 0.243692C15.4325 0.0918938 15.222 0.00789844 15.0035 0.00979713C14.785 0.0116958 14.576 0.0993366 14.4215 0.253843C14.267 0.40835 14.1793 0.617361 14.1774 0.835858C14.1755 1.05436 14.2595 1.26486 14.4113 1.42203L15.9055 2.91619L14.6671 4.15203C13.8668 3.56437 12.8829 3.28184 11.8927 3.35533C10.9025 3.42882 9.97113 3.8535 9.26631 4.55286L4.20881 9.61286C3.66554 10.1532 3.23483 10.7959 2.94159 11.5038C2.64836 12.2118 2.49843 12.9708 2.50047 13.737V16.3204L0.244641 18.577C0.165049 18.6539 0.101564 18.7459 0.05789 18.8475C0.0142159 18.9492 -0.00877265 19.0585 -0.00973416 19.1692C-0.0106957 19.2798 0.0103891 19.3896 0.0522898 19.492C0.0941905 19.5944 0.156068 19.6874 0.234312 19.7657C0.312556 19.8439 0.405599 19.9058 0.508013 19.9477C0.610426 19.9896 0.720159 20.0107 0.830809 20.0097C0.941458 20.0088 1.05081 19.9858 1.15248 19.9421C1.25415 19.8984 1.3461 19.835 1.42297 19.7554L3.67881 17.4995H6.26214C7.02838 17.5016 7.78741 17.3516 8.49532 17.0584C9.20323 16.7652 9.84595 16.3345 10.3863 15.7912L15.4463 10.7312C16.1462 10.0272 16.5714 9.09623 16.645 8.10628C16.7187 7.11632 16.436 6.13265 15.848 5.33286L17.0838 4.09453L18.578 5.58869C18.7351 5.74049 18.9456 5.82449 19.1641 5.82259C19.3826 5.82069 19.5916 5.73305 19.7462 5.57854C19.9007 5.42403 19.9883 5.21502 19.9902 4.99653C19.9921 4.77803 19.9081 4.56753 19.7563 4.41036ZM14.2688 9.55286L9.20881 14.6129C8.82283 15.0009 8.36373 15.3085 7.85808 15.5179C7.35243 15.7273 6.81027 15.8344 6.26297 15.8329H4.16714V13.737C4.1674 13.464 4.19391 13.1916 4.24631 12.9237L5.24631 13.9237C5.32318 14.0033 5.41513 14.0668 5.5168 14.1104C5.61847 14.1541 5.72782 14.1771 5.83847 14.1781C5.94912 14.179 6.05886 14.1579 6.16127 14.116C6.26368 14.0741 6.35673 14.0123 6.43497 13.934C6.51321 13.8558 6.57509 13.7627 6.61699 13.6603C6.65889 13.5579 6.67998 13.4482 6.67902 13.3375C6.67805 13.2269 6.65507 13.1175 6.61139 13.0159C6.56772 12.9142 6.50423 12.8222 6.42464 12.7454L4.97381 11.2945C5.09942 11.1172 5.23873 10.95 5.39047 10.7945L6.25047 9.92786L7.74464 11.422C7.90181 11.5738 8.11231 11.6578 8.33081 11.6559C8.5493 11.654 8.75832 11.5664 8.91282 11.4119C9.06733 11.2574 9.15497 11.0484 9.15687 10.8299C9.15877 10.6114 9.07477 10.4009 8.92297 10.2437L7.42881 8.74953L8.75047 7.42786L10.2446 8.92203C10.4018 9.07382 10.6123 9.15782 10.8308 9.15592C11.0493 9.15402 11.2583 9.06638 11.4128 8.91188C11.5673 8.75737 11.655 8.54836 11.6569 8.32986C11.6588 8.11136 11.5748 7.90086 11.423 7.74369L9.92881 6.24953L10.4471 5.73119C10.9234 5.27688 11.5564 5.02341 12.2146 5.02341C12.8729 5.02341 13.5058 5.27688 13.9821 5.73119L14.2688 6.01786C14.7375 6.48668 15.0008 7.12245 15.0008 7.78536C15.0008 8.44827 14.7375 9.08404 14.2688 9.55286V9.55286Z" fill="#36B4F1"/>
</svg>
