<svg width="23" height="28" viewBox="0 0 23 28" fill="none" xmlns="http://www.w3.org/2000/svg">
<path d="M19.0681 2.49691L11.8634 0.05978C11.6275 -0.0199267 11.3725 -0.0199267 11.1366 0.05978L3.93185 2.49691C2.78634 2.88293 1.78988 3.62536 1.08404 4.61871C0.378205 5.61205 -0.00110592 6.80579 2.42203e-06 8.03032V14.0001C2.42203e-06 22.8234 10.58 27.6965 11.0331 27.8995C11.1801 27.9658 11.3392 28 11.5 28C11.6608 28 11.8199 27.9658 11.9669 27.8995C12.42 27.6965 23 22.8234 23 14.0001V8.03032C23.0011 6.80579 22.6218 5.61205 21.916 4.61871C21.2101 3.62536 20.2137 2.88293 19.0681 2.49691V2.49691ZM14.95 14.0001H12.65V16.3334C12.65 16.6428 12.5288 16.9395 12.3132 17.1583C12.0975 17.3771 11.805 17.5 11.5 17.5C11.195 17.5 10.9025 17.3771 10.6868 17.1583C10.4712 16.9395 10.35 16.6428 10.35 16.3334V14.0001H8.05C7.745 14.0001 7.45249 13.8772 7.23683 13.6584C7.02116 13.4396 6.9 13.1428 6.9 12.8334C6.9 12.524 7.02116 12.2273 7.23683 12.0085C7.45249 11.7897 7.745 11.6668 8.05 11.6668H10.35V9.33347C10.35 9.02406 10.4712 8.72731 10.6868 8.50853C10.9025 8.28974 11.195 8.16682 11.5 8.16682C11.805 8.16682 12.0975 8.28974 12.3132 8.50853C12.5288 8.72731 12.65 9.02406 12.65 9.33347V11.6668H14.95C15.255 11.6668 15.5475 11.7897 15.7632 12.0085C15.9788 12.2273 16.1 12.524 16.1 12.8334C16.1 13.1428 15.9788 13.4396 15.7632 13.6584C15.5475 13.8772 15.255 14.0001 14.95 14.0001Z" fill="white"/>
</svg>
