<svg width="22" height="28" viewBox="0 0 22 28" fill="none" xmlns="http://www.w3.org/2000/svg">
<path d="M15.6667 2.33333H15.4672C15.225 1.65141 14.7778 1.0611 14.1869 0.643351C13.596 0.225605 12.8903 0.000882872 12.1667 0L9.83333 0C9.10968 0.000882872 8.40402 0.225605 7.81312 0.643351C7.22222 1.0611 6.77501 1.65141 6.53283 2.33333H6.33333C4.78681 2.33519 3.30415 2.95036 2.21059 4.04392C1.11703 5.13748 0.501853 6.62014 0.5 8.16667V22.1667C0.501853 23.7132 1.11703 25.1959 2.21059 26.2894C3.30415 27.383 4.78681 27.9981 6.33333 28H15.6667C17.2132 27.9981 18.6959 27.383 19.7894 26.2894C20.883 25.1959 21.4981 23.7132 21.5 22.1667V8.16667C21.4981 6.62014 20.883 5.13748 19.7894 4.04392C18.6959 2.95036 17.2132 2.33519 15.6667 2.33333ZM7.5 8.16667H9.83333V5.83333C9.83333 5.52391 9.95625 5.22717 10.175 5.00838C10.3938 4.78958 10.6906 4.66667 11 4.66667C11.3094 4.66667 11.6062 4.78958 11.825 5.00838C12.0437 5.22717 12.1667 5.52391 12.1667 5.83333V8.16667H14.5C14.8094 8.16667 15.1062 8.28958 15.325 8.50838C15.5437 8.72717 15.6667 9.02391 15.6667 9.33333C15.6667 9.64275 15.5437 9.9395 15.325 10.1583C15.1062 10.3771 14.8094 10.5 14.5 10.5H12.1667V12.8333C12.1667 13.1428 12.0437 13.4395 11.825 13.6583C11.6062 13.8771 11.3094 14 11 14C10.6906 14 10.3938 13.8771 10.175 13.6583C9.95625 13.4395 9.83333 13.1428 9.83333 12.8333V10.5H7.5C7.19058 10.5 6.89383 10.3771 6.67504 10.1583C6.45625 9.9395 6.33333 9.64275 6.33333 9.33333C6.33333 9.02391 6.45625 8.72717 6.67504 8.50838C6.89383 8.28958 7.19058 8.16667 7.5 8.16667ZM11 23.3333H6.33333C6.02391 23.3333 5.72717 23.2104 5.50838 22.9916C5.28958 22.7728 5.16667 22.4761 5.16667 22.1667C5.16667 21.8572 5.28958 21.5605 5.50838 21.3417C5.72717 21.1229 6.02391 21 6.33333 21H11C11.3094 21 11.6062 21.1229 11.825 21.3417C12.0437 21.5605 12.1667 21.8572 12.1667 22.1667C12.1667 22.4761 12.0437 22.7728 11.825 22.9916C11.6062 23.2104 11.3094 23.3333 11 23.3333ZM15.6667 18.6667H6.33333C6.02391 18.6667 5.72717 18.5437 5.50838 18.325C5.28958 18.1062 5.16667 17.8094 5.16667 17.5C5.16667 17.1906 5.28958 16.8938 5.50838 16.675C5.72717 16.4562 6.02391 16.3333 6.33333 16.3333H15.6667C15.9761 16.3333 16.2728 16.4562 16.4916 16.675C16.7104 16.8938 16.8333 17.1906 16.8333 17.5C16.8333 17.8094 16.7104 18.1062 16.4916 18.325C16.2728 18.5437 15.9761 18.6667 15.6667 18.6667Z" fill="white"/>
</svg>
