<svg width="42" height="42" viewBox="0 0 42 42" fill="none" xmlns="http://www.w3.org/2000/svg">
<path d="M31.5006 22.75C29.9613 22.7447 28.4635 23.2486 27.2404 24.1831C26.0173 25.1176 25.1376 26.4303 24.7382 27.9169C24.3388 29.4034 24.4422 30.9803 25.0323 32.4019C25.6223 33.8236 26.6659 35.0102 28.0006 35.777V40.7348C28.0004 40.9844 28.0744 41.2285 28.213 41.4361C28.3516 41.6437 28.5488 41.8055 28.7794 41.9011C29.01 41.9966 29.2638 42.0216 29.5086 41.9729C29.7535 41.9241 29.9784 41.8039 30.1548 41.6273L31.5006 40.2833L32.8463 41.6273C33.0228 41.8039 33.2477 41.9241 33.4925 41.9729C33.7373 42.0216 33.9911 41.9966 34.2218 41.9011C34.4524 41.8055 34.6495 41.6437 34.7881 41.4361C34.9268 41.2285 35.0007 40.9844 35.0006 40.7348V35.777C36.3352 35.0102 37.3788 33.8236 37.9689 32.4019C38.5589 30.9803 38.6623 29.4034 38.2629 27.9169C37.8635 26.4303 36.9838 25.1176 35.7607 24.1831C34.5376 23.2486 33.0398 22.7447 31.5006 22.75V22.75Z" fill="#36B4F1"/>
<path d="M21 29.75C20.9978 27.9062 21.4818 26.0944 22.4032 24.4972C23.3245 22.9001 24.6506 21.5741 26.2478 20.6529C27.845 19.7316 29.6568 19.2478 31.5006 19.25C33.3444 19.2523 35.1551 19.7406 36.75 20.6658V8.75C36.7472 6.43021 35.8245 4.20623 34.1841 2.56588C32.5438 0.925543 30.3198 0.00277875 28 0L14 0C11.6802 0.00277875 9.45623 0.925543 7.81588 2.56588C6.17554 4.20623 5.25278 6.43021 5.25 8.75V29.75C5.25278 32.0698 6.17554 34.2938 7.81588 35.9341C9.45623 37.5745 11.6802 38.4972 14 38.5H24.5V37.555C23.3994 36.5743 22.5186 35.3719 21.9154 34.0268C21.3122 32.6816 21.0002 31.2242 21 29.75V29.75ZM14 7H28C28.4641 7 28.9092 7.18437 29.2374 7.51256C29.5656 7.84075 29.75 8.28587 29.75 8.75C29.75 9.21413 29.5656 9.65925 29.2374 9.98744C28.9092 10.3156 28.4641 10.5 28 10.5H14C13.5359 10.5 13.0908 10.3156 12.7626 9.98744C12.4344 9.65925 12.25 9.21413 12.25 8.75C12.25 8.28587 12.4344 7.84075 12.7626 7.51256C13.0908 7.18437 13.5359 7 14 7V7ZM14 14H28C28.4641 14 28.9092 14.1844 29.2374 14.5126C29.5656 14.8408 29.75 15.2859 29.75 15.75C29.75 16.2141 29.5656 16.6592 29.2374 16.9874C28.9092 17.3156 28.4641 17.5 28 17.5H14C13.5359 17.5 13.0908 17.3156 12.7626 16.9874C12.4344 16.6592 12.25 16.2141 12.25 15.75C12.25 15.2859 12.4344 14.8408 12.7626 14.5126C13.0908 14.1844 13.5359 14 14 14ZM19.25 24.5H14C13.5359 24.5 13.0908 24.3156 12.7626 23.9874C12.4344 23.6592 12.25 23.2141 12.25 22.75C12.25 22.2859 12.4344 21.8408 12.7626 21.5126C13.0908 21.1844 13.5359 21 14 21H19.25C19.7141 21 20.1592 21.1844 20.4874 21.5126C20.8156 21.8408 21 22.2859 21 22.75C21 23.2141 20.8156 23.6592 20.4874 23.9874C20.1592 24.3156 19.7141 24.5 19.25 24.5Z" fill="#36B4F1"/>
</svg>
