<svg width="25" height="24" viewBox="0 0 25 24" fill="none" xmlns="http://www.w3.org/2000/svg">
<mask id="mask0_401_9675" style="mask-type:alpha" maskUnits="userSpaceOnUse" x="1" y="1" width="23" height="22">
<path fill-rule="evenodd" clip-rule="evenodd" d="M12.9238 23C6.8487 23 1.92383 18.0751 1.92383 12C1.92383 5.92487 6.8487 1 12.9238 1C18.999 1 23.9238 5.92487 23.9238 12C23.9238 18.0751 18.999 23 12.9238 23ZM20.3229 17.1253C21.3323 15.6709 21.9238 13.9045 21.9238 12C21.9238 7.02944 17.8944 3 12.9238 3C7.95327 3 3.92383 7.02944 3.92383 12C3.92383 13.9039 4.51503 15.6698 5.52387 17.124C6.6496 15.6379 9.29401 15 12.9229 15C16.5528 15 19.1977 15.6383 20.3229 17.1253ZM18.8877 18.7405C18.5958 17.6877 16.493 17 12.9229 17C9.35426 17 7.25178 17.6871 6.95837 18.7391C8.54645 20.1459 10.6354 21 12.9238 21C15.2115 21 17.2998 20.1465 18.8877 18.7405ZM12.9238 6C10.5029 6 8.92383 7.75576 8.92383 10C8.92383 13.4274 10.6847 15 12.9238 15C15.1419 15 16.9238 13.4796 16.9238 10.2C16.9238 7.92158 15.338 6 12.9238 6ZM10.9238 10C10.9238 12.2693 11.742 13 12.9238 13C14.1015 13 14.9238 12.2984 14.9238 10.2C14.9238 8.95042 14.1395 8 12.9238 8C11.6576 8 10.9238 8.81582 10.9238 10Z" fill="white"/>
</mask>
<g mask="url(#mask0_401_9675)">
<rect x="0.923828" width="24" height="24" fill="#2F2F2F"/>
</g>
</svg>
