<svg width="23" height="20" viewBox="0 0 23 20" fill="none" xmlns="http://www.w3.org/2000/svg">
<path d="M21.2951 0.102033C21.0234 0.121839 20.7567 0.185705 20.5055 0.291139H20.5021C20.2609 0.386965 19.1141 0.87033 17.3706 1.60301L11.1229 4.23947C6.63975 6.13054 2.23282 7.99277 2.23282 7.99277L2.28529 7.97242C2.28529 7.97242 1.98145 8.07248 1.66407 8.29042C1.46799 8.41543 1.29927 8.57901 1.16811 8.77124C1.01238 9.0002 0.887122 9.35043 0.933672 9.71253C1.00984 10.3248 1.40593 10.692 1.69031 10.8947C1.97807 11.0999 2.25228 11.1957 2.25228 11.1957H2.25905L6.39177 12.5907C6.57712 13.1868 7.65114 16.7247 7.90927 17.5397C8.06162 18.0264 8.20973 18.3309 8.39508 18.5632C8.48479 18.6819 8.58974 18.7812 8.71584 18.8609C8.7814 18.8991 8.8513 18.9293 8.92405 18.9508L8.88173 18.9406C8.89442 18.944 8.90458 18.9541 8.91389 18.9575C8.94774 18.9669 8.97059 18.9703 9.01376 18.977C9.66799 19.1755 10.1936 18.7684 10.1936 18.7684L10.2232 18.7447L12.6632 16.5187L16.7528 19.6622L16.8459 19.7021C17.6981 20.0769 18.5614 19.8683 19.0176 19.5003C19.4772 19.1297 19.6557 18.6556 19.6557 18.6556L19.6854 18.5793L22.8456 2.35774C22.9353 1.95748 22.9582 1.58266 22.8592 1.21886C22.757 0.850678 22.5213 0.534016 22.1982 0.330996C21.9269 0.165732 21.6122 0.0859624 21.2951 0.102033ZM21.2096 1.84045C21.2063 1.89388 21.2164 1.88794 21.1927 1.99055V1.99988L18.0621 18.0527C18.0485 18.0756 18.0257 18.1256 17.963 18.1757C17.897 18.2283 17.8446 18.2613 17.5695 18.1519L12.5676 14.3096L9.54611 17.069L10.1809 13.0071L18.3532 5.37496C18.6901 5.0612 18.5775 4.99505 18.5775 4.99505C18.6012 4.61005 18.0688 4.88227 18.0688 4.88227L7.7637 11.2788L7.76032 11.2618L2.82103 9.59551V9.59211L2.80833 9.58957C2.81699 9.58669 2.82547 9.58329 2.83372 9.57939L2.86081 9.56583L2.88704 9.5565C2.88704 9.5565 7.29736 7.69427 11.7805 5.80321C14.025 4.85598 16.2864 3.90197 18.0257 3.16589C19.7649 2.43406 21.0505 1.89727 21.1233 1.86844C21.1927 1.8413 21.1597 1.8413 21.2096 1.8413V1.84045Z" fill="#2F2F2F"/>
</svg>
