<svg width="32" height="32" viewBox="0 0 32 32" fill="none" xmlns="http://www.w3.org/2000/svg">
<g clip-path="url(#clip0_3738_25048)">
<path d="M23.3334 2.55664C21.832 2.57999 20.3634 2.99911 19.0758 3.77167C17.7882 4.54423 16.7273 5.64287 16.0001 6.95664C15.273 5.64287 14.212 4.54423 12.9244 3.77167C11.6368 2.99911 10.1682 2.57999 8.66677 2.55664C6.27336 2.66063 4.01838 3.70765 2.39448 5.46895C0.770587 7.23025 -0.0902269 9.56267 0.000107148 11.9566C0.000107148 18.0193 6.38144 24.6406 11.7334 29.13C12.9284 30.1341 14.4392 30.6847 16.0001 30.6847C17.561 30.6847 19.0718 30.1341 20.2668 29.13C25.6188 24.6406 32.0001 18.0193 32.0001 11.9566C32.0904 9.56267 31.2296 7.23025 29.6057 5.46895C27.9818 3.70765 25.7269 2.66063 23.3334 2.55664ZM18.5534 27.09C17.8388 27.6918 16.9344 28.0218 16.0001 28.0218C15.0658 28.0218 14.1615 27.6918 13.4468 27.09C6.59611 21.342 2.66677 15.8273 2.66677 11.9566C2.57563 10.2696 3.15526 8.61495 4.27926 7.35357C5.40325 6.0922 6.98042 5.32644 8.66677 5.22331C10.3531 5.32644 11.9303 6.0922 13.0543 7.35357C14.1783 8.61495 14.7579 10.2696 14.6668 11.9566C14.6668 12.3103 14.8072 12.6494 15.0573 12.8994C15.3073 13.1495 15.6465 13.29 16.0001 13.29C16.3537 13.29 16.6929 13.1495 16.9429 12.8994C17.193 12.6494 17.3334 12.3103 17.3334 11.9566C17.2423 10.2696 17.8219 8.61495 18.9459 7.35357C20.0699 6.0922 21.6471 5.32644 23.3334 5.22331C25.0198 5.32644 26.597 6.0922 27.721 7.35357C28.845 8.61495 29.4246 10.2696 29.3334 11.9566C29.3334 15.8273 25.4041 21.342 18.5534 27.0846V27.09Z" fill="#333333" fill-opacity="0.3"/>
</g>
<defs>
<clipPath id="clip0_3738_25048">
<rect width="32" height="32" fill="white"/>
</clipPath>
</defs>
</svg>
