<svg width="23" height="23" viewBox="0 0 23 23" fill="none" xmlns="http://www.w3.org/2000/svg">
<path d="M10.8269 5.21875H12.97L12.6097 14.3032H11.1683L10.8269 5.21875ZM11.908 18.6084C11.554 18.6084 11.2568 18.4946 11.0166 18.267C10.7764 18.0268 10.6562 17.736 10.6562 17.3946C10.6562 17.0532 10.7764 16.7688 11.0166 16.5412C11.2568 16.3009 11.554 16.1808 11.908 16.1808C12.262 16.1808 12.5528 16.3009 12.7804 16.5412C13.008 16.7688 13.1218 17.0532 13.1218 17.3946C13.1218 17.736 13.0017 18.0268 12.7614 18.267C12.5338 18.4946 12.2494 18.6084 11.908 18.6084Z" fill="#333333" fill-opacity="0.5"/>
<circle cx="11.7969" cy="11.6641" r="10.25" stroke="#333333" stroke-opacity="0.5" stroke-width="1.5"/>
</svg>
