<svg width="40" height="40" viewBox="0 0 40 40" fill="none" xmlns="http://www.w3.org/2000/svg">
<path d="M27.8755 12.3403H27.0947C25.0759 12.3403 23.4336 13.9828 23.4336 16.0015V18.9552C23.4336 19.2788 23.6959 19.5411 24.0195 19.5411C24.3432 19.5411 24.6055 19.2788 24.6055 18.9552V16.0015C24.6055 14.6289 25.7221 13.5122 27.0947 13.5122H27.8755C33.9145 13.5122 38.8277 18.4254 38.8277 24.4645V36.103C38.8277 37.4756 37.7111 38.5922 36.3385 38.5922H31.2957C30.972 38.5922 30.7098 38.8546 30.7098 39.1782C30.7098 39.5017 30.972 39.7641 31.2957 39.7641H36.3385C38.3572 39.7641 39.9996 38.1217 39.9996 36.103V24.4646C39.9996 17.7792 34.5608 12.3403 27.8755 12.3403Z" fill="#2F2F2F"/>
<path d="M30.9944 32.4178L30.7819 31.3174L32.9742 32.5758C33.8383 33.0718 34.9449 32.7724 35.4409 31.9083C35.6813 31.4897 35.7443 31.0026 35.6182 30.5365C35.4922 30.0706 35.1922 29.6816 34.7736 29.4412L30.2047 26.8184L31.6431 26.3922C32.1059 26.2552 32.4876 25.9462 32.7178 25.5219C32.948 25.0977 32.9994 24.6094 32.8623 24.1467C32.5794 23.1914 31.5717 22.6447 30.6169 22.9274L25.8741 24.3321L24.606 23.6041V21.5087C24.606 21.1851 24.3437 20.9227 24.0201 20.9227C23.6964 20.9227 23.4341 21.1851 23.4341 21.5087V22.9314L21.8071 21.9974V11.8344H22.5236C22.8473 11.8344 23.1095 11.572 23.1095 11.2484C23.1095 10.9248 22.8473 10.6625 22.5236 10.6625H21.8071V7.92709H22.5236C22.8473 7.92709 23.1095 7.66475 23.1095 7.34115C23.1095 7.01756 22.8473 6.75522 22.5236 6.75522H21.8071V4.01982H22.5236C22.8473 4.01982 23.1095 3.75748 23.1095 3.43389C23.1095 3.11029 22.8473 2.84795 22.5236 2.84795H21.8071V1.22881C21.8071 0.681309 21.3617 0.23584 20.8141 0.23584H19.1862C18.6387 0.23584 18.1932 0.681231 18.1932 1.22881V2.84795H17.4766C17.1529 2.84795 16.8906 3.11029 16.8906 3.43389C16.8906 3.75748 17.1529 4.01982 17.4766 4.01982H18.193V6.75522H17.4766C17.1529 6.75522 16.8906 7.01756 16.8906 7.34115C16.8906 7.66475 17.1529 7.92709 17.4766 7.92709H18.193V10.6625H17.4766C17.1529 10.6625 16.8906 10.9248 16.8906 11.2484C16.8906 11.572 17.1529 11.8344 17.4766 11.8344H18.193V21.9984L16.566 22.9325V16.0015C16.566 13.9828 14.9237 12.3404 12.9049 12.3404H12.1241C5.43883 12.3403 0 17.7792 0 24.4645V36.103C0 38.1218 1.64234 39.7641 3.66109 39.7641H12.9048C14.9236 39.7641 16.5659 38.1218 16.5659 36.103V35.2572C16.5659 34.9336 16.3037 34.6712 15.98 34.6712C15.6563 34.6712 15.3941 34.9336 15.3941 35.2572V36.103C15.3941 37.4756 14.2774 38.5922 12.9048 38.5922H3.66109C2.28852 38.5922 1.17187 37.4755 1.17187 36.103V24.4645C1.17187 18.4254 6.08508 13.5122 12.1241 13.5122H12.9049C14.2775 13.5122 15.3941 14.629 15.3941 16.0015V23.6052L14.1294 24.3313L9.39234 22.9277C8.92945 22.7905 8.44109 22.8419 8.01703 23.0722C7.59289 23.3024 7.28383 23.684 7.14672 24.1468C7.00969 24.6095 7.06094 25.0979 7.29125 25.522C7.52156 25.9462 7.9032 26.2552 8.36586 26.3922L9.79883 26.8168L4.04445 30.1201C3.62586 30.3605 3.32594 30.7494 3.19984 31.2154C3.07383 31.6813 3.1368 32.1684 3.37727 32.587C3.87344 33.4508 4.98008 33.7498 5.84336 33.254L9.22734 31.3115L9.01414 32.418C8.82555 33.3964 9.46812 34.3458 10.4464 34.5344C10.9204 34.6258 11.4016 34.5271 11.8014 34.2565C12.2012 33.986 12.4716 33.5759 12.563 33.102L13.3661 28.9359L15.3941 27.7718V32.7034C15.3941 33.027 15.6563 33.2894 15.98 33.2894C16.3037 33.2894 16.5659 33.027 16.5659 32.7034V27.0992L20 25.128L23.434 27.0992V36.103C23.434 38.1217 25.0763 39.764 27.0951 39.764H28.7424C29.0661 39.764 29.3284 39.5017 29.3284 39.1781C29.3284 38.8545 29.0661 38.5922 28.7424 38.5922H27.0951C25.7225 38.5922 24.6059 37.4755 24.6059 36.103V27.7719L26.6436 28.9417L27.4459 33.1023C27.5373 33.5762 27.8077 33.9862 28.2075 34.2568C28.51 34.4615 28.8591 34.5677 29.2164 34.5677C29.3312 34.5677 29.447 34.5567 29.5623 34.5345C30.0362 34.4432 30.4462 34.1726 30.7167 33.7729C30.9873 33.373 31.0859 32.8919 30.9944 32.4178ZM19.3649 1.40779H20.6351V2.84803H19.3649V1.40779ZM19.3649 4.01982H20.6351V6.75522H19.3649V4.01982ZM19.3649 7.92709H20.6351V10.6625H19.3649V7.92709ZM30.2559 29.6643C30.0571 29.5501 29.8101 29.5625 29.6237 29.6956C29.4372 29.8288 29.3455 30.0585 29.3889 30.2835L29.8437 32.6398C29.8759 32.8064 29.8412 32.9755 29.7462 33.1161C29.6511 33.2565 29.507 33.3517 29.3404 33.3838C29.1739 33.4161 29.0048 33.3812 28.8642 33.2862C28.7237 33.1911 28.6287 33.047 28.5966 32.8805L27.7648 28.5662C27.7191 28.3289 27.5727 28.1237 27.3628 28.0033L20.4133 24.0139C20.2858 23.9408 20.1429 23.9041 19.9999 23.9041C19.857 23.9041 19.7141 23.9408 19.5868 24.0139L12.6472 27.9974C12.4376 28.1176 12.2911 28.3226 12.2452 28.5604L11.4124 32.8802C11.3803 33.0469 11.2852 33.191 11.1447 33.2861C11.0041 33.3812 10.8348 33.4159 10.6684 33.3837C10.3245 33.3174 10.0986 32.9837 10.1649 32.6398L10.5192 30.8008C10.5814 30.4782 10.4538 30.1591 10.1864 29.9682C9.91875 29.7772 9.5757 29.7604 9.29086 29.9239L5.25992 32.2378C4.95633 32.4119 4.56766 32.3069 4.39328 32.0033C4.30883 31.8563 4.28672 31.6851 4.33094 31.5214C4.37523 31.3576 4.48062 31.221 4.62781 31.1365L11.0743 27.4358C11.3627 27.2702 11.5241 26.9497 11.4855 26.6194C11.4468 26.289 11.2157 26.0144 10.8968 25.92L8.69867 25.2688C8.36305 25.1694 8.17086 24.8155 8.27039 24.4797C8.31851 24.3172 8.42711 24.1831 8.57617 24.1022C8.72516 24.0212 8.89687 24.0032 9.05945 24.0514L13.9366 25.4965C14.1534 25.5609 14.3901 25.5331 14.586 25.4206L18.9482 22.9163C19.2053 22.7687 19.3651 22.4929 19.3651 22.1964V11.8344H20.6352V22.1954C20.6352 22.4919 20.7949 22.7676 21.0521 22.9154L25.4177 25.4215C25.6136 25.5338 25.8501 25.5615 26.0666 25.4974L30.9498 24.0512C31.2848 23.9517 31.6394 24.1439 31.7389 24.4797C31.787 24.6422 31.7691 24.8139 31.6881 24.9629C31.6072 25.112 31.4731 25.2206 31.3105 25.2688L29.1069 25.9216C28.7879 26.0161 28.5568 26.2906 28.5181 26.621C28.4795 26.9514 28.6409 27.2719 28.9294 27.4376L34.1904 30.4577C34.3376 30.5422 34.443 30.679 34.4873 30.8427C34.5316 31.0065 34.5095 31.1778 34.4251 31.325C34.2507 31.6288 33.8619 31.7339 33.5579 31.5596L30.2559 29.6643Z" fill="#2F2F2F"/>
</svg>
