<svg width="37" height="37" viewBox="0 0 37 37" fill="none" xmlns="http://www.w3.org/2000/svg">
<g clip-path="url(#clip0_425_11647)">
<path d="M8.50095 31.7107H8.501L8.50091 31.7041C8.46622 29.0794 9.42342 26.5383 11.1812 24.5888C12.9376 22.6407 15.3642 21.4267 17.9763 21.1892C19.3647 21.0963 20.7574 21.2891 22.0684 21.7557C23.3812 22.2229 24.5841 22.9547 25.6025 23.9057C26.621 24.8567 27.4333 26.0067 27.9892 27.2845C28.5451 28.5622 28.8328 29.9405 28.8343 31.3339V32C28.8343 32.3979 28.6763 32.7794 28.3949 33.0607C28.1136 33.342 27.7321 33.5 27.3343 33.5C26.9365 33.5 26.5549 33.342 26.2736 33.0607C25.9923 32.7794 25.8343 32.3979 25.8343 32V31.3334V31.3329C25.8334 30.3316 25.6229 29.3415 25.2163 28.4264C24.8097 27.5113 24.2161 26.6915 23.4736 26.0196C22.7312 25.3477 21.8563 24.8387 20.9052 24.5253C19.9542 24.2119 18.9481 24.101 17.9516 24.1998L17.9516 24.1996L17.9377 24.2014C16.1372 24.4311 14.4849 25.3171 13.2971 26.6896C12.1104 28.061 11.4709 29.8217 11.501 31.6349V32C11.501 32.3979 11.3429 32.7794 11.0616 33.0607C10.7803 33.342 10.3988 33.5 10.001 33.5C9.60313 33.5 9.2216 33.342 8.9403 33.0607C8.65899 32.7794 8.50095 32.3979 8.50095 32V31.7107Z" fill="#FE7200" stroke="white"/>
<path d="M23.1668 16.236C21.9335 17.06 20.4837 17.4999 19.0005 17.5C17.0119 17.498 15.1052 16.7072 13.699 15.301C12.2929 13.8948 11.502 11.9883 11.5 9.99974C11.5001 8.51647 11.9399 7.06652 12.764 5.83323C13.5881 4.59986 14.7594 3.63856 16.1299 3.07091C17.5003 2.50325 19.0083 2.35472 20.4632 2.64411C21.918 2.9335 23.2544 3.64781 24.3033 4.6967C25.3522 5.7456 26.0665 7.08197 26.3559 8.53683C26.6453 9.99168 26.4968 11.4997 25.9291 12.8701C25.3614 14.2406 24.4001 15.4119 23.1668 16.236ZM21.5001 6.25839C20.76 5.76392 19.89 5.5 19 5.5C17.8065 5.5 16.6619 5.97411 15.818 6.81802C14.9741 7.66194 14.5 8.80653 14.5 10C14.5 10.89 14.7639 11.76 15.2584 12.5001C15.7529 13.2401 16.4557 13.8169 17.2779 14.1575C18.1002 14.4981 19.005 14.5872 19.8779 14.4135C20.7508 14.2399 21.5526 13.8113 22.182 13.182C22.8113 12.5526 23.2399 11.7508 23.4135 10.8779C23.5872 10.005 23.4981 9.1002 23.1575 8.27793C22.8169 7.45566 22.2401 6.75286 21.5001 6.25839Z" fill="#FE7200" stroke="white"/>
</g>
<defs>
<clipPath id="clip0_425_11647">
<rect width="32" height="32" fill="white" transform="translate(3 2)"/>
</clipPath>
</defs>
</svg>
