<svg width="28" height="28" viewBox="0 0 28 28" fill="none" xmlns="http://www.w3.org/2000/svg">
<path d="M20.5 24.8889H7.5C7.5 25.714 7.15759 26.5053 6.5481 27.0888C5.9386 27.6722 5.11195 28 4.25 28C3.38805 28 2.5614 27.6722 1.9519 27.0888C1.34241 26.5053 1 25.714 1 24.8889V3.11111C1 2.28599 1.34241 1.49467 1.9519 0.911223C2.5614 0.327777 3.38805 0 4.25 0H23.75C24.612 0 25.4386 0.327777 26.0481 0.911223C26.6576 1.49467 27 2.28599 27 3.11111V24.8889C27 25.714 26.6576 26.5053 26.0481 27.0888C25.4386 27.6722 24.612 28 23.75 28C22.888 28 22.0614 27.6722 21.4519 27.0888C20.8424 26.5053 20.5 25.714 20.5 24.8889ZM22.125 18.6667C22.556 18.6667 22.9693 18.5028 23.274 18.2111C23.5788 17.9193 23.75 17.5237 23.75 17.1111C23.75 16.6986 23.5788 16.3029 23.274 16.0112C22.9693 15.7194 22.556 15.5556 22.125 15.5556C21.694 15.5556 21.2807 15.7194 20.976 16.0112C20.6712 16.3029 20.5 16.6986 20.5 17.1111C20.5 17.5237 20.6712 17.9193 20.976 18.2111C21.2807 18.5028 21.694 18.6667 22.125 18.6667ZM5.875 18.6667C6.30598 18.6667 6.7193 18.5028 7.02405 18.2111C7.32879 17.9193 7.5 17.5237 7.5 17.1111C7.5 16.6986 7.32879 16.3029 7.02405 16.0112C6.7193 15.7194 6.30598 15.5556 5.875 15.5556C5.44402 15.5556 5.0307 15.7194 4.72595 16.0112C4.42121 16.3029 4.25 16.6986 4.25 17.1111C4.25 17.5237 4.42121 17.9193 4.72595 18.2111C5.0307 18.5028 5.44402 18.6667 5.875 18.6667ZM4.25 3.11111V12.4444H23.75V3.11111H4.25Z" fill="white"/>
</svg>
