<svg width="25" height="11" viewBox="0 0 25 11" fill="none" xmlns="http://www.w3.org/2000/svg">
<path d="M23.6867 4.01781H10.3728C9.82141 1.70687 7.74676 0 5.2783 0C2.36342 0 0 2.36332 0 5.2783C0 8.19327 2.36332 10.5566 5.2783 10.5566C7.7468 10.5566 9.82126 8.84978 10.399 6.53879H18.0933V9.08603C18.0933 9.21736 18.1982 9.3487 18.3559 9.3487H19.6952C19.8265 9.3487 19.9578 9.24374 19.9578 9.08603V8.11444C19.9578 7.98311 20.0628 7.85177 20.2205 7.85177H21.2447C21.376 7.85177 21.5073 7.95673 21.5073 8.11444V9.08603C21.5073 9.21736 21.6123 9.3487 21.77 9.3487H23.1092C23.2406 9.3487 23.3719 9.24374 23.3719 9.08603V6.53879H23.7396C24.4486 6.53879 25 5.98723 25 5.27835C24.9474 4.59563 24.3959 4.0179 23.687 4.0179L23.6867 4.01781ZM5.2783 8.03562C3.75521 8.03562 2.52093 6.80139 2.52093 5.27825C2.52093 3.75511 3.75516 2.52088 5.2783 2.52088C6.80139 2.52088 8.03566 3.75511 8.03566 5.27825C8.03566 6.80139 6.80144 8.03562 5.2783 8.03562Z" fill="#D8DDE4"/>
</svg>
