<svg width="18" height="21" viewBox="0 0 18 21" fill="none" xmlns="http://www.w3.org/2000/svg">
<path d="M7.625 10.5C7.85706 10.5 8.07962 10.5922 8.24372 10.7563C8.40781 10.9204 8.5 11.1429 8.5 11.375C8.5 11.6071 8.40781 11.8296 8.24372 11.9937C8.07962 12.1578 7.85706 12.25 7.625 12.25H5C4.76794 12.25 4.54538 12.1578 4.38128 11.9937C4.21719 11.8296 4.125 11.6071 4.125 11.375C4.125 11.1429 4.21719 10.9204 4.38128 10.7563C4.54538 10.5922 4.76794 10.5 5 10.5H7.625ZM12.875 7.875C12.875 7.64294 12.7828 7.42038 12.6187 7.25628C12.4546 7.09219 12.2321 7 12 7H5C4.76794 7 4.54538 7.09219 4.38128 7.25628C4.21719 7.42038 4.125 7.64294 4.125 7.875C4.125 8.10706 4.21719 8.32962 4.38128 8.49372C4.54538 8.65781 4.76794 8.75 5 8.75H12C12.2321 8.75 12.4546 8.65781 12.6187 8.49372C12.7828 8.32962 12.875 8.10706 12.875 7.875ZM5 5.25H12C12.2321 5.25 12.4546 5.15781 12.6187 4.99372C12.7828 4.82962 12.875 4.60706 12.875 4.375C12.875 4.14294 12.7828 3.92038 12.6187 3.75628C12.4546 3.59219 12.2321 3.5 12 3.5H5C4.76794 3.5 4.54538 3.59219 4.38128 3.75628C4.21719 3.92038 4.125 4.14294 4.125 4.375C4.125 4.60706 4.21719 4.82962 4.38128 4.99372C4.54538 5.15781 4.76794 5.25 5 5.25ZM15.5 17.0135V20.3674C15.5001 20.4922 15.4631 20.6142 15.3938 20.718C15.3245 20.8218 15.2259 20.9027 15.1106 20.9505C14.9953 20.9983 14.8684 21.0108 14.746 20.9864C14.6235 20.9621 14.5111 20.9019 14.4229 20.8136L13.75 20.1416L13.0771 20.8136C12.9889 20.9019 12.8765 20.9621 12.754 20.9864C12.6316 21.0108 12.5047 20.9983 12.3894 20.9505C12.2741 20.9027 12.1755 20.8218 12.1062 20.718C12.0369 20.6142 11.9999 20.4922 12 20.3674V17.0135C11.3327 16.6301 10.8109 16.0368 10.5158 15.3259C10.2208 14.6151 10.1691 13.8267 10.3688 13.0834C10.5685 12.3401 11.0084 11.6838 11.6199 11.2165C12.2315 10.7493 12.9804 10.4973 13.75 10.5C14.0458 10.5037 14.3399 10.5455 14.625 10.6243V4.375C14.625 3.67881 14.3484 3.01113 13.8562 2.51884C13.3639 2.02656 12.6962 1.75 12 1.75H5C4.30381 1.75 3.63613 2.02656 3.14384 2.51884C2.65156 3.01113 2.375 3.67881 2.375 4.375V14.875C2.375 15.5712 2.65156 16.2389 3.14384 16.7312C3.63613 17.2234 4.30381 17.5 5 17.5H9.375C9.60706 17.5 9.82962 17.5922 9.99372 17.7563C10.1578 17.9204 10.25 18.1429 10.25 18.375C10.25 18.6071 10.1578 18.8296 9.99372 18.9937C9.82962 19.1578 9.60706 19.25 9.375 19.25H5C3.8401 19.2486 2.72811 18.7872 1.90794 17.9671C1.08777 17.1469 0.626389 16.0349 0.625 14.875V4.375C0.626389 3.2151 1.08777 2.10311 1.90794 1.28294C2.72811 0.462772 3.8401 0.00138938 5 0L12 0C13.1599 0.00138938 14.2719 0.462772 15.0921 1.28294C15.9122 2.10311 16.3736 3.2151 16.375 4.375V11.7092C16.7178 12.0942 16.9701 12.5508 17.1135 13.0459C17.2569 13.5409 17.2879 14.0618 17.204 14.5703C17.1201 15.0788 16.9235 15.5621 16.6287 15.9849C16.3339 16.4076 15.9482 16.7591 15.5 17.0135ZM15.5 14C15.5 13.6539 15.3974 13.3155 15.2051 13.0278C15.0128 12.74 14.7395 12.5157 14.4197 12.3832C14.0999 12.2508 13.7481 12.2161 13.4086 12.2836C13.0691 12.3511 12.7573 12.5178 12.5126 12.7626C12.2678 13.0073 12.1011 13.3191 12.0336 13.6586C11.9661 13.9981 12.0008 14.3499 12.1332 14.6697C12.2657 14.9895 12.49 15.2628 12.7778 15.4551C13.0655 15.6474 13.4039 15.75 13.75 15.75C14.2141 15.75 14.6592 15.5656 14.9874 15.2374C15.3156 14.9092 15.5 14.4641 15.5 14Z" fill="#2F2F2F"/>
</svg>
