<svg width="21" height="19" viewBox="0 0 21 19" fill="none" xmlns="http://www.w3.org/2000/svg">
<path d="M8.64328 9.9316C9.1364 10.376 9.80404 10.6255 10.5 10.6255C11.196 10.6255 11.8636 10.376 12.3568 9.9316L20.8084 2.2841C20.6138 1.84391 20.2781 1.46649 19.8444 1.20039C19.4108 0.934303 18.899 0.791727 18.375 0.791016H2.62503C2.10104 0.791727 1.58928 0.934303 1.15561 1.20039C0.721948 1.46649 0.386223 1.84391 0.19165 2.2841L8.64328 9.9316Z" fill="#D8DDE4"/>
<path d="M13.594 11.051C12.7727 11.7922 11.66 12.2085 10.5 12.2085C9.33997 12.2085 8.2273 11.7922 7.406 11.051L0 4.35352V18.2077H21V4.35352L13.594 11.051Z" fill="#D8DDE4"/>
</svg>
