<svg width="29" height="29" viewBox="0 0 29 29" fill="none" xmlns="http://www.w3.org/2000/svg">
<mask id="mask0_6_16838" style="mask-type:alpha" maskUnits="userSpaceOnUse" x="3" y="1" width="23" height="28">
<path fill-rule="evenodd" clip-rule="evenodd" d="M14.5 28.1874L15.2948 27.4934C21.978 21.6577 25.375 16.5623 25.375 12.0833C25.375 5.7403 20.4244 1.20825 14.5 1.20825C8.57561 1.20825 3.625 5.7403 3.625 12.0833C3.625 16.5623 7.022 21.6577 13.7052 27.4934L14.5 28.1874ZM14.5013 24.9682C8.83012 19.8571 6.04297 15.526 6.04297 12.0832C6.04297 7.12494 9.86627 3.62488 14.5013 3.62488C19.1363 3.62488 22.9596 7.12494 22.9596 12.0832C22.9596 15.526 20.1725 19.8571 14.5013 24.9682ZM14.4987 6.04163C17.8354 6.04163 20.5404 8.74657 20.5404 12.0833C20.5404 15.42 17.8354 18.125 14.4987 18.125C11.162 18.125 8.45703 15.42 8.45703 12.0833C8.45703 8.74657 11.162 6.04163 14.4987 6.04163ZM10.875 12.0833C10.875 10.0812 12.498 8.45825 14.5 8.45825C16.502 8.45825 18.125 10.0812 18.125 12.0833C18.125 14.0853 16.502 15.7083 14.5 15.7083C12.498 15.7083 10.875 14.0853 10.875 12.0833Z" fill="white"/>
</mask>
<g mask="url(#mask0_6_16838)">
<rect width="29" height="29" fill="#C4D1DB"/>
<rect x="0.5" y="0.5" width="28" height="28" stroke="#C4D1DB"/>
</g>
</svg>
