<svg width="19" height="19" viewBox="0 0 19 19" fill="none" xmlns="http://www.w3.org/2000/svg">
<path d="M18.998 9.53711C18.998 8.50358 18.5156 7.57525 17.7616 6.96246C18.2372 4.8067 16.7079 2.62749 14.4588 2.33381C14.2113 1.02459 13.0594 0 11.7246 0C11.0986 0 10.5204 0.207813 10.0547 0.558125V5.38049C10.4852 4.99344 11.018 4.71512 11.614 4.59414C11.915 4.53291 12.2089 4.72773 12.2701 5.02906C12.3313 5.33039 12.1365 5.62393 11.8352 5.68516C10.8036 5.89445 10.0547 6.81217 10.0547 7.86719V12.0602C10.4852 11.6731 11.018 11.3948 11.614 11.2738C11.915 11.2126 12.2089 11.4074 12.2701 11.7087C12.3313 12.0101 12.1365 12.3036 11.8352 12.3648C10.8036 12.5741 10.0547 13.4919 10.0547 14.5469V18.4419C10.5204 18.7922 11.0986 19 11.7246 19C13.0802 19 14.2128 18.0259 14.4585 16.7404C16.6684 16.4518 18.2292 14.3326 17.7682 12.0895C18.5449 11.4475 18.998 10.5201 18.998 9.53711Z" fill="white"/>
<path d="M4.53922 2.33381C2.2931 2.62712 0.760223 4.80407 1.23648 6.96246C0.465463 7.58905 0 8.52614 0 9.53711C0 10.5201 0.453105 11.4475 1.2298 12.0895C0.768424 14.3345 2.33132 16.452 4.53959 16.7404C4.78525 18.0259 5.91783 19 7.27344 19C7.89947 19 8.47764 18.7922 8.94336 18.4419C8.94336 17.6472 8.94336 15.3398 8.94336 14.5469C8.94336 13.4919 8.19449 12.5741 7.16285 12.3648C6.86152 12.3036 6.6667 12.0101 6.72793 11.7087C6.78916 11.4074 7.0827 11.2126 7.38402 11.2738C7.98 11.3948 8.51289 11.6731 8.94336 12.0602V7.86719C8.94336 6.81217 8.19449 5.89445 7.16285 5.68516C6.86152 5.62393 6.6667 5.33039 6.72793 5.02906C6.78916 4.72773 7.0827 4.53291 7.38402 4.59414C7.98 4.71512 8.51289 4.99344 8.94336 5.38049C8.94336 4.42763 8.94336 1.53596 8.94336 0.558125C8.47764 0.207813 7.89947 0 7.27344 0C5.93861 0 4.78674 1.02459 4.53922 2.33381Z" fill="white"/>
</svg>
