<svg width="17" height="17" viewBox="0 0 17 17" fill="none" xmlns="http://www.w3.org/2000/svg">
<path d="M13.4583 0.708374H3.54167C2.6027 0.709499 1.70252 1.083 1.03857 1.74695C0.374625 2.41089 0.00112473 3.31108 0 4.25004L0 9.91671C0.00112473 10.8557 0.374625 11.7559 1.03857 12.4198C1.70252 13.0837 2.6027 13.4572 3.54167 13.4584H7.79167V14.875H4.95833C4.77047 14.875 4.5903 14.9497 4.45747 15.0825C4.32463 15.2153 4.25 15.3955 4.25 15.5834C4.25 15.7712 4.32463 15.9514 4.45747 16.0842C4.5903 16.2171 4.77047 16.2917 4.95833 16.2917H12.0417C12.2295 16.2917 12.4097 16.2171 12.5425 16.0842C12.6754 15.9514 12.75 15.7712 12.75 15.5834C12.75 15.3955 12.6754 15.2153 12.5425 15.0825C12.4097 14.9497 12.2295 14.875 12.0417 14.875H9.20833V13.4584H13.4583C14.3973 13.4572 15.2975 13.0837 15.9614 12.4198C16.6254 11.7559 16.9989 10.8557 17 9.91671V4.25004C16.9989 3.31108 16.6254 2.41089 15.9614 1.74695C15.2975 1.083 14.3973 0.709499 13.4583 0.708374ZM13.4583 7.79171H11.3581L10.154 9.6015C10.0891 9.69878 10.0011 9.77848 9.89787 9.83348C9.79466 9.88848 9.67945 9.91708 9.5625 9.91671C9.54762 9.91671 9.53275 9.91671 9.51858 9.91671C9.39465 9.90907 9.27491 9.869 9.17135 9.8005C9.06779 9.732 8.98406 9.63748 8.92854 9.52642L7.34967 6.36654L6.61017 7.4765C6.54546 7.57348 6.45782 7.65299 6.35501 7.70798C6.25221 7.76296 6.13742 7.79172 6.02083 7.79171H3.54167C3.3538 7.79171 3.17364 7.71708 3.0408 7.58424C2.90796 7.4514 2.83333 7.27124 2.83333 7.08337C2.83333 6.89551 2.90796 6.71534 3.0408 6.58251C3.17364 6.44967 3.3538 6.37504 3.54167 6.37504H5.64187L6.84604 4.56525C6.91421 4.46081 7.00907 4.37651 7.12079 4.32109C7.23251 4.26567 7.35702 4.24113 7.48142 4.25004C7.60535 4.25767 7.72509 4.29775 7.82865 4.36625C7.93221 4.43475 8.01594 4.52927 8.07146 4.64033L9.65033 7.79879L10.3898 6.68883C10.4547 6.59211 10.5424 6.51288 10.6452 6.45814C10.748 6.40341 10.8627 6.37487 10.9792 6.37504H13.4583C13.6462 6.37504 13.8264 6.44967 13.9592 6.58251C14.092 6.71534 14.1667 6.89551 14.1667 7.08337C14.1667 7.27124 14.092 7.4514 13.9592 7.58424C13.8264 7.71708 13.6462 7.79171 13.4583 7.79171Z" fill="white"/>
</svg>
