<svg width="20" height="9" viewBox="0 0 20 9" fill="none" xmlns="http://www.w3.org/2000/svg">
<path d="M17.6195 10.625H10.298C9.62746 11.7426 7.81723 11.8619 6.51719 11.8316C4.47812 11.784 2.37891 13.7434 2.37891 16.3441V19.4141C2.37891 19.7375 2.64141 20 2.96484 20H5.30859C5.63203 20 5.89453 19.7375 5.89453 19.4141V16.175C5.89453 15.6996 6.28164 15.3125 6.75703 15.3125C7.21133 15.3125 7.5832 15.6625 7.62148 16.127C7.77344 17.9668 9.07422 18.9676 10.8977 18.8195C13.8512 18.5805 17.7 15.3734 17.6195 10.625ZM8.51836 6.96484C9.93516 7.28789 10.5836 8.41523 10.5957 9.45312H17.5133C16.9305 6.1207 13.8836 3.59375 10.307 3.59375H9.65273C8.87109 3.59375 8.23828 2.96094 8.23828 2.1793V0.585938C8.23828 0.2625 7.97578 0 7.65234 0H5.30859C4.98516 0 4.72266 0.2625 4.72266 0.585938V2.04414C4.72266 4.5668 6.35273 6.47148 8.51836 6.96484Z" fill="white"/>
</svg>
