<svg width="17" height="21" viewBox="0 0 17 21" fill="none" xmlns="http://www.w3.org/2000/svg">
<path d="M16.163 12.8568C15.9325 11.9089 15.581 10.9565 15.2085 9.94793C14.1089 6.96855 12.9716 3.88787 15.1442 0.983965C15.1466 0.980273 15.1491 0.976172 15.1515 0.972891C15.4436 0.564375 15.147 0 14.6516 0H2.34687C1.84238 0 1.55158 0.57832 1.85427 0.983965C4.02687 3.88787 2.88951 6.96855 1.78988 9.94793C1.41746 10.9565 1.06595 11.9089 0.835444 12.8568C0.32603 14.9502 0.311674 17.1564 0.785815 20.4717C0.828882 20.7748 1.08851 21 1.3949 21H7.88398V15.0773C7.52505 14.7129 7.01297 13.8555 5.77824 13.2661C5.47103 13.1209 5.33814 12.7534 5.48333 12.4462C5.62812 12.139 5.99357 12.0069 6.30078 12.1521L6.30898 12.1558C7.6974 12.8189 8.36124 13.7739 8.49921 13.908C8.62025 13.7908 9.30492 12.8187 10.6817 12.1595L10.6935 12.1538C10.9995 12.0065 11.3674 12.1353 11.5147 12.4417C11.6619 12.7481 11.5327 13.1156 11.2268 13.2628L11.2132 13.2694C9.99058 13.8542 9.46074 14.7266 9.11482 15.0769V21H15.6035C15.9095 21 16.1691 20.7748 16.2126 20.4717C16.6863 17.1564 16.672 14.9502 16.163 12.8568ZM8.49921 8.69531C8.15919 8.69531 7.88398 8.41969 7.88398 8.08008C7.88398 7.74047 8.15919 7.46484 8.49921 7.46484C8.83882 7.46484 9.11445 7.74047 9.11445 8.08008C9.11445 8.41969 8.83882 8.69531 8.49921 8.69531Z" fill="white"/>
</svg>
