<svg width="83" height="83" viewBox="0 0 83 83" fill="none" xmlns="http://www.w3.org/2000/svg">
<path fill-rule="evenodd" clip-rule="evenodd" d="M31.6667 6.91406C29.4575 6.91406 27.6667 8.70492 27.6667 10.9141V16.7474C27.6667 18.9565 29.4575 20.7474 31.6667 20.7474H51.3333C53.5425 20.7474 55.3333 18.9565 55.3333 16.7474V10.9141C55.3333 8.70492 53.5425 6.91406 51.3333 6.91406H31.6667ZM22.4791 13.8301V13.8307C22.4791 20.5157 27.8983 25.9349 34.5833 25.9349H48.4166C55.1016 25.9349 60.5208 20.5157 60.5208 13.8307V13.8301H68.625C70.8341 13.8301 72.625 15.6209 72.625 17.8301V72.0801C72.625 74.2892 70.8341 76.0801 68.625 76.0801H14.375C12.1659 76.0801 10.375 74.2892 10.375 72.0801V17.8301C10.375 15.6209 12.1659 13.8301 14.375 13.8301H22.4791ZM38.1618 37.2987C38.3998 37.3374 38.6047 37.488 38.7125 37.7037L45.1638 50.6063L51.3447 44.4254C51.4854 44.2847 51.6761 44.2057 51.875 44.2057H58.7917C59.2059 44.2057 59.5417 44.5415 59.5417 44.9557C59.5417 45.3699 59.2059 45.7057 58.7917 45.7057H52.1857L45.4887 52.4027C45.3182 52.5732 45.0762 52.6513 44.8382 52.6127C44.6003 52.5741 44.3954 52.4234 44.2876 52.2078L37.8362 39.3052L31.6554 45.4861C31.5147 45.6267 31.324 45.7057 31.125 45.7057H24.2084C23.7942 45.7057 23.4584 45.3699 23.4584 44.9557C23.4584 44.5415 23.7942 44.2057 24.2084 44.2057H30.8144L37.5114 37.5087C37.6818 37.3383 37.9239 37.2601 38.1618 37.2987Z" fill="#36B4F1"/>
</svg>
