<svg width="52" height="52" viewBox="0 0 52 52" fill="none" xmlns="http://www.w3.org/2000/svg">
<path d="M50.6355 40.1153L40.1105 33.0964C38.7748 32.2128 36.9845 32.5035 35.997 33.7644L32.9312 37.7063C32.5372 38.2258 31.821 38.3765 31.251 38.0599L30.6678 37.7384C28.7345 36.6846 26.3291 35.3728 21.4825 30.5245C16.636 25.6762 15.3214 23.2689 14.2677 21.3392L13.9479 20.756C13.6269 20.1861 13.7748 19.4669 14.2945 19.0697L18.2337 16.0048C19.4941 15.0173 19.7853 13.2274 18.9027 11.8913L11.8838 1.36635C10.9793 0.00581794 9.16462 -0.402606 7.76439 0.439121L3.36322 3.08291C1.98035 3.8959 0.965785 5.21256 0.532279 6.757C-1.05257 12.5316 0.139696 22.4977 14.8206 37.1803C26.499 48.8577 35.193 51.9981 41.1686 51.9981C42.5439 52.004 43.9137 51.8251 45.2414 51.4661C46.7861 51.0331 48.103 50.0184 48.9155 48.6352L51.5619 44.2366C52.4048 42.8361 51.9966 41.0203 50.6355 40.1153ZM50.0687 43.3475L47.4284 47.7486C46.845 48.7471 45.8979 49.4811 44.7854 49.7972C39.4545 51.2608 30.141 50.0485 16.0467 35.9542C1.95242 21.8599 0.740248 12.5472 2.20385 7.21548C2.52027 6.10171 3.25527 5.15336 4.25491 4.56905L8.65607 1.92872C9.26363 1.56315 10.0512 1.74035 10.4437 2.33075L14.2565 8.05508L17.4567 12.8548C17.8399 13.4343 17.714 14.2111 17.1673 14.6399L13.2271 17.7048C12.0281 18.6217 11.6856 20.2807 12.4239 21.5973L12.7368 22.1658C13.8442 24.197 15.2211 26.7238 20.2479 31.7497C25.2747 36.7756 27.8007 38.1526 29.8309 39.26L30.4002 39.5737C31.7168 40.3118 33.3759 39.9695 34.2927 38.7704L37.3576 34.8303C37.7866 34.2839 38.563 34.158 39.1427 34.5409L49.6668 41.5598C50.2576 41.952 50.4348 42.74 50.0687 43.3475Z" fill="white"/>
<path d="M29.4642 8.67051C37.5962 8.67955 44.1862 15.2697 44.1953 23.4017C44.1953 23.8803 44.5833 24.2682 45.0618 24.2682C45.5404 24.2682 45.9284 23.8803 45.9284 23.4017C45.9183 14.3129 38.553 6.94745 29.4642 6.9375C28.9856 6.9375 28.5977 7.32541 28.5977 7.804C28.5977 8.2826 28.9856 8.67051 29.4642 8.67051Z" fill="white"/>
<path d="M29.4642 13.8717C34.7259 13.8779 38.9899 18.1419 38.9961 23.4036C38.9961 23.8822 39.3841 24.2701 39.8626 24.2701C40.3412 24.2701 40.7291 23.8822 40.7291 23.4036C40.7219 17.1851 35.6826 12.1458 29.4642 12.1387C28.9856 12.1387 28.5977 12.5266 28.5977 13.0052C28.5977 13.4838 28.9856 13.8717 29.4642 13.8717Z" fill="white"/>
<path d="M29.4642 19.0709C31.8558 19.0737 33.7939 21.0119 33.7969 23.4036C33.7969 23.8822 34.1849 24.2701 34.6634 24.2701C35.1419 24.2701 35.5299 23.8822 35.5299 23.4036C35.526 20.0552 32.8126 17.3416 29.4642 17.3379C28.9856 17.3379 28.5977 17.7258 28.5977 18.2044C28.5977 18.683 28.9856 19.0709 29.4642 19.0709Z" fill="white"/>
</svg>
