<svg width="27" height="27" viewBox="0 0 27 27" fill="none" xmlns="http://www.w3.org/2000/svg">
<mask id="mask0_6_16849" style="mask-type:alpha" maskUnits="userSpaceOnUse" x="2" y="2" width="23" height="23">
<path fill-rule="evenodd" clip-rule="evenodd" d="M12.2132 9.38026C12.7961 8.59477 13.0051 7.76694 12.3459 7.03622C10.8666 4.96624 9.87167 3.68618 9.24763 3.06973C8.06125 1.89778 6.10964 2.0563 5.08215 3.06872C4.53027 3.61251 4.34344 3.79924 3.77678 4.37481C0.620427 7.53286 2.54534 14.2089 7.66245 19.331C12.7784 24.452 19.4538 26.3779 22.6168 23.2132C23.1397 22.7091 23.5824 22.2661 23.9315 21.8971C24.9385 20.8328 25.0913 18.9673 23.9249 17.7553C23.3269 17.134 22.1062 16.1871 19.9492 14.6442C19.2885 14.0534 18.5052 14.1815 17.7871 14.6526C17.4416 14.8793 17.1902 15.1085 16.7155 15.5837L15.8535 16.4462C15.7399 16.5598 14.1982 15.7877 12.7017 14.2897C11.2043 12.7908 10.4328 11.2491 10.5458 11.1361C10.7788 10.903 11.0663 10.6154 11.4084 10.273C11.559 10.1222 11.631 10.0492 11.7233 9.95217C11.9157 9.74998 12.075 9.56649 12.2132 9.38026ZM17.4438 18.0368L18.306 17.1742C18.5673 16.9127 18.7366 16.7519 18.8743 16.641C20.764 17.998 21.8583 18.8512 22.3053 19.3157C22.5737 19.5945 22.532 20.1034 22.2987 20.35C21.9758 20.6912 21.5564 21.1109 21.0416 21.6074C18.9963 23.6536 13.6078 22.0989 9.25315 17.74C4.89717 13.3798 3.34325 7.99043 5.3731 5.95946C5.93747 5.38626 6.11628 5.20754 6.66028 4.67152C6.86425 4.47055 7.41984 4.42542 7.66797 4.67052C8.14842 5.14513 9.03964 6.28627 10.3507 8.11253C10.2828 8.19679 10.198 8.29202 10.0949 8.40043C10.0192 8.48001 9.95608 8.54395 9.81818 8.68199C9.4764 9.02411 9.18913 9.31153 8.95641 9.54424C7.49037 11.0102 8.7389 13.5051 11.1115 15.88C13.4824 18.2533 15.9783 19.5032 17.4438 18.0368Z" fill="white"/>
</mask>
<g mask="url(#mask0_6_16849)">
<rect width="27" height="27" fill="#C4D1DB"/>
</g>
</svg>
