<svg width="38" height="39" viewBox="0 0 38 39" fill="none" xmlns="http://www.w3.org/2000/svg">
<path d="M5.40242 0.970448L3.32143 2.35242C1.25693 3.72643 0.0348519 6.1416 0.113976 8.70576C0.299773 14.7997 3.72704 21.2813 10.3937 28.1525C17.0504 35.0135 23.2791 38.4875 29.0778 38.5767C31.5324 38.6136 33.8247 37.2751 35.0896 35.0666L36.3609 32.8439C36.9352 31.8336 37.1428 30.6581 36.9484 29.5178C36.7539 28.3774 36.1695 27.3427 35.2946 26.5899L31.6918 23.5631C30.9553 22.9331 30.0299 22.5649 29.0587 22.5155C28.0876 22.466 27.1247 22.7381 26.3193 23.2895L21.9364 26.2793C19.6036 25.3806 17.4833 24.0121 15.7064 22.2583C13.8527 20.4514 12.5028 18.461 11.6587 16.2852L14.6661 11.3538C15.1921 10.4788 15.4413 9.46685 15.3808 8.45165C15.3203 7.43646 14.9529 6.46584 14.3272 5.66811L11.3912 1.95993C9.91832 0.0965997 7.35519 -0.327421 5.40242 0.970448Z" fill="#36B4F1"/>
</svg>
