<svg width="39" height="45" viewBox="0 0 39 45" fill="none" xmlns="http://www.w3.org/2000/svg">
<path d="M37.85 19.6583V19.6594V35.6246C37.8472 38.0041 36.9006 40.2854 35.218 41.968C33.5354 43.6507 31.2541 44.5972 28.8745 44.6H10.1255C7.74591 44.5972 5.46462 43.6507 3.78201 41.968C2.09945 40.2855 1.15292 38.0043 1.15 35.6248V9.37528C1.15292 6.99579 2.09945 4.7146 3.782 3.03205C5.46456 1.34949 7.74575 0.402959 10.1252 0.400043L18.5906 0.400045L18.5917 0.400042C20.2631 0.39574 21.9188 0.72281 23.463 1.36234C25.0072 2.00187 26.4094 2.94117 27.5883 4.12594L27.589 4.12655L34.1214 10.6628L34.1224 10.6638C35.3078 11.8419 36.2477 13.2436 36.8875 14.7875C37.5274 16.3315 37.8545 17.987 37.85 19.6583ZM25.5035 6.21228L25.5036 6.21224L25.4989 6.20773C24.8837 5.61181 24.193 5.09918 23.4444 4.68295L22.85 4.35245V5.03254V13.125C22.85 13.7284 23.0897 14.3071 23.5163 14.7337C23.943 15.1604 24.5216 15.4 25.125 15.4H33.2175H33.8979L33.567 14.8055C33.1505 14.057 32.637 13.3667 32.0399 12.7525L32.04 12.7525L32.036 12.7485L25.5035 6.21228ZM34.8102 18.7132L34.7765 18.35H34.4119H25.125C23.7392 18.35 22.4102 17.7996 21.4304 16.8197C20.4505 15.8398 19.9 14.5108 19.9 13.125V3.83817V3.47349L19.5369 3.43987C19.4388 3.43079 19.3457 3.41868 19.2447 3.40556C19.1971 3.39937 19.1478 3.39296 19.0954 3.38653C18.9397 3.36744 18.7691 3.35004 18.5906 3.35004H10.125C8.52707 3.35004 6.99459 3.98482 5.86468 5.11473C4.73478 6.24463 4.1 7.77711 4.1 9.37504V35.625C4.1 37.223 4.73478 38.7555 5.86468 39.8854L6.14752 39.6025L5.86468 39.8854C6.99459 41.0153 8.52707 41.65 10.125 41.65H28.875C30.4729 41.65 32.0054 41.0153 33.1353 39.8854C34.2652 38.7555 34.9 37.223 34.9 35.625V19.6594C34.9 19.48 34.8826 19.3095 34.8635 19.1538C34.8571 19.1014 34.8506 19.0522 34.8445 19.0047C34.8313 18.904 34.8192 18.8112 34.8102 18.7132ZM28.475 26.25C28.475 26.6412 28.3196 27.0164 28.043 27.293C27.7664 27.5696 27.3912 27.725 27 27.725H12C11.6088 27.725 11.2336 27.5696 10.957 27.293C10.6804 27.0164 10.525 26.6412 10.525 26.25C10.525 25.8588 10.6804 25.4837 10.957 25.2071C11.2336 24.9304 11.6088 24.775 12 24.775H27C27.3912 24.775 27.7664 24.9304 28.043 25.2071C28.3196 25.4837 28.475 25.8588 28.475 26.25ZM12 32.275H21.375C21.7662 32.275 22.1414 32.4304 22.418 32.7071C22.6946 32.9837 22.85 33.3588 22.85 33.75C22.85 34.1412 22.6946 34.5164 22.418 34.793C22.1414 35.0696 21.7662 35.225 21.375 35.225H12C11.6088 35.225 11.2336 35.0696 10.957 34.793C10.6804 34.5164 10.525 34.1412 10.525 33.75C10.525 33.3588 10.6804 32.9837 10.957 32.7071C11.2336 32.4304 11.6088 32.275 12 32.275Z" fill="#36B4F1" stroke="white" stroke-width="0.8"/>
</svg>
