<svg width="16" height="16" viewBox="0 0 16 16" fill="none" xmlns="http://www.w3.org/2000/svg">
<path d="M7.21962 1.43092C7.55651 0.813194 8.44349 0.813195 8.78038 1.43092L10.2902 4.19933C10.418 4.43375 10.6445 4.59828 10.9069 4.64743L14.0064 5.22786C14.698 5.35737 14.9721 6.20094 14.4887 6.71223L12.3224 9.00362C12.1389 9.19765 12.0524 9.46387 12.0868 9.72867L12.4925 12.8558C12.5831 13.5536 11.8655 14.0749 11.2299 13.7732L8.38118 12.4209C8.13996 12.3064 7.86004 12.3064 7.61882 12.4209L4.77013 13.7732C4.13449 14.0749 3.41691 13.5536 3.50745 12.8558L3.91322 9.72867C3.94758 9.46387 3.86108 9.19765 3.67764 9.00362L1.51128 6.71223C1.0279 6.20094 1.30199 5.35737 1.99358 5.22786L5.09305 4.64743C5.35551 4.59828 5.58197 4.43375 5.70982 4.19933L7.21962 1.43092Z" fill="#FE7200"/>
</svg>
