<svg width="14" height="14" viewBox="0 0 14 14" fill="none" xmlns="http://www.w3.org/2000/svg">
<g id="fi-sr-star" clip-path="url(#clip0_3785_46720)">
<path id="Star 1" d="M6.94 0.889909C7.06471 0.661231 7.39306 0.661232 7.51778 0.889908L9.02962 3.66204C9.19864 3.97198 9.49805 4.18951 9.84505 4.25449L12.9487 4.8357C13.2047 4.88364 13.3062 5.19593 13.1272 5.3852L10.958 7.67968C10.7154 7.93621 10.6011 8.28818 10.6465 8.63828L11.0528 11.7696C11.0863 12.0279 10.8207 12.2209 10.5854 12.1092L7.73285 10.7552C7.41393 10.6038 7.04385 10.6038 6.72492 10.7552L3.8724 12.1092C3.63709 12.2209 3.37145 12.0279 3.40496 11.7696L3.81128 8.63828C3.85671 8.28818 3.74235 7.93621 3.49982 7.67968L1.33054 5.3852C1.1516 5.19592 1.25306 4.88364 1.50909 4.8357L4.61273 4.25449C4.95973 4.18951 5.25913 3.97198 5.42816 3.66204L6.94 0.889909Z" stroke="#FE7200" stroke-width="0.846154"/>
</g>
<defs>
<clipPath id="clip0_3785_46720">
<rect width="13.5385" height="13.5385" fill="white" transform="translate(0.461426 0.230469)"/>
</clipPath>
</defs>
</svg>
