<svg width="10" height="11" viewBox="0 0 10 11" fill="none" xmlns="http://www.w3.org/2000/svg">
<g clip-path="url(#clip0_1152_44249)">
<path d="M3.71962 0.864515C4.05651 0.246789 4.94349 0.246789 5.28038 0.864515L6.01137 2.20487C6.13922 2.43929 6.36567 2.60383 6.62813 2.65298L8.12877 2.93399C8.82037 3.06351 9.09446 3.90708 8.61107 4.41836L7.56221 5.52777C7.37877 5.7218 7.29227 5.98802 7.32663 6.25282L7.52308 7.76685C7.61363 8.46462 6.89604 8.98598 6.2604 8.68424L4.88118 8.02954C4.63996 7.91503 4.36004 7.91503 4.11882 8.02954L2.7396 8.68424C2.10396 8.98598 1.38637 8.46462 1.47691 7.76685L1.67337 6.25282C1.70773 5.98802 1.62123 5.7218 1.43779 5.52777L0.388925 4.41836C-0.0944622 3.90708 0.179631 3.06351 0.871226 2.93399L2.37187 2.65298C2.63432 2.60383 2.86078 2.43929 2.98863 2.20487L3.71962 0.864515Z" fill="white"/>
</g>
<defs>
<clipPath id="clip0_1152_44249">
<rect width="10" height="10" fill="white" transform="translate(0 0.433594)"/>
</clipPath>
</defs>
</svg>
