<svg width="28" height="29" viewBox="0 0 28 29" fill="none" xmlns="http://www.w3.org/2000/svg">
<path d="M13.2196 2.26686C13.5565 1.64913 14.4435 1.64913 14.7804 2.26686L18.1593 8.46259C18.2872 8.69702 18.5136 8.86155 18.7761 8.9107L25.7128 10.2097C26.4044 10.3392 26.6784 11.1828 26.1951 11.6941L21.3467 16.8222C21.1633 17.0163 21.0768 17.2825 21.1111 17.5473L22.0193 24.5458C22.1098 25.2436 21.3922 25.765 20.7566 25.4632L14.3812 22.4369C14.14 22.3224 13.86 22.3224 13.6188 22.4369L7.24342 25.4632C6.60778 25.765 5.8902 25.2436 5.98074 24.5458L6.88886 17.5473C6.92322 17.2825 6.83672 17.0163 6.65328 16.8222L1.80494 11.6941C1.32156 11.1828 1.59565 10.3392 2.28725 10.2097L9.2239 8.9107C9.48635 8.86155 9.71281 8.69702 9.84066 8.46259L13.2196 2.26686Z" fill="#FE7200"/>
</svg>
