<svg width="20" height="20" viewBox="0 0 20 20" fill="none" xmlns="http://www.w3.org/2000/svg">
<g clip-path="url(#clip0_3648_56721)">
<path d="M19.7558 4.41036L15.5892 0.243692C15.432 0.0918938 15.2215 0.00789844 15.003 0.00979713C14.7845 0.0116958 14.5755 0.0993366 14.421 0.253843C14.2665 0.40835 14.1788 0.617361 14.1769 0.835858C14.175 1.05436 14.259 1.26486 14.4108 1.42203L15.905 2.91619L14.6667 4.15203C13.8663 3.56437 12.8824 3.28184 11.8922 3.35533C10.902 3.42882 9.97064 3.8535 9.26582 4.55286L4.20832 9.61286C3.66505 10.1532 3.23434 10.7959 2.94111 11.5038C2.64787 12.2118 2.49794 12.9708 2.49999 13.737V16.3204L0.244153 18.577C0.164561 18.6539 0.101076 18.7459 0.0574018 18.8475C0.0137276 18.9492 -0.00926093 19.0585 -0.0102224 19.1692C-0.011184 19.2798 0.0099008 19.3896 0.0518015 19.492C0.0937023 19.5944 0.15558 19.6874 0.233824 19.7657C0.312068 19.8439 0.405111 19.9058 0.507525 19.9477C0.609938 19.9896 0.719671 20.0107 0.830321 20.0097C0.94097 20.0088 1.05032 19.9858 1.15199 19.9421C1.25366 19.8984 1.34561 19.8349 1.42249 19.7554L3.67832 17.4995H6.26165C7.02789 17.5016 7.78692 17.3516 8.49483 17.0584C9.20274 16.7652 9.84547 16.3345 10.3858 15.7912L15.4458 10.7312C16.1457 10.0272 16.5709 9.09623 16.6446 8.10628C16.7182 7.11632 16.4355 6.13265 15.8475 5.33286L17.0833 4.09453L18.5775 5.58869C18.7347 5.74049 18.9452 5.82449 19.1637 5.82259C19.3822 5.82069 19.5912 5.73305 19.7457 5.57854C19.9002 5.42403 19.9878 5.21502 19.9897 4.99653C19.9916 4.77803 19.9076 4.56753 19.7558 4.41036ZM14.2683 9.55286L9.20832 14.6129C8.82234 15.0009 8.36324 15.3085 7.85759 15.5179C7.35194 15.7273 6.80978 15.8344 6.26249 15.8329H4.16665V13.737C4.16691 13.464 4.19342 13.1916 4.24582 12.9237L5.24582 13.9237C5.32269 14.0033 5.41465 14.0668 5.51632 14.1104C5.61799 14.1541 5.72734 14.1771 5.83799 14.1781C5.94863 14.179 6.05837 14.1579 6.16078 14.116C6.26319 14.0741 6.35624 14.0123 6.43448 13.934C6.51273 13.8558 6.5746 13.7627 6.6165 13.6603C6.6584 13.5579 6.67949 13.4482 6.67853 13.3375C6.67757 13.2269 6.65458 13.1175 6.6109 13.0159C6.56723 12.9142 6.50374 12.8222 6.42415 12.7454L4.97332 11.2945C5.09893 11.1172 5.23824 10.95 5.38999 10.7945L6.24999 9.92786L7.74415 11.422C7.90132 11.5738 8.11182 11.6578 8.33032 11.6559C8.54882 11.654 8.75783 11.5664 8.91233 11.4119C9.06684 11.2574 9.15448 11.0484 9.15638 10.8299C9.15828 10.6114 9.07428 10.4009 8.92249 10.2437L7.42832 8.74953L8.74999 7.42786L10.2442 8.92202C10.4013 9.07382 10.6118 9.15782 10.8303 9.15592C11.0488 9.15402 11.2578 9.06638 11.4123 8.91187C11.5668 8.75737 11.6545 8.54836 11.6564 8.32986C11.6583 8.11136 11.5743 7.90086 11.4225 7.74369L9.92832 6.24953L10.4467 5.73119C10.923 5.27688 11.5559 5.02341 12.2142 5.02341C12.8724 5.02341 13.5053 5.27688 13.9817 5.73119L14.2683 6.01786C14.737 6.48668 15.0003 7.12245 15.0003 7.78536C15.0003 8.44827 14.737 9.08404 14.2683 9.55286Z" fill="#36B4F1"/>
</g>
<defs>
<clipPath id="clip0_3648_56721">
<rect width="20" height="20" fill="white"/>
</clipPath>
</defs>
</svg>
