<svg width="28" height="28" viewBox="0 0 28 28" fill="none" xmlns="http://www.w3.org/2000/svg">
<g clip-path="url(#clip0_2522_135940)">
<path d="M27.6569 6.17646L21.8235 0.343122C21.6035 0.130604 21.3088 0.0130109 21.0029 0.0156691C20.697 0.0183273 20.4044 0.141024 20.1881 0.357334C19.9718 0.573643 19.8491 0.866258 19.8464 1.17215C19.8438 1.47805 19.9614 1.77275 20.1739 1.99279L22.2657 4.08462L19.3782 6.97212C18.4579 6.30131 17.3613 5.91459 16.2237 5.85965C15.0862 5.80471 13.9574 6.08396 12.9767 6.66296L15.9902 9.67646C16.1016 9.78408 16.1905 9.91281 16.2517 10.0552C16.3128 10.1975 16.345 10.3506 16.3463 10.5055C16.3477 10.6604 16.3182 10.814 16.2595 10.9574C16.2008 11.1008 16.1142 11.231 16.0047 11.3406C15.8951 11.4501 15.7649 11.5368 15.6215 11.5954C15.4781 11.6541 15.3245 11.6836 15.1696 11.6822C15.0147 11.6809 14.8616 11.6487 14.7192 11.5876C14.5769 11.5264 14.4482 11.4376 14.3405 11.3261L11.1824 8.16796L9.33204 10.0183L12.4902 13.1765C12.6016 13.2841 12.6905 13.4128 12.7517 13.5552C12.8128 13.6975 12.845 13.8506 12.8463 14.0055C12.8477 14.1604 12.8182 14.314 12.7595 14.4574C12.7008 14.6008 12.6142 14.731 12.5047 14.8406C12.3951 14.9501 12.2649 15.0368 12.1215 15.0954C11.9781 15.1541 11.8245 15.1836 11.6696 15.1822C11.5147 15.1809 11.3616 15.1487 11.2192 15.0876C11.0769 15.0264 10.9482 14.9375 10.8405 14.8261L7.68238 11.668L5.83204 13.5206L8.98788 16.6765C9.09931 16.7841 9.18819 16.9128 9.24933 17.0551C9.31047 17.1975 9.34266 17.3506 9.344 17.5055C9.34535 17.6604 9.31583 17.814 9.25717 17.9574C9.19851 18.1008 9.11188 18.231 9.00234 18.3406C8.8928 18.4501 8.76254 18.5368 8.61916 18.5954C8.47578 18.6541 8.32215 18.6836 8.16724 18.6822C8.01233 18.6809 7.85924 18.6487 7.71691 18.5876C7.57457 18.5264 7.44583 18.4375 7.33821 18.3261L4.43904 15.4246C3.81907 16.5984 3.49621 17.9063 3.49871 19.2338V22.8505L0.340545 26.0098C0.229116 26.1174 0.140237 26.2461 0.0790929 26.3885C0.0179491 26.5308 -0.0142348 26.6839 -0.015581 26.8388C-0.0169271 26.9937 0.0125916 27.1474 0.0712526 27.2907C0.129914 27.4341 0.216542 27.5644 0.326084 27.6739C0.435625 27.7835 0.565886 27.8701 0.709265 27.9287C0.852644 27.9874 1.00627 28.0169 1.16118 28.0156C1.31609 28.0142 1.46918 27.982 1.61152 27.9209C1.75385 27.8598 1.88259 27.7709 1.99021 27.6595L5.14838 24.5013H8.76504C9.83777 24.5042 10.9004 24.2942 11.8915 23.8837C12.8826 23.4732 13.7824 22.8702 14.5389 22.1096L20.4562 16.1923C21.4361 15.2067 22.0313 13.9033 22.1344 12.5174C22.2376 11.1315 21.8418 9.75433 21.0185 8.63462L23.9154 5.73429L26.0072 7.82612C26.2272 8.03864 26.5219 8.15623 26.8278 8.15357C27.1337 8.15092 27.4264 8.02822 27.6427 7.81191C27.859 7.5956 27.9817 7.30299 27.9843 6.99709C27.987 6.69119 27.8694 6.39649 27.6569 6.17646Z" fill="white"/>
</g>
<defs>
<clipPath id="clip0_2522_135940">
<rect width="28" height="28" fill="white"/>
</clipPath>
</defs>
</svg>
