<svg width="40" height="41" viewBox="0 0 40 41" fill="none" xmlns="http://www.w3.org/2000/svg">
<circle cx="20" cy="20.4922" r="20" fill="#36B4F1"/>
<path d="M9.3507 20.8663L13.9488 22.5808L15.7413 28.3479C15.8192 28.7376 16.2868 28.8155 16.5985 28.5817L19.1703 26.4775C19.4041 26.2437 19.7938 26.2437 20.1055 26.4775L24.7036 29.8286C25.0154 30.0624 25.483 29.9066 25.5609 29.5169L28.99 13.1508C29.0679 12.7612 28.6782 12.3715 28.2886 12.5274L9.3507 19.8531C8.8831 20.009 8.8831 20.7104 9.3507 20.8663ZM15.5075 21.7235L24.5477 16.1903C24.7036 16.1123 24.8595 16.3461 24.7036 16.4241L17.2999 23.3601C17.0661 23.5939 16.8323 23.9057 16.8323 24.2953L16.5985 26.1658C16.5985 26.3996 16.2089 26.4775 16.1309 26.1658L15.1957 22.7367C14.9619 22.347 15.1178 21.8794 15.5075 21.7235Z" fill="white"/>
</svg>
