<svg width="28" height="20" viewBox="0 0 28 20" fill="none" xmlns="http://www.w3.org/2000/svg">
<path d="M10 10C12.7614 10 15 7.76142 15 5C15 2.23858 12.7614 0 10 0C7.23858 0 5 2.23858 5 5C5 7.76142 7.23858 10 10 10Z" fill="#D8DDE4"/>
<path d="M10 11.666C8.01155 11.6682 6.10518 12.4591 4.69914 13.8652C3.29309 15.2712 2.50221 17.1776 2.5 19.166C2.5 19.387 2.5878 19.599 2.74408 19.7553C2.90036 19.9116 3.11232 19.9993 3.33333 19.9993H16.6667C16.8877 19.9993 17.0996 19.9116 17.2559 19.7553C17.4122 19.599 17.5 19.387 17.5 19.166C17.4978 17.1776 16.7069 15.2712 15.3009 13.8652C13.8948 12.4591 11.9884 11.6682 10 11.666Z" fill="#D8DDE4"/>
<path d="M25.9172 11.6567L22.6745 11.6567L22.6745 14.8995C22.6699 15.1617 22.5626 15.4116 22.3755 15.5953C22.1885 15.7791 21.9368 15.8821 21.6746 15.8821C21.4124 15.8821 21.1607 15.7791 20.9737 15.5953C20.7867 15.4116 20.6793 15.1617 20.6748 14.8995L20.6748 11.6567L17.432 11.6567C17.2992 11.659 17.1673 11.6349 17.044 11.5856C16.9206 11.5364 16.8084 11.4632 16.7137 11.3701C16.6189 11.277 16.5437 11.166 16.4924 11.0435C16.441 10.9211 16.4146 10.7896 16.4146 10.6569C16.4146 10.5241 16.441 10.3926 16.4924 10.2702C16.5437 10.1477 16.6189 10.0367 16.7137 9.94363C16.8084 9.85056 16.9206 9.77728 17.044 9.72807C17.1673 9.67885 17.2992 9.6547 17.432 9.657L20.6748 9.65701L20.6748 6.41421C20.6793 6.15205 20.7867 5.90216 20.9737 5.71837C21.1607 5.53458 21.4124 5.43159 21.6746 5.43159C21.9368 5.43159 22.1885 5.53458 22.3755 5.71837C22.5626 5.90216 22.6699 6.15205 22.6745 6.41421L22.6745 9.65701L25.9172 9.657C26.1794 9.66156 26.4293 9.76891 26.6131 9.95592C26.7969 10.1429 26.8999 10.3946 26.8999 10.6569C26.8999 10.9191 26.7969 11.1708 26.6131 11.3578C26.4293 11.5448 26.1794 11.6521 25.9172 11.6567Z" fill="#D8DDE4"/>
</svg>
