<svg width="23" height="22" viewBox="0 0 23 22" fill="none" xmlns="http://www.w3.org/2000/svg">
<g id="fi-rr-user" clip-path="url(#clip0_2154_58072)">
<path id="Vector" d="M11.459 11C12.5468 11 13.6102 10.6774 14.5146 10.0731C15.4191 9.46874 16.124 8.60976 16.5403 7.60476C16.9566 6.59977 17.0655 5.4939 16.8533 4.42701C16.6411 3.36011 16.1173 2.3801 15.3481 1.61092C14.5789 0.841726 13.5989 0.317902 12.532 0.105683C11.4651 -0.106535 10.3592 0.00238307 9.35423 0.418665C8.34923 0.834947 7.49025 1.5399 6.8859 2.44437C6.28155 3.34884 5.95898 4.41221 5.95898 5.5C5.96044 6.95825 6.54037 8.35635 7.57151 9.38748C8.60264 10.4186 10.0007 10.9985 11.459 11ZM11.459 1.83334C12.1842 1.83334 12.8931 2.04838 13.4961 2.45128C14.0991 2.85418 14.569 3.42683 14.8465 4.09683C15.1241 4.76683 15.1967 5.50407 15.0552 6.21533C14.9137 6.9266 14.5645 7.57994 14.0517 8.09273C13.5389 8.60552 12.8856 8.95474 12.1743 9.09622C11.4631 9.23769 10.7258 9.16508 10.0558 8.88756C9.38582 8.61004 8.81316 8.14007 8.41026 7.53709C8.00736 6.93411 7.79232 6.2252 7.79232 5.5C7.79232 4.52754 8.17863 3.59491 8.86626 2.90728C9.55389 2.21964 10.4865 1.83334 11.459 1.83334Z" fill="#FE7200"/>
<path id="Vector_2" d="M11.459 12.833C9.27169 12.8354 7.17468 13.7054 5.62803 15.2521C4.08138 16.7987 3.21141 18.8957 3.20898 21.083C3.20898 21.3261 3.30556 21.5593 3.47747 21.7312C3.64938 21.9031 3.88254 21.9997 4.12565 21.9997C4.36877 21.9997 4.60192 21.9031 4.77383 21.7312C4.94574 21.5593 5.04232 21.3261 5.04232 21.083C5.04232 19.3812 5.71836 17.7491 6.92172 16.5457C8.12507 15.3424 9.75718 14.6663 11.459 14.6663C13.1608 14.6663 14.7929 15.3424 15.9963 16.5457C17.1996 17.7491 17.8757 19.3812 17.8757 21.083C17.8757 21.3261 17.9722 21.5593 18.1441 21.7312C18.316 21.9031 18.5492 21.9997 18.7923 21.9997C19.0354 21.9997 19.2686 21.9031 19.4405 21.7312C19.6124 21.5593 19.709 21.3261 19.709 21.083C19.7066 18.8957 18.8366 16.7987 17.2899 15.2521C15.7433 13.7054 13.6463 12.8354 11.459 12.833Z" fill="#FE7200"/>
</g>
<defs>
<clipPath id="clip0_2154_58072">
<rect width="22" height="22" fill="white" transform="translate(0.458984)"/>
</clipPath>
</defs>
</svg>
