<svg width="20" height="20" viewBox="0 0 20 20" fill="none" xmlns="http://www.w3.org/2000/svg">
<path d="M10 10C12.7614 10 15 7.76142 15 5C15 2.23858 12.7614 0 10 0C7.23858 0 5 2.23858 5 5C5 7.76142 7.23858 10 10 10Z" fill="#D8DDE4"/>
<path d="M10 11.6667C8.01155 11.669 6.10518 12.4598 4.69914 13.8659C3.29309 15.2719 2.50221 17.1783 2.5 19.1667C2.5 19.3878 2.5878 19.5997 2.74408 19.756C2.90036 19.9123 3.11232 20.0001 3.33333 20.0001H16.6667C16.8877 20.0001 17.0996 19.9123 17.2559 19.756C17.4122 19.5997 17.5 19.3878 17.5 19.1667C17.4978 17.1783 16.7069 15.2719 15.3009 13.8659C13.8948 12.4598 11.9884 11.669 10 11.6667Z" fill="#D8DDE4"/>
</svg>
