<svg width="20" height="20" viewBox="0 0 20 20" fill="none" xmlns="http://www.w3.org/2000/svg">
<path d="M10 11.6665C8.01155 11.6687 6.10518 12.4596 4.69914 13.8656C3.29309 15.2717 2.50221 17.1781 2.5 19.1665C2.5 19.3875 2.5878 19.5995 2.74408 19.7558C2.90036 19.912 3.11232 19.9998 3.33333 19.9998H16.6667C16.8877 19.9998 17.0996 19.912 17.2559 19.7558C17.4122 19.5995 17.5 19.3875 17.5 19.1665C17.4978 17.1781 16.7069 15.2717 15.3009 13.8656C13.8948 12.4596 11.9884 11.6687 10 11.6665Z" fill="white"/>
<path d="M10 10C12.7614 10 15 7.76142 15 5C15 2.23858 12.7614 0 10 0C7.23858 0 5 2.23858 5 5C5 7.76142 7.23858 10 10 10Z" fill="white"/>
</svg>
