<svg width="35" height="34" viewBox="0 0 35 34" fill="none" xmlns="http://www.w3.org/2000/svg">
<g id="vuesax/linear/empty-wallet">
<g id="Group">
<path id="Vector" d="M26.016 19.1981C25.421 19.7789 25.081 20.6148 25.166 21.5073C25.2935 23.0373 26.696 24.1564 28.226 24.1564H30.9176V25.8423C30.9176 28.7748 28.5235 31.1689 25.591 31.1689H9.32764C6.39514 31.1689 4.00098 28.7748 4.00098 25.8423V16.3081C4.00098 13.3756 6.39514 10.9814 9.32764 10.9814H25.591C28.5235 10.9814 30.9176 13.3756 30.9176 16.3081V18.3481H28.056C27.2626 18.3481 26.5401 18.6598 26.016 19.1981Z" stroke="#36B4F1" stroke-width="2.5" stroke-linecap="round" stroke-linejoin="round"/>
<path id="Vector_2" d="M4.00098 17.5823V11.1082C4.00098 9.42238 5.03514 7.92065 6.60764 7.32565L17.856 3.07566C19.6126 2.40982 21.4968 3.7132 21.4968 5.59736V10.9807" stroke="#36B4F1" stroke-width="2.5" stroke-linecap="round" stroke-linejoin="round"/>
</g>
<path id="Vector_3" d="M32.4176 19.7926V22.711C32.4176 23.4902 31.7943 24.1276 31.001 24.156H28.2243C26.6943 24.156 25.2918 23.0368 25.1643 21.5068C25.0793 20.6143 25.4193 19.7785 26.0143 19.1976C26.5385 18.6593 27.261 18.3477 28.0543 18.3477H31.001C31.7943 18.376 32.4176 19.0134 32.4176 19.7926Z" stroke="#36B4F1" stroke-width="2.5" stroke-linecap="round" stroke-linejoin="round"/>
<path id="Vector_4" d="M10.376 17H20.2926" stroke="#36B4F1" stroke-width="2.5" stroke-linecap="round" stroke-linejoin="round"/>
</g>
</svg>
