<svg width="28" height="28" viewBox="0 0 28 28" fill="none" xmlns="http://www.w3.org/2000/svg">
<g clip-path="url(#clip0_3648_34611)">
<mask id="path-1-inside-1_3648_34611" fill="white">
<path fill-rule="evenodd" clip-rule="evenodd" d="M20.3175 16.779C19.9698 16.6052 18.2653 15.7675 17.948 15.6509C17.6307 15.5354 17.3997 15.4782 17.1675 15.8259C16.9365 16.1712 16.2727 16.9529 16.0708 17.1839C15.8678 17.416 15.666 17.444 15.3195 17.2714C14.973 17.0964 13.8553 16.7312 12.5312 15.5505C11.501 14.6312 10.8045 13.496 10.6027 13.1484C10.4008 12.8019 10.5805 12.614 10.7543 12.4414C10.9107 12.2862 11.1008 12.0365 11.2747 11.8347C11.4485 11.6317 11.5057 11.487 11.6212 11.2549C11.7378 11.0239 11.6795 10.822 11.592 10.6482C11.5057 10.4744 10.8127 8.76755 10.5233 8.07338C10.2422 7.39788 9.95633 7.49005 9.744 7.47838C9.541 7.46905 9.31 7.46671 9.079 7.46671C8.848 7.46671 8.47233 7.55305 8.155 7.90071C7.8365 8.24721 6.94167 9.08605 6.94167 10.7929C6.94167 12.4985 8.183 14.147 8.35683 14.3792C8.53067 14.6102 10.801 18.1125 14.2788 19.614C15.1072 19.971 15.7523 20.1845 16.2552 20.3432C17.0858 20.608 17.8418 20.5707 18.4392 20.4809C19.1042 20.3817 20.4902 19.642 20.7795 18.8324C21.0677 18.0227 21.0677 17.3285 20.9813 17.1839C20.895 17.0392 20.664 16.9529 20.3163 16.779H20.3175ZM13.9918 25.4159H13.9872C11.9215 25.4163 9.89377 24.861 8.1165 23.8082L7.6965 23.5585L3.33083 24.7042L4.49633 20.4482L4.22217 20.0119C3.06733 18.1736 2.45618 16.0461 2.45933 13.8752C2.46167 7.51688 7.63467 2.34388 13.9965 2.34388C17.0765 2.34388 19.9722 3.54555 22.1492 5.72488C23.2229 6.79422 24.074 8.06587 24.6532 9.46626C25.2323 10.8666 25.528 12.368 25.5232 13.8834C25.5208 20.2417 20.3478 25.4159 13.9918 25.4159ZM23.8058 4.06938C22.5204 2.77546 20.9909 1.74951 19.3061 1.05098C17.6213 0.352456 15.8146 -0.00475562 13.9907 4.78071e-05C6.34433 4.78071e-05 0.119 6.22421 0.116667 13.874C0.1155 16.3194 0.753667 18.7064 1.96817 20.8099L0 28L7.35467 26.0704C9.38919 27.1789 11.6691 27.7597 13.986 27.7597H13.9918C21.6382 27.7597 27.8635 21.5355 27.8658 13.8845C27.8715 12.0614 27.5156 10.2552 26.8187 8.57042C26.1218 6.88567 25.0978 5.35583 23.8058 4.06938Z"/>
</mask>
<path fill-rule="evenodd" clip-rule="evenodd" d="M20.3175 16.779C19.9698 16.6052 18.2653 15.7675 17.948 15.6509C17.6307 15.5354 17.3997 15.4782 17.1675 15.8259C16.9365 16.1712 16.2727 16.9529 16.0708 17.1839C15.8678 17.416 15.666 17.444 15.3195 17.2714C14.973 17.0964 13.8553 16.7312 12.5312 15.5505C11.501 14.6312 10.8045 13.496 10.6027 13.1484C10.4008 12.8019 10.5805 12.614 10.7543 12.4414C10.9107 12.2862 11.1008 12.0365 11.2747 11.8347C11.4485 11.6317 11.5057 11.487 11.6212 11.2549C11.7378 11.0239 11.6795 10.822 11.592 10.6482C11.5057 10.4744 10.8127 8.76755 10.5233 8.07338C10.2422 7.39788 9.95633 7.49005 9.744 7.47838C9.541 7.46905 9.31 7.46671 9.079 7.46671C8.848 7.46671 8.47233 7.55305 8.155 7.90071C7.8365 8.24721 6.94167 9.08605 6.94167 10.7929C6.94167 12.4985 8.183 14.147 8.35683 14.3792C8.53067 14.6102 10.801 18.1125 14.2788 19.614C15.1072 19.971 15.7523 20.1845 16.2552 20.3432C17.0858 20.608 17.8418 20.5707 18.4392 20.4809C19.1042 20.3817 20.4902 19.642 20.7795 18.8324C21.0677 18.0227 21.0677 17.3285 20.9813 17.1839C20.895 17.0392 20.664 16.9529 20.3163 16.779H20.3175ZM13.9918 25.4159H13.9872C11.9215 25.4163 9.89377 24.861 8.1165 23.8082L7.6965 23.5585L3.33083 24.7042L4.49633 20.4482L4.22217 20.0119C3.06733 18.1736 2.45618 16.0461 2.45933 13.8752C2.46167 7.51688 7.63467 2.34388 13.9965 2.34388C17.0765 2.34388 19.9722 3.54555 22.1492 5.72488C23.2229 6.79422 24.074 8.06587 24.6532 9.46626C25.2323 10.8666 25.528 12.368 25.5232 13.8834C25.5208 20.2417 20.3478 25.4159 13.9918 25.4159ZM23.8058 4.06938C22.5204 2.77546 20.9909 1.74951 19.3061 1.05098C17.6213 0.352456 15.8146 -0.00475562 13.9907 4.78071e-05C6.34433 4.78071e-05 0.119 6.22421 0.116667 13.874C0.1155 16.3194 0.753667 18.7064 1.96817 20.8099L0 28L7.35467 26.0704C9.38919 27.1789 11.6691 27.7597 13.986 27.7597H13.9918C21.6382 27.7597 27.8635 21.5355 27.8658 13.8845C27.8715 12.0614 27.5156 10.2552 26.8187 8.57042C26.1218 6.88567 25.0978 5.35583 23.8058 4.06938Z" fill="white"/>
<path d="M20.3175 16.779V16.879L20.3622 16.6896L20.3175 16.779ZM17.948 15.6509L17.9825 15.557L17.9822 15.5569L17.948 15.6509ZM17.1675 15.8259L17.2506 15.8815L17.2507 15.8814L17.1675 15.8259ZM16.0708 17.1839L16.1461 17.2497L16.1461 17.2497L16.0708 17.1839ZM15.3195 17.2714L15.2744 17.3606L15.2749 17.3609L15.3195 17.2714ZM12.5312 15.5505L12.4646 15.6252L12.4646 15.6252L12.5312 15.5505ZM10.6027 13.1484L10.6892 13.0982L10.6891 13.098L10.6027 13.1484ZM10.7543 12.4414L10.6839 12.3704L10.6839 12.3704L10.7543 12.4414ZM11.2747 11.8347L11.3504 11.9L11.3506 11.8998L11.2747 11.8347ZM11.6212 11.2549L11.5319 11.2098L11.5316 11.2103L11.6212 11.2549ZM11.592 10.6482L11.5024 10.6927L11.5027 10.6932L11.592 10.6482ZM10.5233 8.07338L10.431 8.11181L10.431 8.11185L10.5233 8.07338ZM9.744 7.47838L9.74949 7.37853L9.74859 7.37849L9.744 7.47838ZM8.155 7.90071L8.22862 7.96839L8.22886 7.96813L8.155 7.90071ZM8.35683 14.3792L8.27679 14.4391L8.27693 14.4393L8.35683 14.3792ZM14.2788 19.614L14.2392 19.7059L14.2393 19.7059L14.2788 19.614ZM16.2552 20.3432L16.2855 20.2479L16.2853 20.2478L16.2552 20.3432ZM18.4392 20.4809L18.4244 20.382L18.4243 20.382L18.4392 20.4809ZM20.7795 18.8324L20.8737 18.866L20.8737 18.8659L20.7795 18.8324ZM20.3163 16.779V16.679L20.2716 16.8685L20.3163 16.779ZM13.9872 25.4159V25.3159H13.9871L13.9872 25.4159ZM8.1165 23.8082L8.0654 23.8942L8.06554 23.8943L8.1165 23.8082ZM7.6965 23.5585L7.7476 23.4726L7.71161 23.4512L7.67112 23.4618L7.6965 23.5585ZM3.33083 24.7042L3.23438 24.6778L3.18862 24.8449L3.35622 24.8009L3.33083 24.7042ZM4.49633 20.4482L4.59278 20.4746L4.60439 20.4322L4.58101 20.395L4.49633 20.4482ZM4.22217 20.0119L4.13749 20.0651L4.13749 20.0651L4.22217 20.0119ZM2.45933 13.8752L2.55933 13.8754V13.8752L2.45933 13.8752ZM22.1492 5.72488L22.0784 5.79555L22.0786 5.79574L22.1492 5.72488ZM25.5232 13.8834L25.4232 13.8831V13.8833L25.5232 13.8834ZM13.9907 4.78071e-05V0.100048L13.9909 0.100047L13.9907 4.78071e-05ZM0.116667 13.874L0.216667 13.8741V13.8741L0.116667 13.874ZM1.96817 20.8099L2.06462 20.8363L2.07564 20.796L2.05477 20.7599L1.96817 20.8099ZM0 28L-0.0964518 27.9736L-0.14219 28.1407L0.0253783 28.0968L0 28ZM7.35467 26.0704L7.40251 25.9826L7.36767 25.9636L7.32929 25.9737L7.35467 26.0704ZM13.986 27.7597L13.986 27.8597H13.986V27.7597ZM27.8658 13.8845L27.7658 13.8842V13.8845L27.8658 13.8845ZM20.3622 16.6896C20.1879 16.6024 19.6744 16.3494 19.1648 16.1035C18.6583 15.859 18.147 15.6175 17.9825 15.557L17.9135 15.7447C18.0663 15.8009 18.566 16.0366 19.0779 16.2836C19.5868 16.5292 20.0994 16.7818 20.2728 16.8685L20.3622 16.6896ZM17.9822 15.5569C17.8265 15.5002 17.6677 15.4475 17.5142 15.4654C17.3499 15.4845 17.2111 15.5805 17.0843 15.7703L17.2507 15.8814C17.3561 15.7236 17.4488 15.6743 17.5374 15.664C17.6368 15.6524 17.7522 15.686 17.9138 15.7449L17.9822 15.5569ZM17.0844 15.7703C16.8576 16.1092 16.1984 16.8859 15.9955 17.1181L16.1461 17.2497C16.3469 17.0199 17.0154 16.2332 17.2506 15.8815L17.0844 15.7703ZM15.9956 17.1181C15.9036 17.2232 15.8231 17.2697 15.7369 17.2802C15.6466 17.2911 15.5309 17.265 15.3641 17.1819L15.2749 17.3609C15.4546 17.4504 15.613 17.4966 15.761 17.4787C15.9131 17.4603 16.0351 17.3767 16.1461 17.2497L15.9956 17.1181ZM15.3646 17.1821C15.0077 17.0019 13.9091 16.6451 12.5977 15.4759L12.4646 15.6252C13.8016 16.8173 14.9383 17.1909 15.2744 17.3606L15.3646 17.1821ZM12.5978 15.4759C11.5794 14.5672 10.8892 13.4428 10.6892 13.0982L10.5162 13.1986C10.7198 13.5493 11.4226 14.6953 12.4646 15.6252L12.5978 15.4759ZM10.6891 13.098C10.6001 12.9452 10.6024 12.8429 10.6314 12.7644C10.6639 12.6765 10.7354 12.6012 10.8248 12.5123L10.6839 12.3704C10.5995 12.4543 10.4941 12.5591 10.4438 12.695C10.3901 12.8402 10.4034 13.005 10.5163 13.1987L10.6891 13.098ZM10.8248 12.5124C10.9844 12.3539 11.1836 12.0937 11.3504 11.9L11.1989 11.7695C11.0181 11.9794 10.8369 12.2185 10.6839 12.3704L10.8248 12.5124ZM11.3506 11.8998C11.5344 11.6851 11.5975 11.5269 11.7107 11.2994L11.5316 11.2103C11.4138 11.4472 11.3626 11.5783 11.1987 11.7697L11.3506 11.8998ZM11.7104 11.3C11.8479 11.0278 11.775 10.7894 11.6813 10.6033L11.5027 10.6932C11.584 10.8547 11.6278 11.02 11.5319 11.2098L11.7104 11.3ZM11.6816 10.6037C11.6405 10.521 11.4477 10.0561 11.2263 9.51787C11.0062 8.98304 10.7604 8.38227 10.6156 8.03491L10.431 8.11185C10.5756 8.45866 10.821 9.05839 11.0413 9.59397C11.2603 10.1261 11.4572 10.6016 11.5024 10.6927L11.6816 10.6037ZM10.6157 8.03495C10.4707 7.68665 10.3158 7.51453 10.1505 7.43651C10.0687 7.39785 9.99055 7.38546 9.92162 7.38145C9.88767 7.37947 9.85517 7.37951 9.82662 7.37959C9.79703 7.37968 9.77253 7.3798 9.74949 7.37853L9.73851 7.57823C9.76855 7.57988 9.79943 7.57967 9.82721 7.57959C9.85604 7.57951 9.8829 7.57953 9.91 7.58111C9.96318 7.58421 10.0139 7.59318 10.0652 7.61737C10.1662 7.66507 10.2948 7.78462 10.431 8.11181L10.6157 8.03495ZM9.74859 7.37849C9.54324 7.36904 9.3104 7.36671 9.079 7.36671V7.56671C9.30961 7.56671 9.53876 7.56905 9.73941 7.57828L9.74859 7.37849ZM9.079 7.36671C8.82515 7.36671 8.42069 7.46129 8.08114 7.8333L8.22886 7.96813C8.52397 7.64481 8.87085 7.56671 9.079 7.56671V7.36671ZM8.08138 7.83304C7.76221 8.18027 6.84167 9.04436 6.84167 10.7929H7.04167C7.04167 9.12773 7.91079 8.31416 8.22862 7.96839L8.08138 7.83304ZM6.84167 10.7929C6.84167 11.6682 7.15958 12.5231 7.49489 13.1839C7.83091 13.846 8.18883 14.3217 8.27679 14.4391L8.43688 14.3193C8.35101 14.2046 8.00134 13.7399 7.67324 13.0934C7.34442 12.4454 7.04167 11.6232 7.04167 10.7929H6.84167ZM8.27693 14.4393C8.44518 14.6629 10.7318 18.1916 14.2392 19.7059L14.3185 19.5222C10.8702 18.0335 8.61616 14.5575 8.43674 14.3191L8.27693 14.4393ZM14.2393 19.7059C15.0719 20.0647 15.7206 20.2794 16.2251 20.4386L16.2853 20.2478C15.7841 20.0897 15.1424 19.8774 14.3184 19.5222L14.2393 19.7059ZM16.2248 20.4385C17.0754 20.7097 17.8483 20.6709 18.454 20.5798L18.4243 20.382C17.8354 20.4706 17.0962 20.5064 16.2855 20.2479L16.2248 20.4385ZM18.4539 20.5798C18.8052 20.5274 19.3314 20.3102 19.8042 20.0073C20.2745 19.7058 20.7174 19.3033 20.8737 18.866L20.6853 18.7987C20.5523 19.1711 20.1575 19.5433 19.6963 19.8389C19.2374 20.1329 18.7381 20.3352 18.4244 20.382L18.4539 20.5798ZM20.8737 18.8659C21.0207 18.4529 21.0945 18.0685 21.1205 17.7673C21.1335 17.6168 21.1346 17.4856 21.1264 17.3809C21.1187 17.2816 21.1017 17.1904 21.0672 17.1326L20.8955 17.2351C20.9042 17.2497 20.9195 17.2995 20.927 17.3964C20.9342 17.4878 20.9335 17.6078 20.9212 17.7502C20.8967 18.0346 20.8265 18.4022 20.6853 18.7988L20.8737 18.8659ZM21.0672 17.1326C21.0093 17.0356 20.9089 16.9672 20.7949 16.9047C20.6812 16.8424 20.529 16.7736 20.3611 16.6896L20.2716 16.8685C20.4513 16.9583 20.5885 17.0196 20.6988 17.0801C20.8088 17.1404 20.867 17.1875 20.8955 17.2351L21.0672 17.1326ZM20.3163 16.879H20.3175V16.679H20.3163V16.879ZM13.9918 25.3159H13.9872V25.5159H13.9918V25.3159ZM13.9871 25.3159C11.9394 25.3163 9.9293 24.7658 8.16747 23.7222L8.06554 23.8943C9.85824 24.9561 11.9036 25.5163 13.9872 25.5159L13.9871 25.3159ZM8.1676 23.7223L7.7476 23.4726L7.6454 23.6445L8.0654 23.8942L8.1676 23.7223ZM7.67112 23.4618L3.30545 24.6075L3.35622 24.8009L7.72188 23.6553L7.67112 23.4618ZM3.42728 24.7306L4.59278 20.4746L4.39988 20.4218L3.23438 24.6778L3.42728 24.7306ZM4.58101 20.395L4.30684 19.9587L4.13749 20.0651L4.41166 20.5014L4.58101 20.395ZM4.30684 19.9587C3.16204 18.1364 2.5562 16.0274 2.55933 13.8754L2.35933 13.8751C2.35615 16.0648 2.97261 18.2108 4.13749 20.0651L4.30684 19.9587ZM2.55933 13.8752C2.56165 7.57213 7.68988 2.44388 13.9965 2.44388V2.24388C7.57945 2.24388 2.36169 7.46163 2.35933 13.8752L2.55933 13.8752ZM13.9965 2.44388C17.0499 2.44388 19.9202 3.63497 22.0784 5.79555L22.2199 5.65421C20.0242 3.45612 17.1031 2.24388 13.9965 2.24388V2.44388ZM22.0786 5.79574C23.143 6.85575 23.9867 8.11631 24.5607 9.50448L24.7456 9.42804C24.1614 8.01544 23.3029 6.7327 22.2197 5.65402L22.0786 5.79574ZM24.5607 9.50448C25.1348 10.8926 25.428 12.3809 25.4232 13.8831L25.6232 13.8837C25.628 12.3551 25.3298 10.8406 24.7456 9.42804L24.5607 9.50448ZM25.4232 13.8833C25.4209 20.1865 20.2926 25.3159 13.9918 25.3159V25.5159C20.4031 25.5159 25.6208 20.2969 25.6232 13.8834L25.4232 13.8833ZM23.8768 3.9989C22.582 2.69559 21.0415 1.6622 19.3444 0.958606L19.2678 1.14336C20.9404 1.83682 22.4588 2.85532 23.7349 4.13986L23.8768 3.9989ZM19.3444 0.958606C17.6473 0.255013 15.8275 -0.10479 13.9904 -0.0999518L13.9909 0.100047C15.8016 0.0952789 17.5952 0.449899 19.2678 1.14336L19.3444 0.958606ZM13.9907 -0.0999522C6.28909 -0.0999522 0.0190168 6.16899 0.0166667 13.874L0.216667 13.8741C0.218983 6.27944 6.39957 0.100048 13.9907 0.100048V-0.0999522ZM0.0166667 13.874C0.0154917 16.3368 0.658238 18.7411 1.88157 20.8599L2.05477 20.7599C0.849096 18.6717 0.215508 16.3019 0.216667 13.8741L0.0166667 13.874ZM1.87172 20.7835L-0.0964518 27.9736L0.0964518 28.0264L2.06462 20.8363L1.87172 20.7835ZM0.0253783 28.0968L7.38005 26.1671L7.32929 25.9737L-0.0253783 27.9033L0.0253783 28.0968ZM7.30682 26.1582C9.35602 27.2747 11.6524 27.8597 13.986 27.8597L13.986 27.6597C11.6858 27.6597 9.42235 27.083 7.40251 25.9826L7.30682 26.1582ZM13.986 27.8597H13.9918V27.6597H13.986V27.8597ZM13.9918 27.8597C21.6934 27.8597 27.9635 21.5908 27.9658 13.8846L27.7658 13.8845C27.7635 21.4803 21.5829 27.6597 13.9918 27.6597V27.8597ZM27.9658 13.8849C27.9715 12.0485 27.613 10.2292 26.9111 8.5322L26.7263 8.60864C27.4181 10.2812 27.7714 12.0743 27.7658 13.8842L27.9658 13.8849ZM26.9111 8.5322C26.2091 6.83524 25.1777 5.2943 23.8764 3.99852L23.7353 4.14024C25.0178 5.41736 26.0344 6.93611 26.7263 8.60864L26.9111 8.5322Z" fill="white" mask="url(#path-1-inside-1_3648_34611)"/>
</g>
<defs>
<clipPath id="clip0_3648_34611">
<rect width="28" height="28" fill="white"/>
</clipPath>
</defs>
</svg>
