<svg width="137" height="170" viewBox="0 0 137 170" fill="none" xmlns="http://www.w3.org/2000/svg">
<g clip-path="url(#clip0_1475_1540)">
<path d="M76.9177 39.135C69.8244 47.2484 67.9405 53.6513 67.9405 53.6513C67.9405 53.6513 40.8082 42.9914 39.6744 29.029C39.5016 7.67791 78.7049 0 78.7049 0C78.7049 0 77.3947 8.11685 88.6638 21.6681C90.6653 24.2251 95.4737 30.1856 95.4737 30.1856C95.4737 30.1856 84.9755 30.5758 76.9177 39.135Z" fill="white"/>
<path d="M44.9047 52.3972C50.4044 61.6845 55.8765 65.4538 55.8765 65.4538C55.8765 65.4538 37.5003 88.2228 23.967 85.0388C3.73796 78.6707 8.48411 38.71 8.48411 38.71C8.48411 38.71 15.7503 42.448 32.0075 35.7908C35.0287 34.6481 42.1324 31.8612 42.1324 31.8612C42.1324 31.8612 39.2875 42.0508 44.9013 52.3972H44.9047Z" fill="white"/>
<path d="M99.5504 65.6803C89.6848 61.4268 83.0547 61.6253 83.0547 61.6253C83.0547 61.6253 84.631 32.3211 97.4349 26.8727C117.505 20.0308 136.998 55.1632 136.998 55.1632C136.998 55.1632 128.936 56.4417 119.679 71.4701C117.896 74.1803 113.782 80.6459 113.782 80.6459C113.782 80.6459 110.132 70.7176 99.5539 65.6838L99.5504 65.6803Z" fill="white"/>
<path d="M81.4257 95.4827C82.4766 84.7148 80.2885 78.4094 80.2885 78.4094C80.2885 78.4094 108.489 71.0868 117.504 81.7433C130.025 98.9663 102.671 128.284 102.671 128.284C102.671 128.284 99.0276 120.934 82.0203 116.566C78.9196 115.677 71.5566 113.667 71.5566 113.667C71.5566 113.667 79.846 107.167 81.4223 95.4827H81.4257Z" fill="white"/>
<path d="M47.5701 87.2439C58.0406 84.8681 63.3018 80.7922 63.3018 80.7922C63.3018 80.7922 79.0475 105.488 71.8297 117.457C59.534 134.834 23.3242 117.861 23.3242 117.861C23.3242 117.861 29.1109 112.065 27.8906 94.4271C27.7593 91.1769 27.3375 83.506 27.3375 83.506C27.3375 83.506 36.0624 89.4003 47.5666 87.2439H47.5701Z" fill="white"/>
<path d="M76.9177 39.135C69.8244 47.2484 67.9405 53.6513 67.9405 53.6513C67.9405 53.6513 40.8082 42.9914 39.6744 29.029C39.5016 7.67791 78.7049 0 78.7049 0C78.7049 0 77.3947 8.11685 88.6638 21.6681C90.6653 24.2251 95.4737 30.1856 95.4737 30.1856C95.4737 30.1856 84.9755 30.5758 76.9177 39.135Z" fill="#FBD5C5"/>
<path d="M44.9047 52.3972C50.4044 61.6845 55.8765 65.4538 55.8765 65.4538C55.8765 65.4538 37.5003 88.2228 23.967 85.0388C3.73796 78.6707 8.48411 38.71 8.48411 38.71C8.48411 38.71 15.7503 42.448 32.0075 35.7908C35.0287 34.6481 42.1324 31.8612 42.1324 31.8612C42.1324 31.8612 39.2875 42.0508 44.9013 52.3972H44.9047Z" fill="#D8E8C5"/>
<path d="M99.5504 65.6803C89.6848 61.4268 83.0547 61.6253 83.0547 61.6253C83.0547 61.6253 84.631 32.3211 97.4349 26.8727C117.505 20.0308 136.998 55.1632 136.998 55.1632C136.998 55.1632 128.936 56.4417 119.679 71.4701C117.896 74.1803 113.782 80.6459 113.782 80.6459C113.782 80.6459 110.132 70.7176 99.5539 65.6838L99.5504 65.6803Z" fill="#FFE6A1"/>
<path d="M81.4257 95.4827C82.4766 84.7148 80.2885 78.4094 80.2885 78.4094C80.2885 78.4094 108.489 71.0868 117.504 81.7433C130.025 98.9663 102.671 128.284 102.671 128.284C102.671 128.284 99.0276 120.934 82.0203 116.566C78.9196 115.677 71.5566 113.667 71.5566 113.667C71.5566 113.667 79.846 107.167 81.4223 95.4827H81.4257Z" fill="#E3E4E5"/>
<path d="M47.5701 87.2439C58.0406 84.8681 63.3018 80.7922 63.3018 80.7922C63.3018 80.7922 79.0475 105.488 71.8297 117.457C59.534 134.834 23.3242 117.861 23.3242 117.861C23.3242 117.861 29.1109 112.065 27.8906 94.4271C27.7593 91.1769 27.3375 83.506 27.3375 83.506C27.3375 83.506 36.0624 89.4003 47.5666 87.2439H47.5701Z" fill="#D3E2F5"/>
<path d="M75.3759 47.1543C70.5882 52.6306 69.3127 56.9607 69.3127 56.9607C69.3127 56.9607 50.9987 49.7566 50.2347 40.3439C50.1207 25.9321 76.5823 20.7415 76.5823 20.7415C76.5823 20.7415 75.6974 26.2178 83.3023 35.3727C84.6539 37.0902 87.8998 41.1207 87.8998 41.1207C87.8998 41.1207 80.8099 41.3855 75.3759 47.1543Z" fill="#E30613"/>
<path d="M53.7678 56.1073C57.4734 62.3813 61.1687 64.9174 61.1687 64.9174C61.1687 64.9174 48.7658 80.2871 39.6296 78.1377C25.9822 73.8389 29.1763 46.8687 29.1763 46.8687C29.1763 46.8687 34.0849 49.3943 45.0602 44.897C47.0962 44.1271 51.8908 42.2494 51.8908 42.2494C51.8908 42.2494 49.9757 49.1261 53.7678 56.1108V56.1073Z" fill="#13A538"/>
<path d="M55.6163 79.6287C62.6854 78.0262 66.2356 75.2811 66.2356 75.2811C66.2356 75.2811 76.8651 91.9398 71.9945 100.025C63.6948 111.762 39.252 100.297 39.252 100.297C39.252 100.297 43.1616 96.3849 42.3389 84.4779C42.2455 82.2867 41.9655 77.1031 41.9655 77.1031C41.9655 77.1031 47.8559 81.0848 55.6198 79.6322L55.6163 79.6287Z" fill="#0B6FB0"/>
<path d="M78.4156 85.192C79.1277 77.9252 77.6482 73.6682 77.6482 73.6682C77.6482 73.6682 96.6881 68.7249 102.772 75.9186C111.224 87.54 92.7577 107.33 92.7577 107.33C92.7577 107.33 90.2965 102.366 78.82 99.4192C76.7217 98.8165 71.7578 97.4614 71.7578 97.4614C71.7578 97.4614 77.3509 93.079 78.4156 85.192Z" fill="#A8A8A7"/>
<path d="M90.6558 65.0776C83.9911 62.2036 79.5215 62.3395 79.5215 62.3395C79.5215 62.3395 80.5827 42.556 89.2281 38.8772C102.772 34.2684 115.932 57.9745 115.932 57.9745C115.932 57.9745 110.494 58.8384 104.237 68.9792C103.038 70.8082 100.262 75.1731 100.262 75.1731C100.262 75.1731 97.794 68.4776 90.6592 65.0776H90.6558Z" fill="#FBBA00"/>
<path d="M68.2855 75.3682C68.2855 75.3682 68.0781 75.1104 67.7151 74.6053C66.2183 72.6684 65.5339 69.9512 66.9373 67.7948C67.7981 66.4327 69.6647 66.2342 71.1166 66.7532C72.558 67.342 74.2035 66.1749 74.8084 64.7153C75.6761 62.6425 74.8084 60.2737 73.564 58.6224C73.1872 58.1382 73.0489 57.9048 73.0489 57.9048C77.8123 59.2251 80.6331 64.2137 79.3057 69.0315C77.999 73.8633 73.0593 76.692 68.2855 75.3717V75.3682Z" fill="#1A1A1A"/>
<path d="M68.2751 75.4135L68.2855 75.3647L68.244 75.3996C68.244 75.3996 68.0366 75.1348 67.6805 74.6436C66.7438 73.4313 66.125 71.9229 66.125 70.4284C66.125 69.5122 66.3566 68.5961 66.8924 67.7739C67.487 66.8368 68.5378 66.4397 69.6094 66.4397C70.1279 66.4397 70.6534 66.5338 71.1373 66.701C71.3931 66.809 71.6593 66.8577 71.9151 66.8577C73.0939 66.8577 74.2692 65.8788 74.76 64.6944C75.0055 64.1196 75.1057 63.5239 75.1057 62.9212C75.1057 61.3815 74.4109 59.8347 73.519 58.6538C73.1423 58.1661 73.004 57.9327 73.0005 57.9327L72.9349 57.8247L73.0524 57.856C77.0415 58.9604 79.6721 62.6182 79.6721 66.6139C79.6721 67.4116 79.5684 68.2303 79.3437 69.0454C78.2445 73.0864 74.6183 75.741 70.6568 75.741C69.8652 75.741 69.0563 75.6365 68.2647 75.417L68.2751 75.4135ZM70.6672 75.6399C74.5803 75.6399 78.1719 73.0168 79.2573 69.0141C79.4751 68.2129 79.5788 67.4012 79.5788 66.6104C79.5788 62.7018 77.0346 59.1171 73.1561 57.9884C73.2321 58.1034 73.3739 58.3019 73.5986 58.5911C74.5008 59.779 75.2025 61.3501 75.2094 62.9177C75.2094 63.5274 75.0953 64.144 74.8534 64.7327C74.3452 65.945 73.1492 66.9553 71.9151 66.9553C71.642 66.9553 71.3655 66.903 71.1028 66.7985C70.6292 66.6278 70.1141 66.5372 69.6094 66.5372C68.562 66.5372 67.5457 66.9204 66.9788 67.8192C66.4499 68.6344 66.2218 69.5227 66.2218 70.425C66.2218 71.8916 66.8302 73.3826 67.7566 74.574C68.0746 75.0129 68.2682 75.2637 68.3097 75.3195C69.0944 75.532 69.886 75.6399 70.6638 75.6399H70.6672Z" fill="#1A1A1A"/>
<path d="M62.1196 64.2171C63.4021 59.4794 68.3038 56.703 73.0223 58.0372C73.0223 58.0372 73.1571 58.2671 73.5339 58.7479C74.768 60.3782 75.6322 62.7087 74.7784 64.7501C74.1803 66.1889 72.566 67.328 71.1384 66.7463C69.6969 66.2376 67.8579 66.4258 67.011 67.767C65.6283 69.8955 66.3058 72.5709 67.7957 74.4799C68.1483 74.9781 68.3591 75.2219 68.3591 75.2219C63.6164 73.9086 60.8303 68.9862 62.1162 64.2171H62.1196Z" fill="white"/>
<path d="M68.3067 75.4135C64.2622 74.2918 61.6074 70.5957 61.6074 66.5721C61.6074 65.7778 61.718 64.9696 61.9358 64.1684C63.0178 60.1448 66.6612 57.5042 70.6227 57.5042C71.4316 57.5042 72.2578 57.6157 73.0736 57.8456L73.1496 57.8665L73.1911 57.9362C73.1911 57.9362 73.3121 58.1487 73.6889 58.6259C74.598 59.8347 75.317 61.3989 75.317 63.0014C75.317 63.618 75.2029 64.2311 74.961 64.8303C74.439 66.0739 73.2326 67.0946 71.9363 67.1016C71.6459 67.1016 71.3555 67.0458 71.079 66.9344C70.6262 66.7776 70.1249 66.6835 69.6375 66.6835C68.642 66.6835 67.7017 67.0458 67.1797 67.8749C66.6751 68.6483 66.4607 69.4948 66.4573 70.3518C66.4573 71.7557 67.0518 73.2049 67.9575 74.3684C68.3136 74.8596 68.5141 75.1035 68.5141 75.1035L68.9047 75.5877L68.3136 75.417L68.3067 75.4135ZM62.3057 64.2659C62.0983 65.0358 61.998 65.8126 61.998 66.5686C61.998 70.2264 64.2899 73.5916 67.8227 74.8492C67.7674 74.7725 67.7052 74.6924 67.636 74.5914C66.6889 73.3791 66.0598 71.8567 66.0598 70.3414C66.0598 69.4182 66.2948 68.4915 66.841 67.652C67.4528 66.6766 68.5383 66.2794 69.6237 66.2794C70.1629 66.2794 70.6987 66.3805 71.2034 66.5581C71.442 66.6557 71.6839 66.701 71.9259 66.701C73.0079 66.7079 74.1348 65.7848 74.5945 64.67C74.8192 64.1231 74.9229 63.5553 74.9229 62.9909C74.9229 61.5138 74.2454 60.0089 73.3777 58.8593C73.1081 58.5214 72.9629 58.2985 72.8938 58.194C72.1298 57.9884 71.3694 57.8874 70.6192 57.8874C66.8237 57.8874 63.3393 60.413 62.3022 64.2624L62.3057 64.2659Z" fill="#1A1A1A"/>
<path d="M72.4405 62.1305C72.6582 62.7053 72.3817 63.3637 71.7906 63.5901C71.2306 63.827 70.5738 63.5413 70.3768 62.9526C70.1486 62.3673 70.4252 61.7298 71.0024 61.5034C71.5659 61.2839 72.2089 61.5696 72.437 62.127L72.4405 62.1305Z" fill="#1A1A1A"/>
<path d="M70.8408 70.9196C71.062 71.5084 70.7786 72.1633 70.2151 72.3862C69.6379 72.6196 68.9845 72.3131 68.7633 71.7453C68.5351 71.167 68.829 70.519 69.3855 70.2995C69.9628 70.0661 70.6023 70.3518 70.8374 70.9231L70.8408 70.9196Z" fill="white"/>
<path d="M10.4635 149.614H6.99646C4.28951 149.614 3.21384 151.182 3.21384 154.057V162.273C3.21384 165.148 4.28951 166.752 6.99646 166.752H10.4635V169.18H7.17871C3.24939 169.18 0.804688 166.828 0.804688 162.273V154.057C0.804688 149.466 3.24939 147.186 7.17871 147.186H10.4635V149.614Z" fill="#8A0F07"/>
<path d="M15.7216 165.637L23.8381 147.186H26.7673V169.184H24.3581V150.734L16.2417 169.184H13.3125V147.186H15.7216V165.637Z" fill="#8A0F07"/>
<path d="M32.9541 156.673H40.2882V147.186H42.6973V169.184H40.2882V159.101H32.9541V169.184H30.5449V147.186H32.9541V156.673Z" fill="#8A0F07"/>
<path d="M58.6329 153.945V162.42C58.6329 167.164 56.4815 169.516 52.5567 169.516C48.6318 169.516 46.4805 167.164 46.4805 162.42V153.945C46.4805 149.202 48.6274 146.85 52.5567 146.85C56.486 146.85 58.6329 149.202 58.6329 153.945ZM48.8852 153.945V162.42C48.8852 165.22 49.663 167.088 52.5522 167.088C55.4414 167.088 56.2193 165.332 56.2193 162.42V153.945C56.2193 151.034 55.4414 149.278 52.5522 149.278C49.663 149.278 48.8852 151.07 48.8852 153.945Z" fill="#8A0F07"/>
<path d="M72.3462 147.186V150.25H73.6396C77.569 150.25 80.0137 152.525 80.0137 157.121V159.213C80.0137 163.769 77.569 166.125 73.6396 166.125H72.3462V169.189H69.937V166.125H68.6436C64.7142 166.125 62.2695 163.773 62.2695 159.213V157.121C62.2695 152.525 64.7142 150.25 68.6436 150.25H69.937V147.186H72.3462ZM69.937 152.678H68.4569C65.7499 152.678 64.6742 154.246 64.6742 157.121V159.213C64.6742 162.089 65.7499 163.697 68.4569 163.697H69.937V152.682V152.678ZM72.3462 163.693H73.8263C76.5333 163.693 77.609 162.089 77.609 159.209V157.117C77.609 154.241 76.5333 152.673 73.8263 152.673H72.3462V163.688V163.693Z" fill="#8A0F07"/>
<path d="M85.9072 169.184H83.498V153.833C83.498 149.202 85.8716 146.85 89.5743 146.85C93.4636 146.85 95.6505 149.166 95.6505 153.833V169.184H93.2413V159.101H85.9028V169.184H85.9072ZM93.2458 156.673V153.833C93.2458 150.881 92.2412 149.278 89.5787 149.278C86.9162 149.278 85.9116 150.846 85.9116 153.833V156.673H93.2502H93.2458Z" fill="#8A0F07"/>
<path d="M99.2857 147.186H104.286C109.069 147.186 111.438 149.242 111.438 153.385C111.438 158.093 108.847 159.661 104.286 159.661H101.69V169.184H99.2812V147.186H99.2857ZM101.695 157.233H104.291C107.144 157.233 109.033 156.597 109.033 153.385C109.033 150.362 107.331 149.614 104.291 149.614H101.695V157.233Z" fill="#8A0F07"/>
<path d="M117.218 147.186L123.223 157.829L129.224 147.186H132.002V169.184H129.593V151.07L123.33 162.537H123.108L116.845 151.07V169.184H114.436V147.186H117.214H117.218Z" fill="#8A0F07"/>
</g>
<defs>
<clipPath id="clip0_1475_1540">
<rect width="137" height="170" fill="white"/>
</clipPath>
</defs>
</svg>
