<svg width="513" height="201" viewBox="0 0 513 201" fill="none" xmlns="http://www.w3.org/2000/svg">
<path fill-rule="evenodd" clip-rule="evenodd" d="M541.433 89.9092C558.989 91.2771 572.71 103.108 572.71 117.5L593 173.277C593 188.588 577.472 201 558.317 201H34.6827C15.528 201 0 188.588 0 173.277V0L238.226 0C248.579 0 258.39 3.69699 264.979 10.0805L285.455 29.9195C292.044 36.303 301.856 40 312.209 40L394.593 75.0022C411.081 82.0072 432.896 68.4168 447.933 58.6799C456.531 53.1125 467.484 49.7772 479.411 49.7772C507.048 49.7772 541.433 67.6858 541.433 89.7772C541.433 89.8212 541.433 89.8652 541.433 89.9092Z" fill="white"/>
</svg>
