<svg width="24" height="24" viewBox="0 0 24 24" fill="none" xmlns="http://www.w3.org/2000/svg">
<path d="M9.87824 12.546C10.4418 13.1073 11.2048 13.4225 12.0002 13.4225C12.7957 13.4225 13.5587 13.1073 14.1222 12.546L23.7812 2.886C23.5589 2.32998 23.1752 1.85323 22.6796 1.51711C22.1839 1.181 21.5991 1.0009 21.0002 1H3.00024C2.4014 1.0009 1.81653 1.181 1.32091 1.51711C0.825293 1.85323 0.441607 2.32998 0.219238 2.886L9.87824 12.546Z" fill="#EEF3F7" fill-opacity="0.5"/>
<path d="M15.536 13.96C14.5974 14.8963 13.3257 15.422 12 15.422C10.6743 15.422 9.40263 14.8963 8.464 13.96L0 5.5V23H24V5.5L15.536 13.96Z" fill="#EEF3F7" fill-opacity="0.5"/>
</svg>
