<svg width="16" height="17" viewBox="0 0 16 17" fill="none" xmlns="http://www.w3.org/2000/svg">
<g clip-path="url(#clip0_4016_16805)">
<path d="M7.6588 0.779691C7.80619 0.509438 8.19424 0.509437 8.34163 0.779693L10.1283 4.05585C10.3281 4.42214 10.682 4.67922 11.092 4.75602L14.76 5.4429C15.0626 5.49956 15.1825 5.86862 14.971 6.09231L12.4073 8.80397C12.1207 9.10714 11.9855 9.52311 12.0392 9.93686L12.5194 13.6375C12.559 13.9428 12.2451 14.1709 11.967 14.0389L8.59581 12.4386C8.2189 12.2597 7.78153 12.2597 7.40462 12.4386L4.03346 14.0389C3.75537 14.1709 3.44142 13.9428 3.48104 13.6375L3.96123 9.93686C4.01492 9.52311 3.87976 9.10714 3.59313 8.80397L1.02944 6.09231C0.817962 5.86862 0.937876 5.49956 1.24045 5.4429L4.90839 4.75602C5.31848 4.67922 5.67232 4.42214 5.87209 4.05585L7.6588 0.779691Z" stroke="#FE7200"/>
</g>
<defs>
<clipPath id="clip0_4016_16805">
<rect width="16" height="16.0208" fill="white"/>
</clipPath>
</defs>
</svg>
