<svg width="16" height="17" viewBox="0 0 16 17" fill="none" xmlns="http://www.w3.org/2000/svg">
<g clip-path="url(#clip0_4016_16797)">
<path d="M7.21984 0.540294C7.55673 -0.0774312 8.44371 -0.0774294 8.7806 0.540296L10.5673 3.81646C10.6952 4.05088 10.9216 4.21541 11.1841 4.26456L14.852 4.95144C15.5436 5.08095 15.8177 5.92452 15.3343 6.43581L12.7706 9.14747C12.5872 9.3415 12.5007 9.60772 12.535 9.87252L13.0152 13.5732C13.1058 14.271 12.3882 14.7923 11.7526 14.4906L8.3814 12.8903C8.14018 12.7758 7.86026 12.7758 7.61904 12.8903L4.24787 14.4906C3.61223 14.7923 2.89465 14.271 2.98519 13.5732L3.46539 9.87252C3.49975 9.60772 3.41325 9.3415 3.2298 9.14747L0.666116 6.43581C0.182728 5.92452 0.456822 5.08095 1.14842 4.95144L4.81636 4.26456C5.07882 4.21541 5.30527 4.05088 5.43312 3.81646L7.21984 0.540294Z" fill="#FE7200"/>
</g>
<defs>
<clipPath id="clip0_4016_16797">
<rect width="16" height="16.0208" fill="white"/>
</clipPath>
</defs>
</svg>
