<svg width="19" height="20" viewBox="0 0 19 20" fill="none" xmlns="http://www.w3.org/2000/svg">
<g clip-path="url(#clip0_2253_156785)">
<path d="M18.651 15.6665L14.3155 11.5171C14.1105 11.321 13.8412 11.2165 13.5644 11.2255C13.2876 11.2345 13.0249 11.3564 12.8319 11.5654L10.2797 14.3283C9.66532 14.2048 8.43027 13.7995 7.15895 12.4646C5.88762 11.1253 5.5026 9.82189 5.38848 9.17972L8.01111 6.49205C8.20993 6.28899 8.32589 6.01247 8.33445 5.72101C8.34301 5.42955 8.2435 5.14601 8.05698 4.93042L4.1161 0.36789C3.9295 0.151615 3.67015 0.0204285 3.39314 0.00219121C3.11613 -0.016046 2.84328 0.0801029 2.63253 0.270218L0.318131 2.3595C0.133737 2.5543 0.0236789 2.81357 0.00883308 3.08812C-0.00716508 3.36878 -0.312197 10.0172 4.58537 15.1748C8.85795 19.6711 14.2099 20 15.6838 20C15.8993 20 16.0315 19.9933 16.0667 19.991C16.3275 19.9757 16.5737 19.8593 16.7578 19.6643L18.7416 17.227C18.9229 17.0059 19.015 16.7189 18.998 16.4273C18.9811 16.1358 18.8565 15.8627 18.651 15.6665Z" fill="#D8DDE4"/>
</g>
<defs>
<clipPath id="clip0_2253_156785">
<rect width="19" height="20" fill="white"/>
</clipPath>
</defs>
</svg>
