<svg width="20" height="20" viewBox="0 0 20 20" fill="none" xmlns="http://www.w3.org/2000/svg">
<g clip-path="url(#clip0_2253_156790)">
<path d="M10 11.668C8.01155 11.6702 6.10518 12.4611 4.69914 13.8671C3.29309 15.2731 2.50221 17.1795 2.5 19.168C2.5 19.389 2.5878 19.6009 2.74408 19.7572C2.90036 19.9135 3.11232 20.0013 3.33333 20.0013H16.6667C16.8877 20.0013 17.0996 19.9135 17.2559 19.7572C17.4122 19.6009 17.5 19.389 17.5 19.168C17.4978 17.1795 16.7069 15.2731 15.3009 13.8671C13.8948 12.4611 11.9884 11.6702 10 11.668Z" fill="#D8DDE4"/>
<path d="M10 10C12.7614 10 15 7.76142 15 5C15 2.23858 12.7614 0 10 0C7.23858 0 5 2.23858 5 5C5 7.76142 7.23858 10 10 10Z" fill="#D8DDE4"/>
</g>
<defs>
<clipPath id="clip0_2253_156790">
<rect width="20" height="20" fill="white"/>
</clipPath>
</defs>
</svg>
