<svg width="25" height="24" viewBox="0 0 25 24" fill="none" xmlns="http://www.w3.org/2000/svg">
<g clip-path="url(#clip0_2253_157106)">
<path d="M19.7917 1.03906H5.20833C3.82751 1.04072 2.50371 1.58998 1.52731 2.56637C0.550919 3.54277 0.00165402 4.86657 0 6.2474L0 18.7474C0.00165402 20.1282 0.550919 21.452 1.52731 22.4284C2.50371 23.4048 3.82751 23.9541 5.20833 23.9557H19.7917C21.1725 23.9541 22.4963 23.4048 23.4727 22.4284C24.4491 21.452 24.9983 20.1282 25 18.7474V6.2474C24.9983 4.86657 24.4491 3.54277 23.4727 2.56637C22.4963 1.58998 21.1725 1.04072 19.7917 1.03906ZM5.20833 3.1224H19.7917C20.4154 3.12362 21.0245 3.31147 21.5406 3.66177C22.0567 4.01208 22.4561 4.5088 22.6875 5.08802L14.7104 13.0661C14.1234 13.6508 13.3286 13.9791 12.5 13.9791C11.6714 13.9791 10.8766 13.6508 10.2896 13.0661L2.3125 5.08802C2.5439 4.5088 2.94335 4.01208 3.45942 3.66177C3.9755 3.31147 4.5846 3.12362 5.20833 3.1224ZM19.7917 21.8724H5.20833C4.37953 21.8724 3.58468 21.5432 2.99862 20.9571C2.41257 20.3711 2.08333 19.5762 2.08333 18.7474V7.8099L8.81667 14.5391C9.7944 15.5143 11.119 16.062 12.5 16.062C13.881 16.062 15.2056 15.5143 16.1833 14.5391L22.9167 7.8099V18.7474C22.9167 19.5762 22.5874 20.3711 22.0014 20.9571C21.4153 21.5432 20.6205 21.8724 19.7917 21.8724Z" fill="white"/>
</g>
<defs>
<clipPath id="clip0_2253_157106">
<rect width="25" height="24" fill="white"/>
</clipPath>
</defs>
</svg>
