<svg width="30" height="30" viewBox="0 0 30 30" fill="none" xmlns="http://www.w3.org/2000/svg">
<mask id="mask0_2253_157095" style="mask-type:luminance" maskUnits="userSpaceOnUse" x="2" y="2" width="26" height="26">
<path fill-rule="evenodd" clip-rule="evenodd" d="M13.5709 10.4236C14.2185 9.55084 14.4507 8.63102 13.7183 7.81911C12.0746 5.51913 10.9692 4.09684 10.2758 3.41189C8.9576 2.10973 6.78914 2.28586 5.64748 3.41078C5.03429 4.01498 4.8267 4.22247 4.19708 4.86198C0.690014 8.37093 2.8288 15.7887 8.51448 21.48C14.1989 27.17 21.616 29.3099 25.1304 25.7935C25.7114 25.2334 26.2033 24.7412 26.5912 24.3312C27.71 23.1487 27.8799 21.0759 26.5839 19.7292C25.9194 19.0389 24.5632 17.9868 22.1664 16.2724C21.4324 15.616 20.562 15.7583 19.764 16.2818C19.3802 16.5336 19.1009 16.7883 18.5734 17.3163L17.6156 18.2746C17.4895 18.4009 15.7765 17.543 14.1136 15.8785C12.4499 14.2131 11.5926 12.5 11.7182 12.3745C11.9771 12.1156 12.2966 11.7959 12.6766 11.4155C12.844 11.248 12.924 11.1669 13.0266 11.0591C13.2404 10.8344 13.4173 10.6305 13.5709 10.4236ZM19.3819 20.0412L20.3399 19.0827C20.6302 18.7921 20.8183 18.6134 20.9714 18.4902C23.071 19.998 24.2869 20.9461 24.7836 21.4621C25.0818 21.772 25.0355 22.3373 24.7762 22.6113C24.4175 22.9905 23.9514 23.4568 23.3794 24.0085C21.1069 26.282 15.1196 24.5546 10.2812 19.7114C5.44119 14.8667 3.71461 8.8785 5.97001 6.62186C6.59709 5.98498 6.79576 5.7864 7.4002 5.19083C7.62684 4.96752 8.24416 4.91737 8.51985 5.18971C9.05369 5.71705 10.0439 6.98499 11.5006 9.01417C11.4252 9.10779 11.331 9.2136 11.2164 9.33406C11.1323 9.42248 11.0622 9.49353 10.909 9.6469C10.5292 10.027 10.21 10.3464 9.95146 10.605C8.32252 12.2338 9.70978 15.0059 12.346 17.6447C14.9804 20.2817 17.7535 21.6705 19.3819 20.0412Z" fill="white"/>
</mask>
<g mask="url(#mask0_2253_157095)">
<rect width="30" height="30" fill="white"/>
</g>
</svg>
