<svg width="28" height="28" viewBox="0 0 28 28" fill="none" xmlns="http://www.w3.org/2000/svg">
<path d="M13.4154 25.375C6.8237 25.375 1.45703 20.0083 1.45703 13.4167C1.45703 6.825 6.8237 1.45834 13.4154 1.45834C20.007 1.45834 25.3737 6.825 25.3737 13.4167C25.3737 20.0083 20.007 25.375 13.4154 25.375ZM13.4154 3.20834C7.78036 3.20834 3.20703 7.79334 3.20703 13.4167C3.20703 19.04 7.78036 23.625 13.4154 23.625C19.0504 23.625 23.6237 19.04 23.6237 13.4167C23.6237 7.79334 19.0504 3.20834 13.4154 3.20834Z" fill="#1A1A1A"/>
<path d="M25.6664 26.5417C25.4447 26.5417 25.223 26.46 25.048 26.285L22.7147 23.9517C22.3764 23.6133 22.3764 23.0533 22.7147 22.715C23.053 22.3767 23.613 22.3767 23.9514 22.715L26.2847 25.0483C26.623 25.3867 26.623 25.9467 26.2847 26.285C26.1097 26.46 25.888 26.5417 25.6664 26.5417Z" fill="#1A1A1A"/>
</svg>
