<svg width="30" height="30" viewBox="0 0 30 30" fill="none" xmlns="http://www.w3.org/2000/svg">
<mask id="mask0_3247_2612" style="mask-type:luminance" maskUnits="userSpaceOnUse" x="2" y="2" width="26" height="26">
<path fill-rule="evenodd" clip-rule="evenodd" d="M13.5709 10.4216C14.2185 9.54888 14.4507 8.62907 13.7183 7.81715C12.0746 5.51718 10.9692 4.09488 10.2758 3.40994C8.9576 2.10777 6.78914 2.28391 5.64748 3.40883C5.03429 4.01303 4.8267 4.22052 4.19708 4.86003C0.690014 8.36898 2.8288 15.7868 8.51448 21.478C14.1989 27.168 21.616 29.3079 25.1304 25.7916C25.7114 25.2315 26.2033 24.7393 26.5912 24.3292C27.71 23.1467 27.8799 21.0739 26.5839 19.7273C25.9194 19.0369 24.5632 17.9848 22.1664 16.2704C21.4324 15.6141 20.562 15.7563 19.764 16.2798C19.3802 16.5316 19.1009 16.7864 18.5734 17.3143L17.6156 18.2727C17.4895 18.3989 15.7765 17.541 14.1136 15.8766C12.4499 14.2112 11.5926 12.4981 11.7182 12.3725C11.9771 12.1136 12.2966 11.794 12.6766 11.4135C12.844 11.246 12.924 11.1649 13.0266 11.0571C13.2404 10.8324 13.4173 10.6286 13.5709 10.4216ZM19.3824 20.0404L20.3404 19.0819C20.6307 18.7913 20.8188 18.6126 20.9719 18.4895C23.0714 19.9972 24.2874 20.9453 24.7841 21.4613C25.0823 21.7712 25.0359 22.3365 24.7767 22.6105C24.418 22.9897 23.9519 23.456 23.3799 24.0077C21.1074 26.2812 15.1201 24.5538 10.2817 19.7106C5.44168 14.8659 3.7151 8.87771 5.97049 6.62108C6.59757 5.98419 6.79625 5.78562 7.40069 5.19004C7.62732 4.96673 8.24465 4.91659 8.52034 5.18893C9.05417 5.71627 10.0444 6.98421 11.5011 9.01338C11.4257 9.10701 11.3315 9.21281 11.2169 9.33327C11.1328 9.42169 11.0627 9.49274 10.9095 9.64611C10.5297 10.0262 10.2105 10.3456 9.95195 10.6042C8.32301 12.233 9.71027 15.0051 12.3465 17.6439C14.9808 20.2809 17.754 21.6697 19.3824 20.0404Z" fill="white"/>
</mask>
<g mask="url(#mask0_3247_2612)">
<rect width="30" height="30" fill="white"/>
</g>
</svg>
