<svg width="30" height="30" viewBox="0 0 30 30" fill="none" xmlns="http://www.w3.org/2000/svg">
<g id="fluent:chat-16-regular" clip-path="url(#clip0_4045_13221)">
<g id="Group">
<path id="Vector" d="M10 12.4961C10 12.1646 10.1317 11.8466 10.3661 11.6122C10.6005 11.3778 10.9185 11.2461 11.25 11.2461H18.75C19.0815 11.2461 19.3995 11.3778 19.6339 11.6122C19.8683 11.8466 20 12.1646 20 12.4961C20 12.8276 19.8683 13.1456 19.6339 13.38C19.3995 13.6144 19.0815 13.7461 18.75 13.7461H11.25C10.9185 13.7461 10.6005 13.6144 10.3661 13.38C10.1317 13.1456 10 12.8276 10 12.4961Z" fill="#36B4F1"/>
<path id="Vector_2" d="M11.25 16.248C10.9185 16.248 10.6005 16.3797 10.3661 16.6142C10.1317 16.8486 10 17.1665 10 17.498C10 17.8296 10.1317 18.1475 10.3661 18.3819C10.6005 18.6163 10.9185 18.748 11.25 18.748H16.25C16.5815 18.748 16.8995 18.6163 17.1339 18.3819C17.3683 18.1475 17.5 17.8296 17.5 17.498C17.5 17.1665 17.3683 16.8486 17.1339 16.6142C16.8995 16.3797 16.5815 16.248 16.25 16.248H11.25Z" fill="#36B4F1"/>
<path id="Vector_3" d="M0.000863164 14.9971C0.00150106 11.6947 1.09193 8.48484 3.10298 5.86542C5.11404 3.246 7.93331 1.36345 11.1235 0.509809C14.3136 -0.343834 17.6963 -0.120852 20.7468 1.14416C23.7973 2.40918 26.345 4.64551 27.9948 7.50626C29.6446 10.367 30.3043 13.6922 29.8714 16.9661C29.4386 20.24 27.9374 23.2795 25.6008 25.6132C23.2642 27.9469 20.2228 29.4443 16.9484 29.873C13.6739 30.3018 10.3495 29.638 7.49086 27.9846L1.64586 29.9346C1.42992 30.0067 1.19838 30.0184 0.976248 29.9686C0.754113 29.9187 0.549811 29.8091 0.385394 29.6517C0.220976 29.4942 0.102687 29.2948 0.0432909 29.075C-0.0161049 28.8553 -0.0143511 28.6234 0.0483633 28.4046L1.82836 22.1771C0.625903 19.9752 -0.00259471 17.5059 0.000863164 14.9971ZM15.0008 2.49711C12.7938 2.49697 10.6261 3.08118 8.71799 4.19037C6.80992 5.29955 5.22953 6.89416 4.13749 8.8121C3.04544 10.73 2.48067 12.9029 2.50058 15.1099C2.5205 17.3168 3.12438 19.4792 4.25086 21.3771C4.33753 21.5237 4.39332 21.6865 4.41482 21.8554C4.43631 22.0244 4.42306 22.1959 4.37586 22.3596L3.10336 26.8096L7.24836 25.4296C7.42439 25.3708 7.6113 25.352 7.79551 25.3745C7.97973 25.397 8.15662 25.4602 8.31336 25.5596C9.95153 26.5963 11.8084 27.2378 13.7372 27.4333C15.666 27.6289 17.6138 27.3731 19.4267 26.6862C21.2396 25.9994 22.8679 24.9002 24.1829 23.4757C25.4978 22.0512 26.4635 20.3403 27.0034 18.4783C27.5433 16.6164 27.6427 14.6544 27.2938 12.7473C26.9449 10.8403 26.1572 9.04062 24.9929 7.49046C23.8287 5.9403 22.3199 4.68219 20.5857 3.81556C18.8515 2.94894 16.9395 2.49756 15.0008 2.49711Z" fill="#36B4F1"/>
</g>
</g>
<defs>
<clipPath id="clip0_4045_13221">
<rect width="30" height="30" fill="white"/>
</clipPath>
</defs>
</svg>
