<svg width="33" height="33" viewBox="0 0 33 33" fill="none" xmlns="http://www.w3.org/2000/svg">
<g id="fi-ss-globe" clip-path="url(#clip0_3210_4342)">
<path id="Vector" d="M16.5 0C13.2366 0 10.0465 0.967708 7.3331 2.78075C4.61969 4.59379 2.50484 7.17074 1.256 10.1857C0.00714922 13.2007 -0.319606 16.5183 0.31705 19.719C0.953707 22.9197 2.52518 25.8597 4.83275 28.1673C7.14031 30.4748 10.0803 32.0463 13.281 32.683C16.4817 33.3196 19.7993 32.9929 22.8143 31.744C25.8293 30.4952 28.4062 28.3803 30.2193 25.6669C32.0323 22.9535 33 19.7634 33 16.5C32.9953 12.1254 31.2554 7.93129 28.162 4.83796C25.0687 1.74464 20.8746 0.00473149 16.5 0V0ZM28.4034 9.625H23.9676C22.9735 7.31982 21.6634 5.16422 20.075 3.22025C23.5867 4.17418 26.5798 6.47595 28.4034 9.625ZM22.6875 16.5C22.6776 17.8997 22.4584 19.2901 22.0371 20.625H10.9629C10.5416 19.2901 10.3224 17.8997 10.3125 16.5C10.3224 15.1003 10.5416 13.7099 10.9629 12.375H22.0371C22.4584 13.7099 22.6776 15.1003 22.6875 16.5ZM12.0643 23.375H20.9358C19.7679 25.68 18.2739 27.8046 16.5 29.6835C14.7261 27.8046 13.2321 25.68 12.0643 23.375ZM12.0643 9.625C13.2321 7.32002 14.7261 5.19535 16.5 3.3165C18.2739 5.19535 19.7679 7.32002 20.9358 9.625H12.0643ZM12.925 3.22025C11.337 5.16448 10.0269 7.32002 9.03238 9.625H4.59663C6.42022 6.47595 9.41331 4.17418 12.925 3.22025ZM3.38251 12.375H8.10151C7.38287 15.0781 7.38287 17.9219 8.10151 20.625H3.38251C2.53921 17.9396 2.53921 15.0603 3.38251 12.375ZM4.59663 23.375H9.03238C10.0265 25.6802 11.3366 27.8358 12.925 29.7798C9.41331 28.8258 6.42022 26.524 4.59663 23.375ZM20.075 29.7798C21.6631 27.8355 22.9731 25.68 23.9676 23.375H28.4034C26.5798 26.524 23.5867 28.8258 20.075 29.7798ZM29.6175 20.625H24.8985C25.6172 17.9219 25.6172 15.0781 24.8985 12.375H29.6175C30.4608 15.0603 30.4608 17.9396 29.6175 20.625Z" fill="white"/>
</g>
<defs>
<clipPath id="clip0_3210_4342">
<rect width="33" height="33" fill="white"/>
</clipPath>
</defs>
</svg>
