<svg width="30" height="30" viewBox="0 0 30 30" fill="none" xmlns="http://www.w3.org/2000/svg">
<path d="M6.25 23.75H13.75V26.25H8.75C8.41848 26.25 8.10054 26.3817 7.86612 26.6161C7.6317 26.8505 7.5 27.1685 7.5 27.5C7.5 27.8315 7.6317 28.1495 7.86612 28.3839C8.10054 28.6183 8.41848 28.75 8.75 28.75H21.25C21.5815 28.75 21.8995 28.6183 22.1339 28.3839C22.3683 28.1495 22.5 27.8315 22.5 27.5C22.5 27.1685 22.3683 26.8505 22.1339 26.6161C21.8995 26.3817 21.5815 26.25 21.25 26.25H16.25V23.75H23.75C25.1903 23.7482 26.5859 23.2499 27.7016 22.3391C28.8173 21.4283 29.5849 20.1607 29.875 18.75H0.125C0.415121 20.1607 1.18273 21.4283 2.29844 22.3391C3.41415 23.2499 4.80974 23.7482 6.25 23.75Z" fill="white"/>
<path d="M23.75 1.25H6.25C4.59301 1.25198 3.00445 1.9111 1.83277 3.08277C0.661102 4.25445 0.00198482 5.84301 0 7.5L0 16.25H30V7.5C29.998 5.84301 29.3389 4.25445 28.1672 3.08277C26.9956 1.9111 25.407 1.25198 23.75 1.25Z" fill="white"/>
</svg>
