<svg width="30" height="30" viewBox="0 0 30 30" fill="none" xmlns="http://www.w3.org/2000/svg">
<g id="la:telegram-plane">
<path id="Vector" d="M27.779 1.50276C27.4085 1.52977 27.0449 1.61686 26.7022 1.76064H26.6976C26.3687 1.89131 24.8049 2.55044 22.4274 3.54955L13.9078 7.14473C7.79444 9.72345 1.78498 12.2629 1.78498 12.2629L1.85654 12.2351C1.85654 12.2351 1.44221 12.3716 1.00942 12.6687C0.742045 12.8392 0.511968 13.0623 0.333112 13.3244C0.120755 13.6366 -0.0500533 14.1142 0.0134228 14.608C0.117293 15.4429 0.657417 15.9436 1.0452 16.22C1.4376 16.4998 1.81153 16.6305 1.81153 16.6305H1.82076L7.45629 18.5327C7.70904 19.3457 9.1736 24.1701 9.52561 25.2814C9.73335 25.9451 9.93532 26.3603 10.1881 26.6771C10.3104 26.839 10.4535 26.9743 10.6255 27.083C10.7149 27.1351 10.8102 27.1762 10.9094 27.2056L10.8517 27.1917C10.869 27.1963 10.8828 27.2102 10.8955 27.2148C10.9417 27.2275 10.9729 27.2322 11.0317 27.2414C11.9239 27.512 12.6406 26.9569 12.6406 26.9569L12.6809 26.9246L16.0083 23.8891L21.5849 28.1758L21.7119 28.2301C22.8741 28.7412 24.0513 28.4568 24.6733 27.9549C25.3 27.4496 25.5435 26.8031 25.5435 26.8031L25.5839 26.6991L29.8934 4.57873C30.0157 4.03292 30.0469 3.5218 29.9118 3.02571C29.7726 2.52364 29.4511 2.09183 29.0105 1.81499C28.6405 1.58963 28.2115 1.48085 27.779 1.50276ZM27.6625 3.87334C27.6578 3.94619 27.6717 3.9381 27.6394 4.07802V4.09074L23.3703 25.981C23.3519 26.0122 23.3207 26.0804 23.2353 26.1486C23.1453 26.2203 23.0737 26.2654 22.6986 26.1163L15.8778 20.8767L11.7577 24.6396L12.6232 19.1005L23.7673 8.69312C24.2267 8.26526 24.0732 8.17506 24.0732 8.17506C24.1055 7.65007 23.3796 8.02126 23.3796 8.02126L9.3271 16.7438L9.32248 16.7207L2.58709 14.4484V14.4438L2.56978 14.4403C2.58159 14.4364 2.59315 14.4318 2.6044 14.4264L2.64133 14.4079L2.67711 14.3952C2.67711 14.3952 8.69118 11.8558 14.8045 9.27709C17.8652 7.98542 20.949 6.68449 23.3207 5.68076C25.6924 4.6828 27.4455 3.95082 27.5447 3.9115C27.6394 3.87449 27.5944 3.87449 27.6625 3.87449V3.87334Z" fill="#36B4F1"/>
</g>
</svg>
