<svg width="32" height="32" viewBox="0 0 32 32" fill="none" xmlns="http://www.w3.org/2000/svg">
<path d="M8.17672 11.9999L11.3331 17.2614L18.491 5.33315H19.8242L23.825 11.9999H31.9997V2.66677C31.9997 1.20039 30.7993 0 29.3329 0H2.66677C1.20039 0 0 1.20039 0 2.66677V11.9999H8.17672ZM3.99996 3.99996H11.9999V6.66673H3.99996V3.99996Z" fill="white"/>
<path d="M22.315 14.6674L19.157 9.4043L11.9999 21.3338H10.6667L6.66673 14.6674H0V24.0005C0 25.4665 1.20039 26.6673 2.66677 26.6673H14.6667V29.3337H10.6667C9.19391 29.3337 7.99992 30.5277 7.99992 32.0005L23.9998 31.9993C23.9998 30.5265 22.8058 29.3325 21.333 29.3325H17.333V26.6673H29.3329C30.7993 26.6673 31.9997 25.4665 31.9997 24.0005V14.6674H22.315ZM22.6666 22.6674H17.333V20.0006H22.6666V22.6674ZM27.9997 22.6674H25.3329V20.0006H27.9997V22.6674Z" fill="white"/>
</svg>
