<svg width="24" height="24" viewBox="0 0 24 24" fill="none" xmlns="http://www.w3.org/2000/svg">
<path d="M9.87775 12.546C10.4413 13.1073 11.2043 13.4225 11.9998 13.4225C12.7952 13.4225 13.5582 13.1073 14.1217 12.546L23.7808 2.886C23.5584 2.32998 23.1747 1.85323 22.6791 1.51711C22.1835 1.181 21.5986 1.0009 20.9998 1H2.99975C2.40091 1.0009 1.81604 1.181 1.32042 1.51711C0.824805 1.85323 0.441119 2.32998 0.21875 2.886L9.87775 12.546Z" fill="#D8DDE4"/>
<path d="M15.536 13.96C14.5974 14.8963 13.3257 15.422 12 15.422C10.6743 15.422 9.40263 14.8963 8.464 13.96L0 5.5V23H24V5.5L15.536 13.96Z" fill="#D8DDE4"/>
</svg>
