<svg width="21" height="21" viewBox="0 0 21 21" fill="none" xmlns="http://www.w3.org/2000/svg">
<g clip-path="url(#clip0_3215_105317)">
<path d="M21.0007 10.5656C21.0007 4.73025 16.2993 0 10.5007 0C4.69942 0.0013125 -0.00195312 4.73025 -0.00195312 10.5669C-0.00195312 15.8393 3.83842 20.2099 8.85742 21.0026V13.6198H6.19305V10.5669H8.86005V8.23725C8.86005 5.58994 10.4285 4.12781 12.8264 4.12781C13.9762 4.12781 15.1771 4.33388 15.1771 4.33388V6.93263H13.8528C12.5495 6.93263 12.1426 7.74769 12.1426 8.58375V10.5656H15.0537L14.5891 13.6185H12.1413V21.0013C17.1603 20.2086 21.0007 15.8379 21.0007 10.5656Z" fill="white"/>
</g>
<defs>
<clipPath id="clip0_3215_105317">
<rect width="21" height="21" fill="white"/>
</clipPath>
</defs>
</svg>
