<svg width="28" height="28" viewBox="0 0 28 28" fill="none" xmlns="http://www.w3.org/2000/svg">
<path d="M13.4168 25.375C6.82516 25.375 1.4585 20.0083 1.4585 13.4167C1.4585 6.82499 6.82516 1.45833 13.4168 1.45833C20.0085 1.45833 25.3752 6.82499 25.3752 13.4167C25.3752 20.0083 20.0085 25.375 13.4168 25.375ZM13.4168 3.20833C7.78183 3.20833 3.2085 7.79333 3.2085 13.4167C3.2085 19.04 7.78183 23.625 13.4168 23.625C19.0518 23.625 23.6252 19.04 23.6252 13.4167C23.6252 7.79333 19.0518 3.20833 13.4168 3.20833Z" fill="#1A1A1A"/>
<path d="M25.6668 26.5417C25.4452 26.5417 25.2235 26.46 25.0485 26.285L22.7152 23.9517C22.3768 23.6133 22.3768 23.0533 22.7152 22.715C23.0535 22.3767 23.6135 22.3767 23.9518 22.715L26.2852 25.0483C26.6235 25.3867 26.6235 25.9467 26.2852 26.285C26.1102 26.46 25.8885 26.5417 25.6668 26.5417Z" fill="#1A1A1A"/>
</svg>
