<svg width="24" height="24" viewBox="0 0 24 24" fill="none" xmlns="http://www.w3.org/2000/svg">
<path d="M23.7193 5.28071L18.7193 0.280712C18.5307 0.0985538 18.2781 -0.00224062 18.0159 3.78026e-05C17.7537 0.00231622 17.5029 0.107485 17.3175 0.292893C17.1321 0.478301 17.0269 0.729114 17.0246 0.991311C17.0223 1.25351 17.1231 1.50611 17.3053 1.69471L19.0983 3.48771L16.6233 5.96271C15.8344 5.38773 14.8945 5.05626 13.9194 5.00916C12.9444 4.96207 11.9769 5.20143 11.1363 5.69771L13.7193 8.28071C13.8148 8.37296 13.891 8.4833 13.9434 8.60531C13.9958 8.72731 14.0234 8.85853 14.0245 8.99131C14.0257 9.12409 14.0004 9.25577 13.9501 9.37867C13.8998 9.50156 13.8256 9.61321 13.7317 9.70711C13.6378 9.801 13.5261 9.87525 13.4032 9.92553C13.2803 9.97581 13.1487 10.0011 13.0159 9.99996C12.8831 9.99881 12.7519 9.97122 12.6299 9.91881C12.5079 9.8664 12.3975 9.79022 12.3053 9.69471L9.59829 6.98771L8.01229 8.57371L10.7193 11.2807C10.8148 11.373 10.891 11.4833 10.9434 11.6053C10.9958 11.7273 11.0234 11.8585 11.0245 11.9913C11.0257 12.1241 11.0004 12.2558 10.9501 12.3787C10.8998 12.5016 10.8256 12.6132 10.7317 12.7071C10.6378 12.801 10.5261 12.8753 10.4032 12.9255C10.2803 12.9758 10.1487 13.0011 10.0159 13C9.88311 12.9988 9.75189 12.9712 9.62988 12.9188C9.50788 12.8664 9.39754 12.7902 9.30529 12.6947L6.59829 9.98771L5.01229 11.5757L7.71729 14.2807C7.8128 14.373 7.88898 14.4833 7.94139 14.6053C7.9938 14.7273 8.02138 14.8585 8.02254 14.9913C8.02369 15.1241 7.99839 15.2558 7.94811 15.3787C7.89783 15.5016 7.82358 15.6132 7.72968 15.7071C7.63579 15.801 7.52414 15.8753 7.40124 15.9255C7.27835 15.9758 7.14667 16.0011 7.01389 16C6.88111 15.9988 6.74989 15.9712 6.62788 15.9188C6.50588 15.8664 6.39553 15.7902 6.30329 15.6947L3.81829 13.2077C3.28689 14.2138 3.01015 15.3349 3.01229 16.4727V19.5727L0.305288 22.2807C0.209778 22.373 0.133596 22.4833 0.0811868 22.6053C0.0287778 22.7273 0.00119157 22.8585 3.77567e-05 22.9913C-0.00111606 23.1241 0.0241857 23.2558 0.0744665 23.3787C0.124747 23.5016 0.199001 23.6132 0.292893 23.7071C0.386786 23.801 0.498438 23.8753 0.621334 23.9255C0.744231 23.9758 0.87591 24.0011 1.00869 24C1.14147 23.9988 1.27269 23.9712 1.39469 23.9188C1.5167 23.8664 1.62704 23.7902 1.71929 23.6947L4.42629 20.9877H7.52629C8.44577 20.9902 9.35661 20.8102 10.2061 20.4584C11.0556 20.1065 11.8269 19.5896 12.4753 18.9377L17.5473 13.8657C18.3872 13.021 18.8974 11.9038 18.9858 10.7158C19.0742 9.52787 18.7349 8.34746 18.0293 7.38771L20.5123 4.90171L22.3053 6.69471C22.4939 6.87687 22.7465 6.97766 23.0087 6.97539C23.2709 6.97311 23.5217 6.86794 23.7071 6.68253C23.8925 6.49712 23.9977 6.24631 24 5.98411C24.0022 5.72192 23.9014 5.46931 23.7193 5.28071Z" fill="#C4D1DB"/>
</svg>
