<svg width="20" height="20" viewBox="0 0 20 20" fill="none" xmlns="http://www.w3.org/2000/svg">
<g clip-path="url(#clip0_1390_75557)">
<path d="M19.9605 10.25L19.373 6.08333C19.2286 5.09161 18.7332 4.18459 17.9769 3.52706C17.2206 2.86952 16.2535 2.5051 15.2513 2.5H6.66797V15.4867L8.02297 18.2367C8.29194 18.7802 8.7471 19.2092 9.30565 19.4455C9.86419 19.6818 10.489 19.7097 11.0664 19.5242C11.6438 19.3387 12.1354 18.9521 12.4518 18.4347C12.7683 17.9173 12.8884 17.3035 12.7905 16.705L12.5105 15H15.8346C16.4311 15 17.0206 14.872 17.5634 14.6245C18.1061 14.3771 18.5894 14.016 18.9805 13.5657C19.3717 13.1154 19.6616 12.5863 19.8306 12.0143C19.9997 11.4423 20.044 10.8406 19.9605 10.25Z" fill="#D8DDE4"/>
<path d="M0 6.66667V10.8333C0.00132321 11.938 0.440735 12.997 1.22185 13.7782C2.00296 14.5593 3.062 14.9987 4.16667 15H5V2.5H4.16667C3.062 2.50132 2.00296 2.94073 1.22185 3.72185C0.440735 4.50296 0.00132321 5.562 0 6.66667H0Z" fill="#D8DDE4"/>
</g>
<defs>
<clipPath id="clip0_1390_75557">
<rect width="20" height="20" fill="white"/>
</clipPath>
</defs>
</svg>
