<svg width="21" height="20" viewBox="0 0 21 20" fill="none" xmlns="http://www.w3.org/2000/svg">
<g clip-path="url(#clip0_3591_14604)">
<path d="M20.1326 16.6665L15.5689 12.5171C15.3532 12.321 15.0697 12.2165 14.7783 12.2255C14.4869 12.2345 14.2105 12.3564 14.0073 12.5654L11.3207 15.3283C10.674 15.2048 9.37396 14.7995 8.03573 13.4646C6.6975 12.1253 6.29221 10.8219 6.17209 10.1797L8.93275 7.49205C9.14203 7.28899 9.26409 7.01247 9.2731 6.72101C9.28211 6.42955 9.17737 6.14601 8.98103 5.93042L4.83273 1.36789C4.63631 1.15162 4.36332 1.02043 4.07173 1.00219C3.78014 0.983954 3.49292 1.0801 3.27109 1.27022L0.834875 3.3595C0.640776 3.5543 0.524925 3.81357 0.509298 4.08812C0.492458 4.36878 0.171372 11.0172 5.32671 16.1748C9.82416 20.6711 15.4578 21 17.0093 21C17.2361 21 17.3753 20.9933 17.4123 20.991C17.6868 20.9757 17.946 20.8593 18.1398 20.6643L20.228 18.227C20.4189 18.0059 20.5157 17.7189 20.4979 17.4273C20.4801 17.1358 20.349 16.8627 20.1326 16.6665Z" fill="#333333" fill-opacity="0.5"/>
</g>
<defs>
<clipPath id="clip0_3591_14604">
<rect width="20" height="20" fill="white" transform="translate(0.5)"/>
</clipPath>
</defs>
</svg>
