<svg width="24" height="24" viewBox="0 0 24 24" fill="none" xmlns="http://www.w3.org/2000/svg">
<g clip-path="url(#clip0_1377_61271)">
<path d="M23.7167 2.28369C23.5268 2.0945 23.2697 1.98828 23.0017 1.98828C22.7337 1.98828 22.4766 2.0945 22.2867 2.28369L17.5227 7.04769L17.2027 6.73469C16.359 5.91064 15.2516 5.41077 14.0755 5.32315C12.8995 5.23552 11.7302 5.56576 10.7737 6.25569C9.39325 7.29668 7.85879 8.11587 6.22571 8.68369L4.15171 9.29169C3.47776 9.48952 2.85264 9.82615 2.31652 10.2799C1.78041 10.7337 1.34515 11.2947 1.03871 11.9267C0.737315 12.5501 0.569447 13.2296 0.545856 13.9217C0.522264 14.6138 0.643469 15.3032 0.901709 15.9457C1.88049 18.3484 3.55842 20.4018 5.71803 21.8397C7.87764 23.2775 10.4193 24.0335 13.0137 24.0097H13.9377C14.1445 24.0095 14.3462 23.946 14.5157 23.8277C16.2759 22.6787 17.7803 21.1791 18.9348 19.4226C20.0893 17.666 20.8692 15.6902 21.2257 13.6187C21.3497 12.8266 21.2825 12.0163 21.0298 11.2554C20.777 10.4946 20.346 9.80515 19.7727 9.24469L18.9727 8.46069L23.7197 3.71369C23.9085 3.52342 24.0142 3.26609 24.0136 2.99807C24.0131 2.73004 23.9063 2.47316 23.7167 2.28369ZM13.6097 21.9837H13.0097C11.5321 21.9857 10.0685 21.698 8.70171 21.1367L8.71271 21.1307C10.4616 20.2532 11.9588 18.9456 13.0637 17.3307L13.5817 16.5697C13.7326 16.3482 13.7894 16.0759 13.7395 15.8126C13.6896 15.5493 13.5372 15.3166 13.3157 15.1657C13.0943 15.0148 12.8219 14.958 12.5586 15.0079C12.2953 15.0578 12.0626 15.2102 11.9117 15.4317L11.3937 16.1927C10.4809 17.5243 9.24496 18.6023 7.80171 19.3257L6.55071 19.9557C5.54983 19.2521 4.6763 18.383 3.96771 17.3857C5.60669 16.8343 7.10201 15.9242 8.34471 14.7217C8.53646 14.5342 8.64587 14.2782 8.64887 14.01C8.65187 13.7418 8.54822 13.4834 8.36071 13.2917C8.1732 13.0999 7.9172 12.9905 7.64902 12.9875C7.38085 12.9845 7.12246 13.0882 6.93071 13.2757C5.81159 14.36 4.44574 15.1562 2.95071 15.5957C2.88971 15.4607 2.82371 15.3287 2.76871 15.1897C2.61383 14.8093 2.54133 14.4005 2.55598 13.9901C2.57063 13.5797 2.67211 13.177 2.85371 12.8087C3.03756 12.4305 3.2983 12.0948 3.61926 11.8231C3.94022 11.5514 4.31434 11.3496 4.71771 11.2307L6.79071 10.6227C7.99366 10.2362 9.14435 9.70288 10.2167 9.03469L18.1317 16.7467C17.0801 18.8401 15.5265 20.6407 13.6097 21.9877V21.9837ZM19.2297 13.3007C19.1533 13.7685 19.0501 14.2316 18.9207 14.6877L11.9497 7.89869C12.4611 7.53112 13.0749 7.33317 13.7047 7.33269C14.4838 7.3317 15.2321 7.63656 15.7887 8.18168L18.3577 10.6907C18.7007 11.0255 18.9587 11.4374 19.1104 11.892C19.2621 12.3467 19.303 12.831 19.2297 13.3047V13.3007Z" fill="#36B4F1"/>
</g>
<defs>
<clipPath id="clip0_1377_61271">
<rect width="24" height="24" fill="white"/>
</clipPath>
</defs>
</svg>
