<svg width="25" height="25" viewBox="0 0 25 25" fill="none" xmlns="http://www.w3.org/2000/svg">
<path d="M21.0141 7.52422C21.1547 7.66484 21.2344 7.85469 21.2344 8.05391V22.5078C21.2344 22.9227 20.8992 23.2578 20.4844 23.2578H5.48438C5.06953 23.2578 4.73438 22.9227 4.73438 22.5078V3.00781C4.73438 2.59297 5.06953 2.25781 5.48438 2.25781H15.4383C15.6375 2.25781 15.8297 2.3375 15.9703 2.47813L21.0141 7.52422ZM19.5047 8.39844L15.0938 3.9875V8.39844H19.5047ZM15.8255 15.6936C15.4697 15.6819 15.0914 15.7093 14.6618 15.763C14.0923 15.4116 13.7088 14.9291 13.4365 14.2201L13.4616 14.1174L13.4906 13.996C13.5914 13.5711 13.6455 13.261 13.6617 12.9484C13.6739 12.7123 13.6608 12.4946 13.6188 12.2928C13.5415 11.8571 13.2333 11.6023 12.8449 11.5866C12.4828 11.5719 12.15 11.7741 12.0649 12.0875C11.9264 12.5942 12.0075 13.261 12.3012 14.3982C11.9271 15.29 11.4328 16.3355 11.1012 16.9187C10.6584 17.147 10.3137 17.3546 10.024 17.5848C9.64195 17.8888 9.40336 18.2012 9.33773 18.5293C9.30586 18.6814 9.35391 18.8802 9.46336 19.043C9.58758 19.2277 9.77461 19.3477 9.99891 19.3651C10.5649 19.4089 11.2605 18.8253 12.0286 17.5074C12.1057 17.4816 12.1873 17.4545 12.2869 17.4207L12.5658 17.3265C12.7423 17.267 12.8702 17.2243 12.9968 17.1833C13.5452 17.0047 13.9601 16.892 14.3374 16.8277C14.9932 17.1788 15.7512 17.409 16.2616 17.409C16.683 17.409 16.9678 17.1905 17.0707 16.8467C17.1609 16.5448 17.0895 16.1947 16.8954 16.0011C16.6948 15.804 16.3259 15.7098 15.8255 15.6936ZM10.0132 18.7034V18.695L10.0162 18.687C10.0505 18.5984 10.0946 18.5138 10.1475 18.4348C10.2478 18.2806 10.3859 18.1184 10.557 17.9457C10.6488 17.8531 10.7445 17.7629 10.8567 17.6616C10.8818 17.6391 11.0421 17.4964 11.0721 17.4683L11.3339 17.2245L11.1436 17.5276C10.8548 17.9879 10.5938 18.3193 10.3702 18.5354C10.2879 18.6151 10.2155 18.6737 10.1569 18.7114C10.1375 18.7243 10.1171 18.7355 10.0957 18.7447C10.0861 18.7487 10.0777 18.751 10.0692 18.7517C10.0603 18.7529 10.0513 18.7516 10.043 18.7482C10.0341 18.7445 10.0266 18.7383 10.0213 18.7303C10.016 18.7224 10.0132 18.713 10.0132 18.7034ZM12.9649 13.5875L12.912 13.6813L12.8791 13.5786C12.8065 13.3482 12.753 13.0011 12.7383 12.688C12.7214 12.3317 12.7498 12.118 12.8623 12.118C13.0202 12.118 13.0927 12.3711 13.0983 12.752C13.1034 13.0866 13.0507 13.4349 12.9647 13.5875H12.9649ZM12.8287 14.9577L12.8646 14.8627L12.9136 14.9518C13.1876 15.4496 13.5431 15.8649 13.9341 16.1544L14.0184 16.2167L13.9155 16.2378C13.5328 16.317 13.1763 16.4361 12.6888 16.6327C12.7397 16.6121 12.1821 16.8404 12.041 16.8945L11.918 16.9416L11.9836 16.8273C12.273 16.3234 12.5405 15.7182 12.8285 14.9577H12.8287ZM16.523 16.745C16.3387 16.8177 15.9422 16.7527 15.244 16.4546L15.0668 16.3791L15.259 16.3651C15.8051 16.3245 16.1918 16.3545 16.4173 16.437C16.5134 16.4722 16.5773 16.5165 16.6057 16.5671C16.6206 16.5911 16.6256 16.6199 16.6197 16.6475C16.6137 16.6751 16.5973 16.6993 16.5738 16.715C16.5589 16.7281 16.5417 16.7383 16.523 16.745Z" fill="#36B4F1"/>
</svg>
