<svg width="28" height="28" viewBox="0 0 28 28" fill="none" xmlns="http://www.w3.org/2000/svg">
<path d="M27.9906 14.1867C27.9628 16.2289 27.4848 18.2398 26.5906 20.076C26.5047 20.0751 26.419 20.0841 26.3351 20.1029C24.2144 20.7264 22.0122 21.0288 19.8018 21C17.4224 21.0666 15.0477 20.7515 12.768 20.0667C12.4969 19.9748 12.253 19.8168 12.0582 19.6071C11.8634 19.3974 11.7239 19.1424 11.6522 18.8653C11.5806 18.5882 11.579 18.2976 11.6477 18.0197C11.7164 17.7419 11.8532 17.4855 12.0458 17.2737C12.4386 16.8366 12.8587 16.4247 13.3035 16.0405C13.533 15.8558 13.8064 15.7337 14.0972 15.686C14.3879 15.6384 14.686 15.6669 14.9625 15.7687C16.454 16.2663 18.0159 16.5207 19.5883 16.5224C22.5451 16.4919 25.4423 15.6866 27.9906 14.1867ZM17.7893 14.028C18.0537 14.0709 18.3245 14.052 18.5804 13.9729C18.8364 13.8937 19.0705 13.7564 19.2645 13.5716C19.4585 13.3869 19.6071 13.1598 19.6987 12.908C19.7903 12.6563 19.8224 12.3867 19.7925 12.1205C19.2523 7.71128 17.2575 3.60799 14.1236 0.459686C14.0045 0.330506 13.9166 0.175614 13.867 0.00701904C12.0214 0.0205479 10.197 0.401691 8.5003 1.12819C10.2711 2.44941 11.7536 4.11824 12.857 6.03244C13.9603 7.94665 14.6613 10.0659 14.917 12.2605C14.965 12.5982 15.1118 12.9141 15.3389 13.1686C15.566 13.4231 15.8633 13.6048 16.1933 13.6909C16.7173 13.8383 17.2505 13.9509 17.7893 14.028ZM24.409 13.2779C25.5946 12.8427 26.7241 12.2678 27.7736 11.5652C27.2924 8.86237 26.0283 6.36029 24.1381 4.36931C22.2479 2.37833 19.8148 0.986053 17.1406 0.365186C19.8679 3.64379 21.5915 7.63952 22.1048 11.8732C22.1362 12.1309 22.2256 12.3782 22.3662 12.5965C22.5068 12.8148 22.695 12.9984 22.9167 13.1335C23.1384 13.2687 23.3878 13.3519 23.6463 13.3769C23.9047 13.4019 24.1655 13.368 24.409 13.2779ZM19.6 23.3334C16.7264 23.381 13.8668 22.9225 11.1521 21.9789C10.9336 21.899 10.7009 21.8654 10.4687 21.8801C10.2365 21.8949 10.0099 21.9578 9.80323 22.0647C9.59659 22.1717 9.41442 22.3203 9.26826 22.5014C9.12209 22.6824 9.01513 22.8918 8.95413 23.1164C8.64162 24.3476 8.50068 25.6161 8.5353 26.8859C11.3115 28.0659 14.3949 28.3165 17.3251 27.6001C20.2554 26.8837 22.8754 25.2389 24.794 22.911C23.0825 23.2354 21.3414 23.377 19.6 23.3334ZM12.6 12.6362C12.5259 11.9479 12.3999 11.2662 12.2231 10.5969C12.1467 10.319 12.0013 10.0649 11.8004 9.85823C11.5995 9.65157 11.3497 9.49903 11.0741 9.41476C10.7985 9.33049 10.506 9.31724 10.2239 9.37623C9.94184 9.43522 9.67922 9.56454 9.46047 9.75219C6.09719 12.7047 3.69899 16.5999 2.57713 20.9324C2.52013 21.2572 2.48388 21.5853 2.46863 21.9147C3.47009 23.371 4.73655 24.626 6.20197 25.6142C6.32656 23.4037 6.90202 21.2421 7.89295 19.2622C8.88388 17.2823 10.2693 15.5261 11.9641 14.1015C12.182 13.928 12.3539 13.7036 12.4647 13.4481C12.5756 13.1926 12.622 12.9138 12.6 12.6362ZM9.06147 4.79385C8.21667 3.86438 7.24824 3.05532 6.1833 2.38935C3.59724 4.11689 1.66385 6.66033 0.691237 9.61432C-0.281376 12.5683 -0.237233 15.7629 0.816632 18.6889C2.32813 14.1738 5.11425 10.1927 8.83863 7.22635C9.01824 7.08494 9.16713 6.90841 9.27624 6.70754C9.38535 6.50667 9.45237 6.28567 9.47323 6.05803C9.49408 5.83039 9.46832 5.60089 9.39753 5.38354C9.32673 5.16619 9.21239 4.96554 9.06147 4.79385Z" fill="white"/>
</svg>
