<svg width="37" height="37" viewBox="0 0 37 37" fill="none" xmlns="http://www.w3.org/2000/svg">
<path d="M25.9 0H11.1C3.7 0 0 3.7 0 11.1V35.15C0 36.1675 0.8325 37 1.85 37H25.9C33.3 37 37 33.3 37 25.9V11.1C37 3.7 33.3 0 25.9 0ZM24.975 19.8875H19.8875V24.975C19.8875 25.7335 19.2585 26.3625 18.5 26.3625C17.7415 26.3625 17.1125 25.7335 17.1125 24.975V19.8875H12.025C11.2665 19.8875 10.6375 19.2585 10.6375 18.5C10.6375 17.7415 11.2665 17.1125 12.025 17.1125H17.1125V12.025C17.1125 11.2665 17.7415 10.6375 18.5 10.6375C19.2585 10.6375 19.8875 11.2665 19.8875 12.025V17.1125H24.975C25.7335 17.1125 26.3625 17.7415 26.3625 18.5C26.3625 19.2585 25.7335 19.8875 24.975 19.8875Z" fill="#36B4F1"/>
</svg>
