<svg width="28" height="28" viewBox="0 0 28 28" fill="none" xmlns="http://www.w3.org/2000/svg">
<path d="M15.5 4.2L16.625 2.1H21.5V0H6.5V2.1H13.625L12.5 4.2C7.805 4.326 3.5 5.222 3.5 9.1V21C3.5 23.1 5.165 24.822 7.325 25.13L5.54 26.796C5.06 27.244 5.39 28 6.065 28H7.7C7.895 28 8.09 27.93 8.225 27.79L11 25.2H17L19.775 27.79C19.91 27.916 20.105 28 20.3 28H21.935C22.61 28 22.94 27.244 22.46 26.81L20.675 25.144C22.835 24.822 24.5 23.1 24.5 21V9.1C24.5 5.222 20.195 4.326 15.5 4.2ZM14 23.1C12.755 23.1 11.75 22.162 11.75 21C11.75 19.838 12.755 18.9 14 18.9C15.245 18.9 16.25 19.838 16.25 21C16.25 22.162 15.245 23.1 14 23.1ZM21.5 16.8H6.5V9.8H21.5V16.8Z" fill="white"/>
</svg>
