<svg width="43" height="45" viewBox="0 0 43 45" fill="none" xmlns="http://www.w3.org/2000/svg">
<path d="M24.1367 8.78906H8.31641C7.58832 8.78906 6.99805 8.19879 6.99805 7.4707V4.83398C6.99805 4.1059 7.58832 3.51562 8.31641 3.51562C9.78031 3.51562 11.0507 2.52378 11.4057 1.10364L11.432 0.998437C11.5788 0.411592 12.1061 0 12.7109 0H19.7422C20.3471 0 20.8743 0.411592 21.0211 0.99835L21.0474 1.10329C21.4024 2.52378 22.6728 3.51562 24.1367 3.51562C24.8648 3.51562 25.4551 4.1059 25.4551 4.83398V7.4707C25.4551 8.19879 24.8648 8.78906 24.1367 8.78906Z" fill="white"/>
<path d="M23.2578 14.9418C23.9286 14.9418 24.5081 14.5837 24.8081 13.9837L24.9937 13.6125C25.6679 12.2641 27.0234 11.4262 28.5312 11.4262H31.6074V9.22895C31.6074 7.19674 30.0665 5.51829 28.0918 5.29883V7.47113C28.0918 9.65196 26.3175 11.4262 24.1367 11.4262H8.31641C6.13558 11.4262 4.36133 9.65196 4.36133 7.47113V5.29883C2.3866 5.51829 0.845703 7.19674 0.845703 9.22895V41.0454C0.845703 43.2262 2.61995 45.0004 4.80078 45.0004H27.6523C29.4525 45.0004 30.9745 43.7911 31.4514 42.1426C31.2687 42.1147 31.0879 42.0744 30.9102 42.0211C27.5301 41.0071 24.6297 38.9745 22.523 36.143C20.4162 33.3114 19.3027 29.9492 19.3027 26.4201V18.8969C19.3027 16.7161 21.077 14.9418 23.2578 14.9418ZM14.5092 34.1932L9.53729 39.165C9.27995 39.4225 8.94245 39.5512 8.60513 39.5512C8.26771 39.5512 7.93039 39.4225 7.67296 39.165L5.18706 36.6791C4.6722 36.1643 4.6722 35.3296 5.18706 34.8147C5.70184 34.2998 6.53662 34.2998 7.05148 34.8147L8.60522 36.3683L12.6448 32.3288C13.1597 31.8139 13.9944 31.8139 14.5093 32.3288C15.0241 32.8437 15.024 33.6784 14.5092 34.1932ZM14.5092 24.8139L9.53729 29.7857C9.27995 30.0431 8.94245 30.1719 8.60513 30.1719C8.26771 30.1719 7.93039 30.0432 7.67296 29.7857L5.18706 27.2998C4.6722 26.7849 4.6722 25.9502 5.18706 25.4354C5.70184 24.9205 6.53662 24.9205 7.05148 25.4354L8.60522 26.989L12.6448 22.9495C13.1597 22.4346 13.9944 22.4346 14.5093 22.9495C15.0241 23.4643 15.024 24.2991 14.5092 24.8139ZM14.5092 15.4346L9.53729 20.4063C9.27995 20.6638 8.94245 20.7925 8.60513 20.7925C8.26771 20.7925 7.93039 20.6639 7.67296 20.4063L5.18706 17.9204C4.6722 17.4056 4.6722 16.5709 5.18706 16.056C5.70184 15.5412 6.53662 15.5412 7.05148 16.056L8.60522 17.6097L12.6448 13.5701C13.1597 13.0553 13.9944 13.0554 14.5093 13.5701C15.024 14.085 15.024 14.9198 14.5092 15.4346Z" fill="white"/>
<path d="M40.8359 17.5781C39.17 17.5781 37.6722 16.6525 36.9273 15.1625L36.7417 14.7914C36.5184 14.3446 36.0619 14.0625 35.5625 14.0625H28.5312C28.0319 14.0625 27.5754 14.3446 27.352 14.7913L27.1665 15.1624C26.4215 16.6525 24.9238 17.5781 23.2578 17.5781C22.5297 17.5781 21.9395 18.1684 21.9395 18.8965V26.4197C21.9395 29.3775 22.8728 32.1954 24.6384 34.5685C26.404 36.9416 28.8349 38.6452 31.6681 39.4951C31.7916 39.5322 31.9193 39.5508 32.0469 39.5508C32.1745 39.5508 32.3021 39.5322 32.4257 39.4951C35.2588 38.6452 37.6897 36.9416 39.4554 34.5685C41.221 32.1954 42.1543 29.3775 42.1543 26.4197V18.8965C42.1543 18.1684 41.564 17.5781 40.8359 17.5781ZM36.708 25.2529L31.7362 30.2247C31.4787 30.4821 31.1413 30.6109 30.804 30.6109C30.4667 30.6109 30.1292 30.4822 29.8718 30.2247L27.3859 27.7388C26.8711 27.2239 26.8711 26.3892 27.3859 25.8744C27.9007 25.3595 28.7355 25.3595 29.2504 25.8744L30.8041 27.428L34.8437 23.3885C35.3585 22.8736 36.1933 22.8736 36.7082 23.3885C37.2228 23.9034 37.2228 24.738 36.708 25.2529Z" fill="white"/>
</svg>
