<svg width="20" height="20" viewBox="0 0 20 20" fill="none" xmlns="http://www.w3.org/2000/svg">
<g clip-path="url(#clip0_1390_75552)">
<path d="M18.9788 6.75584C18.588 6.283 18.1051 5.90383 17.5626 5.64402C17.0202 5.38422 16.4309 5.24983 15.8346 5.24996H12.5105L12.7905 3.46409C12.8895 2.83519 12.77 2.18986 12.4537 1.64579C12.1374 1.10171 11.6453 0.695163 11.0673 0.500282C10.4893 0.305401 9.8638 0.335177 9.30495 0.58418C8.7461 0.833182 8.29111 1.28482 8.02297 1.85671L6.66797 4.73984V18.375H15.2513C16.2542 18.3707 17.2223 17.9885 17.9795 17.298C18.7367 16.6075 19.2326 15.6545 19.3771 14.6125L19.9646 10.2375C20.0477 9.61685 20.0027 8.98473 19.8326 8.384C19.6625 7.78328 19.3713 7.228 18.9788 6.75584Z" fill="#D8DDE4"/>
<path d="M0 9.625V14C0.00132321 15.1599 0.440735 16.2719 1.22185 17.0921C2.00296 17.9122 3.062 18.3736 4.16667 18.375H5V5.25H4.16667C3.062 5.25139 2.00296 5.71277 1.22185 6.53294C0.440735 7.35311 0.00132321 8.4651 0 9.625H0Z" fill="#D8DDE4"/>
</g>
<defs>
<clipPath id="clip0_1390_75552">
<rect width="20" height="21" fill="white"/>
</clipPath>
</defs>
</svg>
