<svg width="40" height="41" viewBox="0 0 40 41" fill="none" xmlns="http://www.w3.org/2000/svg">
<circle cx="20" cy="20.4922" r="20" fill="#36B4F1"/>
<path d="M27.9268 12.5547C25.9512 10.5859 23.3171 9.49219 20.5366 9.49219C14.7561 9.49219 10.0732 14.1589 10.0732 19.9193C10.0732 21.7422 10.5854 23.5651 11.4634 25.0964L10 30.4922L15.561 29.0339C17.0976 29.8359 18.7805 30.2734 20.5366 30.2734C26.3171 30.2734 31 25.6068 31 19.8464C30.9268 17.1484 29.9024 14.5234 27.9268 12.5547ZM25.5854 23.638C25.3659 24.2214 24.3415 24.8047 23.8293 24.8776C23.3902 24.9505 22.8049 24.9505 22.2195 24.8047C21.8537 24.6589 21.3415 24.513 20.7561 24.2214C18.122 23.1276 16.439 20.5026 16.2927 20.2839C16.1463 20.138 15.1951 18.8984 15.1951 17.5859C15.1951 16.2734 15.8537 15.6901 16.0732 15.3984C16.2927 15.1068 16.5854 15.1068 16.8049 15.1068C16.9512 15.1068 17.1707 15.1068 17.3171 15.1068C17.4634 15.1068 17.6829 15.0339 17.9024 15.5443C18.122 16.0547 18.6341 17.3672 18.7073 17.4401C18.7805 17.5859 18.7805 17.7318 18.7073 17.8776C18.6341 18.0234 18.561 18.1693 18.4146 18.3151C18.2683 18.4609 18.1219 18.6797 18.0488 18.7526C17.9024 18.8984 17.7561 19.0443 17.9024 19.263C18.0488 19.5547 18.561 20.3568 19.3659 21.0859C20.3902 21.9609 21.1951 22.2526 21.4878 22.3984C21.7805 22.5443 21.9268 22.4714 22.0732 22.3255C22.2195 22.1797 22.7317 21.5964 22.878 21.3047C23.0244 21.013 23.2439 21.0859 23.4634 21.1589C23.6829 21.2318 25 21.888 25.2195 22.0339C25.5122 22.1797 25.6585 22.2526 25.7317 22.3255C25.8049 22.5443 25.8049 23.0547 25.5854 23.638Z" fill="white"/>
</svg>
