<svg width="16" height="27" viewBox="0 0 16 27" fill="none" xmlns="http://www.w3.org/2000/svg">
<path d="M3.51058 1.01543L3.51019 1.01505C2.82147 0.328073 1.70669 0.328711 1.01732 1.0146L1.01732 1.0146L1.01688 1.01505C0.327777 1.7024 0.327708 2.81876 1.01667 3.5062C1.01674 3.50627 1.01681 3.50634 1.01688 3.50641L11.0134 13.4993L1.01812 23.4922C1.01802 23.4923 1.01792 23.4924 1.01782 23.4925C0.328707 24.1802 0.32945 25.2962 1.01767 25.9844L1.01812 25.9848C1.70659 26.6716 2.82297 26.6716 3.51143 25.9848L3.51182 25.9845L14.7542 14.7458L14.7547 14.7453C15.435 14.0634 15.4357 12.9349 14.7525 12.2537L3.51058 1.01543Z" fill="#2F2F2F" stroke="#EEF3F7"/>
</svg>
