<svg width="19" height="10" viewBox="0 0 19 10" fill="none" xmlns="http://www.w3.org/2000/svg">
<path fill-rule="evenodd" clip-rule="evenodd" d="M18.8887 5C18.8887 4.85268 18.8301 4.71139 18.726 4.60722C18.6218 4.50305 18.4805 4.44452 18.3332 4.44452H1.89837L5.39454 0.949458C5.49885 0.845154 5.55744 0.703687 5.55744 0.556179C5.55744 0.408671 5.49885 0.267205 5.39454 0.162901C5.29024 0.0585972 5.14877 3.47541e-09 5.00126 0C4.85376 -3.47541e-09 4.71229 0.0585972 4.60799 0.162901L0.164164 4.60672C0.112434 4.65832 0.071394 4.71962 0.0433903 4.7871C0.0153866 4.85459 0.000972748 4.92694 0.000972748 5C0.000972748 5.07306 0.0153866 5.14541 0.0433903 5.2129C0.071394 5.28038 0.112434 5.34168 0.164164 5.39328L4.60799 9.8371C4.71229 9.9414 4.85376 10 5.00126 10C5.14877 10 5.29024 9.9414 5.39454 9.8371C5.49885 9.7328 5.55744 9.59133 5.55744 9.44382C5.55744 9.29631 5.49885 9.15485 5.39454 9.05054L1.89837 5.55548H18.3332C18.4805 5.55548 18.6218 5.49695 18.726 5.39278C18.8301 5.28861 18.8887 5.14732 18.8887 5Z" fill="#2F2F2F" fill-opacity="0.35"/>
</svg>
