<svg width="30" height="32" viewBox="0 0 30 32" fill="none" xmlns="http://www.w3.org/2000/svg">
<path d="M14.8834 31.9895L14.8848 31.7395C13.6571 31.7324 12.4346 31.5775 11.2439 31.2779C8.13655 30.4715 5.38811 28.6491 3.43574 26.1008C1.48317 23.5521 0.439014 20.4237 0.469395 17.2132H0.469437L0.469396 17.2086C0.441716 14.0772 1.65589 11.0625 3.84609 8.82434L3.84628 8.82453L3.85405 8.81581C4.11942 8.51801 4.45436 8.29053 4.82901 8.15366C5.20366 8.01678 5.60637 7.97476 6.0012 8.03136C6.39604 8.08795 6.77073 8.24139 7.09185 8.478C7.41296 8.7146 7.67053 9.02701 7.84155 9.38735L7.84155 9.38735L7.84245 9.38922C8.03134 9.77882 8.25002 10.1532 8.49656 10.5092L8.83138 10.9926L8.94718 10.4161C9.55092 7.4104 10.6638 4.53001 12.2377 1.8992C12.5149 1.46151 12.8849 1.08995 13.3213 0.810715C13.7587 0.53093 14.2521 0.350664 14.7668 0.28267L14.7673 0.282611C15.2998 0.211298 15.8415 0.257272 16.3544 0.417314C16.8673 0.577355 17.339 0.847595 17.7365 1.2091C18.8602 2.23108 19.9633 3.16834 21.0124 4.05754C25.6475 7.99679 29.5322 11.3118 29.5374 17.219V17.2191C29.5421 20.9851 28.0808 24.605 25.4631 27.3123C22.8453 30.0196 19.2766 31.6017 15.5126 31.7236L15.5126 31.7234L15.5033 31.7241C15.476 31.726 15.449 31.7279 15.4224 31.7299C15.2764 31.7404 15.1404 31.7502 15.0021 31.7502C15.003 31.7502 15.0019 31.7502 14.9975 31.7498C14.9955 31.7496 14.9935 31.7493 14.9912 31.749C14.9874 31.7486 14.9828 31.748 14.9763 31.7471L14.9732 31.7467C14.9552 31.7442 14.9208 31.7395 14.8834 31.7395V31.9895ZM14.8834 31.9895C14.9034 31.9895 14.9231 31.9922 14.9427 31.9948C14.9624 31.9975 14.9821 32.0002 15.0021 32.0002C15.1502 32.0002 15.2963 31.9896 15.4422 31.9791C15.4684 31.9772 15.4946 31.9753 15.5207 31.9735M14.8834 31.9895C13.6353 31.9823 12.3925 31.8247 11.1821 31.5202C8.02035 30.6998 5.22378 28.8457 3.23729 26.2528C1.25079 23.6599 0.188498 20.4771 0.219406 17.2108L15.5207 31.9735M15.5207 31.9735C19.3496 31.8495 22.9799 30.24 25.6428 27.486C28.3057 24.732 29.7922 21.0497 29.7874 17.2188L15.5207 31.9735ZM15.0004 15.8715C14.7477 15.8705 14.4977 15.9244 14.2678 16.0296C14.0375 16.1349 13.8329 16.2892 13.6682 16.4816L13.6678 16.4819C12.2963 18.0905 11.2676 19.6149 10.6099 21.0177C9.95284 22.419 9.65909 23.7137 9.77877 24.8555L9.77868 24.8556L9.77955 24.8622C9.87454 25.5824 10.1213 26.2743 10.5035 26.8921C10.8839 27.5069 11.3898 28.0344 11.9881 28.4401C12.8008 29.0923 13.7918 29.4837 14.8311 29.5628L14.8395 29.5634L14.8479 29.5635C14.933 29.5642 15.0163 29.5601 15.0918 29.5563L15.099 29.556C15.1464 29.5536 15.1907 29.5514 15.2336 29.55L15.2428 29.5562L15.3268 29.551C16.6547 29.4692 17.9017 28.885 18.8146 27.917C19.7274 26.9491 20.2375 25.67 20.2414 24.3396V24.3388C20.2414 23.2848 19.8818 22.0614 19.2175 20.7385C18.5519 19.413 17.5732 17.9728 16.3162 16.4807C16.1551 16.2884 15.9536 16.1341 15.7259 16.0287C15.4986 15.9236 15.2509 15.8699 15.0004 15.8715ZM15.0004 15.8715C14.9999 15.8715 14.9994 15.8715 14.9989 15.8715L15.0007 16.1215L15.0019 15.8715C15.0014 15.8715 15.0009 15.8715 15.0004 15.8715ZM27.3614 17.2187C27.3613 12.2994 24.0626 9.49786 19.663 5.76131L19.6052 5.71227L19.6049 5.71199C18.5388 4.80981 17.419 3.85221 16.2785 2.81537C16.1143 2.66543 15.9193 2.5533 15.7071 2.48689C15.4953 2.42061 15.2716 2.40148 15.0517 2.43084C14.8508 2.45547 14.6578 2.52423 14.4866 2.63219C14.3149 2.74044 14.1694 2.88541 14.0605 3.05666L14.0603 3.05659L14.0562 3.06364C12.5758 5.569 11.542 8.31252 11.0008 11.1718C10.9121 11.6032 10.7005 11.9998 10.3914 12.3138C10.082 12.6281 9.68811 12.8461 9.25741 12.9414L9.2574 12.9414L9.25441 12.9421C8.83351 13.0406 8.39295 13.0137 7.98717 12.8647C7.58138 12.7157 7.22813 12.451 6.97107 12.1035L6.97005 12.1021C6.55403 11.5476 6.19319 10.9538 5.89269 10.3291L5.74037 10.0125L5.49116 10.2602C4.57578 11.1701 3.8519 12.2542 3.36223 13.4484C2.87281 14.642 2.62726 15.9214 2.64007 17.2114C2.62979 19.1776 3.08817 21.118 3.97724 22.8718C4.8666 24.6261 6.16131 26.1432 7.75405 27.2973L8.48693 27.8283L8.13054 26.9964C7.86938 26.3868 7.70091 25.7415 7.6307 25.082C7.33482 22.2367 8.77824 18.8738 12.0229 15.0731C12.3903 14.6428 12.8469 14.2974 13.361 14.0609C13.8751 13.8244 14.4344 13.7025 15.0003 13.7035H15.0007H15.0059C15.5704 13.704 16.128 13.8275 16.6398 14.0655C17.1516 14.3034 17.6053 14.65 17.9695 15.0812C18.9882 16.2913 20.1009 17.7882 20.9578 19.3958C21.8159 21.0056 22.4079 22.7085 22.4081 24.3356C22.4062 25.1973 22.253 26.0519 21.9555 26.8605L21.669 27.6389L22.3379 27.1484C22.3678 27.1265 22.3989 27.106 22.4363 27.0814L22.4385 27.08L22.4503 27.0879L22.5924 26.9779C24.0818 25.825 25.2864 24.3454 26.1133 22.6532C26.9401 20.9612 27.3671 19.1019 27.3614 17.2187ZM27.3614 17.2187C27.3614 17.2185 27.3614 17.2183 27.3614 17.2181L27.1114 17.2188H27.3614C27.3614 17.2188 27.3614 17.2187 27.3614 17.2187Z" fill="#333333" fill-opacity="0.3" stroke="#EEF3F7" stroke-width="0.5"/>
</svg>
