<svg width="40" height="42" viewBox="0 0 40 42" fill="none" xmlns="http://www.w3.org/2000/svg">
<path d="M31.6667 5.25H8.33333C3.66667 5.25 0 9.1 0 14H40C40 9.1 36.3333 5.25 31.6667 5.25Z" fill="white"/>
<path d="M0 28C0 32.9 3.66667 36.75 8.33333 36.75H31.6667C36.3333 36.75 40 32.9 40 28V17.5H0V28ZM11.6667 27.125C11.6667 28.525 10.5 29.75 9.16667 29.75C7.83333 29.75 6.66667 28.525 6.66667 27.125C6.66667 25.725 7.83333 24.5 9.16667 24.5C10.5 24.5 11.6667 25.725 11.6667 27.125Z" fill="white"/>
</svg>
