<svg width="28" height="28" viewBox="0 0 28 28" fill="none" xmlns="http://www.w3.org/2000/svg">
<path d="M14 28C16.7689 28 19.4757 27.1789 21.778 25.6406C24.0803 24.1022 25.8747 21.9157 26.9343 19.3576C27.9939 16.7994 28.2712 13.9845 27.731 11.2687C27.1908 8.55301 25.8574 6.05845 23.8995 4.10051C21.9416 2.14258 19.447 0.809206 16.7313 0.269012C14.0155 -0.271181 11.2006 0.006066 8.64243 1.06569C6.08427 2.12532 3.89777 3.91973 2.35943 6.22202C0.821086 8.52431 0 11.2311 0 14C0.00401459 17.7118 1.4803 21.2704 4.10494 23.8951C6.72958 26.5197 10.2882 27.996 14 28V28ZM12.8333 7.00001C12.8333 6.69059 12.9562 6.39384 13.175 6.17505C13.3938 5.95626 13.6906 5.83334 14 5.83334C14.3094 5.83334 14.6062 5.95626 14.825 6.17505C15.0437 6.39384 15.1667 6.69059 15.1667 7.00001V16.3333C15.1667 16.6428 15.0437 16.9395 14.825 17.1583C14.6062 17.3771 14.3094 17.5 14 17.5C13.6906 17.5 13.3938 17.3771 13.175 17.1583C12.9562 16.9395 12.8333 16.6428 12.8333 16.3333V7.00001ZM14 21C14.2307 21 14.4563 21.0684 14.6482 21.1966C14.84 21.3248 14.9896 21.507 15.0779 21.7202C15.1662 21.9334 15.1893 22.168 15.1442 22.3943C15.0992 22.6206 14.9881 22.8285 14.825 22.9916C14.6618 23.1548 14.4539 23.2659 14.2276 23.3109C14.0013 23.3559 13.7667 23.3328 13.5535 23.2445C13.3404 23.1562 13.1581 23.0067 13.03 22.8148C12.9018 22.623 12.8333 22.3974 12.8333 22.1667C12.8333 21.8573 12.9562 21.5605 13.175 21.3417C13.3938 21.1229 13.6906 21 14 21V21Z" fill="white"/>
</svg>
