<svg width="17" height="17" viewBox="0 0 17 17" fill="none" xmlns="http://www.w3.org/2000/svg">
<g clip-path="url(#clip0_1265_68305)">
<path d="M14.875 12.0416H7.08333V13.4583C7.08333 13.6462 7.00871 13.8263 6.87587 13.9592C6.74303 14.092 6.56286 14.1666 6.375 14.1666C6.18714 14.1666 6.00697 14.092 5.87413 13.9592C5.74129 13.8263 5.66667 13.6462 5.66667 13.4583V12.0416H4.25V13.4583C4.25 13.6462 4.17537 13.8263 4.04253 13.9592C3.9097 14.092 3.72953 14.1666 3.54167 14.1666C3.3538 14.1666 3.17364 14.092 3.0408 13.9592C2.90796 13.8263 2.83333 13.6462 2.83333 13.4583V12.0416H2.125C1.56141 12.0416 1.02091 12.2655 0.622398 12.664C0.223883 13.0625 0 13.603 0 14.1666C0 14.7302 0.223883 15.2707 0.622398 15.6692C1.02091 16.0677 1.56141 16.2916 2.125 16.2916H14.875C15.4386 16.2916 15.9791 16.0677 16.3776 15.6692C16.7761 15.2707 17 14.7302 17 14.1666C17 13.603 16.7761 13.0625 16.3776 12.664C15.9791 12.2655 15.4386 12.0416 14.875 12.0416Z" fill="white"/>
<path d="M14.875 6.375H7.08333V7.79167C7.08333 7.97953 7.00871 8.1597 6.87587 8.29253C6.74303 8.42537 6.56286 8.5 6.375 8.5C6.18714 8.5 6.00697 8.42537 5.87413 8.29253C5.74129 8.1597 5.66667 7.97953 5.66667 7.79167V6.375H4.25V7.79167C4.25 7.97953 4.17537 8.1597 4.04253 8.29253C3.9097 8.42537 3.72953 8.5 3.54167 8.5C3.3538 8.5 3.17364 8.42537 3.0408 8.29253C2.90796 8.1597 2.83333 7.97953 2.83333 7.79167V6.375H2.125C1.56141 6.375 1.02091 6.59888 0.622398 6.9974C0.223883 7.39591 0 7.93641 0 8.5C0 9.06358 0.223883 9.60409 0.622398 10.0026C1.02091 10.4011 1.56141 10.625 2.125 10.625H14.875C15.4386 10.625 15.9791 10.4011 16.3776 10.0026C16.7761 9.60409 17 9.06358 17 8.5C17 7.93641 16.7761 7.39591 16.3776 6.9974C15.9791 6.59888 15.4386 6.375 14.875 6.375Z" fill="white"/>
<path d="M14.875 0.708374H7.08333V2.12504C7.08333 2.3129 7.00871 2.49307 6.87587 2.62591C6.74303 2.75875 6.56286 2.83337 6.375 2.83337C6.18714 2.83337 6.00697 2.75875 5.87413 2.62591C5.74129 2.49307 5.66667 2.3129 5.66667 2.12504V0.708374H4.25V2.12504C4.25 2.3129 4.17537 2.49307 4.04253 2.62591C3.9097 2.75875 3.72953 2.83337 3.54167 2.83337C3.3538 2.83337 3.17364 2.75875 3.0408 2.62591C2.90796 2.49307 2.83333 2.3129 2.83333 2.12504V0.708374H2.125C1.56141 0.708374 1.02091 0.932257 0.622398 1.33077C0.223883 1.72929 0 2.26979 0 2.83337C0 3.39696 0.223883 3.93746 0.622398 4.33598C1.02091 4.73449 1.56141 4.95837 2.125 4.95837H14.875C15.4386 4.95837 15.9791 4.73449 16.3776 4.33598C16.7761 3.93746 17 3.39696 17 2.83337C17 2.26979 16.7761 1.72929 16.3776 1.33077C15.9791 0.932257 15.4386 0.708374 14.875 0.708374V0.708374Z" fill="white"/>
</g>
<defs>
<clipPath id="clip0_1265_68305">
<rect width="17" height="17" fill="white"/>
</clipPath>
</defs>
</svg>
