<svg width="45" height="45" viewBox="0 0 45 45" fill="none" xmlns="http://www.w3.org/2000/svg">
<path d="M11.8047 11.8066V14.6298C12.2991 14.3466 12.5943 13.8459 12.6745 13.3695C12.7321 13.0259 12.7558 12.2072 11.8047 11.8066Z" fill="white"/>
<path d="M9.58034 8.07417C9.51012 8.44674 9.59897 8.79285 9.80683 8.9558C9.88005 9.01319 9.96073 9.06962 10.0472 9.12508V7.28711C9.77906 7.49277 9.63123 7.80417 9.58034 8.07417Z" fill="white"/>
<path d="M10.9863 0C4.92847 0 0 4.92847 0 10.9863C0 17.0442 4.92847 21.9727 10.9863 21.9727C17.0442 21.9727 21.9727 17.0442 21.9727 10.9863C21.9727 4.92847 17.0442 0 10.9863 0ZM14.4078 13.6614C14.201 14.8914 13.265 16.1388 11.8046 16.5093V17.1387C11.8046 17.624 11.411 18.0176 10.9257 18.0176C10.4404 18.0176 10.0468 17.624 10.0468 17.1387V16.5936C9.33715 16.5322 8.7489 16.3405 7.91499 15.795C7.50876 15.5293 7.39494 14.9846 7.66063 14.5783C7.92624 14.1722 8.47107 14.0581 8.8773 14.324C9.35191 14.6344 9.6496 14.7691 10.0468 14.825V11.1132C9.48542 10.856 9.06583 10.6084 8.72156 10.3383C7.99216 9.76623 7.65914 8.77377 7.85241 7.748C8.063 6.63021 8.84109 5.74084 9.88286 5.42707C9.93806 5.41046 9.99264 5.39525 10.0468 5.38084V4.83398C10.0468 4.34865 10.4404 3.95508 10.9257 3.95508C11.411 3.95508 11.8046 4.34865 11.8046 4.83398V5.2846C12.6579 5.43234 13.261 5.85246 13.5532 6.18785C13.872 6.55383 13.8337 7.10903 13.4677 7.42781C13.1037 7.74483 12.5525 7.70897 12.2328 7.34827C12.2128 7.32797 12.0731 7.1935 11.8046 7.09444V9.93437C11.9606 9.99228 12.1165 10.0484 12.2695 10.1026C13.8145 10.6487 14.6738 12.0789 14.4078 13.6614Z" fill="white"/>
<path d="M43.9024 19.5304L39.3183 18.7518C38.7423 17.8563 38.0624 17.0308 37.2879 16.287C37.7332 14.06 38.9331 12.079 40.7129 10.6552L40.9896 10.4338C41.4268 10.0841 41.5954 9.49632 41.41 8.96792C41.2247 8.43952 40.7259 8.08594 40.166 8.08594H36.6504C33.5396 8.08594 30.6927 9.84472 29.2648 12.5562C28.7915 12.5059 28.3222 12.4805 27.8613 12.4805H24.5271C23.7806 19.2919 17.9932 24.6094 10.9863 24.6094C7.1586 24.6094 3.69527 23.022 1.21816 20.4717C0.421523 22.2265 0 24.1448 0 26.1035C0 30.313 1.95908 34.283 5.27344 36.859V43.6816C5.27344 44.4097 5.86371 45 6.5918 45H11.8652C12.4327 45 12.9364 44.6368 13.1159 44.0985L14.5733 39.7266H26.9111L28.3685 44.0985C28.5479 44.6368 29.0517 45 29.6191 45H34.8926C35.6207 45 36.2109 44.4097 36.2109 43.6816V36.8592C38.0239 35.4511 39.4418 33.6215 40.3542 31.511L44.1767 29.9621C44.6744 29.7604 45 29.2772 45 28.7402V20.8301C45 20.1872 44.5363 19.638 43.9024 19.5304ZM33.5742 22.5879C32.8461 22.5879 32.2559 21.9976 32.2559 21.2695C32.2559 20.5414 32.8461 19.9512 33.5742 19.9512C34.3023 19.9512 34.8926 20.5414 34.8926 21.2695C34.8926 21.9976 34.3023 22.5879 33.5742 22.5879Z" fill="white"/>
</svg>
