<svg width="18" height="24" viewBox="0 0 18 24" fill="none" xmlns="http://www.w3.org/2000/svg">
<path d="M13 7.00001L12.977 5.82301C13.648 5.59351 14.2158 5.13311 14.5789 4.52391C14.942 3.91472 15.0769 3.19634 14.9595 2.49691C14.8422 1.79748 14.4802 1.16248 13.9381 0.705158C13.3961 0.247835 12.7092 -0.00207069 12 1.29247e-05H6C5.29317 -0.0013264 4.60868 0.247532 4.06776 0.702512C3.52683 1.15749 3.16439 1.78923 3.04461 2.48583C2.92484 3.18244 3.05547 3.89896 3.41336 4.50848C3.77126 5.118 4.33332 5.58119 5 5.81601V7.00001C3.67441 7.0016 2.40356 7.5289 1.46622 8.46623C0.528882 9.40357 0.00158786 10.6744 0 12V19C0.00158786 20.3256 0.528882 21.5965 1.46622 22.5338C2.40356 23.4711 3.67441 23.9984 5 24H13C14.3256 23.9984 15.5964 23.4711 16.5338 22.5338C17.4711 21.5965 17.9984 20.3256 18 19V12C17.9984 10.6744 17.4711 9.40357 16.5338 8.46623C15.5964 7.5289 14.3256 7.0016 13 7.00001ZM6 2.00001H12C12.2652 2.00001 12.5196 2.10537 12.7071 2.29291C12.8946 2.48044 13 2.7348 13 3.00001C13 3.26523 12.8946 3.51958 12.7071 3.70712C12.5196 3.89466 12.2652 4.00001 12 4.00001H6C5.73478 4.00001 5.48043 3.89466 5.29289 3.70712C5.10536 3.51958 5 3.26523 5 3.00001C5 2.7348 5.10536 2.48044 5.29289 2.29291C5.48043 2.10537 5.73478 2.00001 6 2.00001ZM16 19C16 19.7957 15.6839 20.5587 15.1213 21.1213C14.5587 21.6839 13.7956 22 13 22H5C4.20435 22 3.44129 21.6839 2.87868 21.1213C2.31607 20.5587 2 19.7957 2 19V12C2 11.2044 2.31607 10.4413 2.87868 9.87869C3.44129 9.31608 4.20435 9.00001 5 9.00001H6C6.26522 9.00001 6.51957 8.89466 6.70711 8.70712C6.89464 8.51958 7 8.26523 7 8.00001V6.00001H10.973L11 8.01401C11.0037 8.2768 11.1107 8.52757 11.2978 8.71209C11.4849 8.89661 11.7372 9.00004 12 9.00001H13C13.7956 9.00001 14.5587 9.31608 15.1213 9.87869C15.6839 10.4413 16 11.2044 16 12V19ZM13 15C13 15.2652 12.8946 15.5196 12.7071 15.7071C12.5196 15.8947 12.2652 16 12 16H10V18C10 18.2652 9.89464 18.5196 9.70711 18.7071C9.51957 18.8947 9.26522 19 9 19C8.73478 19 8.48043 18.8947 8.29289 18.7071C8.10536 18.5196 8 18.2652 8 18V16H6C5.73478 16 5.48043 15.8947 5.29289 15.7071C5.10536 15.5196 5 15.2652 5 15C5 14.7348 5.10536 14.4804 5.29289 14.2929C5.48043 14.1054 5.73478 14 6 14H8V12C8 11.7348 8.10536 11.4804 8.29289 11.2929C8.48043 11.1054 8.73478 11 9 11C9.26522 11 9.51957 11.1054 9.70711 11.2929C9.89464 11.4804 10 11.7348 10 12V14H12C12.2652 14 12.5196 14.1054 12.7071 14.2929C12.8946 14.4804 13 14.7348 13 15Z" fill="#36B4F1"/>
</svg>
