<svg width="24" height="25" viewBox="0 0 24 25" fill="none" xmlns="http://www.w3.org/2000/svg">
<mask id="mask0_3630_29536" style="mask-type:luminance" maskUnits="userSpaceOnUse" x="2" y="2" width="20" height="21">
<path fill-rule="evenodd" clip-rule="evenodd" d="M10 18.8281C5.58172 18.8281 2 15.2464 2 10.8281C2 6.40985 5.58172 2.82812 10 2.82812C14.4183 2.82812 18 6.40985 18 10.8281C18 12.6768 17.3729 14.3791 16.3199 15.7338L21.7072 21.1211L20.293 22.5353L14.9056 17.148C13.551 18.201 11.8487 18.8281 10 18.8281ZM16 10.8281C16 14.1418 13.3137 16.8281 10 16.8281C6.68629 16.8281 4 14.1418 4 10.8281C4 7.51442 6.68629 4.82812 10 4.82812C13.3137 4.82812 16 7.51442 16 10.8281Z" fill="white"/>
</mask>
<g mask="url(#mask0_3630_29536)">
<rect y="0.828125" width="24" height="24" fill="white"/>
</g>
</svg>
