<svg width="20" height="22" viewBox="0 0 20 22" fill="none" xmlns="http://www.w3.org/2000/svg">
<path fill-rule="evenodd" clip-rule="evenodd" d="M15.5 1.5V2.5H18C18.8284 2.5 19.5 3.17157 19.5 4V20.5C19.5 21.3284 18.8284 22 18 22H1.5C0.671573 22 0 21.3284 0 20.5V4C0 3.17157 0.671573 2.5 1.5 2.5H4.5V1.5C4.5 0.671572 5.17157 0 6 0H14C14.8284 0 15.5 0.671573 15.5 1.5ZM15.5 5V4.5H17.5V20H2V4.5H4.5V5C4.5 5.82843 5.17157 6.5 6 6.5H14C14.8284 6.5 15.5 5.82843 15.5 5ZM11 10.5C11 9.94771 10.5523 9.5 10 9.5C9.44771 9.5 9 9.94771 9 10.5V12.25H7C6.44772 12.25 6 12.6977 6 13.25C6 13.8023 6.44772 14.25 7 14.25H9V16C9 16.5523 9.44771 17 10 17C10.5523 17 11 16.5523 11 16V14.25H12.804C13.3563 14.25 13.804 13.8023 13.804 13.25C13.804 12.6977 13.3563 12.25 12.804 12.25H11V10.5ZM6.79395 1.78249C6.5178 1.78249 6.29395 2.00635 6.29395 2.28249V3.99574C6.29395 4.27188 6.5178 4.49574 6.79395 4.49574H13.2184C13.4946 4.49574 13.7184 4.27188 13.7184 3.99574V2.28249C13.7184 2.00635 13.4946 1.78249 13.2184 1.78249H6.79395Z" fill="black"/>
</svg>
