<svg width="29" height="28" viewBox="0 0 29 28" fill="none" xmlns="http://www.w3.org/2000/svg">
<g clip-path="url(#clip0_1705_81041)">
<path d="M28.0397 6.1745L22.2064 0.341169C21.9863 0.128651 21.6916 0.0110578 21.3857 0.013716C21.0798 0.0163741 20.7872 0.139071 20.5709 0.355381C20.3546 0.57169 20.2319 0.864305 20.2292 1.1702C20.2266 1.4761 20.3442 1.7708 20.5567 1.99084L22.6485 4.08267L19.761 6.97017C18.8407 6.29936 17.7441 5.91264 16.6065 5.8577C15.469 5.80276 14.3402 6.08201 13.3595 6.661L16.373 9.6745C16.4845 9.78212 16.5733 9.91086 16.6345 10.0532C16.6956 10.1955 16.7278 10.3486 16.7291 10.5035C16.7305 10.6584 16.701 10.8121 16.6423 10.9554C16.5837 11.0988 16.497 11.2291 16.3875 11.3386C16.2779 11.4482 16.1477 11.5348 16.0043 11.5935C15.8609 11.6521 15.7073 11.6816 15.5524 11.6803C15.3975 11.6789 15.2444 11.6468 15.1021 11.5856C14.9597 11.5245 14.831 11.4356 14.7234 11.3242L11.5652 8.166L9.71486 10.0163L12.873 13.1745C12.9845 13.2821 13.0733 13.4109 13.1345 13.5532C13.1956 13.6955 13.2278 13.8486 13.2291 14.0035C13.2305 14.1584 13.201 14.3121 13.1423 14.4554C13.0837 14.5988 12.997 14.7291 12.8875 14.8386C12.7779 14.9482 12.6477 15.0348 12.5043 15.0935C12.3609 15.1521 12.2073 15.1816 12.0524 15.1803C11.8975 15.1789 11.7444 15.1468 11.6021 15.0856C11.4597 15.0245 11.331 14.9356 11.2234 14.8242L8.06519 11.666L6.21486 13.5187L9.37069 16.6745C9.48212 16.7821 9.571 16.9109 9.63214 17.0532C9.69329 17.1955 9.72547 17.3486 9.72682 17.5035C9.72816 17.6584 9.69864 17.8121 9.63998 17.9554C9.58132 18.0988 9.49469 18.2291 9.38515 18.3386C9.27561 18.4482 9.14535 18.5348 9.00197 18.5935C8.85859 18.6521 8.70496 18.6816 8.55006 18.6803C8.39515 18.6789 8.24206 18.6468 8.09972 18.5856C7.95738 18.5245 7.82864 18.4356 7.72102 18.3242L4.82186 15.4227C4.20189 16.5965 3.87903 17.9044 3.88152 19.2318V22.8485L0.723357 26.0078C0.611929 26.1155 0.523049 26.2442 0.461905 26.3865C0.400762 26.5289 0.368578 26.682 0.367232 26.8369C0.365885 26.9918 0.395404 27.1454 0.454065 27.2888C0.512726 27.4322 0.599355 27.5624 0.708896 27.672C0.818438 27.7815 0.948698 27.8681 1.09208 27.9268C1.23546 27.9855 1.38908 28.015 1.54399 28.0136C1.6989 28.0123 1.85199 27.9801 1.99433 27.919C2.13667 27.8578 2.2654 27.7689 2.37302 27.6575L5.53119 24.4993H9.14786C10.2206 24.5022 11.2832 24.2923 12.2743 23.8818C13.2654 23.4712 14.1652 22.8682 14.9217 22.1077L20.839 16.1903C21.8189 15.2048 22.4141 13.9014 22.5173 12.5155C22.6204 11.1295 22.2246 9.75238 21.4014 8.63267L24.2982 5.73234L26.39 7.82417C26.6101 8.03669 26.9048 8.15428 27.2107 8.15162C27.5166 8.14896 27.8092 8.02627 28.0255 7.80996C28.2418 7.59365 28.3645 7.30103 28.3671 6.99514C28.3698 6.68924 28.2522 6.39454 28.0397 6.1745Z" fill="white"/>
</g>
<defs>
<clipPath id="clip0_1705_81041">
<rect width="28" height="28" fill="white" transform="translate(0.382812)"/>
</clipPath>
</defs>
</svg>
