<svg width="45" height="45" viewBox="0 0 45 45" fill="none" xmlns="http://www.w3.org/2000/svg">
<path d="M33.1707 7.58057L33.2364 7.9H33.5625L35.6245 7.9C35.6246 7.9 35.6248 7.9 35.6249 7.9C38.0043 7.90295 40.2855 8.84949 41.968 10.532C43.6506 12.2146 44.5971 14.4959 44.6 16.8755V35.6245C44.5971 38.0041 43.6506 40.2854 41.968 41.968C40.2854 43.6506 38.0041 44.5971 35.6245 44.6H9.37548C6.99591 44.5971 4.71462 43.6506 3.03201 41.968C1.34945 40.2854 0.402915 38.0042 0.4 35.6248V16.8752C0.402915 14.4958 1.34945 12.2146 3.03201 10.532C4.71452 8.84949 6.99566 7.90295 9.37509 7.9C9.37522 7.9 9.37535 7.9 9.37548 7.9L11.4375 7.9H11.7636L11.8293 7.58057C12.2459 5.5546 13.3483 3.7342 14.9506 2.42621C16.5528 1.11827 18.557 0.40267 20.6252 0.4H24.3748C26.443 0.40267 28.4472 1.11827 30.0494 2.42621C31.6517 3.7342 32.7541 5.5546 33.1707 7.58057ZM24.3767 3.35H24.375H20.625V3.75L20.6233 3.35C19.3817 3.35515 18.1719 3.74381 17.1596 4.4628C16.1472 5.18179 15.3818 6.196 14.9679 7.36667L14.7793 7.9H15.345H29.655H30.2207L30.0321 7.36667C29.6182 6.196 28.8528 5.18179 27.8404 4.4628C26.8281 3.74381 25.6183 3.35515 24.3767 3.35ZM41.25 22.9H41.65V22.5V16.875C41.65 15.2771 41.0152 13.7446 39.8853 12.6147C38.7554 11.4848 37.2229 10.85 35.625 10.85H9.375C7.77707 10.85 6.24459 11.4848 5.11468 12.6147C3.98478 13.7446 3.35 15.2771 3.35 16.875V22.5V22.9H3.75H41.25ZM3.75 25.85H3.35V26.25V35.625C3.35 37.2229 3.98478 38.7554 5.11468 39.8853C6.24459 41.0152 7.77707 41.65 9.375 41.65H35.625C37.2229 41.65 38.7554 41.0152 39.8853 39.8853C41.0152 38.7554 41.65 37.2229 41.65 35.625V26.25V25.85H41.25H24.375H23.975V26.25V28.125C23.975 28.5162 23.8196 28.8914 23.543 29.168C23.2664 29.4446 22.8912 29.6 22.5 29.6C22.1088 29.6 21.7336 29.4446 21.457 29.168C21.1804 28.8914 21.025 28.5162 21.025 28.125V26.25V25.85H20.625H3.75Z" fill="#D8DDE4" stroke="white" stroke-width="0.8"/>
</svg>
