<svg width="14" height="14" viewBox="0 0 14 14" fill="none" xmlns="http://www.w3.org/2000/svg">
<path d="M7.47969 4.27052C6.70999 5.15594 6.50492 5.85605 6.50492 5.85605C6.50492 5.85605 3.56062 4.69126 3.4378 3.16937C3.41946 0.839234 7.67364 0 7.67364 0C7.67364 0 7.53137 0.88542 8.754 2.36563C8.97129 2.64331 9.49313 3.29498 9.49313 3.29498C9.49313 3.29498 8.35331 3.33779 7.47969 4.27052Z" fill="#840D06"/>
<path d="M4.00573 5.71812C4.60148 6.73253 5.19556 7.14257 5.19556 7.14257C5.19556 7.14257 3.20157 9.6276 1.73276 9.28008C-0.4613 8.58504 0.0522023 4.2244 0.0522023 4.2244C0.0522023 4.2244 0.841351 4.63275 2.60582 3.90561C2.93315 3.78113 3.70396 3.47754 3.70396 3.47754C3.70396 3.47754 3.39608 4.58938 4.00573 5.71869V5.71812Z" fill="#840D06"/>
<path d="M4.30372 9.52129C5.4402 9.2622 6.01095 8.81836 6.01095 8.81836C6.01095 8.81836 7.71984 11.5118 6.93681 12.8191C5.60248 14.7167 1.67285 12.863 1.67285 12.863C1.67285 12.863 2.30139 12.2305 2.16913 10.3053C2.15412 9.95104 2.10911 9.11294 2.10911 9.11294C2.10911 9.11294 3.05608 9.75672 4.30427 9.52185L4.30372 9.52129Z" fill="#840D06"/>
<path d="M7.96879 10.4201C8.08327 9.24513 7.84542 8.55684 7.84542 8.55684C7.84542 8.55684 10.9064 7.7576 11.8845 8.9207C13.2433 10.7997 10.2745 13.9995 10.2745 13.9995C10.2745 13.9995 9.87886 13.1969 8.03381 12.7203C7.69648 12.6229 6.89844 12.4038 6.89844 12.4038C6.89844 12.4038 7.79762 11.6952 7.96879 10.4201Z" fill="#840D06"/>
<path d="M9.93652 7.1682C8.86505 6.70352 8.14648 6.72549 8.14648 6.72549C8.14648 6.72549 8.3171 3.52683 9.707 2.93204C11.8844 2.18687 14.0001 6.01975 14.0001 6.01975C14.0001 6.01975 13.1259 6.15943 12.12 7.79903C11.9272 8.09474 11.4809 8.80048 11.4809 8.80048C11.4809 8.80048 11.0841 7.71793 9.93707 7.1682H9.93652Z" fill="#840D06"/>
</svg>
