<svg width="31" height="31" viewBox="0 0 31 31" fill="none" xmlns="http://www.w3.org/2000/svg">
<path d="M27.6599 6.45833H21.9585V0.756917L27.6599 6.45833ZM28.4168 9.04167V31H2.5835V3.875C2.5835 2.84729 2.99175 1.86166 3.71846 1.13496C4.44516 0.408258 5.43078 0 6.4585 0L19.3752 0V9.04167H28.4168ZM21.456 17.484L19.6335 15.6576L14.9964 20.2882C14.7507 20.5232 14.4238 20.6544 14.0839 20.6544C13.7439 20.6544 13.417 20.5232 13.1713 20.2882L11.1227 18.2409L9.30016 20.0673L11.3475 22.1146C11.7073 22.4745 12.1345 22.76 12.6047 22.9548C13.0749 23.1496 13.5788 23.2498 14.0877 23.2498C14.5967 23.2498 15.1006 23.1496 15.5708 22.9548C16.041 22.76 16.4682 22.4745 16.828 22.1146L21.456 17.484Z" fill="white"/>
</svg>
