<svg width="34" height="33" viewBox="0 0 34 33" fill="none" xmlns="http://www.w3.org/2000/svg">
<g clip-path="url(#clip0_3210_4324)">
<path d="M26.625 6.875H22.5V5.5C22.5 4.40598 22.0654 3.35677 21.2918 2.58318C20.5182 1.8096 19.469 1.375 18.375 1.375H15.625C14.531 1.375 13.4818 1.8096 12.7082 2.58318C11.9346 3.35677 11.5 4.40598 11.5 5.5V6.875H7.375C5.55231 6.87718 3.80489 7.60221 2.51605 8.89105C1.22721 10.1799 0.502183 11.9273 0.5 13.75L0.5 24.75C0.502183 26.5727 1.22721 28.3201 2.51605 29.6089C3.80489 30.8978 5.55231 31.6228 7.375 31.625H26.625C28.4477 31.6228 30.1951 30.8978 31.4839 29.6089C32.7728 28.3201 33.4978 26.5727 33.5 24.75V13.75C33.4978 11.9273 32.7728 10.1799 31.4839 8.89105C30.1951 7.60221 28.4477 6.87718 26.625 6.875ZM14.25 5.5C14.25 5.13533 14.3949 4.78559 14.6527 4.52773C14.9106 4.26987 15.2603 4.125 15.625 4.125H18.375C18.7397 4.125 19.0894 4.26987 19.3473 4.52773C19.6051 4.78559 19.75 5.13533 19.75 5.5V6.875H14.25V5.5ZM21.125 20.625H18.375V23.375C18.375 23.7397 18.2301 24.0894 17.9723 24.3473C17.7144 24.6051 17.3647 24.75 17 24.75C16.6353 24.75 16.2856 24.6051 16.0277 24.3473C15.7699 24.0894 15.625 23.7397 15.625 23.375V20.625H12.875C12.5103 20.625 12.1606 20.4801 11.9027 20.2223C11.6449 19.9644 11.5 19.6147 11.5 19.25C11.5 18.8853 11.6449 18.5356 11.9027 18.2777C12.1606 18.0199 12.5103 17.875 12.875 17.875H15.625V15.125C15.625 14.7603 15.7699 14.4106 16.0277 14.1527C16.2856 13.8949 16.6353 13.75 17 13.75C17.3647 13.75 17.7144 13.8949 17.9723 14.1527C18.2301 14.4106 18.375 14.7603 18.375 15.125V17.875H21.125C21.4897 17.875 21.8394 18.0199 22.0973 18.2777C22.3551 18.5356 22.5 18.8853 22.5 19.25C22.5 19.6147 22.3551 19.9644 22.0973 20.2223C21.8394 20.4801 21.4897 20.625 21.125 20.625Z" fill="white"/>
</g>
<defs>
<clipPath id="clip0_3210_4324">
<rect width="33" height="33" fill="white" transform="translate(0.5)"/>
</clipPath>
</defs>
</svg>
