<svg width="31" height="31" viewBox="0 0 31 31" fill="none" xmlns="http://www.w3.org/2000/svg">
<g clip-path="url(#clip0_3210_4336)">
<path d="M7.75 23.25H16.7917V31H0V18.0833C0 17.0556 0.408258 16.07 1.13496 15.3433C1.86166 14.6166 2.84729 14.2083 3.875 14.2083H7.75V23.25ZM12.9167 16.7917H10.3333V20.6667H14.2083V18.0833C14.2083 17.7408 14.0722 17.4122 13.83 17.17C13.5878 16.9278 13.2592 16.7917 12.9167 16.7917ZM27.125 0H11.625C10.5973 0 9.61166 0.408258 8.88496 1.13496C8.15826 1.86166 7.75 2.84729 7.75 3.875V14.2083H12.9167C13.4921 14.2106 14.0595 14.343 14.5765 14.5958L21.4223 7.75H16.7917V5.16667H25.8333V14.2083H23.25V9.57642L16.4042 16.4222C16.6572 16.9396 16.7896 17.5075 16.7917 18.0833V23.25H31V3.875C31 2.84729 30.5917 1.86166 29.865 1.13496C29.1383 0.408258 28.1527 0 27.125 0V0Z" fill="white"/>
</g>
<defs>
<clipPath id="clip0_3210_4336">
<rect width="31" height="31" fill="white"/>
</clipPath>
</defs>
</svg>
