<svg width="32" height="32" viewBox="0 0 32 32" fill="none" xmlns="http://www.w3.org/2000/svg">
<g clip-path="url(#clip0_3210_4312)">
<path d="M4.188 9.68569L1.812 8.48569C2.31178 7.54505 2.90356 6.65626 3.57867 5.83236L5.6 7.57503C5.0639 8.23253 4.59113 8.93923 4.188 9.68569ZM3.15733 12.195L0.610667 11.403C0.305008 12.4237 0.102658 13.4725 0.00666667 14.5337L2.66 14.8004C2.73868 13.9175 2.90529 13.0448 3.15733 12.195ZM9.716 4.20969L8.45867 1.85769C7.54102 2.34472 6.67293 2.91988 5.86667 3.57503L7.52133 5.65903C8.20343 5.10489 8.93855 4.61943 9.716 4.20969ZM14.7253 2.72836L14.484 0.0736927C13.4376 0.168733 12.4031 0.367487 11.396 0.667026L12.152 3.22303C12.9913 2.97347 13.8533 2.80777 14.7253 2.72836ZM31.932 16.0004C31.8976 20.1049 30.287 24.0393 27.4333 26.9897C24.5797 29.9402 20.7012 31.681 16.6001 31.8523C12.4989 32.0235 8.48884 30.6121 5.39914 27.9098C2.30944 25.2075 0.37647 21.4211 0 17.3337H5.364C5.30271 16.8918 5.26975 16.4465 5.26533 16.0004C5.26364 14.4866 5.58453 12.9898 6.20664 11.6097C6.82875 10.2297 7.7378 8.99805 8.87322 7.99686C10.0086 6.99567 11.3444 6.24792 12.7914 5.80342C14.2385 5.35893 15.7637 5.22788 17.2653 5.41903V0.0683594C21.2609 0.405253 24.9846 2.22899 27.7003 5.17902C30.4161 8.12905 31.9261 11.9906 31.932 16.0004ZM18.5987 16.0004C18.5975 15.5341 18.4737 15.0764 18.2396 14.6731C18.0056 14.2699 17.6696 13.9353 17.2653 13.703V8.00036H14.5987V13.7044C14.1996 13.9361 13.8678 14.2679 13.636 14.667H9.26533V17.3337H13.636C13.9282 17.8423 14.3803 18.24 14.922 18.4648C15.4637 18.6897 16.0646 18.7292 16.631 18.577C17.1975 18.4249 17.6977 18.0897 18.0538 17.6236C18.41 17.1576 18.602 16.5869 18.6 16.0004H18.5987Z" fill="white"/>
</g>
<defs>
<clipPath id="clip0_3210_4312">
<rect width="32" height="32" fill="white"/>
</clipPath>
</defs>
</svg>
