<svg width="18" height="16" viewBox="0 0 18 16" fill="none" xmlns="http://www.w3.org/2000/svg">
<path id="&#226;&#128;&#156;" d="M4.43374 9.25301C5.16198 9.4672 5.71888 9.87416 6.10442 10.4739C6.5328 11.0308 6.74699 11.7162 6.74699 12.5301C6.74699 13.5582 6.4257 14.3936 5.78313 15.0361C5.14056 15.6787 4.34806 16 3.40562 16C2.37751 16 1.54217 15.6787 0.899598 15.0361C0.299866 14.3507 0 13.5154 0 12.5301C0 12.0161 0.042838 11.5234 0.128514 11.0522C0.257028 10.5382 0.492637 9.80991 0.835341 8.86747L3.53414 0H6.61847L4.43374 9.25301ZM15.3574 9.25301C16.0857 9.4672 16.6426 9.87416 17.0281 10.4739C17.4565 11.0308 17.6707 11.7162 17.6707 12.5301C17.6707 13.5582 17.3494 14.3936 16.7068 15.0361C16.0643 15.6787 15.2718 16 14.3293 16C13.3012 16 12.4659 15.6787 11.8233 15.0361C11.2236 14.3507 10.9237 13.5154 10.9237 12.5301C10.9237 12.0161 10.9665 11.5234 11.0522 11.0522C11.1807 10.5382 11.4163 9.80991 11.759 8.86747L14.4578 0H17.5422L15.3574 9.25301Z" fill="#D8DDE4"/>
</svg>
