<svg width="32" height="32" viewBox="0 0 32 32" fill="none" xmlns="http://www.w3.org/2000/svg">
<g id="fi-ss-diploma">
<path id="Vector" d="M26.6667 27.2587V32L24 29.3333L21.3333 32V27.2587C20.3166 26.6716 19.5219 25.7655 19.0726 24.6808C18.6234 23.5962 18.5445 22.3935 18.8484 21.2595C19.1523 20.1255 19.8218 19.1234 20.7533 18.4086C21.6847 17.6939 22.826 17.3065 24 17.3065C25.174 17.3065 26.3153 17.6939 27.2467 18.4086C28.1782 19.1234 28.8477 20.1255 29.1516 21.2595C29.4555 22.3935 29.3766 23.5962 28.9274 24.6808C28.4781 25.7655 27.6834 26.6716 26.6667 27.2587ZM18.6667 28.6173V29.3333H4V4C4 2.93913 4.42143 1.92172 5.17157 1.17157C5.92172 0.421427 6.93913 0 8 0L24 0C25.0609 0 26.0783 0.421427 26.8284 1.17157C27.5786 1.92172 28 2.93913 28 4V15.7453C26.2882 14.751 24.2683 14.4275 22.3317 14.8375C20.395 15.2474 18.6795 16.3617 17.5174 17.9643C16.3554 19.5669 15.8296 21.5438 16.0419 23.512C16.2542 25.4801 17.1896 27.2994 18.6667 28.6173ZM9.33333 8H22.6667V5.33333H9.33333V8ZM9.33333 13.3333H22.6667V10.6667H9.33333V13.3333ZM9.33333 18.6667H16V16H9.33333V18.6667Z" fill="white"/>
</g>
</svg>
