<svg width="19" height="22" viewBox="0 0 19 22" fill="none" xmlns="http://www.w3.org/2000/svg">
<g id="&#208;&#159;&#209;&#131;&#209;&#130;&#209;&#140;">
<path id="Vector" d="M3.06109 20.9507C4.1994 20.9507 5.12218 20.0265 5.12218 18.8865C5.12218 17.7464 4.1994 16.8223 3.06109 16.8223C1.92278 16.8223 1 17.7464 1 18.8865C1 20.0265 1.92278 20.9507 3.06109 20.9507Z" stroke="#36B4F1" stroke-width="1.9" stroke-linecap="round" stroke-linejoin="round"/>
<path id="Vector_2" d="M15.0611 6.09909C16.1994 6.09909 17.1222 5.17492 17.1222 4.0349C17.1222 2.89487 16.1994 1.9707 15.0611 1.9707C13.9228 1.9707 13 2.89487 13 4.0349C13 5.17492 13.9228 6.09909 15.0611 6.09909Z" stroke="#36B4F1" stroke-width="1.9" stroke-linecap="round" stroke-linejoin="round"/>
<path id="Vector 19" d="M6.64844 0.980469L9.88085 3.99873L6.58028 7.07015" stroke="#36B4F1" stroke-width="1.5" stroke-linecap="round" stroke-linejoin="round"/>
<path id="Vector_3" d="M8.24506 18.719H12.8825C13.8391 18.719 14.7565 18.3384 15.433 17.661C16.1094 16.9835 16.4894 16.0647 16.4894 15.1066C16.4894 14.1486 16.1094 13.2298 15.433 12.5523C14.7565 11.8749 13.8391 11.4943 12.8825 11.4943H4.63815C3.68154 11.4943 2.76411 11.1137 2.08769 10.4362C1.41126 9.75878 1.03125 8.83996 1.03125 7.8819C1.03125 6.92384 1.41126 6.00502 2.08769 5.32757C2.76411 4.65012 3.68154 4.26953 4.63815 4.26953H8.24506" stroke="#36B4F1" stroke-width="1.9" stroke-linecap="round" stroke-linejoin="round"/>
</g>
</svg>
