<svg width="32" height="32" viewBox="0 0 32 32" fill="none" xmlns="http://www.w3.org/2000/svg">
<path d="M12 0C10.8954 0 10 0.895431 10 2V8.66679C10 9.77136 10.8954 10.6668 12 10.6668H20C21.1046 10.6668 22 9.77136 22 8.66679V2C22 0.895433 21.1046 0 20 0H12ZM18.6668 5.4998C18.6668 5.96007 18.2937 6.3332 17.8334 6.3332C17.3731 6.3332 17 6.70632 17 7.16659C17 7.62687 16.6269 7.99999 16.1666 7.99999H15.8334C15.3731 7.99999 15 7.62687 15 7.16659C15 6.70632 14.6269 6.3332 14.1666 6.3332C13.7063 6.3332 13.3332 5.96007 13.3332 5.4998V5.1666C13.3332 4.70632 13.7063 4.3332 14.1666 4.3332C14.6269 4.3332 15 3.96007 15 3.4998C15 3.03952 15.3731 2.6664 15.8334 2.6664H16.1666C16.6269 2.6664 17 3.03952 17 3.4998C17 3.96007 17.3731 4.3332 17.8334 4.3332C18.2937 4.3332 18.6668 4.70632 18.6668 5.1666V5.4998Z" fill="white"/>
<path d="M28.12 27.03L23.1487 25.7872C22.4738 25.6185 21.7699 25.8268 21.2152 26.2467C19.7637 27.3458 17.9574 28 16 28C14.0423 28 12.2366 27.3456 10.7846 26.2463C10.2301 25.8265 9.52639 25.6184 8.8517 25.7871L3.8804 27.03C2.38369 27.404 1.07893 28.6141 0.432218 30.0622C-0.0182192 31.0707 0.895431 32 2 32H30C31.1045 32 32.0181 31.0707 31.5674 30.0623C30.9201 28.6142 29.6148 27.404 28.12 27.03Z" fill="white"/>
<path d="M22.3038 13.479C22.1307 13.0231 21.7242 12.666 21.2365 12.666H10.7637C10.2761 12.666 9.86962 13.023 9.6965 13.4789C8.98122 15.3623 6.93216 17.0619 3.94691 18.4013C3.57811 18.5667 3.32879 18.9299 3.35525 19.3332C3.44712 20.7336 3.8277 22.1182 4.48608 23.396C4.68672 23.7854 5.1358 23.966 5.56079 23.8598L10.2293 22.6932C10.6487 22.5885 11.0816 22.7705 11.3536 23.1064C12.4508 24.4612 14.1194 25.3324 15.9998 25.3324C17.8797 25.3324 19.548 24.461 20.6459 23.1059C20.9179 22.7702 21.3507 22.5884 21.7698 22.6931L26.4388 23.8599C26.8638 23.966 27.3128 23.7854 27.5135 23.3961C28.1719 22.1185 28.5527 20.7337 28.6447 19.3332C28.6711 18.9299 28.4218 18.5667 28.0531 18.4013C25.0682 17.0619 23.019 15.3621 22.3038 13.479Z" fill="white"/>
</svg>
