<svg width="30" height="30" viewBox="0 0 30 30" fill="none" xmlns="http://www.w3.org/2000/svg">
<g id="Vector">
<mask id="path-1-inside-1_4045_13233" fill="white">
<path fill-rule="evenodd" clip-rule="evenodd" d="M21.7688 17.9776C21.3963 17.7913 19.57 16.8938 19.23 16.7688C18.89 16.6451 18.6425 16.5838 18.3938 16.9563C18.1463 17.3263 17.435 18.1638 17.2188 18.4113C17.0013 18.6601 16.785 18.6901 16.4138 18.5051C16.0425 18.3176 14.845 17.9263 13.4263 16.6613C12.3225 15.6763 11.5763 14.4601 11.36 14.0876C11.1438 13.7163 11.3363 13.5151 11.5225 13.3301C11.69 13.1638 11.8938 12.8963 12.08 12.6801C12.2663 12.4626 12.3275 12.3076 12.4513 12.0588C12.5763 11.8113 12.5138 11.5951 12.42 11.4088C12.3275 11.2226 11.585 9.3938 11.275 8.65005C10.9738 7.9263 10.6675 8.02505 10.44 8.01255C10.2225 8.00255 9.975 8.00005 9.7275 8.00005C9.48 8.00005 9.0775 8.09255 8.7375 8.46505C8.39625 8.8363 7.4375 9.73505 7.4375 11.5638C7.4375 13.3913 8.7675 15.1576 8.95375 15.4063C9.14 15.6538 11.5725 19.4063 15.2988 21.0151C16.1863 21.3976 16.8775 21.6263 17.4163 21.7963C18.3063 22.08 19.1163 22.0401 19.7563 21.9438C20.4688 21.8376 21.9538 21.045 22.2638 20.1776C22.5725 19.3101 22.5725 18.5663 22.48 18.4113C22.3875 18.2563 22.14 18.1638 21.7675 17.9776H21.7688ZM14.9913 27.2313H14.9863C12.773 27.2317 10.6005 26.6368 8.69625 25.5088L8.24625 25.2413L3.56875 26.4688L4.8175 21.9088L4.52375 21.4413C3.28642 19.4717 2.63162 17.1923 2.635 14.8663C2.6375 8.0538 8.18 2.5113 14.9963 2.5113C18.2963 2.5113 21.3988 3.7988 23.7313 6.1338C24.8817 7.27953 25.7936 8.64201 26.4141 10.1424C27.0346 11.6428 27.3514 13.2514 27.3463 14.8751C27.3438 21.6875 21.8013 27.2313 14.9913 27.2313ZM25.5063 4.36005C24.129 2.97371 22.4903 1.87447 20.6851 1.12605C18.8799 0.377631 16.9442 -0.00509531 14.99 5.12219e-05C6.7975 5.12219e-05 0.1275 6.6688 0.125 14.8651C0.12375 17.4851 0.8075 20.0425 2.10875 22.2963L0 30L7.88 27.9326C10.0598 29.1202 12.5026 29.7425 14.985 29.7425H14.9913C23.1838 29.7425 29.8538 23.0738 29.8563 14.8763C29.8623 12.9229 29.481 10.9877 28.7343 9.18259C27.9876 7.37751 26.8905 5.73839 25.5063 4.36005Z"/>
</mask>
<path fill-rule="evenodd" clip-rule="evenodd" d="M21.7688 17.9776C21.3963 17.7913 19.57 16.8938 19.23 16.7688C18.89 16.6451 18.6425 16.5838 18.3938 16.9563C18.1463 17.3263 17.435 18.1638 17.2188 18.4113C17.0013 18.6601 16.785 18.6901 16.4138 18.5051C16.0425 18.3176 14.845 17.9263 13.4263 16.6613C12.3225 15.6763 11.5763 14.4601 11.36 14.0876C11.1438 13.7163 11.3363 13.5151 11.5225 13.3301C11.69 13.1638 11.8938 12.8963 12.08 12.6801C12.2663 12.4626 12.3275 12.3076 12.4513 12.0588C12.5763 11.8113 12.5138 11.5951 12.42 11.4088C12.3275 11.2226 11.585 9.3938 11.275 8.65005C10.9738 7.9263 10.6675 8.02505 10.44 8.01255C10.2225 8.00255 9.975 8.00005 9.7275 8.00005C9.48 8.00005 9.0775 8.09255 8.7375 8.46505C8.39625 8.8363 7.4375 9.73505 7.4375 11.5638C7.4375 13.3913 8.7675 15.1576 8.95375 15.4063C9.14 15.6538 11.5725 19.4063 15.2988 21.0151C16.1863 21.3976 16.8775 21.6263 17.4163 21.7963C18.3063 22.08 19.1163 22.0401 19.7563 21.9438C20.4688 21.8376 21.9538 21.045 22.2638 20.1776C22.5725 19.3101 22.5725 18.5663 22.48 18.4113C22.3875 18.2563 22.14 18.1638 21.7675 17.9776H21.7688ZM14.9913 27.2313H14.9863C12.773 27.2317 10.6005 26.6368 8.69625 25.5088L8.24625 25.2413L3.56875 26.4688L4.8175 21.9088L4.52375 21.4413C3.28642 19.4717 2.63162 17.1923 2.635 14.8663C2.6375 8.0538 8.18 2.5113 14.9963 2.5113C18.2963 2.5113 21.3988 3.7988 23.7313 6.1338C24.8817 7.27953 25.7936 8.64201 26.4141 10.1424C27.0346 11.6428 27.3514 13.2514 27.3463 14.8751C27.3438 21.6875 21.8013 27.2313 14.9913 27.2313ZM25.5063 4.36005C24.129 2.97371 22.4903 1.87447 20.6851 1.12605C18.8799 0.377631 16.9442 -0.00509531 14.99 5.12219e-05C6.7975 5.12219e-05 0.1275 6.6688 0.125 14.8651C0.12375 17.4851 0.8075 20.0425 2.10875 22.2963L0 30L7.88 27.9326C10.0598 29.1202 12.5026 29.7425 14.985 29.7425H14.9913C23.1838 29.7425 29.8538 23.0738 29.8563 14.8763C29.8623 12.9229 29.481 10.9877 28.7343 9.18259C27.9876 7.37751 26.8905 5.73839 25.5063 4.36005Z" fill="#36B4F1"/>
<path d="M21.7688 17.9776V18.0776L21.8135 17.8881L21.7688 17.9776ZM19.23 16.7688L19.2645 16.6749L19.2642 16.6748L19.23 16.7688ZM18.3938 16.9563L18.4769 17.0119L18.4769 17.0118L18.3938 16.9563ZM17.2188 18.4113L17.294 18.4771L17.2941 18.4771L17.2188 18.4113ZM16.4138 18.5051L16.3687 18.5943L16.3692 18.5946L16.4138 18.5051ZM13.4263 16.6613L13.3597 16.7359L13.3597 16.7359L13.4263 16.6613ZM11.36 14.0876L11.4465 14.0373L11.4464 14.0372L11.36 14.0876ZM11.5225 13.3301L11.4521 13.2591L11.452 13.2591L11.5225 13.3301ZM12.08 12.6801L12.1558 12.7453L12.156 12.7451L12.08 12.6801ZM12.4513 12.0588L12.362 12.0137L12.3617 12.0143L12.4513 12.0588ZM12.42 11.4088L12.3304 11.4533L12.3307 11.4538L12.42 11.4088ZM11.275 8.65005L11.1827 8.68848L11.1827 8.68852L11.275 8.65005ZM10.44 8.01255L10.4455 7.9127L10.4446 7.91266L10.44 8.01255ZM8.7375 8.46505L8.81112 8.53273L8.81136 8.53247L8.7375 8.46505ZM8.95375 15.4063L8.8737 15.4662L8.87385 15.4664L8.95375 15.4063ZM15.2988 21.0151L15.2591 21.1069L15.2592 21.1069L15.2988 21.0151ZM17.4163 21.7963L17.4466 21.701L17.4463 21.7009L17.4163 21.7963ZM19.7563 21.9438L19.7415 21.8449L19.7414 21.8449L19.7563 21.9438ZM22.2638 20.1776L22.3579 20.2112L22.358 20.2111L22.2638 20.1776ZM21.7675 17.9776V17.8776L21.7228 18.067L21.7675 17.9776ZM14.9863 27.2313V27.1313H14.9862L14.9863 27.2313ZM8.69625 25.5088L8.64515 25.5948L8.64529 25.5948L8.69625 25.5088ZM8.24625 25.2413L8.29735 25.1553L8.26136 25.1339L8.22087 25.1446L8.24625 25.2413ZM3.56875 26.4688L3.4723 26.4424L3.42654 26.6095L3.59413 26.5655L3.56875 26.4688ZM4.8175 21.9088L4.91395 21.9352L4.92556 21.8928L4.90217 21.8556L4.8175 21.9088ZM4.52375 21.4413L4.43907 21.4945L4.43908 21.4945L4.52375 21.4413ZM2.635 14.8663L2.735 14.8664V14.8663L2.635 14.8663ZM23.7313 6.1338L23.6605 6.20447L23.6607 6.20466L23.7313 6.1338ZM27.3463 14.8751L27.2463 14.8747V14.875L27.3463 14.8751ZM14.99 5.12219e-05V0.100052L14.9903 0.100051L14.99 5.12219e-05ZM0.125 14.8651L0.225 14.8651V14.8651L0.125 14.8651ZM2.10875 22.2963L2.2052 22.3227L2.21622 22.2824L2.19535 22.2463L2.10875 22.2963ZM0 30L-0.0964518 29.9736L-0.14219 30.1407L0.0253783 30.0968L0 30ZM7.88 27.9326L7.92784 27.8447L7.893 27.8258L7.85462 27.8358L7.88 27.9326ZM14.985 29.7425L14.985 29.8426H14.985V29.7425ZM29.8563 14.8763L29.7563 14.876V14.8763L29.8563 14.8763ZM21.8135 17.8881C21.6267 17.7947 21.0766 17.5236 20.5306 17.2601C19.9877 16.9982 19.4403 16.7396 19.2645 16.6749L19.1955 16.8627C19.3597 16.923 19.8954 17.1757 20.4437 17.4403C20.989 17.7034 21.5383 17.9741 21.724 18.067L21.8135 17.8881ZM19.2642 16.6748C19.0971 16.614 18.9285 16.5582 18.7661 16.5771C18.5927 16.5973 18.4456 16.6985 18.3106 16.9008L18.4769 17.0118C18.5906 16.8416 18.6916 16.7872 18.7892 16.7758C18.8977 16.7631 19.0229 16.7998 19.1958 16.8628L19.2642 16.6748ZM18.3106 16.9007C18.0674 17.2643 17.3607 18.0968 17.1434 18.3455L17.2941 18.4771C17.5093 18.2308 18.2251 17.3883 18.4769 17.0119L18.3106 16.9007ZM17.1435 18.3455C17.0443 18.4589 16.9565 18.5101 16.8619 18.5216C16.7631 18.5335 16.6375 18.5048 16.4584 18.4155L16.3692 18.5946C16.5613 18.6903 16.7294 18.7391 16.8859 18.7201C17.0466 18.7006 17.1757 18.6124 17.294 18.4771L17.1435 18.3455ZM16.4588 18.4158C16.0772 18.223 14.8987 17.8402 13.4928 16.5867L13.3597 16.7359C14.7913 18.0124 16.0078 18.4121 16.3687 18.5943L16.4588 18.4158ZM13.4928 16.5867C12.4009 15.6122 11.661 14.4068 11.4465 14.0373L11.2735 14.1378C11.4915 14.5133 12.2441 15.7404 13.3597 16.7359L13.4928 16.5867ZM11.4464 14.0372C11.3502 13.872 11.3521 13.7601 11.3841 13.6737C11.4196 13.5778 11.4973 13.496 11.593 13.401L11.452 13.2591C11.3614 13.3491 11.2498 13.4604 11.1965 13.6042C11.1398 13.7575 11.1536 13.9318 11.2736 14.1379L11.4464 14.0372ZM11.5929 13.401C11.7637 13.2315 11.9765 12.9535 12.1558 12.7453L12.0042 12.6148C11.811 12.8391 11.6163 13.0961 11.4521 13.2591L11.5929 13.401ZM12.156 12.7451C12.3522 12.516 12.4194 12.3474 12.5408 12.1033L12.3617 12.0143C12.2356 12.2677 12.1803 12.4092 12.004 12.615L12.156 12.7451ZM12.5405 12.1039C12.6863 11.8152 12.6093 11.5624 12.5093 11.3638L12.3307 11.4538C12.4182 11.6277 12.4662 11.8074 12.362 12.0137L12.5405 12.1039ZM12.5096 11.3643C12.4654 11.2754 12.2587 10.7769 12.0215 10.2004C11.7858 9.62738 11.5224 8.98373 11.3673 8.61158L11.1827 8.68852C11.3376 9.06012 11.6005 9.70272 11.8366 10.2765C12.0713 10.8469 12.2821 11.356 12.3304 11.4533L12.5096 11.3643ZM11.3673 8.61162C11.2123 8.23919 11.0473 8.05665 10.8725 7.97415C10.7859 7.93325 10.7032 7.92009 10.6299 7.91583C10.5938 7.91372 10.5591 7.91376 10.5285 7.91385C10.4969 7.91394 10.4704 7.91407 10.4455 7.9127L10.4345 8.1124C10.4664 8.11415 10.4993 8.11393 10.5291 8.11385C10.56 8.11376 10.589 8.11378 10.6183 8.11549C10.6758 8.11884 10.7311 8.12857 10.7872 8.15501C10.8977 8.2072 11.0364 8.33716 11.1827 8.68848L11.3673 8.61162ZM10.4446 7.91266C10.2247 7.90255 9.9754 7.90005 9.7275 7.90005V8.10005C9.97461 8.10005 10.2203 8.10255 10.4354 8.11245L10.4446 7.91266ZM9.7275 7.90005C9.45715 7.90005 9.02586 8.00079 8.66364 8.39764L8.81136 8.53247C9.12914 8.18431 9.50286 8.10005 9.7275 8.10005V7.90005ZM8.66388 8.39738C8.32196 8.76936 7.3375 9.69337 7.3375 11.5638H7.5375C7.5375 9.77673 8.47054 8.90324 8.81112 8.53272L8.66388 8.39738ZM7.3375 11.5638C7.3375 12.5 7.67758 13.4149 8.03661 14.1223C8.39635 14.8312 8.77953 15.3405 8.8737 15.4662L9.0338 15.3464C8.94172 15.2234 8.56678 14.7251 8.21496 14.0318C7.86242 13.3371 7.5375 12.4551 7.5375 11.5638H7.3375ZM8.87385 15.4664C9.05451 15.7065 11.5033 19.4853 15.2591 21.1069L15.3384 20.9232C11.6417 19.3273 9.22549 15.6011 9.03365 15.3462L8.87385 15.4664ZM15.2592 21.1069C16.151 21.4912 16.8458 21.7211 17.3862 21.8917L17.4463 21.7009C16.9092 21.5315 16.2215 21.3039 15.3383 20.9232L15.2592 21.1069ZM17.3859 21.8916C18.2958 22.1817 19.1227 22.1402 19.7711 22.0427L19.7414 21.8449C19.1098 21.9399 18.3167 21.9784 17.4466 21.701L17.3859 21.8916ZM19.771 22.0427C20.146 21.9868 20.7089 21.7546 21.2149 21.4303C21.7185 21.1076 22.1913 20.6774 22.3579 20.2112L22.1696 20.1439C22.0262 20.5452 21.6015 20.945 21.107 21.262C20.6149 21.5773 20.079 21.7946 19.7415 21.8449L19.771 22.0427ZM22.358 20.2111C22.5152 19.7692 22.5942 19.3579 22.622 19.0358C22.6358 18.8749 22.6371 18.7346 22.6284 18.6229C22.6201 18.5167 22.6019 18.4204 22.5659 18.3601L22.3941 18.4625C22.4044 18.4797 22.4209 18.5345 22.429 18.6384C22.4366 18.7369 22.4359 18.8659 22.4227 19.0187C22.3964 19.324 22.321 19.7184 22.1695 20.144L22.358 20.2111ZM22.5659 18.3601C22.5049 18.2579 22.3988 18.1853 22.2768 18.1185C22.1551 18.0517 21.9926 17.9783 21.8122 17.8881L21.7228 18.067C21.9149 18.163 22.0624 18.229 22.1807 18.2938C22.2987 18.3585 22.3626 18.4097 22.3941 18.4625L22.5659 18.3601ZM21.7675 18.0776H21.7688V17.8776H21.7675V18.0776ZM14.9913 27.1313H14.9863V27.3313H14.9913V27.1313ZM14.9862 27.1313C12.791 27.1317 10.636 26.5416 8.74722 25.4228L8.64529 25.5948C10.5649 26.7319 12.7551 27.3317 14.9863 27.3313L14.9862 27.1313ZM8.74735 25.4228L8.29735 25.1553L8.19515 25.3273L8.64515 25.5948L8.74735 25.4228ZM8.22087 25.1446L3.54337 26.3721L3.59413 26.5655L8.27163 25.338L8.22087 25.1446ZM3.6652 26.4952L4.91395 21.9352L4.72105 21.8824L3.4723 26.4424L3.6652 26.4952ZM4.90217 21.8556L4.60842 21.3881L4.43908 21.4945L4.73283 21.962L4.90217 21.8556ZM4.60843 21.3881C3.38114 19.4345 2.73165 17.1735 2.735 14.8664L2.535 14.8662C2.53159 17.211 3.19171 19.509 4.43907 21.4945L4.60843 21.3881ZM2.735 14.8663C2.73748 8.10905 8.23522 2.6113 14.9963 2.6113V2.4113C8.12478 2.4113 2.53752 7.99855 2.535 14.8663L2.735 14.8663ZM14.9963 2.6113C18.2697 2.6113 21.3467 3.88823 23.6605 6.20447L23.802 6.06313C21.4508 3.70937 18.3228 2.4113 14.9963 2.4113V2.6113ZM23.6607 6.20466C24.8018 7.34105 25.7062 8.69244 26.3217 10.1806L26.5065 10.1042C25.8809 8.59157 24.9617 7.218 23.8018 6.06294L23.6607 6.20466ZM26.3217 10.1806C26.9371 11.6688 27.2514 13.2643 27.2463 14.8747L27.4463 14.8754C27.4515 13.2385 27.1321 11.6168 26.5065 10.1042L26.3217 10.1806ZM27.2463 14.875C27.2438 21.6323 21.746 27.1313 14.9913 27.1313V27.3313C21.8565 27.3313 27.4437 21.7428 27.4463 14.8751L27.2463 14.875ZM25.5772 4.28957C24.1906 2.89384 22.5408 1.78716 20.7234 1.03368L20.6468 1.21843C22.4398 1.96178 24.0674 3.05357 25.4353 4.43053L25.5772 4.28957ZM20.7234 1.03368C18.906 0.280188 16.9571 -0.10513 14.9897 -0.0999484L14.9903 0.100051C16.9312 0.0949392 18.8539 0.475074 20.6468 1.21843L20.7234 1.03368ZM14.99 -0.0999488C6.74226 -0.0999488 0.0275169 6.61358 0.025 14.865L0.225 14.8651C0.227483 6.72403 6.85274 0.100051 14.99 0.100051V-0.0999488ZM0.025 14.865C0.0237417 17.5025 0.712071 20.0773 2.02215 22.3463L2.19535 22.2463C0.902929 20.0078 0.223758 17.4676 0.225 14.8651L0.025 14.865ZM2.0123 22.2699L-0.0964518 29.9736L0.0964518 30.0265L2.2052 22.3227L2.0123 22.2699ZM0.0253783 30.0968L7.90538 28.0293L7.85462 27.8358L-0.0253783 29.9033L0.0253783 30.0968ZM7.83216 28.0204C10.0267 29.216 12.4859 29.8425 14.985 29.8426L14.985 29.6426C12.5193 29.6425 10.093 29.0244 7.92784 27.8447L7.83216 28.0204ZM14.985 29.8426H14.9913V29.6426H14.985V29.8426ZM14.9913 29.8426C23.239 29.8426 29.9537 23.129 29.9563 14.8763L29.7563 14.8763C29.7538 23.0186 23.1285 29.6426 14.9913 29.6426V29.8426ZM29.9563 14.8766C29.9623 12.91 29.5784 10.9617 28.8267 9.14437L28.6419 9.22082C29.3835 11.0137 29.7623 12.9358 29.7563 14.876L29.9563 14.8766ZM28.8267 9.14437C28.075 7.32707 26.9704 5.67686 25.5768 4.28919L25.4357 4.43091C26.8105 5.79992 27.9003 7.42795 28.6419 9.22082L28.8267 9.14437Z" fill="white" mask="url(#path-1-inside-1_4045_13233)"/>
</g>
</svg>
