<svg width="19" height="10" viewBox="0 0 19 10" fill="none" xmlns="http://www.w3.org/2000/svg">
<path fill-rule="evenodd" clip-rule="evenodd" d="M0 5C0 4.85268 0.0585234 4.71139 0.162696 4.60722C0.266868 4.50305 0.408156 4.44452 0.555478 4.44452H16.9903L13.4941 0.949458C13.3898 0.845154 13.3312 0.703687 13.3312 0.556179C13.3312 0.408671 13.3898 0.267205 13.4941 0.162901C13.5984 0.0585972 13.7399 3.47541e-09 13.8874 0C14.0349 -3.47541e-09 14.1764 0.0585972 14.2807 0.162901L18.7245 4.60672C18.7762 4.65832 18.8173 4.71962 18.8453 4.7871C18.8733 4.85459 18.8877 4.92694 18.8877 5C18.8877 5.07306 18.8733 5.14541 18.8453 5.2129C18.8173 5.28038 18.7762 5.34168 18.7245 5.39328L14.2807 9.8371C14.1764 9.9414 14.0349 10 13.8874 10C13.7399 10 13.5984 9.9414 13.4941 9.8371C13.3898 9.7328 13.3312 9.59133 13.3312 9.44382C13.3312 9.29631 13.3898 9.15485 13.4941 9.05054L16.9903 5.55548H0.555478C0.408156 5.55548 0.266868 5.49695 0.162696 5.39278C0.0585234 5.28861 0 5.14732 0 5Z" fill="#2F2F2F"/>
</svg>
