<svg width="20" height="19" viewBox="0 0 20 19" fill="none" xmlns="http://www.w3.org/2000/svg">
<path d="M19.1266 0.801339C18.2241 0.315377 17.2175 1.25259 16.6274 1.80797C15.2737 3.12701 14.1282 4.65432 12.8438 6.04279C11.4206 7.5701 10.1016 9.09741 8.64372 10.5901C7.81064 11.4231 6.90814 12.3256 6.35275 13.367C5.10314 12.152 4.02708 10.833 2.63861 9.75698C1.63198 8.99333 -0.0341778 8.43794 0.000533835 10.2777C0.069957 12.6728 2.18736 15.2415 3.74939 16.8729C4.40891 17.5671 5.27669 18.296 6.28333 18.3307C7.49824 18.4002 8.74785 16.9423 9.4768 16.1439C10.7612 14.7554 11.8025 13.1934 12.9827 11.7703C14.51 9.89583 16.072 8.05606 17.5646 6.14692C18.5018 4.96673 21.4523 2.0509 19.1266 0.801339ZM1.52779 10.1388C1.49308 10.1388 1.45836 10.1388 1.38894 10.1735C1.25009 10.1388 1.14596 10.104 1.00711 10.0346C1.11125 9.9652 1.28481 9.99991 1.52779 10.1388Z" fill="#2F2F2F"/>
</svg>
