<svg width="20" height="18" viewBox="0 0 20 18" fill="none" xmlns="http://www.w3.org/2000/svg">
<path d="M19.1266 0.135323C18.2241 -0.350639 17.2175 0.586574 16.6274 1.14196C15.2737 2.461 14.1282 3.98831 12.8438 5.37677C11.4206 6.90408 10.1016 8.43139 8.64372 9.92404C7.81064 10.7571 6.90814 11.6596 6.35275 12.701C5.10314 11.486 4.02708 10.167 2.63861 9.09097C1.63198 8.32731 -0.0341778 7.77193 0.000533835 9.61164C0.069957 12.0068 2.18736 14.5755 3.74939 16.2068C4.40891 16.9011 5.27669 17.63 6.28333 17.6647C7.49824 17.7341 8.74785 16.2763 9.4768 15.4779C10.7612 14.0894 11.8025 12.5274 12.9827 11.1042C14.51 9.22981 16.072 7.39004 17.5646 5.48091C18.5018 4.30071 21.4523 1.38488 19.1266 0.135323ZM1.52779 9.47279C1.49308 9.47279 1.45836 9.47279 1.38894 9.50745C1.25009 9.47279 1.14596 9.43803 1.00711 9.3686C1.11125 9.29918 1.28481 9.33389 1.52779 9.47279Z" fill="#333333" fill-opacity="0.5"/>
</svg>
