<svg width="18" height="19" viewBox="0 0 18 19" fill="none" xmlns="http://www.w3.org/2000/svg">
<path fill-rule="evenodd" clip-rule="evenodd" d="M7.29774 14.7322C3.26731 14.7322 0 11.4649 0 7.43445C0 3.40403 3.26731 0.136719 7.29774 0.136719C11.3282 0.136719 14.5955 3.40403 14.5955 7.43445C14.5955 9.12088 14.0234 10.6737 13.0628 11.9095L17.9782 16.8249L16.6881 18.1149L11.7727 13.1995C10.537 14.1602 8.98416 14.7322 7.29774 14.7322ZM12.7669 7.43424C12.7669 10.4571 10.3164 12.9075 7.29361 12.9075C4.27079 12.9075 1.82031 10.4571 1.82031 7.43424C1.82031 4.41142 4.27079 1.96094 7.29361 1.96094C10.3164 1.96094 12.7669 4.41142 12.7669 7.43424Z" fill="black"/>
</svg>
