<svg width="19" height="10" viewBox="0 0 19 10" fill="none" xmlns="http://www.w3.org/2000/svg">
<path fill-rule="evenodd" clip-rule="evenodd" d="M18.8877 5C18.8877 4.85268 18.8292 4.71139 18.725 4.60722C18.6208 4.50305 18.4795 4.44452 18.3322 4.44452H1.89739L5.39357 0.949458C5.49787 0.845154 5.55647 0.703687 5.55647 0.556179C5.55647 0.408671 5.49787 0.267205 5.39357 0.162901C5.28926 0.0585972 5.14779 3.47541e-09 5.00029 0C4.85278 -3.47541e-09 4.71131 0.0585972 4.60701 0.162901L0.163187 4.60672C0.111458 4.65832 0.0704174 4.71962 0.0424137 4.7871C0.01441 4.85459 -3.8147e-06 4.92694 -3.8147e-06 5C-3.8147e-06 5.07306 0.01441 5.14541 0.0424137 5.2129C0.0704174 5.28038 0.111458 5.34168 0.163187 5.39328L4.60701 9.8371C4.71131 9.9414 4.85278 10 5.00029 10C5.14779 10 5.28926 9.9414 5.39357 9.8371C5.49787 9.7328 5.55647 9.59133 5.55647 9.44382C5.55647 9.29631 5.49787 9.15485 5.39357 9.05054L1.89739 5.55548H18.3322C18.4795 5.55548 18.6208 5.49695 18.725 5.39278C18.8292 5.28861 18.8877 5.14732 18.8877 5Z" fill="#2F2F2F"/>
</svg>
