<svg width="15" height="15" viewBox="0 0 15 15" fill="none" xmlns="http://www.w3.org/2000/svg">
<mask id="mask0_3458_23844" style="mask-type:luminance" maskUnits="userSpaceOnUse" x="1" y="0" width="13" height="15">
<path fill-rule="evenodd" clip-rule="evenodd" d="M7.5 14.5758L7.91108 14.2169C11.3679 11.1984 13.125 8.56282 13.125 6.24609C13.125 2.96526 10.5643 0.621094 7.5 0.621094C4.43566 0.621094 1.875 2.96526 1.875 6.24609C1.875 8.56282 3.63207 11.1984 7.08892 14.2169L7.5 14.5758ZM7.50067 12.9134C4.56731 10.2698 3.12567 8.02956 3.12567 6.24879C3.12567 3.68416 5.10325 1.87379 7.50067 1.87379C9.8981 1.87379 11.8757 3.68416 11.8757 6.24879C11.8757 8.02956 10.434 10.2698 7.50067 12.9134ZM7.49933 3.1184C9.22522 3.1184 10.6243 4.51751 10.6243 6.2434C10.6243 7.96929 9.22522 9.3684 7.49933 9.3684C5.77344 9.3684 4.37433 7.96929 4.37433 6.2434C4.37433 4.51751 5.77344 3.1184 7.49933 3.1184ZM5.625 6.24609C5.625 5.21056 6.46447 4.37109 7.5 4.37109C8.53553 4.37109 9.375 5.21056 9.375 6.24609C9.375 7.28163 8.53553 8.12109 7.5 8.12109C6.46447 8.12109 5.625 7.28163 5.625 6.24609Z" fill="white"/>
</mask>
<g mask="url(#mask0_3458_23844)">
<rect width="15" height="15" fill="#36B4F1"/>
</g>
</svg>
