<svg width="19" height="19" viewBox="0 0 19 19" fill="none" xmlns="http://www.w3.org/2000/svg">
<mask id="mask0_3458_23824" style="mask-type:luminance" maskUnits="userSpaceOnUse" x="1" y="1" width="16" height="16">
<path fill-rule="evenodd" clip-rule="evenodd" d="M8.34917 6.48853C8.73775 5.96488 8.87709 5.41299 8.43762 4.92584C7.4514 3.54586 6.78815 2.69248 6.37212 2.28151C5.5812 1.50021 4.28012 1.60589 3.59513 2.28084C3.22721 2.64336 3.10266 2.76786 2.72489 3.15156C0.620649 5.25693 1.90392 9.70761 5.31533 13.1224C8.72596 16.5364 13.1762 17.8203 15.2849 15.7105C15.6335 15.3744 15.9286 15.0791 16.1614 14.8331C16.8327 14.1236 16.9346 12.8799 16.157 12.0719C15.7583 11.6577 14.9445 11.0265 13.5065 9.99781C13.0661 9.60398 12.5438 9.68934 12.0651 10.0034C11.8348 10.1545 11.6672 10.3074 11.3507 10.6242L10.776 11.1992C10.7003 11.2749 9.67253 10.7602 8.67482 9.76148C7.67658 8.76226 7.16221 7.7344 7.23755 7.65907L7.81263 7.08367C7.91303 6.98317 7.96104 6.93451 8.0226 6.86981C8.15085 6.73501 8.25704 6.61269 8.34917 6.48853ZM11.8356 12.2606L12.4104 11.6855C12.5846 11.5112 12.6975 11.404 12.7893 11.3301C14.049 12.2347 14.7786 12.8036 15.0766 13.1132C15.2555 13.2991 15.2277 13.6383 15.0722 13.8027C14.8569 14.0302 14.5773 14.31 14.2341 14.641C12.8706 16.0051 9.27823 14.9687 6.37515 12.0628C3.47116 9.15593 2.43521 5.56304 3.78845 4.20906C4.1647 3.82693 4.2839 3.70778 4.64657 3.35043C4.78255 3.21645 5.15294 3.18636 5.31836 3.34977C5.63866 3.66617 6.23281 4.42693 7.10683 5.64444C7.06159 5.70061 7.00507 5.7641 6.9363 5.83637C6.88582 5.88943 6.84377 5.93205 6.75184 6.02408L6.17732 6.59891C5.19996 7.57619 6.03232 9.23948 7.61403 10.8227C9.19466 12.4049 10.8586 13.2382 11.8356 12.2606Z" fill="white"/>
</mask>
<g mask="url(#mask0_3458_23824)">
<rect x="0.207031" y="0.234375" width="18" height="18" fill="#36B4F1"/>
</g>
</svg>
