<svg width="18" height="18" viewBox="0 0 18 18" fill="none" xmlns="http://www.w3.org/2000/svg">
<mask id="mask0_2056_16001" style="mask-type:luminance" maskUnits="userSpaceOnUse" x="1" y="1" width="16" height="16">
<path fill-rule="evenodd" clip-rule="evenodd" d="M8.14214 6.25416C8.53072 5.7305 8.67006 5.17861 8.23059 4.69146C7.24437 3.31148 6.58112 2.4581 6.16509 2.04714C5.37417 1.26584 4.07309 1.37152 3.3881 2.04647C3.02018 2.40899 2.89563 2.53348 2.51786 2.91719C0.413618 5.02256 1.69689 9.47323 5.1083 12.888C8.51893 16.302 12.9692 17.5859 15.0778 15.4761C15.4264 15.1401 15.7216 14.8447 15.9544 14.5987C16.6256 13.8892 16.7275 12.6455 15.9499 11.8375C15.5513 11.4233 14.7375 10.7921 13.2995 9.76343C12.859 9.36961 12.3368 9.45496 11.858 9.76906C11.6277 9.92015 11.4601 10.073 11.1437 10.3898L10.569 10.9648C10.4933 11.0405 9.46549 10.5258 8.46779 9.52711C7.46954 8.52788 6.95518 7.50003 7.03052 7.4247L7.6056 6.8493C7.706 6.74879 7.754 6.70014 7.81557 6.63544C7.94382 6.50064 8.05001 6.37831 8.14214 6.25416ZM11.6286 12.0263L12.2034 11.4512C12.3775 11.2768 12.4904 11.1696 12.5822 11.0957C13.842 12.0004 14.5716 12.5692 14.8696 12.8788C15.0485 13.0647 15.0207 13.404 14.8651 13.5684C14.6499 13.7959 14.3703 14.0757 14.0271 14.4067C12.6635 15.7708 9.0712 14.7343 6.16812 11.8284C3.26413 8.92155 2.22818 5.32866 3.58142 3.97468C3.95767 3.59255 4.07687 3.4734 4.43954 3.11606C4.57552 2.98207 4.94591 2.95199 5.11133 3.11539C5.43163 3.43179 6.02578 4.19256 6.8998 5.41006C6.85456 5.46624 6.79804 5.52972 6.72927 5.602C6.67879 5.65505 6.63674 5.69768 6.54481 5.7897L5.97029 6.36453C4.99293 7.34182 5.82528 9.0051 7.407 10.5884C8.98763 12.1706 10.6515 13.0038 11.6286 12.0263Z" fill="white"/>
</mask>
<g mask="url(#mask0_2056_16001)">
<rect width="18" height="18" fill="#2F2F2F"/>
</g>
</svg>
