<svg width="118" height="118" viewBox="0 0 118 118" fill="none" xmlns="http://www.w3.org/2000/svg">
<g filter="url(#filter0_d_3815_31416)">
<path d="M59 25L61.6862 31.3623L66.728 26.6426L66.5942 33.5475L73.1198 31.2865L70.189 37.54L77.0701 38.1287L71.8492 42.6495L77.8959 45.986L71.2877 47.9925L75.4545 53.5L68.6014 52.6452L70.1679 59.3713L64.255 55.803L62.9503 62.5848L59 56.92L55.0497 62.5848L53.745 55.803L47.8321 59.3713L49.3986 52.6452L42.5455 53.5L46.7123 47.9925L40.1041 45.986L46.1508 42.6495L40.9299 38.1287L47.811 37.54L44.8802 31.2865L51.4058 33.5475L51.272 26.6426L56.3138 31.3623L59 25Z" fill="white"/>
</g>
<path d="M54.384 38.102C56.004 38.102 57.066 39.362 57.066 41.576C57.066 44.042 55.788 45.266 54.276 45.266C52.8 45.266 51.558 44.096 51.54 41.756C51.54 39.416 52.8 38.102 54.384 38.102ZM54.294 39.056C53.322 39.056 52.782 40.226 52.782 41.684C52.746 43.178 53.322 44.312 54.312 44.312C55.356 44.312 55.824 43.196 55.824 41.666C55.824 40.226 55.41 39.056 54.294 39.056ZM55.158 50.216H54.15L61.044 38.084H62.052L55.158 50.216ZM62.016 42.944C63.636 42.944 64.698 44.204 64.698 46.436C64.698 48.902 63.42 50.126 61.908 50.126C60.432 50.126 59.19 48.956 59.172 46.598C59.172 44.258 60.432 42.944 62.016 42.944ZM61.926 43.898C60.954 43.898 60.414 45.068 60.414 46.544C60.378 48.038 60.954 49.172 61.944 49.172C62.988 49.172 63.456 48.056 63.456 46.508C63.456 45.086 63.042 43.898 61.926 43.898Z" fill="#2F2F2F"/>
<defs>
<filter id="filter0_d_3815_31416" x="0.104065" y="0" width="117.792" height="117.584" filterUnits="userSpaceOnUse" color-interpolation-filters="sRGB">
<feFlood flood-opacity="0" result="BackgroundImageFix"/>
<feColorMatrix in="SourceAlpha" type="matrix" values="0 0 0 0 0 0 0 0 0 0 0 0 0 0 0 0 0 0 127 0" result="hardAlpha"/>
<feOffset dy="15"/>
<feGaussianBlur stdDeviation="20"/>
<feColorMatrix type="matrix" values="0 0 0 0 0.419062 0 0 0 0 0.594563 0 0 0 0 0.675 0 0 0 0.4 0"/>
<feBlend mode="normal" in2="BackgroundImageFix" result="effect1_dropShadow_3815_31416"/>
<feBlend mode="normal" in="SourceGraphic" in2="effect1_dropShadow_3815_31416" result="shape"/>
</filter>
</defs>
</svg>
