<svg width="19" height="19" viewBox="0 0 19 19" fill="none" xmlns="http://www.w3.org/2000/svg">
<mask id="mask0_2075_89961" style="mask-type:luminance" maskUnits="userSpaceOnUse" x="1" y="1" width="16" height="16">
<path fill-rule="evenodd" clip-rule="evenodd" d="M7.84136 13.9991C4.40492 13.9991 1.61914 11.2133 1.61914 7.77691C1.61914 4.34047 4.40492 1.55469 7.84136 1.55469C11.2778 1.55469 14.0636 4.34047 14.0636 7.77691C14.0636 9.21505 13.5757 10.5392 12.7564 11.593L16.9463 15.7829L15.8464 16.8828L11.6563 12.6928C10.6028 13.5116 9.279 13.9991 7.84136 13.9991ZM12.5111 7.77702C12.5111 10.3543 10.4217 12.4437 7.8444 12.4437C5.26707 12.4437 3.17773 10.3543 3.17773 7.77702C3.17773 5.19969 5.26707 3.11035 7.8444 3.11035C10.4217 3.11035 12.5111 5.19969 12.5111 7.77702Z" fill="white"/>
</mask>
<g mask="url(#mask0_2075_89961)">
<rect x="0.0644531" width="18.6667" height="18.6667" fill="#D8DDE4"/>
</g>
</svg>
