<svg width="25" height="23" viewBox="0 0 25 23" fill="none" xmlns="http://www.w3.org/2000/svg">
<mask id="mask0_3593_23635" style="mask-type:luminance" maskUnits="userSpaceOnUse" x="2" y="1" width="20" height="20">
<path fill-rule="evenodd" clip-rule="evenodd" d="M10 17.2513C5.58172 17.2513 2 13.8188 2 9.58464C2 5.35045 5.58172 1.91797 10 1.91797C14.4183 1.91797 18 5.35045 18 9.58464C18 11.3574 17.3722 12.9896 16.3179 14.2883L21.7033 19.4492L20.2891 20.8045L14.9032 15.643C13.5489 16.6511 11.8476 17.2513 10 17.2513ZM16 9.58594C16 12.7616 13.3137 15.3359 10 15.3359C6.68629 15.3359 4 12.7616 4 9.58594C4 6.4103 6.68629 3.83594 10 3.83594C13.3137 3.83594 16 6.4103 16 9.58594Z" fill="white"/>
</mask>
<g mask="url(#mask0_3593_23635)">
<rect width="24.0481" height="22.0817" fill="#2F2F2F"/>
</g>
</svg>
