<svg width="22" height="22" viewBox="0 0 22 22" fill="none" xmlns="http://www.w3.org/2000/svg">
<mask id="mask0_2253_69545" style="mask-type:luminance" maskUnits="userSpaceOnUse" x="1" y="2" width="19" height="19">
<path fill-rule="evenodd" clip-rule="evenodd" d="M9.52088 8.06214C9.97522 7.45121 10.1381 6.80734 9.62429 6.239C8.47116 4.62902 7.69565 3.63341 7.20921 3.15395C6.28443 2.24243 4.76315 2.36573 3.96222 3.15317C3.53204 3.57611 3.3864 3.72135 2.94469 4.16901C0.484317 6.62528 1.98478 11.8177 5.97356 15.8016C9.96144 19.7846 15.1649 21.2826 17.6304 18.8211C18.038 18.429 18.3831 18.0845 18.6553 17.7975C19.4402 16.9697 19.5593 15.5187 18.6501 14.5761C18.184 14.0928 17.2325 13.3564 15.5511 12.1563C15.0361 11.6968 14.4255 11.7964 13.8657 12.1629C13.5964 12.3391 13.4004 12.5175 13.0304 12.887L12.3585 13.5579C12.27 13.6462 11.0682 13.0457 9.90164 11.8806C8.73444 10.7148 8.13302 9.51566 8.22111 9.42777L8.89352 8.75647C9.01092 8.63922 9.06705 8.58245 9.13903 8.50697C9.28899 8.3497 9.41316 8.20699 9.52088 8.06214ZM13.5997 14.7951L14.2717 14.1242C14.4754 13.9208 14.6074 13.7957 14.7147 13.7095C16.1877 14.7649 17.0407 15.4286 17.3892 15.7898C17.5984 16.0067 17.5659 16.4024 17.384 16.5942C17.1323 16.8597 16.8054 17.1861 16.4041 17.5723C14.8098 19.1637 10.6095 17.9545 7.21504 14.5643C3.81956 11.173 2.60828 6.98126 4.19054 5.40161C4.63047 4.95579 4.76985 4.81679 5.1939 4.39989C5.35289 4.24357 5.78597 4.20847 5.97939 4.39911C6.3539 4.76825 7.0486 5.6558 8.07056 7.07623C8.01765 7.14176 7.95157 7.21583 7.87116 7.30015C7.81214 7.36204 7.76297 7.41178 7.65548 7.51914L6.98373 8.18978C5.84095 9.32994 6.81418 11.2704 8.6636 13.1176C10.5117 14.9635 12.4573 15.9356 13.5997 14.7951Z" fill="white"/>
</mask>
<g mask="url(#mask0_2253_69545)">
<rect y="0.53125" width="21.0465" height="21" fill="#2F2F2F"/>
</g>
</svg>
