<svg width="21" height="22" viewBox="0 0 21 22" fill="none" xmlns="http://www.w3.org/2000/svg">
<g clip-path="url(#clip0_2253_69554)">
<path d="M9.57813 11.2656C9.80902 11.2656 10.0305 11.3578 10.1937 11.5219C10.357 11.686 10.4487 11.9086 10.4487 12.1406C10.4487 12.3727 10.357 12.5952 10.1937 12.7593C10.0305 12.9234 9.80902 13.0156 9.57813 13.0156H6.96631C6.73541 13.0156 6.51397 12.9234 6.3507 12.7593C6.18743 12.5952 6.0957 12.3727 6.0957 12.1406C6.0957 11.9086 6.18743 11.686 6.3507 11.5219C6.51397 11.3578 6.73541 11.2656 6.96631 11.2656H9.57813ZM14.8018 8.64062C14.8018 8.40856 14.71 8.186 14.5468 8.02191C14.3835 7.85781 14.1621 7.76562 13.9312 7.76562H6.96631C6.73541 7.76562 6.51397 7.85781 6.3507 8.02191C6.18743 8.186 6.0957 8.40856 6.0957 8.64062C6.0957 8.87269 6.18743 9.09525 6.3507 9.25934C6.51397 9.42344 6.73541 9.51562 6.96631 9.51562H13.9312C14.1621 9.51562 14.3835 9.42344 14.5468 9.25934C14.71 9.09525 14.8018 8.87269 14.8018 8.64062ZM6.96631 6.01562H13.9312C14.1621 6.01562 14.3835 5.92344 14.5468 5.75934C14.71 5.59525 14.8018 5.37269 14.8018 5.14062C14.8018 4.90856 14.71 4.686 14.5468 4.52191C14.3835 4.35781 14.1621 4.26562 13.9312 4.26562H6.96631C6.73541 4.26562 6.51397 4.35781 6.3507 4.52191C6.18743 4.686 6.0957 4.90856 6.0957 5.14062C6.0957 5.37269 6.18743 5.59525 6.3507 5.75934C6.51397 5.92344 6.73541 6.01562 6.96631 6.01562ZM17.4136 17.7791V21.133C17.4136 21.2578 17.3769 21.3799 17.3079 21.4837C17.2389 21.5875 17.1409 21.6684 17.0261 21.7161C16.9114 21.7639 16.7851 21.7764 16.6633 21.752C16.5415 21.7277 16.4296 21.6675 16.3419 21.5793L15.6724 20.9072L15.0029 21.5793C14.9151 21.6675 14.8032 21.7277 14.6814 21.752C14.5596 21.7764 14.4333 21.7639 14.3186 21.7161C14.2039 21.6684 14.1058 21.5875 14.0368 21.4837C13.9679 21.3799 13.9311 21.2578 13.9312 21.133V17.7791C13.2672 17.3957 12.748 16.8024 12.4545 16.0916C12.1609 15.3807 12.1095 14.5923 12.3082 13.849C12.5069 13.1058 12.9445 12.4494 13.553 11.9821C14.1615 11.5149 14.9066 11.263 15.6724 11.2656C15.9667 11.2693 16.2593 11.3111 16.543 11.3899V5.14062C16.543 4.44443 16.2678 3.77675 15.778 3.28447C15.2882 2.79219 14.6239 2.51562 13.9312 2.51562H6.96631C6.27361 2.51562 5.60929 2.79219 5.11948 3.28447C4.62967 3.77675 4.35449 4.44443 4.35449 5.14062V15.6406C4.35449 16.3368 4.62967 17.0045 5.11948 17.4968C5.60929 17.9891 6.27361 18.2656 6.96631 18.2656H11.3193C11.5502 18.2656 11.7717 18.3578 11.9349 18.5219C12.0982 18.686 12.1899 18.9086 12.1899 19.1406C12.1899 19.3727 12.0982 19.5952 11.9349 19.7593C11.7717 19.9234 11.5502 20.0156 11.3193 20.0156H6.96631C5.81224 20.0142 4.70583 19.5529 3.88978 18.7327C3.07373 17.9125 2.61466 16.8005 2.61328 15.6406V5.14062C2.61466 3.98073 3.07373 2.86874 3.88978 2.04857C4.70583 1.2284 5.81224 0.767014 6.96631 0.765625L13.9312 0.765625C15.0852 0.767014 16.1916 1.2284 17.0077 2.04857C17.8237 2.86874 18.2828 3.98073 18.2842 5.14062V12.4749C18.6252 12.8598 18.8763 13.3165 19.019 13.8115C19.1617 14.3065 19.1924 14.8274 19.109 15.3359C19.0255 15.8444 18.83 16.3278 18.5366 16.7505C18.2432 17.1732 17.8595 17.5247 17.4136 17.7791ZM17.4136 14.7656C17.4136 14.4195 17.3115 14.0812 17.1201 13.7934C16.9288 13.5056 16.6569 13.2813 16.3387 13.1488C16.0205 13.0164 15.6704 12.9817 15.3327 13.0493C14.9949 13.1168 14.6847 13.2834 14.4411 13.5282C14.1976 13.7729 14.0318 14.0848 13.9646 14.4242C13.8974 14.7637 13.9319 15.1156 14.0637 15.4353C14.1955 15.7551 14.4187 16.0284 14.705 16.2207C14.9913 16.413 15.328 16.5156 15.6724 16.5156C16.1342 16.5156 16.577 16.3313 16.9036 16.0031C17.2301 15.6749 17.4136 15.2298 17.4136 14.7656Z" fill="#2F2F2F"/>
</g>
<defs>
<clipPath id="clip0_2253_69554">
<rect width="20.8945" height="21" fill="white" transform="translate(0 0.765625)"/>
</clipPath>
</defs>
</svg>
