<svg width="22" height="21" viewBox="0 0 22 21" fill="none" xmlns="http://www.w3.org/2000/svg">
<mask id="mask0_2253_69532" style="mask-type:luminance" maskUnits="userSpaceOnUse" x="2" y="0" width="17" height="21">
<path fill-rule="evenodd" clip-rule="evenodd" d="M10.5213 20.4116L11.0981 19.9091C15.9484 15.6833 18.4138 11.9934 18.4138 8.75C18.4138 4.15683 14.8209 0.875 10.5213 0.875C6.22176 0.875 2.62891 4.15683 2.62891 8.75C2.62891 11.9934 5.09424 15.6833 9.94454 19.9091L10.5213 20.4116ZM10.5204 18.0805C6.40455 14.3794 4.3818 11.2431 4.3818 8.75C4.3818 5.15953 7.15653 2.625 10.5204 2.625C13.8842 2.625 16.6589 5.15953 16.6589 8.75C16.6589 11.2431 14.6362 14.3794 10.5204 18.0805ZM10.5223 4.375C12.9439 4.375 14.907 6.33375 14.907 8.75C14.907 11.1662 12.9439 13.125 10.5223 13.125C8.10072 13.125 6.13763 11.1662 6.13763 8.75C6.13763 6.33375 8.10072 4.375 10.5223 4.375ZM7.89052 8.74996C7.89052 7.30021 9.06837 6.12496 10.5213 6.12496C11.9743 6.12496 13.1521 7.30021 13.1521 8.74996C13.1521 10.1997 11.9743 11.375 10.5213 11.375C9.06837 11.375 7.89052 10.1997 7.89052 8.74996Z" fill="white"/>
</mask>
<g mask="url(#mask0_2253_69532)">
<rect y="-0.234375" width="21.0465" height="21" fill="#2F2F2F"/>
</g>
</svg>
