<svg width="19" height="22" viewBox="0 0 19 22" fill="none" xmlns="http://www.w3.org/2000/svg">
<path d="M3.12034 20.9487C4.26116 20.9487 5.18598 20.0245 5.18598 18.8845C5.18598 17.7445 4.26116 16.8203 3.12034 16.8203C1.97951 16.8203 1.05469 17.7445 1.05469 18.8845C1.05469 20.0245 1.97951 20.9487 3.12034 20.9487Z" stroke="#36B4F1" stroke-width="1.9" stroke-linecap="round" stroke-linejoin="round"/>
<path d="M15.1477 6.09714C16.2885 6.09714 17.2133 5.17297 17.2133 4.03294C17.2133 2.89292 16.2885 1.96875 15.1477 1.96875C14.0069 1.96875 13.082 2.89292 13.082 4.03294C13.082 5.17297 14.0069 6.09714 15.1477 6.09714Z" stroke="#36B4F1" stroke-width="1.9" stroke-linecap="round" stroke-linejoin="round"/>
<path d="M6.71875 0.976562L9.95831 3.99482L6.65044 7.06624" stroke="#36B4F1" stroke-width="1.5" stroke-linecap="round" stroke-linejoin="round"/>
<path d="M8.31571 18.7151H12.9634C13.9221 18.7151 14.8416 18.3345 15.5195 17.6571C16.1974 16.9796 16.5783 16.0608 16.5783 15.1027C16.5783 14.1447 16.1974 13.2258 15.5195 12.5484C14.8416 11.8709 13.9221 11.4904 12.9634 11.4904H4.70082C3.74209 11.4904 2.82264 11.1098 2.14471 10.4323C1.46679 9.75487 1.08594 8.83605 1.08594 7.87799C1.08594 6.91993 1.46679 6.00111 2.14471 5.32366C2.82264 4.64621 3.74209 4.26563 4.70082 4.26562H8.31571" stroke="#36B4F1" stroke-width="1.9" stroke-linecap="round" stroke-linejoin="round"/>
</svg>
