<svg width="24" height="24" viewBox="0 0 24 24" fill="none" xmlns="http://www.w3.org/2000/svg">
<path d="M1.02857 7H22.8946C23.8409 7 24 6.6401 24 5.7C24 4.7599 23.9177 4 22.9714 4H1.02857C0.0822855 4 0 4.7599 0 5.7C0 6.6401 0.0822855 7 1.02857 7Z" fill="#C4D1DB"/>
<path d="M1.02857 14H22.8946C23.8409 14 24 13.6401 24 12.7C24 11.7599 23.9177 11 22.9714 11H1.02857C0.0822855 11 0 11.7599 0 12.7C0 13.6401 0.0822855 14 1.02857 14Z" fill="#C4D1DB"/>
<path d="M1.02857 21H22.8946C23.8409 21 24 20.6401 24 19.7C24 18.7599 23.9177 18 22.9714 18H1.02857C0.0822855 18 0 18.7599 0 19.7C0 20.6401 0.0822855 21 1.02857 21Z" fill="#C4D1DB"/>
</svg>
