<svg width="20" height="20" viewBox="0 0 20 20" fill="none" xmlns="http://www.w3.org/2000/svg">
<mask id="mask0_3369_9086" style="mask-type:luminance" maskUnits="userSpaceOnUse" x="1" y="1" width="17" height="18">
<path fill-rule="evenodd" clip-rule="evenodd" d="M8.1834 14.9974C4.61307 14.9974 1.71875 12.0126 1.71875 8.33073C1.71875 4.64883 4.61307 1.66406 8.1834 1.66406C11.7537 1.66406 14.648 4.64883 14.648 8.33073C14.648 9.87034 14.142 11.2881 13.292 12.4166L17.6456 16.9063L16.5028 18.0848L12.1497 13.5956C11.0546 14.4742 9.67826 14.9974 8.1834 14.9974ZM13.0349 8.32812C13.0349 11.0895 10.8641 13.3281 8.18638 13.3281C5.50863 13.3281 3.33789 11.0895 3.33789 8.32812C3.33789 5.5667 5.50863 3.32812 8.18638 3.32812C10.8641 3.32812 13.0349 5.5667 13.0349 8.32812Z" fill="white"/>
</mask>
<g mask="url(#mask0_3369_9086)">
<rect x="0.103516" width="19.3939" height="20" fill="#D8DDE4"/>
</g>
</svg>
