<svg width="17" height="17" viewBox="0 0 17 17" fill="none" xmlns="http://www.w3.org/2000/svg">
<path d="M11.3333 2.84548C12.1236 2.87765 12.8893 3.12972 13.5441 3.57333C14.199 4.01695 14.7171 4.63451 15.04 5.35652L16.1224 7.79107H12.0417C11.8538 7.79107 11.6736 7.71644 11.5408 7.5836C11.408 7.45076 11.3333 7.2706 11.3333 7.08273V2.84548ZM6.33392 14.8744C6.35986 14.9907 6.37363 15.1094 6.375 15.2286C6.375 15.6982 6.18843 16.1486 5.85633 16.4807C5.52424 16.8128 5.07382 16.9994 4.60417 16.9994C4.13451 16.9994 3.68409 16.8128 3.352 16.4807C3.0199 16.1486 2.83333 15.6982 2.83333 15.2286C2.8347 15.1094 2.84847 14.9907 2.87442 14.8744H6.33392ZM14.1256 14.8744C14.1515 14.9907 14.1653 15.1094 14.1667 15.2286C14.1667 15.6982 13.9801 16.1486 13.648 16.4807C13.3159 16.8128 12.8655 16.9994 12.3958 16.9994C11.9262 16.9994 11.4758 16.8128 11.1437 16.4807C10.8116 16.1486 10.625 15.6982 10.625 15.2286C10.6264 15.1094 10.6401 14.9907 10.6661 14.8744H14.1256ZM17 11.4192C17.0029 11.695 16.9492 11.9686 16.8423 12.223C16.7354 12.4773 16.5776 12.7071 16.3785 12.8981C16.1794 13.0891 15.9432 13.2373 15.6847 13.3336C15.4261 13.4298 15.1505 13.4721 14.875 13.4577H2.125C1.56141 13.4577 1.02091 13.2339 0.622398 12.8353C0.223883 12.4368 0 11.8963 0 11.3327L0 6.3744C0.00112473 5.43544 0.374625 4.53525 1.03857 3.87131C1.70252 3.20736 2.6027 2.83386 3.54167 2.83273H6.51667L6.98417 0.961316C7.05312 0.686661 7.21184 0.442908 7.43513 0.268747C7.65842 0.0945871 7.93349 0 8.21667 0C8.49985 0 8.77491 0.0945871 8.9982 0.268747C9.22149 0.442908 9.38021 0.686661 9.44917 0.961316L9.91667 2.83273V7.08273C9.91667 7.64632 10.1405 8.18682 10.5391 8.58534C10.9376 8.98385 11.4781 9.20773 12.0417 9.20773H16.672C16.8535 9.93236 16.9633 10.6731 17 11.4192ZM7.08333 8.4994C7.08333 8.31154 7.00871 8.13137 6.87587 7.99853C6.74303 7.86569 6.56286 7.79107 6.375 7.79107H5.66667V7.08273C5.66667 6.89487 5.59204 6.7147 5.4592 6.58187C5.32636 6.44903 5.14619 6.3744 4.95833 6.3744C4.77047 6.3744 4.5903 6.44903 4.45747 6.58187C4.32463 6.7147 4.25 6.89487 4.25 7.08273V7.79107H3.54167C3.3538 7.79107 3.17364 7.86569 3.0408 7.99853C2.90796 8.13137 2.83333 8.31154 2.83333 8.4994C2.83333 8.68726 2.90796 8.86743 3.0408 9.00027C3.17364 9.13311 3.3538 9.20773 3.54167 9.20773H4.25V9.91607C4.25 10.1039 4.32463 10.2841 4.45747 10.4169C4.5903 10.5498 4.77047 10.6244 4.95833 10.6244C5.14619 10.6244 5.32636 10.5498 5.4592 10.4169C5.59204 10.2841 5.66667 10.1039 5.66667 9.91607V9.20773H6.375C6.56286 9.20773 6.74303 9.13311 6.87587 9.00027C7.00871 8.86743 7.08333 8.68726 7.08333 8.4994Z" fill="white"/>
</svg>
