<svg width="15" height="17" viewBox="0 0 15 17" fill="none" xmlns="http://www.w3.org/2000/svg">
<path d="M7.49956 0.03125C5.62527 0.033312 3.82833 0.778737 2.50293 2.104C1.17754 3.42925 0.431937 5.22612 0.429688 7.10042C0.429687 8.92083 1.83927 11.7697 4.61948 15.5678C4.95046 16.0213 5.38381 16.3901 5.88428 16.6444C6.38475 16.8987 6.93819 17.0313 7.49956 17.0313C8.06094 17.0313 8.61438 16.8987 9.11485 16.6444C9.61531 16.3901 10.0487 16.0213 10.3796 15.5678C13.1599 11.7697 14.5694 8.92083 14.5694 7.10042C14.5672 5.22612 13.8216 3.42925 12.4962 2.104C11.1708 0.778737 9.37385 0.033312 7.49956 0.03125ZM7.49956 9.91817C6.93918 9.91817 6.39139 9.75199 5.92545 9.44066C5.45951 9.12933 5.09635 8.68683 4.8819 8.1691C4.66746 7.65138 4.61135 7.08169 4.72067 6.53208C4.83 5.98246 5.09984 5.47761 5.49609 5.08136C5.89234 4.68511 6.39719 4.41527 6.94681 4.30594C7.49642 4.19662 8.06611 4.25273 8.58383 4.46717C9.10156 4.68162 9.54406 5.04478 9.85539 5.51072C10.1667 5.97666 10.3329 6.52445 10.3329 7.08483C10.3329 7.83628 10.0344 8.55695 9.50303 9.0883C8.97168 9.61965 8.25101 9.91817 7.49956 9.91817Z" fill="white"/>
</svg>
