<svg width="28" height="32" viewBox="0 0 28 32" fill="none" xmlns="http://www.w3.org/2000/svg">
<path d="M22.776 2.85341L14.4226 0.0680769C14.1491 -0.0230178 13.8535 -0.0230178 13.58 0.0680769L5.22531 2.85341C3.89743 3.29481 2.7424 4.14341 1.92429 5.27866C1.10618 6.41391 0.666594 7.77809 0.667972 9.17741V16.0001C0.667972 26.0841 12.9346 31.6534 13.46 31.8854C13.6304 31.9611 13.8148 32.0002 14.0013 32.0002C14.1878 32.0002 14.3722 31.9611 14.5426 31.8854C15.068 31.6534 27.3346 26.0841 27.3346 16.0001V9.17741C27.3359 7.77793 26.8961 6.41363 26.0778 5.27836C25.2594 4.14309 24.1041 3.29458 22.776 2.85341ZM14.0013 25.3334C13.7376 25.3334 13.4798 25.2552 13.2605 25.1087C13.0413 24.9622 12.8704 24.754 12.7695 24.5103C12.6685 24.2667 12.6421 23.9986 12.6936 23.74C12.745 23.4813 12.872 23.2437 13.0585 23.0573C13.245 22.8708 13.4825 22.7438 13.7412 22.6924C13.9998 22.6409 14.2679 22.6673 14.5115 22.7682C14.7552 22.8692 14.9634 23.04 15.1099 23.2593C15.2564 23.4786 15.3346 23.7364 15.3346 24.0001C15.3346 24.3537 15.1942 24.6928 14.9441 24.9429C14.6941 25.1929 14.3549 25.3334 14.0013 25.3334ZM15.3346 18.6667C15.3346 19.0204 15.1942 19.3595 14.9441 19.6096C14.6941 19.8596 14.3549 20.0001 14.0013 20.0001C13.6477 20.0001 13.3085 19.8596 13.0585 19.6096C12.8084 19.3595 12.668 19.0204 12.668 18.6667V8.00008C12.668 7.64645 12.8084 7.30732 13.0585 7.05727C13.3085 6.80722 13.6477 6.66674 14.0013 6.66674C14.3549 6.66674 14.6941 6.80722 14.9441 7.05727C15.1942 7.30732 15.3346 7.64645 15.3346 8.00008V18.6667Z" fill="white"/>
</svg>
