<svg width="29" height="29" viewBox="0 0 29 29" fill="none" xmlns="http://www.w3.org/2000/svg">
<path d="M20.3 -0.691406C21.1004 -0.691406 21.75 -0.0418063 21.75 0.758594V5.10859H27.55C28.3504 5.10859 29 5.75819 29 6.55859V26.8586C29 27.659 28.3504 28.3086 27.55 28.3086H1.45C0.6496 28.3086 0 27.659 0 26.8586V6.55859C0 5.75819 0.6496 5.10859 1.45 5.10859H7.25V0.758594C7.25 -0.0418063 7.8996 -0.691406 8.7 -0.691406H20.3ZM15.95 10.9086H13.05V15.2586H8.7V18.1586H13.0485L13.05 22.5086H15.95L15.9485 18.1586H20.3V15.2586H15.95V10.9086ZM18.85 2.20859H10.15V5.10859H18.85V2.20859Z" fill="white"/>
</svg>
