<svg width="29" height="28" viewBox="0 0 29 28" fill="none" xmlns="http://www.w3.org/2000/svg">
<path d="M0.724193 9.97715C0.472802 9.51087 0.356336 8.98374 0.387866 8.45494C0.419397 7.92615 0.597674 7.4166 0.902693 6.98349C1.40116 6.25212 2.06871 5.65181 2.84869 5.23349L11.5999 0.67882C12.46 0.231556 13.4152 -0.00195313 14.3847 -0.00195312C15.3542 -0.00195313 16.3094 0.231556 17.1695 0.67882L25.9195 5.23699C26.6995 5.65531 27.3671 6.25562 27.8655 6.98699C28.1705 7.4201 28.3488 7.92965 28.3804 8.45844C28.4119 8.98724 28.2954 9.51437 28.044 9.98065C27.7734 10.4926 27.3675 10.9205 26.8705 11.2178C26.3735 11.515 25.8044 11.6702 25.2254 11.6665H3.54403C2.96438 11.6701 2.39487 11.5145 1.89761 11.2166C1.40036 10.9187 0.994461 10.4899 0.724193 9.97715ZM27.218 25.6665C27.218 25.0476 26.9722 24.4542 26.5346 24.0166C26.097 23.579 25.5035 23.3332 24.8847 23.3332V13.9998H22.5514V23.3332H19.0514V13.9998H16.718V23.3332H12.0514V13.9998H9.71803V23.3332H6.21803V13.9998H3.88469V23.3332C3.26585 23.3332 2.67236 23.579 2.23478 24.0166C1.79719 24.4542 1.55136 25.0476 1.55136 25.6665C1.24194 25.6665 0.945194 25.7894 0.726401 26.0082C0.507609 26.227 0.384693 26.5237 0.384693 26.8332C0.384693 27.1426 0.507609 27.4393 0.726401 27.6581C0.945194 27.8769 1.24194 27.9998 1.55136 27.9998H27.218C27.5274 27.9998 27.8242 27.8769 28.043 27.6581C28.2618 27.4393 28.3847 27.1426 28.3847 26.8332C28.3847 26.5237 28.2618 26.227 28.043 26.0082C27.8242 25.7894 27.5274 25.6665 27.218 25.6665Z" fill="white"/>
</svg>
