<svg width="18" height="20" viewBox="0 0 18 20" fill="none" xmlns="http://www.w3.org/2000/svg">
<path d="M16.2977 7.2132C15.6836 6.53487 14.7577 6.1407 13.4744 6.0032V5.30653C13.4744 4.0507 12.9427 2.8407 12.0077 1.99737C11.0636 1.1357 9.83523 0.732368 8.56107 0.851535C6.37024 1.06237 4.52774 3.17987 4.52774 5.47153V6.0032C3.2444 6.1407 2.31857 6.53487 1.7044 7.2132C0.815236 8.2032 0.842736 9.5232 0.943569 10.4399L1.58524 15.5457C1.77774 17.3332 2.5019 19.1665 6.44357 19.1665H11.5586C15.5002 19.1665 16.2244 17.3332 16.4169 15.5549L17.0586 10.4307C17.1594 9.5232 17.1777 8.2032 16.2977 7.2132ZM8.6894 2.1257C9.60607 2.0432 10.4769 2.32737 11.1552 2.94153C11.8244 3.54653 12.2002 4.4082 12.2002 5.30653V5.9482H5.8019V5.47153C5.8019 3.83987 7.1494 2.27237 8.6894 2.1257ZM5.7194 11.054H5.71024C5.20607 11.054 4.79357 10.6415 4.79357 10.1374C4.79357 9.6332 5.20607 9.2207 5.71024 9.2207C6.22357 9.2207 6.63607 9.6332 6.63607 10.1374C6.63607 10.6415 6.22357 11.054 5.7194 11.054ZM12.1361 11.054H12.1269C11.6227 11.054 11.2102 10.6415 11.2102 10.1374C11.2102 9.6332 11.6227 9.2207 12.1269 9.2207C12.6402 9.2207 13.0527 9.6332 13.0527 10.1374C13.0527 10.6415 12.6402 11.054 12.1361 11.054Z" fill="white"/>
</svg>
