<svg width="28" height="28" viewBox="0 0 28 28" fill="none" xmlns="http://www.w3.org/2000/svg">
<path d="M24.5 1.16797H3.5C2.57174 1.16797 1.6815 1.53672 1.02513 2.19309C0.368749 2.84947 0 3.73971 0 4.66797L0 26.8346H28V4.66797C28 3.73971 27.6313 2.84947 26.9749 2.19309C26.3185 1.53672 25.4283 1.16797 24.5 1.16797ZM3.5 3.5013H24.5C24.8094 3.5013 25.1062 3.62422 25.325 3.84301C25.5438 4.0618 25.6667 4.35855 25.6667 4.66797V8.16797H2.33333V4.66797C2.33333 4.35855 2.45625 4.0618 2.67504 3.84301C2.89383 3.62422 3.19058 3.5013 3.5 3.5013ZM2.33333 24.5013V10.5013H25.6667V24.5013H2.33333ZM5.83333 14.0013H22.1667V16.3346H5.83333V14.0013ZM5.83333 18.668H17.5V21.0013H5.83333V18.668Z" fill="white"/>
</svg>
