<svg width="20" height="20" viewBox="0 0 20 20" fill="none" xmlns="http://www.w3.org/2000/svg">
<g id="Group">
<path id="Vector" d="M15.8978 2.13341V0.769225C15.8978 0.494327 15.7512 0.240386 15.5132 0.103023C15.2752 -0.0343409 14.9819 -0.0343409 14.744 0.103023C14.506 0.240386 14.3593 0.494335 14.3593 0.769225V2.05134H5.64104V0.769225C5.64104 0.494327 5.4944 0.240386 5.25642 0.103023C5.01844 -0.0343409 4.72516 -0.0343409 4.48718 0.103023C4.2492 0.240386 4.10256 0.494335 4.10256 0.769225V2.13341C3.09275 2.29567 2.15938 2.77113 1.43446 3.49263C0.709352 4.21395 0.229085 5.14495 0.0615234 6.15388H19.9386C19.771 5.14495 19.2908 4.21395 18.5657 3.49263C17.8407 2.77113 16.9073 2.2957 15.8976 2.13341H15.8978Z" fill="#D8DDE4"/>
<path id="Vector_2" d="M0 7.69238V15.1285C0 16.4206 0.513234 17.6598 1.42687 18.5734C2.3405 19.487 3.57972 20.0003 4.87177 20.0003H15.1286C16.4206 20.0003 17.6598 19.487 18.5735 18.5734C19.4871 17.6598 20.0003 16.4205 20.0003 15.1285V7.69238H0Z" fill="#D8DDE4"/>
</g>
</svg>
