<svg width="24" height="25" viewBox="0 0 24 25" fill="none" xmlns="http://www.w3.org/2000/svg">
<g clip-path="url(#clip0_2210_40370)">
<path d="M17.9 2.5V2.6H18H18.9999C20.299 2.60156 21.5445 3.11832 22.4631 4.03693C23.3817 4.95554 23.8984 6.201 23.9 7.50012V19.4999C23.8984 20.799 23.3817 22.0445 22.4631 22.9631C21.5445 23.8817 20.299 24.3984 18.9999 24.4H5.00012C3.701 24.3984 2.45554 23.8817 1.53693 22.9631C0.618317 22.0445 0.101556 20.799 0.0999999 19.4999L0.1 7.50006C0.101572 6.20097 0.618332 4.95553 1.53693 4.03693C2.45554 3.11832 3.701 2.60156 5.00012 2.6H6H6.1V2.5V1.5C6.1 1.26131 6.19482 1.03239 6.3636 0.863604C6.53239 0.694821 6.76131 0.6 7 0.6C7.23869 0.6 7.46761 0.694821 7.6364 0.863604C7.80518 1.03239 7.9 1.26131 7.9 1.5V2.5V2.6H8H16H16.1V2.5V1.5C16.1 1.26131 16.1948 1.03239 16.3636 0.863604C16.5324 0.694821 16.7613 0.6 17 0.6C17.2387 0.6 17.4676 0.694821 17.6364 0.863604C17.8052 1.03239 17.9 1.26131 17.9 1.5V2.5ZM22 8.6H22.1V8.5V7.5C22.1 6.67783 21.7734 5.88933 21.192 5.30797C20.6107 4.72661 19.8222 4.4 19 4.4H5C4.17783 4.4 3.38933 4.72661 2.80797 5.30797C2.22661 5.88933 1.9 6.67783 1.9 7.5V8.5V8.6H2H22ZM2 10.4H1.9V10.5V19.5C1.9 20.3222 2.22661 21.1107 2.80797 21.692C3.38933 22.2734 4.17783 22.6 5 22.6H19C19.8222 22.6 20.6107 22.2734 21.192 21.692C21.7734 21.1107 22.1 20.3222 22.1 19.5V10.5V10.4H22H2Z" fill="#36B4F1" stroke="white" stroke-width="0.2"/>
<path d="M13.4 15.5C13.4 16.2732 12.7732 16.9 12 16.9C11.2268 16.9 10.6 16.2732 10.6 15.5C10.6 14.7268 11.2268 14.1 12 14.1C12.7732 14.1 13.4 14.7268 13.4 15.5Z" fill="#36B4F1" stroke="white" stroke-width="0.2"/>
<path d="M8.4 15.5C8.4 16.2732 7.7732 16.9 7 16.9C6.2268 16.9 5.6 16.2732 5.6 15.5C5.6 14.7268 6.2268 14.1 7 14.1C7.7732 14.1 8.4 14.7268 8.4 15.5Z" fill="#36B4F1" stroke="white" stroke-width="0.2"/>
<path d="M18.4 15.5C18.4 16.2732 17.7732 16.9 17 16.9C16.2268 16.9 15.6 16.2732 15.6 15.5C15.6 14.7268 16.2268 14.1 17 14.1C17.7732 14.1 18.4 14.7268 18.4 15.5Z" fill="#36B4F1" stroke="white" stroke-width="0.2"/>
</g>
<defs>
<clipPath id="clip0_2210_40370">
<rect width="24" height="24" fill="white" transform="translate(0 0.5)"/>
</clipPath>
</defs>
</svg>
