<svg width="24" height="24" viewBox="0 0 24 24" fill="none" xmlns="http://www.w3.org/2000/svg">
<mask id="mask0_3342_59507" style="mask-type:luminance" maskUnits="userSpaceOnUse" x="1" y="2" width="21" height="21">
<path fill-rule="evenodd" clip-rule="evenodd" d="M10.8575 8.33888C11.3756 7.64067 11.5614 6.90482 10.9754 6.25528C9.66046 4.41531 8.77612 3.27747 8.22142 2.72951C7.16686 1.68778 5.43209 1.82869 4.51877 2.72862C4.02821 3.21199 3.86214 3.37797 3.35844 3.88959C0.552792 6.69674 2.26382 12.631 6.81237 17.184C11.3599 21.736 17.2935 23.4479 20.1051 20.6348C20.5699 20.1867 20.9634 19.793 21.2738 19.465C22.1688 18.5189 22.3047 16.8607 21.2679 15.7834C20.7363 15.2311 19.6513 14.3894 17.7339 13.0179C17.1467 12.4928 16.4504 12.6066 15.812 13.0254C15.5049 13.2269 15.2815 13.4307 14.8595 13.853L14.0933 14.6197C13.9924 14.7207 12.622 14.0344 11.2917 12.7028C9.96069 11.3705 9.27487 10 9.37532 9.89959L10.1421 9.1324C10.276 8.99839 10.34 8.93351 10.4221 8.84725C10.5931 8.66752 10.7347 8.50441 10.8575 8.33888ZM15.5048 16.0339L16.2712 15.2671C16.5034 15.0346 16.6539 14.8917 16.7763 14.7932C18.456 15.9994 19.4288 16.7578 19.8261 17.1707C20.0646 17.4185 20.0276 17.8708 19.8202 18.09C19.5332 18.3934 19.1603 18.7664 18.7028 19.2078C16.8847 21.0266 12.0949 19.6446 8.22416 15.7701C4.35217 11.8943 2.97091 7.10376 4.77522 5.29845C5.27689 4.78894 5.43583 4.63008 5.91938 4.15362C6.10069 3.97497 6.59455 3.93486 6.8151 4.15273C7.24217 4.5746 8.03437 5.58896 9.19974 7.2123C9.13941 7.2872 9.06406 7.37184 8.97236 7.46821C8.90506 7.53894 8.84899 7.59578 8.72641 7.71848L7.96039 8.48492C6.65724 9.78797 7.76705 12.0057 9.876 14.1167C11.9835 16.2263 14.2021 17.3373 15.5048 16.0339Z" fill="white"/>
</mask>
<g mask="url(#mask0_3342_59507)">
<rect width="24" height="24" fill="#36B4F1"/>
</g>
</svg>
