<svg width="11" height="19" viewBox="0 0 11 19" fill="none" xmlns="http://www.w3.org/2000/svg">
<path d="M8.22926 18.0957L8.22964 18.0961C8.74907 18.6349 9.59798 18.6342 10.1176 18.0965L10.1176 18.0965L10.1181 18.0961C10.6272 17.5679 10.6273 16.7179 10.1183 16.1896C10.1182 16.1895 10.1181 16.1894 10.1181 16.1893L3.68421 9.5004L10.1173 2.8115L9.75728 2.46449L10.1177 2.81108L10.1175 2.81121C10.6267 2.28267 10.626 1.43307 10.1177 0.904402L10.1173 0.903946C9.59808 0.365349 8.74801 0.365349 8.22883 0.903946L8.22845 0.904341L0.877775 8.54665L0.877313 8.54714C0.374272 9.07154 0.373615 9.92961 0.879013 10.4538L8.22926 18.0957Z" fill="#2F2F2F" stroke="#EEF3F7"/>
</svg>
