<svg width="34" height="34" viewBox="0 0 34 34" fill="none" xmlns="http://www.w3.org/2000/svg">
<path d="M25.557 19.1971C24.962 19.778 24.622 20.6138 24.707 21.5063C24.8345 23.0363 26.237 24.1555 27.767 24.1555H30.4587V25.8413C30.4587 28.7738 28.0645 31.168 25.132 31.168H8.86866C5.93616 31.168 3.54199 28.7738 3.54199 25.8413V16.3071C3.54199 13.3746 5.93616 10.9805 8.86866 10.9805H25.132C28.0645 10.9805 30.4587 13.3746 30.4587 16.3071V18.3472H27.597C26.8037 18.3472 26.0812 18.6588 25.557 19.1971Z" stroke="#36B4F1" stroke-width="2.5" stroke-linecap="round" stroke-linejoin="round"/>
<path d="M3.54199 17.5813V11.1072C3.54199 9.42141 4.57616 7.91968 6.14866 7.32468L17.397 3.07468C19.1537 2.40885 21.0378 3.71222 21.0378 5.59639V10.9797" stroke="#36B4F1" stroke-width="2.5" stroke-linecap="round" stroke-linejoin="round"/>
<path d="M31.9586 19.7926V22.711C31.9586 23.4902 31.3353 24.1276 30.542 24.156H27.7653C26.2353 24.156 24.8328 23.0368 24.7053 21.5068C24.6203 20.6143 24.9603 19.7785 25.5553 19.1976C26.0795 18.6593 26.802 18.3477 27.5953 18.3477H30.542C31.3353 18.376 31.9586 19.0134 31.9586 19.7926Z" stroke="#36B4F1" stroke-width="2.5" stroke-linecap="round" stroke-linejoin="round"/>
<path d="M9.91699 17H19.8337" stroke="#36B4F1" stroke-width="2.5" stroke-linecap="round" stroke-linejoin="round"/>
</svg>
