<svg width="29" height="28" viewBox="0 0 29 28" fill="none" xmlns="http://www.w3.org/2000/svg">
<g clip-path="url(#clip0_1705_81034)">
<path d="M22.5495 5.83268H19.0495V4.66602C19.0495 3.73776 18.6807 2.84752 18.0244 2.19114C17.368 1.53476 16.4777 1.16602 15.5495 1.16602H13.2161C12.2879 1.16602 11.3976 1.53476 10.7413 2.19114C10.0849 2.84752 9.71615 3.73776 9.71615 4.66602V5.83268H6.21615C4.66962 5.83453 3.18696 6.44971 2.0934 7.54327C0.999841 8.63683 0.384665 10.1195 0.382813 11.666L0.382812 20.9993C0.384665 22.5459 0.999841 24.0285 2.0934 25.1221C3.18696 26.2157 4.66962 26.8308 6.21615 26.8327H22.5495C24.096 26.8308 25.5787 26.2157 26.6722 25.1221C27.7658 24.0285 28.381 22.5459 28.3828 20.9993V11.666C28.381 10.1195 27.7658 8.63683 26.6722 7.54327C25.5787 6.44971 24.096 5.83453 22.5495 5.83268ZM12.0495 4.66602C12.0495 4.3566 12.1724 4.05985 12.3912 3.84106C12.61 3.62227 12.9067 3.49935 13.2161 3.49935H15.5495C15.8589 3.49935 16.1556 3.62227 16.3744 3.84106C16.5932 4.05985 16.7161 4.3566 16.7161 4.66602V5.83268H12.0495V4.66602ZM17.8828 17.4993H15.5495V19.8327C15.5495 20.1421 15.4266 20.4388 15.2078 20.6576C14.989 20.8764 14.6922 20.9993 14.3828 20.9993C14.0734 20.9993 13.7766 20.8764 13.5579 20.6576C13.3391 20.4388 13.2161 20.1421 13.2161 19.8327V17.4993H10.8828C10.5734 17.4993 10.2766 17.3764 10.0579 17.1576C9.83906 16.9388 9.71615 16.6421 9.71615 16.3327C9.71615 16.0233 9.83906 15.7265 10.0579 15.5077C10.2766 15.2889 10.5734 15.166 10.8828 15.166H13.2161V12.8327C13.2161 12.5233 13.3391 12.2265 13.5579 12.0077C13.7766 11.7889 14.0734 11.666 14.3828 11.666C14.6922 11.666 14.989 11.7889 15.2078 12.0077C15.4266 12.2265 15.5495 12.5233 15.5495 12.8327V15.166H17.8828C18.1922 15.166 18.489 15.2889 18.7078 15.5077C18.9266 15.7265 19.0495 16.0233 19.0495 16.3327C19.0495 16.6421 18.9266 16.9388 18.7078 17.1576C18.489 17.3764 18.1922 17.4993 17.8828 17.4993Z" fill="white"/>
</g>
<defs>
<clipPath id="clip0_1705_81034">
<rect width="28" height="28" fill="white" transform="translate(0.382812)"/>
</clipPath>
</defs>
</svg>
