<svg width="42" height="42" viewBox="0 0 42 42" fill="none" xmlns="http://www.w3.org/2000/svg">
<path d="M27.6498 3.86834C26.9323 3.15084 25.6898 3.64084 25.6898 4.63834V10.7458C25.6898 13.3008 27.8598 15.4183 30.5023 15.4183C32.1648 15.4358 34.4748 15.4358 36.4523 15.4358C37.4498 15.4358 37.9748 14.2633 37.2748 13.5633C34.7548 11.0258 30.2398 6.45834 27.6498 3.86834Z" fill="white"/>
<path d="M35.875 17.8325H30.8175C26.67 17.8325 23.2925 14.455 23.2925 10.3075V5.25C23.2925 4.2875 22.505 3.5 21.5425 3.5H14.1225C8.7325 3.5 4.375 7 4.375 13.2475V28.7525C4.375 35 8.7325 38.5 14.1225 38.5H27.8775C33.2675 38.5 37.625 35 37.625 28.7525V19.5825C37.625 18.62 36.8375 17.8325 35.875 17.8325ZM20.125 31.0625H13.125C12.4075 31.0625 11.8125 30.4675 11.8125 29.75C11.8125 29.0325 12.4075 28.4375 13.125 28.4375H20.125C20.8425 28.4375 21.4375 29.0325 21.4375 29.75C21.4375 30.4675 20.8425 31.0625 20.125 31.0625ZM23.625 24.0625H13.125C12.4075 24.0625 11.8125 23.4675 11.8125 22.75C11.8125 22.0325 12.4075 21.4375 13.125 21.4375H23.625C24.3425 21.4375 24.9375 22.0325 24.9375 22.75C24.9375 23.4675 24.3425 24.0625 23.625 24.0625Z" fill="white"/>
</svg>
