<svg width="40" height="40" viewBox="0 0 40 40" fill="none" xmlns="http://www.w3.org/2000/svg">
<circle cx="20" cy="20" r="20" fill="#36B4F1"/>
<g clip-path="url(#clip0_2154_57980)">
<path d="M31.0007 20.5646C31.0007 14.7293 26.2993 9.99902 20.5007 9.99902C14.6994 10.0003 9.99805 14.7293 9.99805 20.566C9.99805 25.8383 13.8384 30.2089 18.8574 31.0016V23.6188H16.193V20.566H18.86V18.2363C18.86 15.589 20.4285 14.1268 22.8264 14.1268C23.9762 14.1268 25.1771 14.3329 25.1771 14.3329V16.9316H23.8528C22.5495 16.9316 22.1426 17.7467 22.1426 18.5828V20.5646H25.0537L24.5891 23.6175H22.1413V31.0003C27.1603 30.2076 31.0007 25.837 31.0007 20.5646Z" fill="white"/>
</g>
<defs>
<clipPath id="clip0_2154_57980">
<rect width="21" height="21" fill="white" transform="translate(10 10)"/>
</clipPath>
</defs>
</svg>
