<svg width="25" height="24" viewBox="0 0 25 24" fill="none" xmlns="http://www.w3.org/2000/svg">
<g clip-path="url(#clip0_3611_53357)">
<path d="M4.79872 4.71092L4.76864 4.60026H4.65397H1.91797C1.69253 4.60026 1.47633 4.51071 1.31693 4.3513C1.15752 4.19189 1.06797 3.97569 1.06797 3.75026C1.06797 3.52482 1.15752 3.30862 1.31693 3.14922C1.47633 2.98981 1.69253 2.90026 1.91797 2.90026H4.65397H4.76864L4.79872 2.7896C5.00472 2.03164 5.4544 1.36253 6.0784 0.885494C6.70239 0.408456 7.46602 0.15 8.25147 0.15C9.03692 0.15 9.80055 0.408456 10.4245 0.885494C11.0485 1.36253 11.4982 2.03164 11.7042 2.7896L11.7343 2.90026H11.849H23.918C24.1434 2.90026 24.3596 2.98981 24.519 3.14922C24.6784 3.30862 24.768 3.52482 24.768 3.75026C24.768 3.97569 24.6784 4.19189 24.519 4.3513C24.3596 4.51071 24.1434 4.60026 23.918 4.60026H11.849H11.7343L11.7042 4.71092C11.4982 5.46887 11.0485 6.13799 10.4245 6.61502C9.80055 7.09206 9.03692 7.35052 8.25147 7.35052C7.46602 7.35052 6.70239 7.09206 6.0784 6.61502C5.4544 6.13799 5.00472 5.46887 4.79872 4.71092ZM8.25097 1.85026L8.2508 1.85026C7.74711 1.85083 7.26421 2.05118 6.90805 2.40734C6.55189 2.7635 6.35154 3.2464 6.35097 3.75009V3.75026C6.35097 4.12604 6.4624 4.49339 6.67118 4.80584C6.87995 5.1183 7.17669 5.36182 7.52387 5.50563C7.87105 5.64944 8.25308 5.68706 8.62164 5.61375C8.9902 5.54044 9.32875 5.35948 9.59447 5.09376C9.86019 4.82804 10.0411 4.48949 10.1145 4.12093C10.1878 3.75237 10.1501 3.37034 10.0063 3.02316C9.86253 2.67598 9.61901 2.37924 9.30655 2.17047C8.9941 1.96169 8.62675 1.85026 8.25097 1.85026Z" fill="#2F2F2F" stroke="white" stroke-width="0.3"/>
<path d="M21.0372 11.0405L21.0672 11.1512H21.182H23.918C24.1434 11.1512 24.3596 11.2408 24.519 11.4002C24.6784 11.5596 24.768 11.7758 24.768 12.0012C24.768 12.2267 24.6784 12.4429 24.519 12.6023C24.3596 12.7617 24.1434 12.8512 23.918 12.8512H21.182H21.0672L21.0372 12.962C20.8315 13.7201 20.382 14.3894 19.7581 14.8667C19.1342 15.3439 18.3705 15.6025 17.585 15.6025C16.7994 15.6025 16.0358 15.3439 15.4118 14.8667C14.7879 14.3894 14.3384 13.7201 14.1327 12.962L14.1027 12.8512H13.988H1.91797C1.69253 12.8512 1.47633 12.7617 1.31693 12.6023C1.15752 12.4429 1.06797 12.2267 1.06797 12.0012C1.06797 11.7758 1.15752 11.5596 1.31693 11.4002C1.47633 11.2408 1.69253 11.1512 1.91797 11.1512H13.988H14.1027L14.1327 11.0405C14.3384 10.2824 14.7879 9.61304 15.4118 9.13581C16.0358 8.65858 16.7994 8.4 17.585 8.4C18.3705 8.4 19.1342 8.65858 19.7581 9.13581C20.382 9.61304 20.8315 10.2824 21.0372 11.0405ZM17.585 13.9012H17.5851C18.0888 13.9007 18.5717 13.7003 18.9279 13.3442C19.284 12.988 19.4844 12.5051 19.485 12.0014V12.0012C19.485 11.6254 19.3735 11.2581 19.1648 10.9457C18.956 10.6332 18.6592 10.3897 18.3121 10.2459C17.9649 10.1021 17.5829 10.0644 17.2143 10.1377C16.8457 10.2111 16.5072 10.392 16.2415 10.6577C15.9757 10.9235 15.7948 11.262 15.7215 11.6306C15.6482 11.9991 15.6858 12.3812 15.8296 12.7283C15.9734 13.0755 16.2169 13.3723 16.5294 13.581C16.8418 13.7898 17.2092 13.9012 17.585 13.9012Z" fill="#2F2F2F" stroke="white" stroke-width="0.3"/>
<path d="M11.7042 19.2896L11.7343 19.4003H11.849H23.918C24.1434 19.4003 24.3596 19.4898 24.519 19.6492C24.6784 19.8086 24.768 20.0248 24.768 20.2503C24.768 20.4757 24.6784 20.6919 24.519 20.8513C24.3596 21.0107 24.1434 21.1003 23.918 21.1003H11.849H11.7343L11.7042 21.2109C11.4982 21.9689 11.0485 22.638 10.4245 23.115C9.80055 23.5921 9.03692 23.8505 8.25147 23.8505C7.46602 23.8505 6.70239 23.5921 6.0784 23.115C5.4544 22.638 5.00472 21.9689 4.79872 21.2109L4.76864 21.1003H4.65397H1.91797C1.69253 21.1003 1.47633 21.0107 1.31693 20.8513C1.15752 20.6919 1.06797 20.4757 1.06797 20.2503C1.06797 20.0248 1.15752 19.8086 1.31693 19.6492C1.47633 19.4898 1.69253 19.4003 1.91797 19.4003H4.65397H4.76864L4.79872 19.2896C5.00472 18.5316 5.4544 17.8625 6.0784 17.3855C6.70239 16.9085 7.46602 16.65 8.25147 16.65C9.03692 16.65 9.80055 16.9085 10.4245 17.3855C11.0485 17.8625 11.4982 18.5316 11.7042 19.2896ZM8.25097 22.1503L8.25123 22.1503C8.7548 22.1494 9.23751 21.949 9.5936 21.5929C9.94968 21.2368 10.1501 20.7541 10.151 20.2505V20.2503C10.151 19.8745 10.0395 19.5071 9.83076 19.1947C9.62199 18.8822 9.32525 18.6387 8.97807 18.4949C8.63089 18.3511 8.24886 18.3135 7.8803 18.3868C7.51173 18.4601 7.17319 18.641 6.90747 18.9068C6.64175 19.1725 6.46079 19.511 6.38748 19.8796C6.31417 20.2482 6.35179 20.6302 6.4956 20.9774C6.6394 21.3245 6.88293 21.6213 7.19539 21.8301C7.50784 22.0388 7.87518 22.1503 8.25097 22.1503Z" fill="#2F2F2F" stroke="white" stroke-width="0.3"/>
</g>
<defs>
<clipPath id="clip0_3611_53357">
<rect width="24" height="24" fill="white" transform="translate(0.917969)"/>
</clipPath>
</defs>
</svg>
