<svg width="32" height="32" viewBox="0 0 32 32" fill="none" xmlns="http://www.w3.org/2000/svg">
<g clip-path="url(#clip0_3738_25052)">
<path d="M22.1731 3.86682C21.1238 2.97749 20.0238 2.04282 18.9038 1.02416C18.4793 0.638127 17.9756 0.349558 17.4279 0.178661C16.8802 0.0077649 16.3018 -0.0413273 15.7331 0.0348232C15.1821 0.107615 14.6538 0.300599 14.1856 0.600124C13.7174 0.899649 13.3208 1.2984 13.0238 1.76816C11.4344 4.42413 10.3106 7.33222 9.7011 10.3668C9.46189 10.0215 9.2497 9.65817 9.06643 9.28016C8.87771 8.88254 8.5935 8.53781 8.23917 8.27673C7.88483 8.01565 7.47138 7.84633 7.0357 7.78389C6.60002 7.72144 6.15565 7.7678 5.74224 7.91884C5.32884 8.06987 4.95924 8.32089 4.66643 8.64949C2.42998 10.9349 1.19016 14.0133 1.21843 17.2108C1.18752 20.4771 2.24982 23.6599 4.23631 26.2528C6.2228 28.8457 9.01937 30.6998 12.1811 31.5202C13.3915 31.8247 14.6343 31.9823 15.8824 31.9895C15.9224 31.9895 15.9611 32.0002 16.0011 32.0002C16.1758 32.0002 16.3478 31.9855 16.5198 31.9735C20.3486 31.8495 23.9789 30.24 26.6418 27.486C29.3047 24.732 30.7912 21.0497 30.7864 17.2188C30.7811 11.1788 26.7918 7.79216 22.1731 3.86682ZM16.3064 29.2988C16.1544 29.2988 16.0024 29.3148 15.8491 29.3135C14.8568 29.238 13.9107 28.8633 13.1358 28.2388C12.563 27.8521 12.0788 27.3483 11.7152 26.7606C11.3515 26.1729 11.1168 25.5147 11.0264 24.8295C10.7998 22.6668 12.1331 19.8388 14.8571 16.6442C14.9982 16.4793 15.1735 16.3472 15.3708 16.2569C15.5682 16.1667 15.7828 16.1204 15.9998 16.1215C16.2139 16.1199 16.4257 16.1657 16.62 16.2556C16.8143 16.3455 16.9863 16.4773 17.1238 16.6415C19.6198 19.6042 20.9904 22.3375 20.9904 24.3388C20.9867 25.6058 20.5009 26.8238 19.6317 27.7455C18.7625 28.6673 17.575 29.2236 16.3104 29.3015L16.3064 29.2988ZM23.4344 26.7775C23.3558 26.8388 23.2691 26.8882 23.1891 26.9468C23.4967 26.1107 23.6552 25.2271 23.6571 24.3362C23.6571 20.9668 21.2104 17.3562 19.1598 14.9202C18.7721 14.4611 18.2891 14.0921 17.7442 13.8388C17.1994 13.5855 16.6059 13.454 16.0051 13.4535H15.9998C15.3977 13.4524 14.8025 13.5822 14.2555 13.8338C13.7085 14.0854 13.2227 14.4529 12.8318 14.9108V14.9108C9.57176 18.7295 8.07443 22.1602 8.3811 25.1082C8.45392 25.7925 8.62874 26.4622 8.89976 27.0948C7.3392 25.9641 6.07064 24.4776 5.19925 22.7587C4.32785 21.0398 3.87872 19.138 3.8891 17.2108C3.87636 15.9536 4.11556 14.7065 4.59256 13.5432C5.06957 12.3799 5.77472 11.3239 6.66643 10.4375C6.97399 11.0769 7.3433 11.6846 7.7691 12.2522C8.05521 12.639 8.44837 12.9335 8.9 13.0994C9.35164 13.2652 9.84197 13.2952 10.3104 13.1855C10.7883 13.0798 11.2253 12.8379 11.5686 12.4891C11.912 12.1404 12.1469 11.6996 12.2451 11.2202C12.7808 8.38866 13.8045 5.6718 15.2704 3.19082C15.3595 3.05076 15.4785 2.93219 15.6189 2.84366C15.7594 2.75513 15.9176 2.69883 16.0824 2.67882C16.2666 2.65403 16.4541 2.66996 16.6314 2.72548C16.8088 2.781 16.9719 2.87476 17.1091 3.00016C18.2531 4.04016 19.3758 5.00016 20.4424 5.90282C24.8931 9.68282 28.1104 12.4135 28.1104 17.2188C28.1161 19.0639 27.6978 20.8857 26.8877 22.5435C26.0777 24.2013 24.8975 25.6508 23.4384 26.7802L23.4344 26.7775Z" fill="#333333" fill-opacity="0.3"/>
</g>
<defs>
<clipPath id="clip0_3738_25052">
<rect width="32" height="32" fill="white"/>
</clipPath>
</defs>
</svg>
