<svg width="22" height="27" viewBox="0 0 22 27" fill="none" xmlns="http://www.w3.org/2000/svg">
<path d="M3.55684 25.7776C4.96894 25.7776 6.11367 24.6312 6.11367 23.2169C6.11367 21.8027 4.96894 20.6562 3.55684 20.6562C2.14473 20.6562 1 21.8027 1 23.2169C1 24.6312 2.14473 25.7776 3.55684 25.7776Z" stroke="white" stroke-width="1.5" stroke-linecap="round" stroke-linejoin="round"/>
<path d="M18.4436 7.34794C19.8557 7.34794 21.0004 6.20148 21.0004 4.78725C21.0004 3.37302 19.8557 2.22656 18.4436 2.22656C17.0315 2.22656 15.8867 3.37302 15.8867 4.78725C15.8867 6.20148 17.0315 7.34794 18.4436 7.34794Z" stroke="white" stroke-width="1.5" stroke-linecap="round" stroke-linejoin="round"/>
<path d="M8.00977 1L12.0197 4.74423L7.92521 8.55441" stroke="white" stroke-width="1.5" stroke-linecap="round" stroke-linejoin="round"/>
<path d="M9.98603 23.007H15.7389C16.9256 23.007 18.0637 22.5349 18.9028 21.6945C19.742 20.8541 20.2134 19.7142 20.2134 18.5257C20.2134 17.3372 19.742 16.1974 18.9028 15.357C18.0637 14.5166 16.9256 14.0445 15.7389 14.0445H5.51157C4.32487 14.0445 3.18677 13.5724 2.34765 12.732C1.50852 11.8916 1.03711 10.7518 1.03711 9.56327C1.03711 8.37477 1.50852 7.23495 2.34765 6.39456C3.18677 5.55416 4.32487 5.08203 5.51157 5.08203H9.98603" stroke="white" stroke-width="1.5" stroke-linecap="round" stroke-linejoin="round"/>
</svg>
