<svg width="16" height="18" viewBox="0 0 16 18" fill="none" xmlns="http://www.w3.org/2000/svg">
<path d="M13.1396 14.9172C11.806 16.2508 9.99722 17 8.11121 17C6.2252 17 4.41644 16.2508 3.08283 14.9172C1.74921 13.5836 1 11.7748 1 9.88879C1 8.00278 1.74921 6.19401 3.08283 4.8604C3.08283 4.8604 3.66682 6.33327 5.44458 7.22215C5.44458 5.44439 5.88902 2.77776 8.09877 1C9.88897 2.77776 11.7467 3.46842 13.1387 4.8604C13.8002 5.51994 14.3248 6.30371 14.6823 7.16665C15.0399 8.0296 15.2234 8.9547 15.2222 9.88879C15.2235 10.8228 15.0401 11.7479 14.6827 12.6108C14.3253 13.4738 13.8009 14.2576 13.1396 14.9172V14.9172Z" stroke="#36B4F1" stroke-width="1.5" stroke-linecap="round" stroke-linejoin="round"/>
<path d="M6.22566 12.663C6.53533 12.9727 6.91654 13.2014 7.3356 13.3289C7.75465 13.4563 8.19864 13.4786 8.62834 13.3937C9.05804 13.3088 9.46022 13.1194 9.79932 12.8422C10.1384 12.5649 10.404 12.2084 10.5726 11.8042C10.7413 11.3999 10.8077 10.9604 10.7661 10.5244C10.7245 10.0883 10.5761 9.66926 10.3341 9.3042C10.0921 8.93913 9.76387 8.63929 9.37846 8.43119C8.99304 8.22309 8.56231 8.11313 8.12431 8.11103L7.22209 10.7777H5.44434C5.44434 11.4603 5.70478 12.143 6.22566 12.663Z" stroke="#36B4F1" stroke-width="1.5" stroke-linecap="round" stroke-linejoin="round"/>
</svg>
