<svg width="83" height="83" viewBox="0 0 83 83" fill="none" xmlns="http://www.w3.org/2000/svg">
<path fill-rule="evenodd" clip-rule="evenodd" d="M41.5 19.1046L44.1458 16.2621C51.452 8.41264 63.2976 8.41264 70.6037 16.2621C76.3035 22.3857 77.5567 31.4774 74.3633 38.9063H55.3334C54.4661 38.9063 53.6563 39.3397 53.1752 40.0612L48.4167 47.1991L36.7415 29.6862C36.2604 28.9647 35.4506 28.5313 34.5834 28.5313C33.7161 28.5313 32.9063 28.9647 32.4252 29.6862L26.2786 38.9063H8.63671C5.44334 31.4774 6.69654 22.3857 12.3963 16.2621C19.7025 8.41264 31.5481 8.41264 38.8542 16.2621L41.5 19.1046ZM11.8655 44.0938C12.0379 44.2945 12.2149 44.4925 12.3963 44.6874L36.2084 70.2702C39.1309 73.4099 43.8691 73.4099 46.7916 70.2702L70.6037 44.6874C70.7852 44.4925 70.9621 44.2945 71.1345 44.0938H56.7215L50.5748 53.3138C50.0938 54.0353 49.2839 54.4688 48.4167 54.4688C47.5495 54.4688 46.7396 54.0353 46.2586 53.3138L34.5834 35.8009L29.8248 42.9388C29.3438 43.6603 28.5339 44.0938 27.6667 44.0938H11.8655Z" fill="#36B4F1"/>
</svg>
