<svg width="35" height="35" viewBox="0 0 35 35" fill="none" xmlns="http://www.w3.org/2000/svg">
<path d="M17.2881 4.85332L17.4985 5.01175L17.709 4.85334C21.0752 2.32003 24.007 0.872416 26.498 0.470021C28.9677 0.0710574 31.0101 0.69667 32.6554 2.34201C34.3015 3.98811 34.9271 6.03049 34.528 8.50001C34.1254 10.9908 32.6774 13.9222 30.1441 17.2884L29.9856 17.499L30.1443 17.7096C32.6812 21.0757 34.129 24.007 34.5307 26.4977C34.9289 28.9671 34.3017 31.0095 32.6554 32.6558L32.6554 32.6557L32.651 32.6603C32.0348 33.2993 31.2943 33.8054 30.4751 34.1474C29.6559 34.4894 28.7754 34.66 27.8877 34.6489H27.8833C25.1226 34.6489 21.7279 33.1706 17.709 30.1459L17.4986 29.9875L17.2881 30.1459C13.2678 33.1706 9.87301 34.6489 7.11376 34.6489L7.10937 34.6489C6.22173 34.66 5.34121 34.4894 4.52203 34.1474C3.70284 33.8054 2.96234 33.2993 2.34611 32.6603L2.34615 32.6603L2.34166 32.6558C0.695583 31.0097 0.0699884 28.967 0.469122 26.4972C0.871691 24.0062 2.31966 21.0748 4.85297 17.7094L5.0114 17.4989L4.853 17.2884C2.31964 13.9222 0.871316 10.9908 0.46857 8.49999C0.0692706 6.03049 0.694838 3.98815 2.34161 2.34206C3.98846 0.695914 6.03124 0.0703414 8.50076 0.469469C10.9916 0.872037 13.9226 2.31999 17.2881 4.85332ZM31.0928 3.90336L31.0925 3.90309C30.6642 3.47545 30.153 3.13986 29.5903 2.91691C29.0292 2.6946 28.4288 2.58896 27.8256 2.6064C26.5806 2.60752 25.2266 3.00508 23.849 3.64225C22.4666 4.28171 21.0393 5.17239 19.6442 6.18157L19.2827 6.4431L19.6228 6.73194C21.0563 7.94926 22.5514 9.31945 24.1139 10.8834C25.6767 12.4477 27.0469 13.9384 28.2625 15.3715L28.5513 15.7121L28.813 15.3503C30.3121 13.2775 31.5564 11.1256 32.0975 9.15036C32.6404 7.16884 32.4887 5.30005 31.0928 3.90336ZM26.9716 17.7222L27.1567 17.4989L26.9716 17.2756C25.4893 15.4869 23.9343 13.8146 22.5579 12.4455C21.1835 11.0785 19.5115 9.50597 17.7217 8.0243L17.4983 7.83934L17.2751 8.02452C15.4856 9.50892 13.8136 11.08 12.446 12.4461C11.078 13.8126 9.5084 15.4861 8.02552 17.2756L7.84045 17.4989L8.02552 17.7222C9.50785 19.511 11.0774 21.1978 12.4465 22.5595C13.8138 23.9195 15.4857 25.489 17.2752 26.9719L17.4986 27.157L17.7219 26.9719C19.5106 25.4896 21.1828 23.9347 22.5519 22.5582C23.9191 21.1837 25.4886 19.5117 26.9716 17.7222ZM15.3743 6.73194L15.7144 6.4431L15.3529 6.18157C13.9578 5.17239 12.5306 4.28171 11.1481 3.64225C9.77056 3.0051 8.41662 2.60754 7.17161 2.6064C6.56816 2.58862 5.96741 2.69427 5.40621 2.91691C4.84339 3.14018 4.33228 3.47637 3.90439 3.90476C2.50693 5.30074 2.35528 7.1693 2.89832 9.15058C3.43964 11.1256 4.68424 13.2775 6.18262 15.3502L6.44466 15.7127L6.7335 15.3712C7.95019 13.9326 9.31724 12.4479 10.883 10.8836C12.4487 9.31936 13.9409 7.94912 15.3743 6.73194ZM6.73305 19.6203L6.44417 19.2801L6.18265 19.6417C4.6842 21.7137 3.44034 23.8657 2.89939 25.8409C2.37032 27.7728 2.50125 29.5976 3.80189 30.9815V30.9903L3.90411 31.0928C5.29867 32.4905 7.1667 32.6426 9.14756 32.0993C11.1221 31.5578 13.2737 30.3124 15.3457 28.8117L15.7073 28.5499L15.3667 28.2612C13.9326 27.0461 12.4464 25.6732 10.8832 24.1086C9.32039 22.5443 7.95016 21.0535 6.73305 19.6203ZM25.8434 32.0921C27.7049 32.6012 29.4666 32.4975 30.8301 31.3254L30.8451 31.3404L31.0926 31.0932C32.4902 29.6972 32.6418 27.8285 32.0978 25.8464C31.5556 23.8706 30.3091 21.7172 28.8071 19.6416L28.5448 19.2792L28.2562 19.621C27.041 21.0594 25.6697 22.5484 24.1083 24.1084C22.5465 25.6687 21.0542 27.0462 19.6242 28.2616L19.2842 28.5505L19.6458 28.8119C21.7179 30.3097 23.8691 31.5521 25.8434 32.0921Z" fill="#FE7200" stroke="white" stroke-width="0.7"/>
</svg>
