<svg width="39" height="39" viewBox="0 0 39 39" fill="none" xmlns="http://www.w3.org/2000/svg">
<path d="M19.5 7.83333C19.1132 7.83333 18.7423 7.67969 18.4688 7.4062C18.1953 7.13271 18.0417 6.76177 18.0417 6.375V3.45833C18.0417 3.07156 18.1953 2.70063 18.4688 2.42714C18.7423 2.15365 19.1132 2 19.5 2C19.8868 2 20.2577 2.15365 20.5312 2.42714C20.8047 2.70063 20.9583 3.07156 20.9583 3.45833V6.375C20.9583 6.76177 20.8047 7.13271 20.5312 7.4062C20.2577 7.67969 19.8868 7.83333 19.5 7.83333ZM20.9583 35.5417V32.625C20.9583 32.2382 20.8047 31.8673 20.5312 31.5938C20.2577 31.3203 19.8868 31.1667 19.5 31.1667C19.1132 31.1667 18.7423 31.3203 18.4688 31.5938C18.1953 31.8673 18.0417 32.2382 18.0417 32.625V35.5417C18.0417 35.9284 18.1953 36.2994 18.4688 36.5729C18.7423 36.8464 19.1132 37 19.5 37C19.8868 37 20.2577 36.8464 20.5312 36.5729C20.8047 36.2994 20.9583 35.9284 20.9583 35.5417ZM7.83333 19.5C7.83333 19.1132 7.67969 18.7423 7.4062 18.4688C7.13271 18.1953 6.76177 18.0417 6.375 18.0417H3.45833C3.07156 18.0417 2.70063 18.1953 2.42714 18.4688C2.15365 18.7423 2 19.1132 2 19.5C2 19.8868 2.15365 20.2577 2.42714 20.5312C2.70063 20.8047 3.07156 20.9583 3.45833 20.9583H6.375C6.76177 20.9583 7.13271 20.8047 7.4062 20.5312C7.67969 20.2577 7.83333 19.8868 7.83333 19.5ZM37 19.5C37 19.1132 36.8464 18.7423 36.5729 18.4688C36.2994 18.1953 35.9284 18.0417 35.5417 18.0417H32.625C32.2382 18.0417 31.8673 18.1953 31.5938 18.4688C31.3203 18.7423 31.1667 19.1132 31.1667 19.5C31.1667 19.8868 31.3203 20.2577 31.5938 20.5312C31.8673 20.8047 32.2382 20.9583 32.625 20.9583H35.5417C35.9284 20.9583 36.2994 20.8047 36.5729 20.5312C36.8464 20.2577 37 19.8868 37 19.5ZM27.3444 8.87604L28.8027 6.35167C28.9824 6.01779 29.025 5.62705 28.9214 5.26231C28.8179 4.89757 28.5763 4.58749 28.248 4.39783C27.9197 4.20816 27.5304 4.15382 27.1627 4.24632C26.795 4.33882 26.4778 4.57089 26.2783 4.89333L24.82 7.41771C24.6265 7.75248 24.5739 8.15039 24.6737 8.52396C24.7735 8.89752 25.0176 9.21616 25.3523 9.40979C25.5735 9.53915 25.8252 9.60712 26.0815 9.60667C26.3376 9.60651 26.5892 9.5389 26.8109 9.41065C27.0326 9.28239 27.2166 9.098 27.3444 8.87604ZM12.7173 34.1052L14.1756 31.5808C14.3553 31.247 14.3979 30.8562 14.2943 30.4915C14.1908 30.1267 13.9492 29.8167 13.6209 29.627C13.2926 29.4373 12.9034 29.383 12.5357 29.4755C12.168 29.568 11.8507 29.8001 11.6512 30.1225L10.1929 32.6469C9.9993 32.9815 9.94645 33.3793 10.046 33.7528C10.1455 34.1263 10.3893 34.4451 10.7238 34.639C10.945 34.7682 11.1967 34.8361 11.4529 34.8358C11.7089 34.8364 11.9604 34.7696 12.1824 34.6421C12.4043 34.5146 12.5888 34.3309 12.7173 34.1096V34.1052ZM9.40688 13.6477C9.6005 13.3131 9.65335 12.9153 9.55381 12.5418C9.45427 12.1682 9.21049 11.8495 8.87604 11.6556L6.35167 10.1973C6.01779 10.0176 5.62705 9.97504 5.26231 10.0786C4.89757 10.1821 4.58749 10.4237 4.39783 10.752C4.20816 11.0803 4.15382 11.4696 4.24632 11.8373C4.33882 12.205 4.57089 12.5222 4.89333 12.7217L7.41771 14.18C7.75248 14.3735 8.15039 14.4261 8.52396 14.3263C8.89752 14.2265 9.21616 13.9824 9.40979 13.6477H9.40688ZM34.636 28.2763C34.7321 28.1105 34.7946 27.9275 34.82 27.7376C34.8453 27.5477 34.833 27.3546 34.7837 27.1695C34.7344 26.9844 34.6491 26.8108 34.5327 26.6586C34.4163 26.5064 34.271 26.3787 34.1052 26.2827L31.5808 24.8244C31.247 24.6447 30.8562 24.6021 30.4915 24.7057C30.1267 24.8092 29.8167 25.0508 29.627 25.3791C29.4373 25.7074 29.383 26.0967 29.4755 26.4644C29.568 26.8321 29.8001 27.1493 30.1225 27.3488L32.6469 28.8071C32.8681 28.9364 33.1198 29.0044 33.376 29.004C33.6321 29.0044 33.8838 28.9373 34.1058 28.8096C34.3277 28.6818 34.5121 28.4979 34.6404 28.2763H34.636ZM13.6477 9.40688C13.9824 9.21324 14.2265 8.89461 14.3263 8.52104C14.4261 8.14748 14.3735 7.74956 14.18 7.41479L12.7217 4.89042C12.5222 4.56798 12.205 4.3359 11.8373 4.2434C11.4696 4.1509 11.0803 4.20524 10.752 4.39491C10.4237 4.58457 10.1821 4.89465 10.0786 5.25939C9.97504 5.62414 10.0176 6.01487 10.1973 6.34875L11.6556 8.87313C11.7836 9.09481 11.9677 9.27891 12.1894 9.4069C12.4111 9.5349 12.6626 9.60228 12.9185 9.60229C13.1747 9.60318 13.4264 9.53573 13.6477 9.40688ZM28.2763 34.636C28.6107 34.4422 28.8545 34.1234 28.954 33.7499C29.0536 33.3763 29.0007 32.9786 28.8071 32.644L27.3488 30.1196C27.1493 29.7971 26.8321 29.5651 26.4644 29.4726C26.0967 29.3801 25.7074 29.4344 25.3791 29.6241C25.0508 29.8137 24.8092 30.1238 24.7057 30.4886C24.6021 30.8533 24.6447 31.244 24.8244 31.5779L26.2827 34.1023C26.3787 34.2681 26.5064 34.4133 26.6586 34.5298C26.8108 34.6462 26.9844 34.7315 27.1695 34.7808C27.3546 34.8301 27.5477 34.8424 27.7376 34.8171C27.9275 34.7917 28.1105 34.7292 28.2763 34.6331V34.636ZM31.5852 14.1756L34.1096 12.7173C34.432 12.5178 34.6641 12.2006 34.7566 11.8329C34.8491 11.4652 34.7948 11.0759 34.6051 10.7476C34.4154 10.4193 34.1054 10.1778 33.7406 10.0742C33.3759 9.97066 32.9851 10.0132 32.6513 10.1929L30.1269 11.6512C29.8044 11.8507 29.5724 12.168 29.4799 12.5357C29.3874 12.9034 29.4417 13.2926 29.6314 13.6209C29.821 13.9492 30.1311 14.1908 30.4959 14.2943C30.8606 14.3979 31.2513 14.3553 31.5852 14.1756ZM6.35604 28.8027L8.88042 27.3444C9.20286 27.1449 9.43493 26.8277 9.52743 26.46C9.61993 26.0923 9.56559 25.703 9.37593 25.3747C9.18626 25.0464 8.87618 24.8048 8.51144 24.7013C8.1467 24.5977 7.75596 24.6403 7.42208 24.82L4.89771 26.2783C4.61971 26.4389 4.40244 26.6866 4.2796 26.9832C4.15676 27.2798 4.13521 27.6086 4.2183 27.9187C4.30138 28.2288 4.48446 28.5028 4.73914 28.6982C4.99381 28.8936 5.30586 28.9996 5.62688 28.9996C5.88124 29.0006 6.13132 28.9342 6.35167 28.8071L6.35604 28.8027Z" fill="#FE7200"/>
</svg>
