<svg width="22" height="28" viewBox="0 0 22 28" fill="none" xmlns="http://www.w3.org/2000/svg">
<path d="M15.6667 0.35C16.4901 0.632307 17.2394 1.09646 17.8588 1.708L19.7908 3.64233C20.4031 4.261 20.8677 5.00997 21.15 5.83333H15.6667V0.35ZM21.5 8.16667V22.1667C21.4981 23.7132 20.883 25.1959 19.7894 26.2894C18.6959 27.383 17.2132 27.9981 15.6667 28H6.33333C4.78681 27.9981 3.30415 27.383 2.21059 26.2894C1.11703 25.1959 0.501853 23.7132 0.5 22.1667V5.83333C0.501853 4.28681 1.11703 2.80415 2.21059 1.71059C3.30415 0.617029 4.78681 0.0018525 6.33333 0L13.3333 0V5.83333C13.3333 6.45217 13.5792 7.04566 14.0168 7.48325C14.4543 7.92083 15.0478 8.16667 15.6667 8.16667H21.5ZM16.6093 20.3152C16.5193 20.1906 16.4056 20.0851 16.2747 20.0046C16.1438 19.9242 15.9983 19.8703 15.8465 19.8463C15.6947 19.8222 15.5397 19.8284 15.3903 19.8644C15.2409 19.9004 15.1001 19.9656 14.976 20.0562C14.1921 20.6018 13.2765 20.9277 12.3242 21C11.951 20.9898 11.5937 20.8471 11.3162 20.5975C10.7073 20.1144 9.95599 19.8457 9.17883 19.8333C7.88462 19.955 6.6519 20.4431 5.62517 21.2403C5.49774 21.3312 5.38989 21.4467 5.30804 21.5801C5.22619 21.7135 5.172 21.8619 5.14871 22.0167C5.12542 22.1714 5.1335 22.3293 5.17247 22.4808C5.21143 22.6324 5.28049 22.7746 5.37553 22.8989C5.47058 23.0232 5.58966 23.1271 5.72569 23.2045C5.86172 23.2818 6.01193 23.331 6.16736 23.3492C6.3228 23.3673 6.48029 23.3539 6.63046 23.3099C6.78064 23.2659 6.92042 23.1921 7.0415 23.093C7.66289 22.6063 8.39883 22.2874 9.17883 22.1667C9.46583 22.1667 9.61167 22.2577 9.9955 22.5167C10.6603 23.0418 11.4817 23.3292 12.3288 23.3333C13.7788 23.2671 15.1788 22.7838 16.3608 21.9415C16.6087 21.7582 16.774 21.4843 16.8206 21.1796C16.8671 20.8749 16.7912 20.5641 16.6093 20.3152ZM16.8333 16.3333C16.8333 16.0239 16.7104 15.7272 16.4916 15.5084C16.2728 15.2896 15.9761 15.1667 15.6667 15.1667H6.33333C6.02391 15.1667 5.72717 15.2896 5.50838 15.5084C5.28958 15.7272 5.16667 16.0239 5.16667 16.3333C5.16667 16.6428 5.28958 16.9395 5.50838 17.1583C5.72717 17.3771 6.02391 17.5 6.33333 17.5H15.6667C15.9761 17.5 16.2728 17.3771 16.4916 17.1583C16.7104 16.9395 16.8333 16.6428 16.8333 16.3333ZM16.8333 11.6667C16.8333 11.3572 16.7104 11.0605 16.4916 10.8417C16.2728 10.6229 15.9761 10.5 15.6667 10.5H6.33333C6.02391 10.5 5.72717 10.6229 5.50838 10.8417C5.28958 11.0605 5.16667 11.3572 5.16667 11.6667C5.16667 11.9761 5.28958 12.2728 5.50838 12.4916C5.72717 12.7104 6.02391 12.8333 6.33333 12.8333H15.6667C15.9761 12.8333 16.2728 12.7104 16.4916 12.4916C16.7104 12.2728 16.8333 11.9761 16.8333 11.6667Z" fill="white"/>
</svg>
