<svg width="28" height="28" viewBox="0 0 28 28" fill="none" xmlns="http://www.w3.org/2000/svg">
<path d="M27.6725 6.16083L21.8392 0.327497C21.6191 0.114979 21.3244 -0.00261405 21.0185 4.4103e-05C20.7126 0.00270226 20.42 0.125399 20.2037 0.341709C19.9874 0.558018 19.8647 0.850633 19.862 1.15653C19.8594 1.46243 19.977 1.75713 20.1895 1.97716L22.2813 4.069L19.3938 6.9565C18.4735 6.28569 17.3769 5.89896 16.2393 5.84403C15.1018 5.78909 13.973 6.06834 12.9923 6.64733L16.0058 9.66083C16.1173 9.76845 16.2061 9.89719 16.2673 10.0395C16.3284 10.1819 16.3606 10.335 16.362 10.4899C16.3633 10.6448 16.3338 10.7984 16.2751 10.9418C16.2165 11.0852 16.1298 11.2154 16.0203 11.325C15.9108 11.4345 15.7805 11.5211 15.6371 11.5798C15.4937 11.6384 15.3401 11.668 15.1852 11.6666C15.0303 11.6653 14.8772 11.6331 14.7349 11.5719C14.5925 11.5108 14.4638 11.4219 14.3562 11.3105L11.198 8.15233L9.34767 10.0027L12.5058 13.1608C12.6173 13.2685 12.7061 13.3972 12.7673 13.5395C12.8284 13.6819 12.8606 13.835 12.862 13.9899C12.8633 14.1448 12.8338 14.2984 12.7751 14.4418C12.7165 14.5852 12.6298 14.7154 12.5203 14.825C12.4108 14.9345 12.2805 15.0211 12.1371 15.0798C11.9937 15.1384 11.8401 15.168 11.6852 15.1666C11.5303 15.1653 11.3772 15.1331 11.2349 15.0719C11.0925 15.0108 10.9638 14.9219 10.8562 14.8105L7.698 11.6523L5.84767 13.505L9.0035 16.6608C9.11493 16.7685 9.20381 16.8972 9.26495 17.0395C9.3261 17.1819 9.35828 17.335 9.35963 17.4899C9.36097 17.6448 9.33146 17.7984 9.27279 17.9418C9.21413 18.0852 9.1275 18.2154 9.01796 18.325C8.90842 18.4345 8.77816 18.5211 8.63478 18.5798C8.4914 18.6384 8.33778 18.668 8.18287 18.6666C8.02796 18.6653 7.87487 18.6331 7.73253 18.5719C7.59019 18.5108 7.46146 18.4219 7.35384 18.3105L4.45467 15.409C3.8347 16.5828 3.51184 17.8907 3.51434 19.2182V22.8348L0.35617 25.9942C0.244741 26.1018 0.155862 26.2305 0.0947179 26.3729C0.0335741 26.5152 0.00139017 26.6683 4.40495e-05 26.8232C-0.00130207 26.9781 0.0282166 27.1317 0.0868776 27.2751C0.145539 27.4185 0.232167 27.5487 0.341709 27.6583C0.45125 27.7678 0.581511 27.8545 0.72489 27.9131C0.868269 27.9718 1.0219 28.0013 1.1768 28C1.33171 27.9986 1.4848 27.9664 1.62714 27.9053C1.76948 27.8441 1.89821 27.7553 2.00584 27.6438L5.164 24.4857H8.78067C9.8534 24.4885 10.916 24.2786 11.9071 23.8681C12.8982 23.4576 13.798 22.8546 14.5545 22.094L20.4718 16.1767C21.4517 15.1911 22.0469 13.8877 22.1501 12.5018C22.2532 11.1158 21.8574 9.7387 21.0342 8.619L23.931 5.71866L26.0228 7.8105C26.2429 8.02301 26.5376 8.14061 26.8435 8.13795C27.1494 8.13529 27.442 8.01259 27.6583 7.79629C27.8746 7.57998 27.9973 7.28736 28 6.98147C28.0026 6.67557 27.885 6.38087 27.6725 6.16083Z" fill="white"/>
</svg>
