<svg width="28" height="28" viewBox="0 0 28 28" fill="none" xmlns="http://www.w3.org/2000/svg">
<path d="M26.6 5.6294C26.6042 5.425 26.5902 3.5784 24.78 1.8004C22.9978 0.0504 21.2002 0 21 0H6.9944C6.6598 0 4.9042 0.0882001 3.2032 1.8228C1.4504 3.6092 1.4 5.4026 1.4 5.6V9.8H0V14H1.4V22.4C1.4 23.4276 1.9684 24.3222 2.8 24.8094V26.6C2.8 26.9713 2.9475 27.3274 3.21005 27.59C3.4726 27.8525 3.8287 28 4.2 28H5.6C5.9713 28 6.3274 27.8525 6.58995 27.59C6.8525 27.3274 7 26.9713 7 26.6V25.2H21V26.6C21 26.9713 21.1475 27.3274 21.41 27.59C21.6726 27.8525 22.0287 28 22.4 28H23.8C24.1713 28 24.5274 27.8525 24.7899 27.59C25.0525 27.3274 25.2 26.9713 25.2 26.6V24.8122C25.6247 24.5686 25.9778 24.2174 26.2236 23.7939C26.4694 23.3704 26.5992 22.8896 26.6 22.4V14H28V9.8H26.6V5.6294ZM9.8 2.8H18.2V5.6H9.8V2.8ZM6.3 22.4C5.74286 22.3998 5.20861 22.1783 4.81479 21.7842C4.42096 21.3901 4.19981 20.8557 4.2 20.2986C4.20019 19.7415 4.42169 19.2072 4.81578 18.8134C5.20986 18.4196 5.74426 18.1984 6.3014 18.1986C6.85854 18.1988 7.39279 18.4203 7.78661 18.8144C8.18044 19.2085 8.40159 19.7429 8.4014 20.3C8.40121 20.8571 8.17971 21.3914 7.78562 21.7852C7.39153 22.179 6.85714 22.4002 6.3 22.4ZM12.6 15.4H4.2V8.4H12.6V15.4ZM21.7 22.4C21.1429 22.3998 20.6086 22.1783 20.2148 21.7842C19.821 21.3901 19.5998 20.8557 19.6 20.2986C19.6002 19.7415 19.8217 19.2072 20.2158 18.8134C20.6099 18.4196 21.1443 18.1984 21.7014 18.1986C22.2585 18.1988 22.7928 18.4203 23.1866 18.8144C23.5804 19.2085 23.8016 19.7429 23.8014 20.3C23.8012 20.8571 23.5797 21.3914 23.1856 21.7852C22.7915 22.179 22.2571 22.4002 21.7 22.4ZM23.8 15.4H15.4V8.4H23.8V15.4Z" fill="white"/>
</svg>
