<svg width="28" height="32" viewBox="0 0 28 32" fill="none" xmlns="http://www.w3.org/2000/svg">
<path d="M22.7745 2.85365L14.4212 0.0683211C14.1477 -0.0227737 13.852 -0.0227737 13.5785 0.0683211L5.22384 2.85365C3.89596 3.29506 2.74093 4.14366 1.92282 5.27891C1.10472 6.41416 0.665129 7.77833 0.666507 9.17765V16.0003C0.666507 26.0843 12.9332 31.6537 13.4585 31.8857C13.6289 31.9614 13.8134 32.0005 13.9998 32.0005C14.1863 32.0005 14.3707 31.9614 14.5412 31.8857C15.0665 31.6537 27.3332 26.0843 27.3332 16.0003V9.17765C27.3345 7.77817 26.8947 6.41387 26.0763 5.2786C25.2579 4.14333 24.1026 3.29483 22.7745 2.85365ZM13.9998 25.3337C13.7361 25.3337 13.4783 25.2555 13.2591 25.1089C13.0398 24.9624 12.8689 24.7542 12.768 24.5106C12.6671 24.2669 12.6407 23.9988 12.6921 23.7402C12.7436 23.4816 12.8706 23.244 13.057 23.0575C13.2435 22.871 13.4811 22.7441 13.7397 22.6926C13.9984 22.6412 14.2665 22.6676 14.5101 22.7685C14.7537 22.8694 14.962 23.0403 15.1085 23.2596C15.255 23.4788 15.3332 23.7366 15.3332 24.0003C15.3332 24.3539 15.1927 24.6931 14.9426 24.9431C14.6926 25.1932 14.3535 25.3337 13.9998 25.3337ZM15.3332 18.667C15.3332 19.0206 15.1927 19.3597 14.9426 19.6098C14.6926 19.8598 14.3535 20.0003 13.9998 20.0003C13.6462 20.0003 13.3071 19.8598 13.057 19.6098C12.807 19.3597 12.6665 19.0206 12.6665 18.667V8.00032C12.6665 7.6467 12.807 7.30756 13.057 7.05751C13.3071 6.80746 13.6462 6.66699 13.9998 6.66699C14.3535 6.66699 14.6926 6.80746 14.9426 7.05751C15.1927 7.30756 15.3332 7.6467 15.3332 8.00032V18.667Z" fill="white"/>
</svg>
