<svg width="30" height="30" viewBox="0 0 30 30" fill="none" xmlns="http://www.w3.org/2000/svg">
<circle cx="15" cy="15" r="15" fill="#D8DDE4"/>
<path d="M15 20.75C14.8019 20.7474 14.6126 20.6676 14.4725 20.5275C14.3324 20.3874 14.2526 20.1981 14.25 20V13C14.25 12.8011 14.329 12.6103 14.4697 12.4697C14.6103 12.329 14.8011 12.25 15 12.25C15.1989 12.25 15.3897 12.329 15.5303 12.4697C15.671 12.6103 15.75 12.8011 15.75 13V20C15.7474 20.1981 15.6676 20.3874 15.5275 20.5275C15.3874 20.6676 15.1981 20.7474 15 20.75Z" fill="white"/>
<path d="M15 11.25C14.8019 11.2474 14.6126 11.1676 14.4725 11.0275C14.3324 10.8874 14.2526 10.6981 14.25 10.5V10C14.25 9.80109 14.329 9.61032 14.4697 9.46967C14.6103 9.32902 14.8011 9.25 15 9.25C15.1989 9.25 15.3897 9.32902 15.5303 9.46967C15.671 9.61032 15.75 9.80109 15.75 10V10.5C15.7474 10.6981 15.6676 10.8874 15.5275 11.0275C15.3874 11.1676 15.1981 11.2474 15 11.25Z" fill="white"/>
</svg>
