<svg width="24" height="22" viewBox="0 0 24 22" fill="none" xmlns="http://www.w3.org/2000/svg">
<path d="M6.02182 12.5673C7.01091 12.8582 7.76727 13.4109 8.29091 14.2255C8.87273 14.9818 9.16364 15.9127 9.16364 17.0182C9.16364 18.4145 8.72727 19.5491 7.85455 20.4218C6.98182 21.2945 5.90545 21.7309 4.62545 21.7309C3.22909 21.7309 2.09455 21.2945 1.22182 20.4218C0.407273 19.4909 0 18.3564 0 17.0182C0 16.32 0.0581817 15.6509 0.174545 15.0109C0.349091 14.3127 0.669091 13.3236 1.13454 12.0436L4.8 0H8.98909L6.02182 12.5673ZM20.8582 12.5673C21.8473 12.8582 22.6036 13.4109 23.1273 14.2255C23.7091 14.9818 24 15.9127 24 17.0182C24 18.4145 23.5636 19.5491 22.6909 20.4218C21.8182 21.2945 20.7418 21.7309 19.4618 21.7309C18.0655 21.7309 16.9309 21.2945 16.0582 20.4218C15.2436 19.4909 14.8364 18.3564 14.8364 17.0182C14.8364 16.32 14.8945 15.6509 15.0109 15.0109C15.1855 14.3127 15.5055 13.3236 15.9709 12.0436L19.6364 0H23.8255L20.8582 12.5673Z" fill="#D8DDE4"/>
</svg>
