<svg width="27" height="27" viewBox="0 0 27 27" fill="none" xmlns="http://www.w3.org/2000/svg">
<path d="M15.8512 18H16.875C24.3484 18 27 14.0625 27 10.6875C26.9989 9.77291 26.6794 8.88718 26.0964 8.18244C25.5134 7.47769 24.7032 6.99789 23.805 6.82542C23.985 6.46187 24.1388 6.08591 24.2651 5.70042C24.4615 5.04223 24.5001 4.34704 24.3777 3.67116C24.2554 2.99529 23.9755 2.35774 23.5609 1.81017C23.1425 1.24591 22.5972 0.788039 21.969 0.47358C21.3409 0.159121 20.6476 -0.00309667 19.9451 4.47712e-05H7.05487C6.35214 -0.00270668 5.65863 0.160031 5.03047 0.475087C4.40232 0.790143 3.85716 1.24867 3.43912 1.81354C3.02446 2.36111 2.74461 2.99866 2.62226 3.67454C2.49991 4.35041 2.53849 5.04561 2.73487 5.70379C2.86124 6.08928 3.01501 6.46524 3.195 6.82879C2.29734 7.00116 1.48761 7.48046 0.904663 8.18451C0.321719 8.88856 0.00188286 9.77349 0 10.6875C0 14.0625 2.65162 18 10.125 18H11.1488C11.2143 18.3416 11.2482 18.6884 11.25 19.0362V22.5C11.2693 22.8005 11.2244 23.1017 11.1181 23.3834C11.0119 23.6652 10.8468 23.921 10.6339 24.134C10.421 24.3469 10.1651 24.512 9.88339 24.6182C9.60164 24.7244 9.30049 24.7694 9 24.75H6.75C6.45163 24.75 6.16548 24.8686 5.9545 25.0795C5.74353 25.2905 5.625 25.5767 5.625 25.875C5.625 26.1734 5.74353 26.4596 5.9545 26.6705C6.16548 26.8815 6.45163 27 6.75 27H20.25C20.5484 27 20.8345 26.8815 21.0455 26.6705C21.2565 26.4596 21.375 26.1734 21.375 25.875C21.375 25.5767 21.2565 25.2905 21.0455 25.0795C20.8345 24.8686 20.5484 24.75 20.25 24.75H18.0068C17.7058 24.77 17.4041 24.7255 17.1217 24.6196C16.8393 24.5137 16.5827 24.3488 16.3691 24.1358C16.1555 23.9229 15.9898 23.6668 15.8831 23.3847C15.7763 23.1027 15.7309 22.8011 15.75 22.5V19.035C15.7519 18.6877 15.7858 18.3412 15.8512 18ZM17.6917 14.7927C19.6194 13.085 21.287 11.1047 22.6418 8.91454C22.7752 8.96979 22.9181 8.99882 23.0625 9.00004C23.5101 9.00004 23.9393 9.17783 24.2557 9.4943C24.5722 9.81077 24.75 10.24 24.75 10.6875C24.75 13.1355 22.6811 15.75 16.875 15.75H16.812C17.0657 15.3967 17.361 15.0752 17.6917 14.7927ZM10.125 15.75C4.31888 15.75 2.25 13.1355 2.25 10.6875C2.25 10.24 2.42779 9.81077 2.74426 9.4943C3.06072 9.17783 3.48995 9.00004 3.9375 9.00004C4.08232 8.99896 4.22556 8.96993 4.35938 8.91454C5.7141 11.1047 7.38173 13.085 9.30937 14.7927C9.63968 15.0753 9.93469 15.3968 10.188 15.75H10.125Z" fill="white"/>
</svg>
