<svg width="14" height="18" viewBox="0 0 14 18" fill="none" xmlns="http://www.w3.org/2000/svg">
<path fill-rule="evenodd" clip-rule="evenodd" d="M4.29036 4.62533C4.29036 3.12955 5.50293 1.91699 6.9987 1.91699C8.49447 1.91699 9.70703 3.12955 9.70703 4.62533V5.66699H4.29036V4.62533ZM3.04036 5.72549V4.62533C3.04036 2.4392 4.81257 0.666992 6.9987 0.666992C9.18482 0.666992 10.957 2.4392 10.957 4.62533V5.72549C12.4992 6.01804 13.6654 7.373 13.6654 9.00033V14.0003C13.6654 15.8413 12.173 17.3337 10.332 17.3337H3.66536C1.82442 17.3337 0.332031 15.8413 0.332031 14.0003V9.00033C0.332031 7.373 1.49816 6.01804 3.04036 5.72549ZM8.66536 11.5003C8.66536 12.4208 7.91917 13.167 6.9987 13.167C6.07822 13.167 5.33203 12.4208 5.33203 11.5003C5.33203 10.5799 6.07822 9.83366 6.9987 9.83366C7.91917 9.83366 8.66536 10.5799 8.66536 11.5003Z" fill="#D8DDE4"/>
</svg>
