<svg width="19" height="18" viewBox="0 0 19 18" fill="none" xmlns="http://www.w3.org/2000/svg">
<path d="M13.7044 0.892578C12.8433 0.906089 12.001 1.14857 11.2625 1.59554C10.5241 2.04251 9.91557 2.67813 9.49853 3.43822C9.08149 2.67813 8.47301 2.04251 7.73454 1.59554C6.99606 1.14857 6.15375 0.906089 5.29265 0.892578C3.91996 0.952741 2.62666 1.5585 1.69531 2.57751C0.763954 3.59652 0.270252 4.94596 0.322061 6.331C0.322061 9.83859 3.98194 13.6694 7.05147 16.2667C7.73682 16.8477 8.60333 17.1662 9.49853 17.1662C10.3937 17.1662 11.2602 16.8477 11.9456 16.2667C15.0151 13.6694 18.675 9.83859 18.675 6.331C18.7268 4.94596 18.2331 3.59652 17.3018 2.57751C16.3704 1.5585 15.0771 0.952741 13.7044 0.892578Z" fill="white"/>
</svg>
