<svg width="25" height="23" viewBox="0 0 25 23" fill="none" xmlns="http://www.w3.org/2000/svg">
<path d="M19.7917 0.0410156H5.20833C3.82751 0.0426696 2.50371 0.591934 1.52731 1.56833C0.550919 2.54472 0.00165402 3.86852 0 5.24935L0 17.7493C0.00165402 19.1302 0.550919 20.454 1.52731 21.4304C2.50371 22.4068 3.82751 22.956 5.20833 22.9577H19.7917C21.1725 22.956 22.4963 22.4068 23.4727 21.4304C24.4491 20.454 24.9983 19.1302 25 17.7493V5.24935C24.9983 3.86852 24.4491 2.54472 23.4727 1.56833C22.4963 0.591934 21.1725 0.0426696 19.7917 0.0410156ZM5.20833 2.12435H19.7917C20.4154 2.12558 21.0245 2.31343 21.5406 2.66373C22.0567 3.01403 22.4561 3.51075 22.6875 4.08997L14.7104 12.0681C14.1234 12.6528 13.3286 12.9811 12.5 12.9811C11.6714 12.9811 10.8766 12.6528 10.2896 12.0681L2.3125 4.08997C2.5439 3.51075 2.94335 3.01403 3.45942 2.66373C3.9755 2.31343 4.5846 2.12558 5.20833 2.12435ZM19.7917 20.8743H5.20833C4.37953 20.8743 3.58468 20.5451 2.99862 19.9591C2.41257 19.373 2.08333 18.5781 2.08333 17.7493V6.81185L8.81667 13.541C9.7944 14.5163 11.119 15.064 12.5 15.064C13.881 15.064 15.2056 14.5163 16.1833 13.541L22.9167 6.81185V17.7493C22.9167 18.5781 22.5874 19.373 22.0014 19.9591C21.4153 20.5451 20.6205 20.8743 19.7917 20.8743Z" fill="white"/>
</svg>
