<svg width="17" height="17" viewBox="0 0 17 17" fill="none" xmlns="http://www.w3.org/2000/svg">
<path d="M4.95833 0H2.83333C1.26853 0 0 1.26853 0 2.83333V4.95833C0 6.52314 1.26853 7.79167 2.83333 7.79167H4.95833C6.52314 7.79167 7.79167 6.52314 7.79167 4.95833V2.83333C7.79167 1.26853 6.52314 0 4.95833 0Z" fill="white"/>
<path d="M4.95833 9.20837H2.83333C1.26853 9.20837 0 10.4769 0 12.0417V14.1667C0 15.7315 1.26853 17 2.83333 17H4.95833C6.52314 17 7.79167 15.7315 7.79167 14.1667V12.0417C7.79167 10.4769 6.52314 9.20837 4.95833 9.20837Z" fill="white"/>
<path d="M14.1654 9.20837H12.0404C10.4756 9.20837 9.20703 10.4769 9.20703 12.0417V14.1667C9.20703 15.7315 10.4756 17 12.0404 17H14.1654C15.7302 17 16.9987 15.7315 16.9987 14.1667V12.0417C16.9987 10.4769 15.7302 9.20837 14.1654 9.20837Z" fill="white"/>
<path d="M9.91536 4.95837H12.0404V7.08337C12.0404 7.27124 12.115 7.4514 12.2478 7.58424C12.3807 7.71708 12.5608 7.79171 12.7487 7.79171C12.9366 7.79171 13.1167 7.71708 13.2496 7.58424C13.3824 7.4514 13.457 7.27124 13.457 7.08337V4.95837H15.582C15.7699 4.95837 15.9501 4.88375 16.0829 4.75091C16.2157 4.61807 16.2904 4.4379 16.2904 4.25004C16.2904 4.06218 16.2157 3.88201 16.0829 3.74917C15.9501 3.61634 15.7699 3.54171 15.582 3.54171H13.457V1.41671C13.457 1.22885 13.3824 1.04868 13.2496 0.91584C13.1167 0.783002 12.9366 0.708374 12.7487 0.708374C12.5608 0.708374 12.3807 0.783002 12.2478 0.91584C12.115 1.04868 12.0404 1.22885 12.0404 1.41671V3.54171H9.91536C9.7275 3.54171 9.54734 3.61634 9.4145 3.74917C9.28166 3.88201 9.20703 4.06218 9.20703 4.25004C9.20703 4.4379 9.28166 4.61807 9.4145 4.75091C9.54734 4.88375 9.7275 4.95837 9.91536 4.95837Z" fill="white"/>
</svg>
