<svg width="17" height="17" viewBox="0 0 17 17" fill="none" xmlns="http://www.w3.org/2000/svg">
<path d="M11.1546 12.93C11.1546 11.8675 10.4243 10.4154 9.10046 8.84078C9.02718 8.75337 8.93543 8.68331 8.8318 8.63566C8.72817 8.58801 8.61526 8.56396 8.50121 8.56523C8.38631 8.56471 8.27269 8.58921 8.16822 8.63704C8.06376 8.68487 7.97096 8.75488 7.89629 8.84219C6.44704 10.5401 5.73871 12.0417 5.86125 13.1928C5.90947 13.5567 6.03427 13.9063 6.22742 14.2185C6.42057 14.5307 6.67769 14.7984 6.98183 15.004C7.41206 15.3568 7.94532 15.5601 8.50121 15.5834C9.20471 15.5827 9.87918 15.3029 10.3766 14.8054C10.8741 14.308 11.1539 13.6335 11.1546 12.93Z" fill="white"/>
<path d="M11.7795 2.05424C11.2228 1.58107 10.6384 1.08524 10.0434 0.54407C9.8178 0.339242 9.55014 0.1862 9.25918 0.0956577C8.96823 0.00511529 8.66099 -0.0207396 8.35899 0.0199029C8.0663 0.0586674 7.78569 0.161229 7.53698 0.320343C7.28827 0.479457 7.07754 0.691242 6.91966 0.940736C6.0756 2.35162 5.47864 3.89626 5.15449 5.50807C5.02768 5.32444 4.91496 5.13145 4.81733 4.93078C4.71707 4.71954 4.56608 4.53641 4.37784 4.39771C4.1896 4.25901 3.96996 4.16906 3.7385 4.13588C3.50705 4.10271 3.27098 4.12734 3.05135 4.20758C2.83173 4.28782 2.63538 4.42117 2.47983 4.59574C1.29217 5.8101 0.633814 7.44542 0.648786 9.14395C0.632361 10.879 1.19663 12.5696 2.25182 13.947C3.30702 15.3244 4.79252 16.3093 6.47199 16.7451C7.11504 16.9069 7.77525 16.9906 8.43833 16.9944C7.59097 16.9628 6.77652 16.6582 6.11641 16.126C5.65912 15.8041 5.27461 15.3897 4.98784 14.9097C4.70107 14.4296 4.51845 13.8946 4.45183 13.3394C4.28891 11.774 5.08437 9.95145 6.81624 7.92278C7.02401 7.67923 7.28229 7.48382 7.57317 7.35013C7.86404 7.21643 8.18053 7.14765 8.50066 7.14857H8.50774C8.82693 7.14883 9.14223 7.21868 9.43167 7.35324C9.72111 7.48781 9.97773 7.68386 10.1837 7.92774C11.2731 9.22186 12.5729 11.14 12.5729 12.9293C12.5713 13.9604 12.1786 14.9525 11.4741 15.7054C10.7696 16.4583 9.80566 16.916 8.77691 16.9859C10.811 16.9204 12.7397 16.0656 14.1544 14.6026C15.5691 13.1396 16.3588 11.1833 16.3561 9.1482C16.3525 5.93944 14.2332 4.14028 11.7795 2.05424Z" fill="white"/>
</svg>
