<svg width="23" height="23" viewBox="0 0 23 23" fill="none" xmlns="http://www.w3.org/2000/svg">
<path d="M8.79444 12.1473C9.76739 12.344 10.7392 12.1157 11.5036 11.5322C12.2696 12.1168 13.2417 12.3437 14.2128 12.1473C15.5506 11.8768 16.6074 10.7931 16.8424 9.45057C17.0569 8.22498 16.5921 6.98514 15.6295 6.21482C15.1489 5.83036 14.8729 5.27354 14.8729 4.68721V0.669903C14.8729 0.297705 14.5716 0 14.1994 0H8.80783C8.43563 0 8.13388 0.29766 8.13388 0.669903V4.68725C8.13388 5.27359 7.85828 5.83036 7.37776 6.21487C6.41509 6.98514 5.95029 8.22498 6.16483 9.45057C6.39986 10.7931 7.45665 11.8768 8.79444 12.1473Z" fill="white"/>
<path d="M16.8242 12.218C16.1885 12.8407 15.3784 13.2855 14.4775 13.4679C13.4945 13.6665 12.449 13.5618 11.5009 13.1053C10.5516 13.5627 9.50562 13.6661 8.5248 13.4679C7.62351 13.2855 6.81298 12.8403 6.17767 12.2175C6.13229 12.4372 6.10938 12.6623 6.10938 12.8901C6.10938 13.9136 6.56676 14.8693 7.36337 15.5131C7.8513 15.9072 8.13122 16.4769 8.13122 17.0762V22.3254C8.13122 22.6974 8.43314 22.9993 8.80516 22.9993H14.1967C14.5692 22.9993 14.8702 22.6974 14.8702 22.3254V17.0762C14.8702 16.4769 15.1506 15.9072 15.6385 15.5131C16.4356 14.8693 16.8925 13.9136 16.8925 12.8901C16.8925 12.6628 16.8696 12.4372 16.8242 12.218V12.218Z" fill="white"/>
</svg>
