<svg width="15" height="21" viewBox="0 0 15 21" fill="none" xmlns="http://www.w3.org/2000/svg">
<path d="M13.3418 6.80859H11.8042C11.8042 6.12896 11.2534 5.57812 10.5737 5.57812H9.62791C9.20175 6.31313 8.40605 6.80859 7.49714 6.80859C6.58783 6.80859 5.79253 6.31313 5.36638 5.57812H4.42097C3.74134 5.57854 3.19091 6.12896 3.19091 6.80859H1.65332C1.14366 6.80859 0.730469 7.22179 0.730469 7.73145C0.730469 8.24111 1.14366 8.6543 1.65332 8.6543H3.19042C3.19042 9.33388 3.7413 9.88477 4.42089 9.88477H6.26659C6.26659 10.5644 6.81748 11.1152 7.49706 11.1152C8.17665 11.1152 8.72753 10.5644 8.72753 9.88477H10.5737C11.2534 9.88477 11.8042 9.33393 11.8042 8.6543H13.3418C13.8514 8.6543 14.2646 8.24111 14.2646 7.73145C14.2646 7.22179 13.8514 6.80859 13.3418 6.80859Z" fill="white"/>
<path d="M13.3418 12.3457H11.8042C11.8042 11.6661 11.2534 11.1152 10.5737 11.1152H9.62791C9.20175 11.8502 8.40605 12.3457 7.49714 12.3457C6.58783 12.3457 5.79253 11.8502 5.36638 11.1152H4.42097C3.74134 11.1156 3.19091 11.6661 3.19091 12.3457H1.65332C1.14366 12.3457 0.730469 12.7589 0.730469 13.2686C0.730469 13.7782 1.14366 14.1914 1.65332 14.1914H3.19042C3.19042 14.871 3.7413 15.4219 4.42089 15.4219H6.26659C6.26659 16.1015 6.81748 16.6523 7.49706 16.6523C8.17665 16.6523 8.72753 16.1015 8.72753 15.4219H10.5737C11.2534 15.4219 11.8042 14.871 11.8042 14.1914H13.3418C13.8514 14.1914 14.2646 13.7782 14.2646 13.2686C14.2646 12.7589 13.8514 12.3457 13.3418 12.3457Z" fill="white"/>
<path d="M13.3418 17.8828H11.8042C11.8042 17.2032 11.2534 16.6523 10.5737 16.6523H9.62791C9.20175 17.3873 8.40605 17.8828 7.49714 17.8828C6.58783 17.8828 5.79253 17.3873 5.36638 16.6523H4.42097C3.74134 16.6528 3.19091 17.2032 3.19091 17.8828H1.65332C1.14366 17.8828 0.730469 18.296 0.730469 18.8057V18.8467C0.730469 19.3563 1.14366 19.7695 1.65332 19.7695H3.19091C3.19091 20.4492 3.74175 21 4.42138 21H10.5737C11.2534 21 11.8042 20.4492 11.8042 19.7695H13.3418C13.8514 19.7695 14.2646 19.3563 14.2646 18.8467V18.8057C14.2646 18.296 13.8514 17.8828 13.3418 17.8828Z" fill="white"/>
<path d="M13.3213 1.23047H11.8042C11.8042 0.550922 11.2533 0 10.5737 0H4.42138C3.74179 0 3.19091 0.550922 3.19091 1.23047H1.67383C1.15281 1.23047 0.730469 1.65281 0.730469 2.17383C0.730469 2.69485 1.15281 3.11719 1.67383 3.11719H3.19042C3.19042 3.79678 3.7413 4.34766 4.42089 4.34766H6.26659C6.26659 5.02724 6.81748 5.57812 7.49706 5.57812C8.17665 5.57812 8.72753 5.02724 8.72753 4.34766H10.5737C11.2533 4.34766 11.8042 3.79673 11.8042 3.11719H13.3213C13.8423 3.11719 14.2646 2.69485 14.2646 2.17383C14.2646 1.65281 13.8423 1.23047 13.3213 1.23047Z" fill="white"/>
</svg>
