<svg width="21" height="18" viewBox="0 0 21 18" fill="none" xmlns="http://www.w3.org/2000/svg">
<path d="M19.5092 0.301827C18.6067 -0.184135 17.6 0.753078 17.01 1.30846C15.6563 2.6275 14.5108 4.15481 13.2264 5.54328C11.8032 7.07058 10.4842 8.59789 9.02629 10.0905C8.19321 10.9236 7.29071 11.8261 6.73532 12.8675C5.4857 11.6525 4.40965 10.3335 3.02118 9.25747C2.01455 8.49382 0.348391 7.93843 0.383102 9.77814C0.452525 12.1733 2.56993 14.742 4.13195 16.3733C4.79147 17.0676 5.65926 17.7965 6.6659 17.8312C7.8808 17.9007 9.13042 16.4428 9.85936 15.6444C11.1437 14.2559 12.1851 12.6939 13.3652 11.2707C14.8925 9.39632 16.4546 7.55655 17.9472 5.64741C18.8844 4.46722 21.8349 1.55139 19.5092 0.301827ZM1.91036 9.6393C1.87564 9.6393 1.84093 9.6393 1.77151 9.67395C1.63266 9.6393 1.52853 9.60453 1.38968 9.53511C1.49382 9.46568 1.66737 9.50039 1.91036 9.6393Z" fill="#2F2F2F"/>
</svg>
