<svg width="24" height="24" viewBox="0 0 24 24" fill="none" xmlns="http://www.w3.org/2000/svg">
<mask id="mask0_3236_86364" style="mask-type:luminance" maskUnits="userSpaceOnUse" x="3" y="1" width="18" height="23">
<path fill-rule="evenodd" clip-rule="evenodd" d="M12 23.3276L12.6577 22.7533C18.1887 17.9237 21 13.7068 21 10C21 4.75066 16.9029 1 12 1C7.09705 1 3 4.75066 3 10C3 13.7068 5.81131 17.9237 11.3423 22.7533L12 23.3276ZM12 20.6634C7.30658 16.4335 4.99997 12.8492 4.99997 10C4.99997 5.8966 8.16408 3 12 3C15.8359 3 19 5.8966 19 10C19 12.8492 16.6934 16.4335 12 20.6634ZM12 5.00027C14.7615 5.00027 17 7.23885 17 10.0003C17 12.7617 14.7615 15.0003 12 15.0003C9.23861 15.0003 7.00003 12.7617 7.00003 10.0003C7.00003 7.23885 9.23861 5.00027 12 5.00027ZM9 10.0002C9 8.34339 10.3431 7.00024 12 7.00024C13.6569 7.00024 15 8.34339 15 10.0002C15 11.6571 13.6569 13.0002 12 13.0002C10.3431 13.0002 9 11.6571 9 10.0002Z" fill="white"/>
</mask>
<g mask="url(#mask0_3236_86364)">
<rect width="24" height="24" fill="#2F2F2F"/>
</g>
</svg>
