<svg width="45" height="45" viewBox="0 0 45 45" fill="none" xmlns="http://www.w3.org/2000/svg">
<g clip-path="url(#clip0_2201_26107)">
<path d="M7.07146 18.4217L11.4598 9.701L15.3548 18.3342L22.9635 18.3332L25.4664 24.7938L31.2833 9.24747L35.2833 18.4396L44.6203 18.4368C45.4532 14.984 44.9153 11.4451 43.0095 8.33217C39.7984 3.08723 35.3228 1.95804 32.1333 1.934C29.4149 1.9134 26.7188 2.69446 24.3482 4.18998L22.5001 5.34766L20.6554 4.19204C18.2813 2.69446 15.59 1.91306 12.8664 1.934C9.67729 1.95804 5.20173 3.08723 1.99063 8.33217C0.0875909 11.4406 -0.451769 14.9741 0.375982 18.4217H7.07146Z" fill="white"/>
<path d="M33.5553 21.0771L31.4669 16.2781L25.5089 32.2031L21.1573 20.9703L13.6519 20.9717L11.3296 15.8242L8.69567 21.0589H1.28711C1.44504 21.406 1.61567 21.7513 1.80278 22.0933C3.71303 25.5863 6.67625 28.3744 9.54196 31.0708C10.0466 31.5457 10.5235 31.9944 10.998 32.4496C12.7754 34.1563 14.5754 35.8022 16.3161 37.3938C18.045 38.9745 19.8327 40.609 21.5868 42.293L22.4997 43.1695L23.4126 42.293C25.1666 40.6087 26.9543 38.9745 28.6832 37.3938C30.4239 35.8022 32.2239 34.1563 34.0013 32.4496C34.4754 31.9944 34.9523 31.5457 35.457 31.0708C38.3227 28.3744 41.2859 25.5863 43.1965 22.0933C43.3809 21.7562 43.5491 21.4159 43.7053 21.074L33.5553 21.0771Z" fill="white"/>
</g>
<defs>
<clipPath id="clip0_2201_26107">
<rect width="45" height="45" fill="white"/>
</clipPath>
</defs>
</svg>
