<svg width="24" height="24" viewBox="0 0 24 24" fill="none" xmlns="http://www.w3.org/2000/svg">
<path d="M23.8352 8.79347C23.6307 8.14236 23.222 7.57438 22.6697 7.1735C22.1173 6.77262 21.4507 6.56013 20.7682 6.56747H16.3992L15.0722 2.43147C14.8635 1.78042 14.4535 1.21248 13.9012 0.809531C13.3489 0.406583 12.6829 0.189453 11.9992 0.189453C11.3155 0.189453 10.6495 0.406583 10.0972 0.809531C9.54495 1.21248 9.13489 1.78042 8.92622 2.43147L7.59922 6.56747H3.23022C2.54996 6.56843 1.88741 6.78435 1.3372 7.18437C0.786984 7.58439 0.377257 8.14806 0.166538 8.79485C-0.0441816 9.44165 -0.0451143 10.1385 0.163873 10.7859C0.37286 11.4332 0.781077 11.998 1.33022 12.3995L4.88622 14.9995L3.53422 19.1865C3.31573 19.8359 3.31296 20.5385 3.52633 21.1896C3.73969 21.8406 4.15776 22.4053 4.71822 22.7995C5.26907 23.2062 5.93661 23.4242 6.62137 23.4207C7.30613 23.4173 7.97146 23.1927 8.51822 22.7805L11.9992 20.2185L15.4812 22.7775C16.0311 23.1819 16.695 23.4016 17.3776 23.4049C18.0602 23.4082 18.7262 23.195 19.28 22.796C19.8338 22.3969 20.2467 21.8325 20.4595 21.1839C20.6723 20.5354 20.6739 19.836 20.4642 19.1865L19.1122 14.9995L22.6722 12.3995C23.2276 12.003 23.6406 11.4383 23.8501 10.7888C24.0596 10.1394 24.0543 9.43972 23.8352 8.79347ZM21.4922 10.7845L17.3482 13.8135C17.178 13.9376 17.0514 14.1124 16.9864 14.3128C16.9213 14.5132 16.9213 14.729 16.9862 14.9295L18.5612 19.7995C18.6409 20.0465 18.6402 20.3124 18.5593 20.559C18.4783 20.8056 18.3212 21.0201 18.1106 21.1718C17.9 21.3235 17.6468 21.4045 17.3872 21.4032C17.1277 21.4019 16.8753 21.3183 16.6662 21.1645L12.5912 18.1645C12.4196 18.0384 12.2122 17.9704 11.9992 17.9704C11.7863 17.9704 11.5789 18.0384 11.4072 18.1645L7.33222 21.1645C7.1233 21.3204 6.87015 21.4057 6.60948 21.4081C6.34881 21.4104 6.09416 21.3297 5.88245 21.1776C5.67073 21.0255 5.51296 20.8099 5.43201 20.5622C5.35106 20.3144 5.35113 20.0472 5.43222 19.7995L7.01222 14.9295C7.07713 14.729 7.07709 14.5132 7.01208 14.3128C6.94707 14.1124 6.82043 13.9376 6.65022 13.8135L2.50622 10.7845C2.29752 10.6317 2.14245 10.4168 2.06316 10.1706C1.98386 9.92441 1.9844 9.65944 2.0647 9.41356C2.145 9.16769 2.30094 8.95347 2.51026 8.80152C2.71958 8.64957 2.97156 8.56765 3.23022 8.56747H8.33022C8.54193 8.56746 8.74818 8.50026 8.91926 8.37554C9.09035 8.25082 9.21743 8.07503 9.28222 7.87347L10.8322 3.04247C10.9118 2.79525 11.0677 2.57966 11.2776 2.42671C11.4875 2.27377 11.7405 2.19137 12.0002 2.19137C12.2599 2.19137 12.5129 2.27377 12.7228 2.42671C12.9327 2.57966 13.0887 2.79525 13.1682 3.04247L14.7182 7.87347C14.783 8.07503 14.9101 8.25082 15.0812 8.37554C15.2523 8.50026 15.4585 8.56746 15.6702 8.56747H20.7702C21.0289 8.56765 21.2809 8.64957 21.4902 8.80152C21.6995 8.95347 21.8554 9.16769 21.9357 9.41356C22.016 9.65944 22.0166 9.92441 21.9373 10.1706C21.858 10.4168 21.7029 10.6317 21.4942 10.7845H21.4922Z" fill="#D8DDE4"/>
</svg>
