<svg width="24" height="24" viewBox="0 0 24 24" fill="none" xmlns="http://www.w3.org/2000/svg">
<path d="M23.7076 5.29243L18.7076 0.292431C18.519 0.110273 18.2664 0.00947813 18.0042 0.0117566C17.742 0.014035 17.4912 0.119204 17.3058 0.304612C17.1203 0.49002 17.0152 0.740833 17.0129 1.00303C17.0106 1.26523 17.1114 1.51783 17.2936 1.70643L19.0866 3.49943L17.6006 4.98243C16.6402 4.27725 15.4595 3.93821 14.2713 4.0264C13.083 4.11458 11.9654 4.6242 11.1196 5.46343L5.05057 11.5354C4.39865 12.1839 3.88179 12.9551 3.52991 13.8046C3.17803 14.6541 2.99811 15.5649 3.00057 16.4844V19.5844L0.293569 22.2924C0.198059 22.3847 0.121877 22.495 0.0694681 22.617C0.0170591 22.739 -0.0105272 22.8702 -0.011681 23.003C-0.0128348 23.1358 0.0124669 23.2675 0.0627478 23.3904C0.113029 23.5133 0.187282 23.6249 0.281174 23.7188C0.375067 23.8127 0.486719 23.887 0.609615 23.9373C0.732512 23.9875 0.864191 24.0128 0.996971 24.0117C1.12975 24.0105 1.26097 23.9829 1.38297 23.9305C1.50498 23.8781 1.61532 23.8019 1.70757 23.7064L4.41457 20.9994H7.51457C8.43405 21.0019 9.34489 20.822 10.1944 20.4701C11.0439 20.1182 11.8151 19.6014 12.4636 18.9494L18.5356 12.8774C19.3755 12.0327 19.8857 10.9155 19.9741 9.72753C20.0624 8.53959 19.7232 7.35918 19.0176 6.39943L20.5006 4.91343L22.2936 6.70643C22.4822 6.88859 22.7348 6.98938 22.997 6.9871C23.2592 6.98483 23.51 6.87966 23.6954 6.69425C23.8808 6.50884 23.986 6.25803 23.9882 5.99583C23.9905 5.73363 23.8897 5.48103 23.7076 5.29243ZM17.1226 11.4634L11.0506 17.5354C10.5874 18.001 10.0365 18.3702 9.42969 18.6215C8.82291 18.8728 8.17232 19.0012 7.51557 18.9994H5.00057V16.4844C5.00087 16.1568 5.03269 15.83 5.09557 15.5084L6.29557 16.7084C6.38782 16.8039 6.49816 16.8801 6.62016 16.9325C6.74217 16.9849 6.87339 17.0125 7.00617 17.0137C7.13895 17.0148 7.27063 16.9895 7.39352 16.9393C7.51642 16.889 7.62807 16.8147 7.72196 16.7208C7.81586 16.6269 7.89011 16.5153 7.94039 16.3924C7.99067 16.2695 8.01597 16.1378 8.01482 16.005C8.01367 15.8722 7.98608 15.741 7.93367 15.619C7.88126 15.497 7.80508 15.3867 7.70957 15.2944L5.96857 13.5534C6.1193 13.3407 6.28648 13.1401 6.46857 12.9534L7.50057 11.9134L9.29357 13.7064C9.48217 13.8886 9.73477 13.9894 9.99697 13.9871C10.2592 13.9848 10.51 13.8797 10.6954 13.6942C10.8808 13.5088 10.986 13.258 10.9882 12.9958C10.9905 12.7336 10.8897 12.481 10.7076 12.2924L8.91457 10.4994L10.5006 8.91343L12.2936 10.7064C12.4822 10.8886 12.7348 10.9894 12.997 10.9871C13.2592 10.9848 13.51 10.8797 13.6954 10.6942C13.8808 10.5088 13.986 10.258 13.9882 9.99583C13.9905 9.73363 13.8897 9.48103 13.7076 9.29243L11.9146 7.49943L12.5366 6.87743C13.1081 6.33225 13.8677 6.0281 14.6576 6.0281C15.4475 6.0281 16.207 6.33225 16.7786 6.87743L17.1226 7.22143C17.685 7.78401 18.0009 8.54694 18.0009 9.34243C18.0009 10.1379 17.685 10.9008 17.1226 11.4634Z" fill="#CFD7E2"/>
</svg>
