<svg width="24" height="23" viewBox="0 0 24 23" fill="none" xmlns="http://www.w3.org/2000/svg">
<path d="M17.5009 0.917969C16.3749 0.935484 15.2734 1.24982 14.3077 1.82924C13.342 2.40866 12.5463 3.23264 12.0009 4.21797C11.4556 3.23264 10.6599 2.40866 9.69417 1.82924C8.72848 1.24982 7.62698 0.935484 6.50094 0.917969C4.70588 0.995959 3.01464 1.78122 1.79672 3.1022C0.578794 4.42318 -0.0668157 6.17249 0.000934853 7.96797C0.000934853 12.515 4.78693 17.481 8.80093 20.848C9.69715 21.6011 10.8303 22.014 12.0009 22.014C13.1716 22.014 14.3047 21.6011 15.2009 20.848C19.2149 17.481 24.0009 12.515 24.0009 7.96797C24.0687 6.17249 23.4231 4.42318 22.2052 3.1022C20.9872 1.78122 19.296 0.995959 17.5009 0.917969ZM13.9159 19.318C13.3799 19.7693 12.7017 20.0169 12.0009 20.0169C11.3002 20.0169 10.622 19.7693 10.0859 19.318C4.94793 15.007 2.00093 10.871 2.00093 7.96797C1.93258 6.70268 2.3673 5.4617 3.2103 4.51567C4.0533 3.56964 5.23617 2.99532 6.50094 2.91797C7.7657 2.99532 8.94857 3.56964 9.79157 4.51567C10.6346 5.4617 11.0693 6.70268 11.0009 7.96797C11.0009 8.23319 11.1063 8.48754 11.2938 8.67508C11.4814 8.86261 11.7357 8.96797 12.0009 8.96797C12.2662 8.96797 12.5205 8.86261 12.708 8.67508C12.8956 8.48754 13.0009 8.23319 13.0009 7.96797C12.9326 6.70268 13.3673 5.4617 14.2103 4.51567C15.0533 3.56964 16.2362 2.99532 17.5009 2.91797C18.7657 2.99532 19.9486 3.56964 20.7916 4.51567C21.6346 5.4617 22.0693 6.70268 22.0009 7.96797C22.0009 10.871 19.0539 15.007 13.9159 19.314V19.318Z" fill="#CFD7E2"/>
</svg>
