<svg width="45" height="43" viewBox="0 0 45 43" fill="none" xmlns="http://www.w3.org/2000/svg">
<path d="M9.375 4.225L9.37421 4.225C8.17165 4.22737 6.99731 4.58954 6.00232 5.26492C5.00732 5.9403 4.2372 6.89799 3.79105 8.01473L3.69324 8.25953L3.87964 8.44595L18.2384 22.8066L18.239 22.8072C19.3706 23.9343 20.9028 24.5671 22.5 24.5671C24.0972 24.5671 25.6294 23.9343 26.761 22.8072L26.7616 22.8066L41.1204 8.44595L41.3068 8.25953L41.209 8.01473C40.7628 6.89799 39.9927 5.9403 38.9977 5.26492C38.0027 4.58954 36.8283 4.22737 35.6258 4.225H35.625L9.375 4.225ZM4.03276 12.7796L3.35 12.0972V13.0625V32.75C3.35 34.3479 3.98478 35.8804 5.11468 37.0103L5.39752 36.7275L5.11468 37.0103C6.24459 38.1402 7.77707 38.775 9.375 38.775H35.625C37.2229 38.775 38.7554 38.1402 39.8853 37.0103C41.0152 35.8804 41.65 34.3479 41.65 32.75V13.0625V12.0972L40.9672 12.7796L28.8475 24.8918C27.1626 26.5725 24.8799 27.5163 22.5 27.5163C20.1201 27.5163 17.8374 26.5725 16.1525 24.8918L4.03276 12.7796ZM3.032 3.907C4.71456 2.22445 6.99575 1.27792 9.37523 1.275H35.6248C38.0042 1.27792 40.2854 2.22445 41.968 3.907C43.6506 5.58962 44.5972 7.87091 44.6 10.2505V32.7495C44.5972 35.1291 43.6506 37.4104 41.968 39.093C40.2854 40.7756 38.0041 41.7222 35.6245 41.725H9.37548C6.99591 41.7222 4.71462 40.7756 3.032 39.093C1.34945 37.4104 0.402915 35.1292 0.4 32.7498V10.2502C0.402915 7.87075 1.34945 5.58956 3.032 3.907Z" fill="#36B4F1" stroke="white" stroke-width="0.8"/>
</svg>
