<svg width="45" height="45" viewBox="0 0 45 45" fill="none" xmlns="http://www.w3.org/2000/svg">
<path d="M21.2819 25.8318V12.4544H23.7181V24.192V24.2877L23.805 24.328L32.0084 28.1363L30.9783 30.3332L21.2819 25.8318ZM22.5 4.28054C25.1753 4.28054 27.8245 4.80525 30.2961 5.82471C32.7678 6.84416 35.0135 8.33838 36.9052 10.222C38.7969 12.1057 40.2974 14.3418 41.3211 16.8028C42.3448 19.2639 42.8717 21.9015 42.8717 24.5653C42.8717 27.229 42.3448 29.8667 41.3211 32.3277C40.2974 34.7887 38.7969 37.0249 36.9052 38.9085C35.0135 40.7922 32.7678 42.2864 30.2961 43.3058C27.8245 44.3253 25.1753 44.85 22.5 44.85C17.0969 44.85 11.9152 42.7127 8.0948 38.9085C4.27444 35.1043 2.12829 29.9449 2.12829 24.5653C2.12829 19.1856 4.27444 14.0262 8.0948 10.222C11.9152 6.41783 17.0969 4.28054 22.5 4.28054ZM22.5 6.70517C17.7434 6.70517 13.1815 8.5867 9.81793 11.936C6.4543 15.2854 4.56452 19.8283 4.56452 24.5653C4.56452 29.3023 6.4543 33.8451 9.81793 37.1945C13.1815 40.5438 17.7434 42.4254 22.5 42.4254C27.2566 42.4254 31.8185 40.5438 35.1821 37.1945C38.5457 33.8451 40.4355 29.3023 40.4355 24.5653C40.4355 19.8283 38.5457 15.2854 35.1821 11.936C31.8185 8.5867 27.2566 6.70517 22.5 6.70517ZM43.2222 10.6332L32.9726 2.06856L34.5387 0.210871L44.7882 8.77547L43.2222 10.6332ZM12.0274 2.06856L1.77782 10.6332L0.211787 8.77547L10.4613 0.21087L12.0274 2.06856Z" fill="#FE7200" stroke="white" stroke-width="0.3"/>
</svg>
