<svg width="39" height="45" viewBox="0 0 39 45" fill="none" xmlns="http://www.w3.org/2000/svg">
<path d="M15.1667 8.57143H32.5C34.2239 8.57143 35.8772 9.24872 37.0962 10.4543C38.3152 11.6599 39 13.295 39 15V38.5714C39 40.2764 38.3152 41.9115 37.0962 43.1171C35.8772 44.3227 34.2239 45 32.5 45H15.1667C13.4428 45 11.7895 44.3227 10.5705 43.1171C9.35149 41.9115 8.66667 40.2764 8.66667 38.5714V36.4286H10.8333V38.5714C10.8333 39.7081 11.2899 40.7982 12.1025 41.6019C12.9152 42.4056 14.0174 42.8571 15.1667 42.8571H32.5C33.6493 42.8571 34.7515 42.4056 35.5641 41.6019C36.3768 40.7982 36.8333 39.7081 36.8333 38.5714V15C36.8333 13.8634 36.3768 12.7733 35.5641 11.9695C34.7515 11.1658 33.6493 10.7143 32.5 10.7143H15.1667C14.0174 10.7143 12.9152 11.1658 12.1025 11.9695C11.2899 12.7733 10.8333 13.8634 10.8333 15V25.7143H8.66667V15C8.66667 13.295 9.35149 11.6599 10.5705 10.4543C11.7895 9.24872 13.4428 8.57143 15.1667 8.57143ZM6.5 0H28.1667V2.14286H6.5C5.35073 2.14286 4.24853 2.59439 3.43587 3.39811C2.62321 4.20184 2.16667 5.29193 2.16667 6.42857V25.7143C2.16667 26.8509 2.62321 27.941 3.43587 28.7447C4.24853 29.5485 5.35073 30 6.5 30H22.2083L17.3333 25.1786L18.772 23.5714L26.3553 31.0714L18.772 38.5714L17.3333 36.9643L22.2083 32.1429H6.5C4.77609 32.1429 3.12279 31.4656 1.90381 30.26C0.68482 29.0544 0 27.4192 0 25.7143V6.42857C0 4.72361 0.68482 3.08848 1.90381 1.88289C3.12279 0.677294 4.77609 0 6.5 0Z" fill="#FE7200"/>
</svg>
