<svg width="28" height="29" viewBox="0 0 28 29" fill="none" xmlns="http://www.w3.org/2000/svg">
<path d="M13.2196 2.26686C13.5565 1.64913 14.4435 1.64913 14.7804 2.26686L18.1593 8.46259C18.2872 8.69702 18.5136 8.86155 18.7761 8.9107L25.7128 10.2097C26.4044 10.3392 26.6784 11.1828 26.1951 11.6941L21.3467 16.8222C21.1633 17.0163 21.0768 17.2825 21.1111 17.5473L22.0193 24.5458C22.1098 25.2436 21.3922 25.765 20.7566 25.4632L14.3812 22.4369C14.14 22.3224 13.86 22.3224 13.6188 22.4369L7.24342 25.4632C6.60778 25.765 5.8902 25.2436 5.98074 24.5458L6.88886 17.5473C6.92322 17.2825 6.83672 17.0163 6.65328 16.8222L1.80494 11.6941C1.32156 11.1828 1.59565 10.3392 2.28725 10.2097L9.2239 8.9107C9.48635 8.86155 9.71281 8.69702 9.84066 8.46259L13.2196 2.26686Z" fill="#FE7200"/>
<g clip-path="url(#clip0_3704_23071)">
<path d="M13.6586 2.50626C13.806 2.236 14.194 2.236 14.3414 2.50625L17.7204 8.70199C17.9201 9.06828 18.274 9.32536 18.6841 9.40215L25.6207 10.7011C25.9233 10.7578 26.0432 11.1269 25.8317 11.3506L20.9834 16.4787C20.6968 16.7819 20.5616 17.1979 20.6153 17.6116L21.5234 24.6102C21.563 24.9155 21.2491 25.1435 20.971 25.0115L14.5956 21.9852C14.2187 21.8063 13.7813 21.8063 13.4044 21.9852L7.02901 25.0115C6.75091 25.1435 6.43697 24.9155 6.47658 24.6102L7.38471 17.6116C7.4384 17.1979 7.30324 16.7819 7.01661 16.4787L2.16827 11.3506C1.95679 11.1269 2.0767 10.7578 2.37928 10.7011L9.31593 9.40215C9.72602 9.32536 10.0799 9.06828 10.2796 8.70199L13.6586 2.50626Z" fill="#EEF3F7" stroke="#FE7200"/>
</g>
<defs>
<clipPath id="clip0_3704_23071">
<rect width="14" height="28" fill="white" transform="translate(14 0.335938)"/>
</clipPath>
</defs>
</svg>
