<svg width="24" height="24" viewBox="0 0 24 24" fill="none" xmlns="http://www.w3.org/2000/svg">
<g clip-path="url(#clip0_3672_37412)">
<path d="M23.8359 8.79347C23.6314 8.14236 23.2227 7.57438 22.6704 7.1735C22.1181 6.77262 21.4514 6.56013 20.7689 6.56747H16.3999L15.0729 2.43147C14.8643 1.78042 14.4542 1.21248 13.9019 0.809531C13.3496 0.406583 12.6836 0.189453 11.9999 0.189453C11.3163 0.189453 10.6503 0.406583 10.098 0.809531C9.54568 1.21248 9.13563 1.78042 8.92695 2.43147L7.59995 6.56747H3.23095C2.55069 6.56843 1.88814 6.78435 1.33793 7.18437C0.787717 7.58439 0.377989 8.14806 0.16727 8.79485C-0.0434492 9.44165 -0.0443818 10.1385 0.164605 10.7859C0.373593 11.4332 0.78181 11.998 1.33095 12.3995L4.88695 14.9995L3.53495 19.1865C3.31646 19.8359 3.31369 20.5385 3.52706 21.1896C3.74042 21.8406 4.15849 22.4053 4.71895 22.7995C5.2698 23.2062 5.93734 23.4242 6.6221 23.4207C7.30686 23.4173 7.97219 23.1927 8.51895 22.7805L11.9999 20.2185L15.4819 22.7775C16.0318 23.1819 16.6957 23.4016 17.3783 23.4049C18.0609 23.4082 18.7269 23.195 19.2807 22.796C19.8345 22.3969 20.2474 21.8325 20.4602 21.1839C20.673 20.5354 20.6747 19.836 20.4649 19.1865L19.1129 14.9995L22.6729 12.3995C23.2284 12.003 23.6414 11.4383 23.8508 10.7888C24.0603 10.1394 24.0551 9.43972 23.8359 8.79347ZM21.4929 10.7845L17.3489 13.8135C17.1787 13.9376 17.0521 14.1124 16.9871 14.3128C16.9221 14.5132 16.922 14.729 16.9869 14.9295L18.5619 19.7995C18.6416 20.0465 18.641 20.3124 18.56 20.559C18.479 20.8056 18.322 21.0201 18.1114 21.1718C17.9008 21.3235 17.6475 21.4045 17.388 21.4032C17.1284 21.4019 16.876 21.3183 16.6669 21.1645L12.5919 18.1645C12.4203 18.0384 12.2129 17.9704 11.9999 17.9704C11.787 17.9704 11.5796 18.0384 11.4079 18.1645L7.33295 21.1645C7.12403 21.3204 6.87089 21.4057 6.61021 21.4081C6.34954 21.4104 6.09489 21.3297 5.88318 21.1776C5.67147 21.0255 5.5137 20.8099 5.43274 20.5622C5.35179 20.3144 5.35186 20.0472 5.43295 19.7995L7.01295 14.9295C7.07787 14.729 7.07782 14.5132 7.01281 14.3128C6.9478 14.1124 6.82116 13.9376 6.65095 13.8135L2.50695 10.7845C2.29825 10.6317 2.14318 10.4168 2.06389 10.1706C1.9846 9.92441 1.98514 9.65944 2.06543 9.41356C2.14573 9.16769 2.30167 8.95347 2.51099 8.80152C2.72031 8.64957 2.97229 8.56765 3.23095 8.56747H8.33095C8.54266 8.56746 8.74891 8.50026 8.92 8.37554C9.09108 8.25082 9.21816 8.07503 9.28295 7.87347L10.8329 3.04247C10.9125 2.79525 11.0685 2.57966 11.2784 2.42671C11.4882 2.27377 11.7412 2.19137 12.0009 2.19137C12.2607 2.19137 12.5137 2.27377 12.7235 2.42671C12.9334 2.57966 13.0894 2.79525 13.1689 3.04247L14.7189 7.87347C14.7837 8.07503 14.9108 8.25082 15.0819 8.37554C15.253 8.50026 15.4592 8.56746 15.6709 8.56747H20.7709C21.0296 8.56765 21.2816 8.64957 21.4909 8.80152C21.7002 8.95347 21.8562 9.16769 21.9365 9.41356C22.0168 9.65944 22.0173 9.92441 21.938 10.1706C21.8587 10.4168 21.7036 10.6317 21.4949 10.7845H21.4929Z" fill="#D8DDE4"/>
</g>
<defs>
<clipPath id="clip0_3672_37412">
<rect width="24" height="24" fill="white"/>
</clipPath>
</defs>
</svg>
