<svg width="23" height="22" viewBox="0 0 23 22" fill="none" xmlns="http://www.w3.org/2000/svg">
<path d="M10.4811 0.625683C10.9703 -0.271207 12.2581 -0.271207 12.7472 0.625683L15.3917 5.47457C15.5773 5.81493 15.9061 6.05382 16.2872 6.12518L21.7159 7.1418C22.72 7.32984 23.118 8.55464 22.4162 9.29699L18.6218 13.3104C18.3554 13.5921 18.2298 13.9786 18.2797 14.3631L18.9904 19.8403C19.1219 20.8534 18.08 21.6104 17.1571 21.1723L12.1676 18.8038C11.8174 18.6375 11.411 18.6375 11.0607 18.8038L6.07125 21.1723C5.14835 21.6104 4.10647 20.8534 4.23793 19.8403L4.94864 14.3631C4.99853 13.9786 4.87294 13.5921 4.60659 13.3104L0.812205 9.29699C0.110364 8.55464 0.508325 7.32984 1.51247 7.1418L6.94121 6.12518C7.32227 6.05382 7.65108 5.81493 7.8367 5.47457L10.4811 0.625683Z" fill="#EEF3F7"/>
</svg>
