<svg width="24" height="25" viewBox="0 0 24 25" fill="none" xmlns="http://www.w3.org/2000/svg">
<mask id="mask0_4018_2729" style="mask-type:luminance" maskUnits="userSpaceOnUse" x="1" y="2" width="21" height="21">
<path fill-rule="evenodd" clip-rule="evenodd" d="M10.8565 8.3592C11.3746 7.65918 11.5604 6.92143 10.9744 6.27021C9.65949 4.42547 8.77515 3.28468 8.22044 2.73531C7.16589 1.69088 5.43112 1.83215 4.51779 2.73442C4.02723 3.21903 3.86116 3.38545 3.35747 3.89839C0.551816 6.71281 2.26285 12.6624 6.81139 17.2272C11.3589 21.791 17.2926 23.5074 20.1041 20.687C20.5689 20.2378 20.9624 19.843 21.2728 19.5141C22.1678 18.5656 22.3037 16.9031 21.2669 15.823C20.7354 15.2693 19.6503 14.4254 17.7329 13.0504C17.1457 12.5239 16.4494 12.638 15.811 13.0579C15.504 13.2599 15.2805 13.4642 14.8585 13.8876L14.0923 14.6563C13.9914 14.7575 12.621 14.0695 11.2907 12.7344C9.95972 11.3987 9.2739 10.0247 9.37435 9.92396L10.1411 9.15478C10.275 9.02042 10.339 8.95538 10.4211 8.86889C10.5921 8.68869 10.7337 8.52517 10.8565 8.3592ZM15.5057 16.0766L16.2721 15.3078C16.5044 15.0747 16.6549 14.9314 16.7773 14.8326C18.457 16.042 19.4297 16.8024 19.8271 17.2163C20.0656 17.4648 20.0286 17.9183 19.8212 18.138C19.5342 18.4422 19.1613 18.8162 18.7037 19.2587C16.8857 21.0822 12.0959 19.6967 8.22513 15.8121C4.35315 11.9263 2.97189 7.12333 4.7762 5.31334C5.27786 4.80252 5.43681 4.64324 5.92036 4.16555C6.10166 3.98644 6.59552 3.94622 6.81608 4.16466C7.24315 4.58762 8.03534 5.6046 9.20071 7.23215C9.14038 7.30724 9.06503 7.3921 8.97334 7.48872C8.90603 7.55964 8.84996 7.61662 8.72738 7.73964L7.96136 8.50807C6.65821 9.81449 7.76802 12.0379 9.87698 14.1544C11.9845 16.2695 14.203 17.3834 15.5057 16.0766Z" fill="white"/>
</mask>
<g mask="url(#mask0_4018_2729)">
<rect width="24" height="24.0622" fill="#36B4F1"/>
</g>
</svg>
