<svg width="24" height="24" viewBox="0 0 24 24" fill="none" xmlns="http://www.w3.org/2000/svg">
<mask id="mask0_2210_52177" style="mask-type:luminance" maskUnits="userSpaceOnUse" x="1" y="2" width="21" height="21">
<path fill-rule="evenodd" clip-rule="evenodd" d="M10.8575 8.33888C11.3756 7.64067 11.5614 6.90482 10.9754 6.25529C9.66046 4.41531 8.77612 3.27747 8.22142 2.72951C7.16686 1.68778 5.43209 1.82869 4.51877 2.72862C4.02821 3.21199 3.86214 3.37797 3.35844 3.88959C0.552792 6.69674 2.26382 12.631 6.81237 17.184C11.3599 21.736 17.2935 23.4479 20.1051 20.6348C20.5699 20.1867 20.9634 19.793 21.2738 19.465C22.1688 18.5189 22.3047 16.8607 21.2679 15.7834C20.7363 15.2311 19.6513 14.3894 17.7339 13.0179C17.1467 12.4928 16.4504 12.6066 15.812 13.0254C15.5049 13.2269 15.2815 13.4307 14.8595 13.853L14.0933 14.6197C13.9924 14.7207 12.622 14.0344 11.2917 12.7028C9.96069 11.3705 9.27487 10 9.37532 9.89959L10.1421 9.1324C10.276 8.99839 10.34 8.93351 10.4221 8.84725C10.5931 8.66752 10.7347 8.50441 10.8575 8.33888ZM15.5048 16.0337L16.2712 15.2669C16.5034 15.0345 16.6539 14.8915 16.7763 14.793C18.456 15.9992 19.4288 16.7576 19.8261 17.1705C20.0646 17.4184 20.0276 17.8706 19.8202 18.0898C19.5332 18.3932 19.1603 18.7662 18.7028 19.2076C16.8847 21.0264 12.0949 19.6445 8.22416 15.7699C4.35217 11.8941 2.97091 7.10358 4.77522 5.29827C5.27689 4.78876 5.43583 4.6299 5.91938 4.15344C6.10069 3.97479 6.59455 3.93468 6.8151 4.15255C7.24217 4.57442 8.03437 5.58878 9.19974 7.21212C9.13941 7.28702 9.06406 7.37166 8.97236 7.46803C8.90506 7.53876 8.84899 7.5956 8.72641 7.7183L7.96039 8.48474C6.65724 9.78778 7.76705 12.0055 9.876 14.1165C11.9835 16.2261 14.2021 17.3372 15.5048 16.0337Z" fill="white"/>
</mask>
<g mask="url(#mask0_2210_52177)">
<rect width="24" height="24" fill="white"/>
</g>
</svg>
