<svg width="16" height="20" viewBox="0 0 16 20" fill="none" xmlns="http://www.w3.org/2000/svg">
<path fill-rule="evenodd" clip-rule="evenodd" d="M5.40627 0.890599C5.7772 0.334202 6.40166 0 7.07037 0H8.92963C9.59834 0 10.2228 0.334202 10.5937 0.8906L11.5 2.25H15.25C15.6642 2.25 16 2.58579 16 3C16 3.41421 15.6642 3.75 15.25 3.75H0.75C0.335786 3.75 0 3.41421 0 3C0 2.58579 0.335786 2.25 0.75 2.25H4.5L5.40627 0.890599ZM11 19.75H5C2.79086 19.75 1 17.9591 1 15.75V4.75H15V15.75C15 17.9591 13.2091 19.75 11 19.75ZM6 8C6.41421 8 6.75 8.33579 6.75 8.75V15.75C6.75 16.1642 6.41421 16.5 6 16.5C5.58579 16.5 5.25 16.1642 5.25 15.75L5.25 8.75C5.25 8.33579 5.58579 8 6 8ZM10 8C10.4142 8 10.75 8.33579 10.75 8.75V15.75C10.75 16.1642 10.4142 16.5 10 16.5C9.58579 16.5 9.25 16.1642 9.25 15.75V8.75C9.25 8.33579 9.58579 8 10 8Z" fill="#919395"/>
</svg>
