<svg width="20" height="20" viewBox="0 0 20 20" fill="none" xmlns="http://www.w3.org/2000/svg">
<path d="M19.7559 4.41036L15.5893 0.243692C15.4321 0.0918938 15.2216 0.00789844 15.0031 0.00979713C14.7846 0.0116958 14.5756 0.0993366 14.4211 0.253843C14.2666 0.40835 14.1789 0.617361 14.177 0.835858C14.1751 1.05436 14.2591 1.26486 14.4109 1.42203L15.9051 2.91619L13.8426 4.97869C13.1852 4.49954 12.4019 4.22331 11.5894 4.18407C10.7769 4.14483 9.97062 4.34429 9.27011 4.75786L11.4226 6.91036C11.5022 6.98723 11.5657 7.07919 11.6094 7.18086C11.653 7.28253 11.676 7.39188 11.677 7.50252C11.6779 7.61317 11.6569 7.72291 11.615 7.82532C11.5731 7.92773 11.5112 8.02078 11.4329 8.09902C11.3547 8.17727 11.2616 8.23914 11.1592 8.28104C11.0568 8.32294 10.9471 8.34403 10.8364 8.34307C10.7258 8.34211 10.6164 8.31912 10.5148 8.27544C10.4131 8.23177 10.3211 8.16828 10.2443 8.08869L7.98844 5.83286L6.66677 7.15453L8.92261 9.41036C9.0022 9.48723 9.06568 9.57919 9.10936 9.68085C9.15303 9.78253 9.17602 9.89188 9.17698 10.0025C9.17794 10.1132 9.15686 10.2229 9.11496 10.3253C9.07306 10.4277 9.01118 10.5208 8.93294 10.599C8.85469 10.6773 8.76165 10.7391 8.65924 10.781C8.55682 10.8229 8.44709 10.844 8.33644 10.8431C8.22579 10.8421 8.11644 10.8191 8.01477 10.7754C7.9131 10.7318 7.82115 10.6683 7.74427 10.5887L5.48844 8.33286L4.16677 9.65619L6.42094 11.9104C6.50053 11.9872 6.56402 12.0792 6.60769 12.1809C6.65137 12.2825 6.67435 12.3919 6.67532 12.5025C6.67628 12.6132 6.65519 12.7229 6.61329 12.8253C6.57139 12.9277 6.50951 13.0208 6.43127 13.099C6.35303 13.1773 6.25998 13.2391 6.15757 13.281C6.05516 13.3229 5.94542 13.344 5.83477 13.3431C5.72412 13.3421 5.61477 13.3191 5.5131 13.2754C5.41143 13.2318 5.31948 13.1683 5.24261 13.0887L3.17177 11.0162C2.72894 11.8546 2.49832 12.7888 2.50011 13.737V16.3204L0.244275 18.577C0.164683 18.6539 0.101198 18.7459 0.0575238 18.8475C0.0138497 18.9492 -0.00913886 19.0585 -0.0101004 19.1692C-0.0110619 19.2798 0.0100229 19.3896 0.0519236 19.492C0.0938243 19.5944 0.155702 19.6874 0.233946 19.7657C0.31219 19.8439 0.405233 19.9058 0.507647 19.9477C0.61006 19.9896 0.719793 20.0107 0.830443 20.0097C0.941092 20.0088 1.05044 19.9858 1.15211 19.9421C1.25378 19.8984 1.34574 19.8349 1.42261 19.7554L3.67844 17.4995H6.26177C7.02801 17.5016 7.78704 17.3516 8.49495 17.0584C9.20286 16.7652 9.84559 16.3345 10.3859 15.7912L14.6126 11.5645C15.3125 10.8606 15.7377 9.92956 15.8113 8.93961C15.885 7.94965 15.6023 6.96598 15.0143 6.16619L17.0834 4.09453L18.5776 5.58869C18.7348 5.74049 18.9453 5.82449 19.1638 5.82259C19.3823 5.82069 19.5913 5.73305 19.7458 5.57854C19.9003 5.42403 19.9879 5.21502 19.9898 4.99653C19.9917 4.77803 19.9077 4.56753 19.7559 4.41036Z" fill="#D8DDE4"/>
</svg>
