<svg width="31" height="29" viewBox="0 0 31 29" fill="none" xmlns="http://www.w3.org/2000/svg">
<path d="M8.01724 9.72C7.06585 9.72 6.13581 9.43497 5.34476 8.90094C4.5537 8.36692 3.93715 7.60789 3.57306 6.71984C3.20898 5.83179 3.11372 4.85461 3.29933 3.91186C3.48493 2.96912 3.94308 2.10315 4.61581 1.42346C5.28855 0.74378 6.14568 0.28091 7.07879 0.0933857C8.01191 -0.0941384 8.97911 0.00210574 9.85808 0.369948C10.7371 0.73779 11.4883 1.36071 12.0169 2.15993C12.5455 2.95915 12.8276 3.89879 12.8276 4.86C12.8262 6.14852 12.3189 7.38385 11.4171 8.29496C10.5153 9.20608 9.29259 9.71857 8.01724 9.72ZM14.9655 21.6H1.06897C0.785458 21.6 0.513563 21.4862 0.313093 21.2837C0.112623 21.0811 0 20.8064 0 20.52V19.98C0 17.8317 0.844671 15.7715 2.3482 14.2524C3.85172 12.7334 5.89094 11.88 8.01724 11.88C10.1435 11.88 12.1828 12.7334 13.6863 14.2524C15.1898 15.7715 16.0345 17.8317 16.0345 19.98V20.52C16.0345 20.8064 15.9219 21.0811 15.7214 21.2837C15.5209 21.4862 15.249 21.6 14.9655 21.6Z" fill="white"/>
<path d="M22.9821 9.72C22.0307 9.72 21.1007 9.43497 20.3096 8.90094C19.5185 8.36692 18.902 7.60789 18.5379 6.71984C18.1738 5.83179 18.0786 4.85461 18.2642 3.91186C18.4498 2.96912 18.9079 2.10315 19.5807 1.42346C20.2534 0.74378 21.1105 0.28091 22.0436 0.0933857C22.9767 -0.0941384 23.9439 0.00210574 24.8229 0.369948C25.7019 0.73779 26.4532 1.36071 26.9817 2.15993C27.5103 2.95915 27.7924 3.89879 27.7924 4.86C27.791 6.14852 27.2838 7.38385 26.3819 8.29496C25.4801 9.20608 24.2574 9.71857 22.9821 9.72ZM29.9304 21.6H16.0338C15.7503 21.6 15.4784 21.4862 15.2779 21.2837C15.0775 21.0811 14.9648 20.8064 14.9648 20.52V19.98C14.9648 17.8317 15.8095 15.7715 17.313 14.2524C18.8166 12.7334 20.8558 11.88 22.9821 11.88C25.1084 11.88 27.1476 12.7334 28.6511 14.2524C30.1547 15.7715 30.9993 17.8317 30.9993 19.98V20.52C30.9993 20.8064 30.8867 21.0811 30.6862 21.2837C30.4858 21.4862 30.2139 21.6 29.9304 21.6Z" fill="white"/>
<path d="M16.9065 18.8601C17.5834 18.6327 18.2035 18.2431 18.7122 17.7174C19.557 16.8445 20.0267 15.6677 20.028 14.4469V14.4458C20.028 13.5342 19.7665 12.6406 19.2732 11.8777C18.7797 11.1145 18.0748 10.5145 17.2438 10.1589C16.4125 9.80309 15.4957 9.70943 14.6109 9.8913C13.7263 10.0731 12.9184 10.521 12.2874 11.1729C11.6568 11.8245 11.2309 12.6508 11.0586 13.5456C10.8864 14.4403 10.9745 15.368 11.3131 16.2128C11.6519 17.0577 12.2276 17.7851 12.9724 18.2994C13.3202 18.5395 13.6973 18.7279 14.0924 18.8605C12.785 19.1416 11.5772 19.8103 10.6245 20.7947C9.33819 22.1238 8.62109 23.9197 8.62109 25.7858V26.1908C8.62109 26.6605 8.80135 27.1172 9.13211 27.459C9.46395 27.8019 9.92112 28.0008 10.405 28.0008H20.5958C21.0797 28.0008 21.5369 27.8019 21.8687 27.459C22.1995 27.1172 22.3797 26.6605 22.3797 26.1908V25.7858C22.3797 23.9197 21.6626 22.1238 20.3763 20.7947C19.4231 19.8098 18.2146 19.141 16.9065 18.8601Z" fill="white" stroke="#36B4F1" stroke-width="2"/>
</svg>
