<svg width="40" height="40" viewBox="0 0 40 40" fill="none" xmlns="http://www.w3.org/2000/svg">
<circle cx="20" cy="20" r="20" fill="#36B4F1"/>
<g clip-path="url(#clip0_2154_57984)">
<path fill-rule="evenodd" clip-rule="evenodd" d="M29.3625 22.7577C29.3625 22.7577 31.3029 24.674 31.7829 25.5609C31.7922 25.5736 31.7995 25.5878 31.8045 25.6028C32.0001 25.9304 32.0481 26.1873 31.9521 26.3769C31.7901 26.6901 31.2417 26.8472 31.0557 26.8605H27.6261C27.3873 26.8605 26.8905 26.7981 26.2857 26.3805C25.8237 26.0577 25.3641 25.526 24.9189 25.0064C24.2541 24.2348 23.6793 23.5652 23.0973 23.5652C23.0238 23.5651 22.9508 23.5773 22.8813 23.6013C22.4409 23.7405 21.8817 24.368 21.8817 26.0396C21.8817 26.5628 21.4689 26.8605 21.1797 26.8605H19.6089C19.0737 26.8605 16.2873 26.6733 13.8165 24.0681C10.7889 20.8784 8.06971 14.48 8.04331 14.4236C7.87411 14.0096 8.22931 13.784 8.61331 13.784H12.0765C12.5409 13.784 12.6921 14.0648 12.7977 14.3168C12.9201 14.606 13.3737 15.7628 14.1177 17.0624C15.3225 19.1768 16.0629 20.0372 16.6545 20.0372C16.7657 20.0376 16.8749 20.0086 16.9713 19.9532C17.7441 19.5285 17.6001 16.7684 17.5641 16.1996C17.5641 16.0892 17.5629 14.9672 17.1669 14.4248C16.8837 14.036 16.4013 13.8848 16.1097 13.8296C16.1877 13.7168 16.3533 13.544 16.5657 13.442C17.0949 13.178 18.0513 13.1396 19.0005 13.1396H19.5273C20.5569 13.154 20.8233 13.22 21.1977 13.3148C21.9513 13.4948 21.9657 13.9832 21.8997 15.6464C21.8805 16.1216 21.8601 16.6568 21.8601 17.2868C21.8601 17.4212 21.8541 17.5712 21.8541 17.7236C21.8313 18.5768 21.8013 19.538 22.4037 19.9328C22.4818 19.9815 22.5721 20.0073 22.6641 20.0072C22.8729 20.0072 23.4981 20.0072 25.1937 17.0972C25.9377 15.812 26.5137 14.2964 26.5533 14.1824C26.5869 14.1188 26.6877 13.94 26.8101 13.868C26.8972 13.8217 26.9947 13.7986 27.0933 13.8008H31.1673C31.6113 13.8008 31.9125 13.868 31.9713 14.036C32.0697 14.3084 31.9521 15.14 30.0921 17.6552C29.7789 18.074 29.5041 18.4364 29.2629 18.7532C27.5769 20.9661 27.5769 21.0777 29.3625 22.7577Z" fill="white"/>
</g>
<defs>
<clipPath id="clip0_2154_57984">
<rect width="24" height="24" fill="white" transform="translate(8 8)"/>
</clipPath>
</defs>
</svg>
