<svg width="71" height="71" viewBox="0 0 71 71" fill="none" xmlns="http://www.w3.org/2000/svg">
<path fill-rule="evenodd" clip-rule="evenodd" d="M4.91803 0.90625C2.70889 0.90625 0.91803 2.6971 0.91803 4.90624V66.0729C0.91803 68.2821 2.70888 70.0729 4.91802 70.0729H66.0847C68.2938 70.0729 70.0847 68.2821 70.0847 66.0729V4.90625C70.0847 2.69711 68.2938 0.90625 66.0847 0.90625H4.91803ZM24.2618 25.1038C24.2618 22.7163 26.1972 20.7809 28.5847 20.7809C30.9722 20.7809 32.9076 22.7163 32.9076 25.1038V45.8538C32.9076 51.1062 37.1656 55.3642 42.418 55.3642C47.6705 55.3642 51.9284 51.1062 51.9284 45.8538V42.3954C51.9284 40.008 53.8639 38.0725 56.2514 38.0725H59.7097C61.1422 38.0725 62.3034 36.9113 62.3034 35.4788C62.3034 34.0463 61.1422 32.885 59.7097 32.885H56.2514C50.9989 32.885 46.7409 37.143 46.7409 42.3954V45.8538C46.7409 48.2413 44.8055 50.1767 42.418 50.1767C40.0305 50.1767 38.0951 48.2413 38.0951 45.8538V25.1038C38.0951 19.8513 33.8372 15.5934 28.5847 15.5934C23.3322 15.5934 19.0743 19.8513 19.0743 25.1038V28.5621C19.0743 30.9496 17.1388 32.885 14.7514 32.885H11.293C9.86054 32.885 8.69928 34.0463 8.69928 35.4788C8.69928 36.9113 9.86054 38.0725 11.293 38.0725H14.7514C20.0038 38.0725 24.2618 33.8146 24.2618 28.5621V25.1038Z" fill="#36B4F1"/>
</svg>
