<svg width="20" height="20" viewBox="0 0 20 20" fill="none" xmlns="http://www.w3.org/2000/svg">
<path d="M0.243843 7.12598C0.0642782 6.79292 -0.0189115 6.4164 0.00360997 6.03869C0.0261314 5.66098 0.153473 5.29701 0.371343 4.98765C0.727391 4.46524 1.20421 4.03645 1.76134 3.73765L8.01218 0.484314C8.62656 0.164839 9.30886 -0.00195313 10.0013 -0.00195312C10.6938 -0.00195313 11.3761 0.164839 11.9905 0.484314L18.2405 3.74015C18.7976 4.03895 19.2745 4.46774 19.6305 4.99015C19.8484 5.29951 19.9757 5.66348 19.9982 6.04119C20.0208 6.4189 19.9376 6.79542 19.758 7.12848C19.5647 7.49417 19.2747 7.79982 18.9197 8.01214C18.5648 8.22446 18.1583 8.33532 17.7447 8.33265H2.25801C1.84398 8.33523 1.43718 8.22407 1.082 8.01129C0.726819 7.7985 0.436892 7.49226 0.243843 7.12598ZM19.168 18.3326C19.168 17.8906 18.9924 17.4667 18.6799 17.1541C18.3673 16.8416 17.9434 16.666 17.5013 16.666V9.99931H15.8347V16.666H13.3347V9.99931H11.668V16.666H8.33468V9.99931H6.66801V16.666H4.16801V9.99931H2.50134V16.666C2.05932 16.666 1.63539 16.8416 1.32283 17.1541C1.01027 17.4667 0.834676 17.8906 0.834676 18.3326C0.613663 18.3326 0.401701 18.4204 0.245421 18.5767C0.0891403 18.733 0.00134295 18.945 0.00134295 19.166C0.00134295 19.387 0.0891403 19.599 0.245421 19.7552C0.401701 19.9115 0.613663 19.9993 0.834676 19.9993H19.168C19.389 19.9993 19.601 19.9115 19.7573 19.7552C19.9135 19.599 20.0013 19.387 20.0013 19.166C20.0013 18.945 19.9135 18.733 19.7573 18.5767C19.601 18.4204 19.389 18.3326 19.168 18.3326Z" fill="#D8DDE4"/>
</svg>
